%TF.GenerationSoftware,KiCad,Pcbnew,7.0.2-0*%
%TF.CreationDate,2023-05-24T11:11:30-04:00*%
%TF.ProjectId,breadboard_psu,62726561-6462-46f6-9172-645f7073752e,A*%
%TF.SameCoordinates,Original*%
%TF.FileFunction,Copper,L2,Bot*%
%TF.FilePolarity,Positive*%
%FSLAX46Y46*%
G04 Gerber Fmt 4.6, Leading zero omitted, Abs format (unit mm)*
G04 Created by KiCad (PCBNEW 7.0.2-0) date 2023-05-24 11:11:30*
%MOMM*%
%LPD*%
G01*
G04 APERTURE LIST*
G04 Aperture macros list*
%AMRoundRect*
0 Rectangle with rounded corners*
0 $1 Rounding radius*
0 $2 $3 $4 $5 $6 $7 $8 $9 X,Y pos of 4 corners*
0 Add a 4 corners polygon primitive as box body*
4,1,4,$2,$3,$4,$5,$6,$7,$8,$9,$2,$3,0*
0 Add four circle primitives for the rounded corners*
1,1,$1+$1,$2,$3*
1,1,$1+$1,$4,$5*
1,1,$1+$1,$6,$7*
1,1,$1+$1,$8,$9*
0 Add four rect primitives between the rounded corners*
20,1,$1+$1,$2,$3,$4,$5,0*
20,1,$1+$1,$4,$5,$6,$7,0*
20,1,$1+$1,$6,$7,$8,$9,0*
20,1,$1+$1,$8,$9,$2,$3,0*%
G04 Aperture macros list end*
%TA.AperFunction,ComponentPad*%
%ADD10C,2.900000*%
%TD*%
%TA.AperFunction,ConnectorPad*%
%ADD11C,5.000000*%
%TD*%
%TA.AperFunction,ComponentPad*%
%ADD12R,2.794000X5.334000*%
%TD*%
%TA.AperFunction,ComponentPad*%
%ADD13RoundRect,1.397000X0.000000X-1.270000X0.000000X-1.270000X0.000000X1.270000X0.000000X1.270000X0*%
%TD*%
%TA.AperFunction,ComponentPad*%
%ADD14RoundRect,1.397000X-1.270000X0.000000X1.270000X0.000000X1.270000X0.000000X-1.270000X0.000000X0*%
%TD*%
%TA.AperFunction,ComponentPad*%
%ADD15C,2.032000*%
%TD*%
%TA.AperFunction,HeatsinkPad*%
%ADD16C,5.500000*%
%TD*%
%TA.AperFunction,ComponentPad*%
%ADD17O,2.032000X2.032000*%
%TD*%
%TA.AperFunction,ComponentPad*%
%ADD18R,2.032000X2.032000*%
%TD*%
%TA.AperFunction,ComponentPad*%
%ADD19R,2.286000X2.286000*%
%TD*%
%TA.AperFunction,ComponentPad*%
%ADD20O,2.286000X2.286000*%
%TD*%
G04 APERTURE END LIST*
D10*
%TO.P,H4,1,1*%
%TO.N,GND*%
X133248400Y-127000000D03*
D11*
X133248400Y-127000000D03*
%TD*%
D12*
%TO.P,J1,1*%
%TO.N,Net-(SW1A-B)*%
X106124000Y-77342000D03*
D13*
%TO.P,J1,2*%
%TO.N,GND*%
X100124000Y-77342000D03*
D14*
%TO.P,J1,3,MountPin*%
X103124000Y-82042000D03*
%TD*%
D15*
%TO.P,U1,1,ADJ*%
%TO.N,Net-(U1-ADJ)*%
X114722000Y-89154000D03*
%TO.P,U1,2,VO*%
%TO.N,VCC*%
X114722000Y-91694000D03*
%TO.P,U1,3,VI*%
%TO.N,+7.5V*%
X114722000Y-94234000D03*
D16*
%TO.P,U1,4,TAB*%
%TO.N,VCC*%
X131486000Y-91694000D03*
%TD*%
D10*
%TO.P,H1,1,1*%
%TO.N,GND*%
X95910400Y-63500000D03*
D11*
X95910400Y-63500000D03*
%TD*%
D15*
%TO.P,R1,1*%
%TO.N,VCC*%
X118008400Y-105918000D03*
D17*
%TO.P,R1,2*%
%TO.N,Net-(D2-A)*%
X125628400Y-105918000D03*
%TD*%
D15*
%TO.P,R4,1*%
%TO.N,Net-(SW2A-B)*%
X118110000Y-73406000D03*
D17*
%TO.P,R4,2*%
%TO.N,GND*%
X118110000Y-81026000D03*
%TD*%
D10*
%TO.P,H3,1,1*%
%TO.N,GND*%
X133248400Y-63500000D03*
D11*
X133248400Y-63500000D03*
%TD*%
D18*
%TO.P,SW2,1,A*%
%TO.N,unconnected-(SW2A-A-Pad1)*%
X125730000Y-67310000D03*
D17*
%TO.P,SW2,2,B*%
%TO.N,Net-(SW2A-B)*%
X123190000Y-67310000D03*
%TO.P,SW2,3,C*%
%TO.N,GND*%
X120650000Y-67310000D03*
%TD*%
D19*
%TO.P,D1,1,K*%
%TO.N,+7.5V*%
X111506000Y-81026000D03*
D20*
%TO.P,D1,2,A*%
%TO.N,Net-(D1-A)*%
X111506000Y-73406000D03*
%TD*%
D18*
%TO.P,C1,1*%
%TO.N,VCC*%
X115956400Y-99822000D03*
D15*
%TO.P,C1,2*%
%TO.N,GND*%
X110956400Y-99822000D03*
%TD*%
%TO.P,R3,1*%
%TO.N,Net-(U1-ADJ)*%
X123190000Y-81026000D03*
D17*
%TO.P,R3,2*%
%TO.N,Net-(SW2A-B)*%
X123190000Y-73406000D03*
%TD*%
D15*
%TO.P,R2,1*%
%TO.N,VCC*%
X128270000Y-73406000D03*
D17*
%TO.P,R2,2*%
%TO.N,Net-(U1-ADJ)*%
X128270000Y-81026000D03*
%TD*%
D10*
%TO.P,H2,1,1*%
%TO.N,GND*%
X95910400Y-127000000D03*
D11*
X95910400Y-127000000D03*
%TD*%
D15*
%TO.P,C2,1*%
%TO.N,VCC*%
X120120400Y-99822000D03*
%TO.P,C2,2*%
%TO.N,GND*%
X125120400Y-99822000D03*
%TD*%
D18*
%TO.P,J5,1,Pin_1*%
%TO.N,+7.5V*%
X111683400Y-116352000D03*
D17*
%TO.P,J5,2,Pin_2*%
%TO.N,GND*%
X111683400Y-118892000D03*
%TD*%
D18*
%TO.P,D2,1,K*%
%TO.N,GND*%
X132553400Y-105918000D03*
D15*
%TO.P,D2,2,A*%
%TO.N,Net-(D2-A)*%
X130013400Y-105918000D03*
%TD*%
D18*
%TO.P,SW1,1,A*%
%TO.N,unconnected-(SW1A-A-Pad1)*%
X105410000Y-67310000D03*
D17*
%TO.P,SW1,2,B*%
%TO.N,Net-(SW1A-B)*%
X107950000Y-67310000D03*
%TO.P,SW1,3,C*%
%TO.N,Net-(D1-A)*%
X110490000Y-67310000D03*
%TD*%
D18*
%TO.P,J4,1,Pin_1*%
%TO.N,VCC*%
X125730000Y-116332000D03*
D17*
%TO.P,J4,2,Pin_2*%
%TO.N,GND*%
X125730000Y-118872000D03*
%TO.P,J4,3,Pin_3*%
%TO.N,VCC*%
X123190000Y-116332000D03*
%TO.P,J4,4,Pin_4*%
%TO.N,GND*%
X123190000Y-118872000D03*
%TO.P,J4,5,Pin_5*%
%TO.N,VCC*%
X120650000Y-116332000D03*
%TO.P,J4,6,Pin_6*%
%TO.N,GND*%
X120650000Y-118872000D03*
%TO.P,J4,7,Pin_7*%
%TO.N,VCC*%
X118110000Y-116332000D03*
%TO.P,J4,8,Pin_8*%
%TO.N,GND*%
X118110000Y-118872000D03*
%TD*%
D18*
%TO.P,C3,1*%
%TO.N,+7.5V*%
X109220000Y-90082380D03*
D15*
%TO.P,C3,2*%
%TO.N,GND*%
X109220000Y-87582380D03*
%TD*%
D18*
%TO.P,J3,1,Pin_1*%
%TO.N,VCC*%
X147980400Y-116332000D03*
D17*
%TO.P,J3,2,Pin_2*%
X145440400Y-116332000D03*
%TO.P,J3,3,Pin_3*%
%TO.N,GND*%
X147980400Y-118872000D03*
%TO.P,J3,4,Pin_4*%
X145440400Y-118872000D03*
%TD*%
D18*
%TO.P,J2,1,Pin_1*%
%TO.N,VCC*%
X147980400Y-71628000D03*
D17*
%TO.P,J2,2,Pin_2*%
X145440400Y-71628000D03*
%TO.P,J2,3,Pin_3*%
%TO.N,GND*%
X147980400Y-74168000D03*
%TO.P,J2,4,Pin_4*%
X145440400Y-74168000D03*
%TD*%
%TA.AperFunction,Conductor*%
%TO.N,GND*%
G36*
X120219597Y-118703079D02*
G01*
X120188929Y-118837447D01*
X120199228Y-118974886D01*
X120249581Y-119103182D01*
X120264588Y-119122000D01*
X118493592Y-119122000D01*
X118540403Y-119040921D01*
X118571071Y-118906553D01*
X118560772Y-118769114D01*
X118510419Y-118640818D01*
X118495412Y-118622000D01*
X120266408Y-118622000D01*
X120219597Y-118703079D01*
G37*
%TD.AperFunction*%
%TA.AperFunction,Conductor*%
G36*
X122759597Y-118703079D02*
G01*
X122728929Y-118837447D01*
X122739228Y-118974886D01*
X122789581Y-119103182D01*
X122804588Y-119122000D01*
X121033592Y-119122000D01*
X121080403Y-119040921D01*
X121111071Y-118906553D01*
X121100772Y-118769114D01*
X121050419Y-118640818D01*
X121035412Y-118622000D01*
X122806408Y-118622000D01*
X122759597Y-118703079D01*
G37*
%TD.AperFunction*%
%TA.AperFunction,Conductor*%
G36*
X125299597Y-118703079D02*
G01*
X125268929Y-118837447D01*
X125279228Y-118974886D01*
X125329581Y-119103182D01*
X125344588Y-119122000D01*
X123573592Y-119122000D01*
X123620403Y-119040921D01*
X123651071Y-118906553D01*
X123640772Y-118769114D01*
X123590419Y-118640818D01*
X123575412Y-118622000D01*
X125346408Y-118622000D01*
X125299597Y-118703079D01*
G37*
%TD.AperFunction*%
%TA.AperFunction,Conductor*%
G36*
X147549997Y-118703079D02*
G01*
X147519329Y-118837447D01*
X147529628Y-118974886D01*
X147579981Y-119103182D01*
X147594988Y-119122000D01*
X145823992Y-119122000D01*
X145870803Y-119040921D01*
X145901471Y-118906553D01*
X145891172Y-118769114D01*
X145840819Y-118640818D01*
X145825812Y-118622000D01*
X147596808Y-118622000D01*
X147549997Y-118703079D01*
G37*
%TD.AperFunction*%
%TA.AperFunction,Conductor*%
G36*
X147549997Y-73999079D02*
G01*
X147519329Y-74133447D01*
X147529628Y-74270886D01*
X147579981Y-74399182D01*
X147594988Y-74418000D01*
X145823992Y-74418000D01*
X145870803Y-74336921D01*
X145901471Y-74202553D01*
X145891172Y-74065114D01*
X145840819Y-73936818D01*
X145825812Y-73918000D01*
X147596808Y-73918000D01*
X147549997Y-73999079D01*
G37*
%TD.AperFunction*%
%TA.AperFunction,Conductor*%
G36*
X135793253Y-59690881D02*
G01*
X135845401Y-59694986D01*
X135985983Y-59707286D01*
X136004105Y-59710238D01*
X136082876Y-59729149D01*
X136085877Y-59729910D01*
X136191193Y-59758130D01*
X136206550Y-59763343D01*
X136234851Y-59775065D01*
X136286896Y-59796622D01*
X136291776Y-59798770D01*
X136385188Y-59842329D01*
X136397535Y-59848963D01*
X136473563Y-59895553D01*
X136479877Y-59899694D01*
X136562566Y-59957594D01*
X136571951Y-59964860D01*
X136640375Y-60023299D01*
X136647524Y-60029908D01*
X136718490Y-60100874D01*
X136725099Y-60108023D01*
X136783535Y-60176442D01*
X136790814Y-60185844D01*
X136848699Y-60268513D01*
X136852851Y-60274845D01*
X136899428Y-60350852D01*
X136906080Y-60363231D01*
X136949608Y-60456577D01*
X136951788Y-60461531D01*
X136985055Y-60541848D01*
X136990268Y-60557205D01*
X137018467Y-60662442D01*
X137019266Y-60665589D01*
X137038160Y-60744290D01*
X137041114Y-60762429D01*
X137053420Y-60903082D01*
X137057519Y-60955166D01*
X137057900Y-60964871D01*
X137057900Y-67761247D01*
X137054459Y-67772965D01*
X137057428Y-67806898D01*
X137057900Y-67817706D01*
X137057900Y-67917994D01*
X137071593Y-68004452D01*
X137070606Y-68012085D01*
X137074295Y-68025852D01*
X137076993Y-68038546D01*
X137089182Y-68115508D01*
X137121979Y-68216443D01*
X137122223Y-68224990D01*
X137127370Y-68236028D01*
X137132916Y-68250108D01*
X137140282Y-68272775D01*
X137142128Y-68279005D01*
X137151042Y-68312273D01*
X137162933Y-68329160D01*
X137205942Y-68413569D01*
X137207775Y-68423334D01*
X137214339Y-68432707D01*
X137223244Y-68447526D01*
X137241771Y-68483887D01*
X137241773Y-68483890D01*
X137246202Y-68492582D01*
X137246190Y-68492587D01*
X137250105Y-68499234D01*
X137251282Y-68501759D01*
X137264739Y-68515500D01*
X137321000Y-68592936D01*
X137324816Y-68603632D01*
X137332375Y-68611191D01*
X137345012Y-68625987D01*
X137359316Y-68645675D01*
X137365465Y-68651824D01*
X137379359Y-68668382D01*
X137381889Y-68671996D01*
X137396080Y-68682439D01*
X137463959Y-68750318D01*
X137470039Y-68761454D01*
X137478016Y-68767039D01*
X137494574Y-68780933D01*
X137500723Y-68787082D01*
X137520412Y-68801387D01*
X137535208Y-68814024D01*
X137539374Y-68818190D01*
X137553462Y-68825399D01*
X137630891Y-68881654D01*
X137639379Y-68892661D01*
X137647160Y-68896290D01*
X137653813Y-68900209D01*
X137653819Y-68900199D01*
X137698868Y-68923153D01*
X137713694Y-68932061D01*
X137719601Y-68936197D01*
X137732823Y-68940454D01*
X137817238Y-68983466D01*
X137828125Y-68993748D01*
X137867373Y-69004265D01*
X137873598Y-69006109D01*
X137896290Y-69013482D01*
X137910377Y-69019031D01*
X137918086Y-69022625D01*
X137929954Y-69024420D01*
X138030886Y-69057215D01*
X138030887Y-69057215D01*
X138030890Y-69057216D01*
X138107880Y-69069410D01*
X138120560Y-69072106D01*
X138131093Y-69074928D01*
X138141948Y-69074806D01*
X138228407Y-69088500D01*
X138228409Y-69088500D01*
X138328301Y-69088500D01*
X138328704Y-69088500D01*
X138339512Y-69088972D01*
X138368110Y-69091474D01*
X138385151Y-69088500D01*
X149245526Y-69088500D01*
X149255253Y-69088881D01*
X149307401Y-69092986D01*
X149447983Y-69105286D01*
X149466105Y-69108238D01*
X149544876Y-69127149D01*
X149547877Y-69127910D01*
X149653193Y-69156130D01*
X149668550Y-69161343D01*
X149696851Y-69173065D01*
X149748896Y-69194622D01*
X149753776Y-69196770D01*
X149847188Y-69240329D01*
X149859535Y-69246963D01*
X149935563Y-69293553D01*
X149941877Y-69297694D01*
X150024566Y-69355594D01*
X150033951Y-69362860D01*
X150102375Y-69421299D01*
X150109524Y-69427908D01*
X150180490Y-69498874D01*
X150187099Y-69506023D01*
X150245535Y-69574442D01*
X150252814Y-69583844D01*
X150310699Y-69666513D01*
X150314851Y-69672845D01*
X150361428Y-69748852D01*
X150368080Y-69761231D01*
X150411608Y-69854577D01*
X150413788Y-69859531D01*
X150447055Y-69939848D01*
X150452268Y-69955205D01*
X150480467Y-70060442D01*
X150481266Y-70063589D01*
X150500160Y-70142290D01*
X150503114Y-70160429D01*
X150515420Y-70301082D01*
X150519519Y-70353166D01*
X150519900Y-70362871D01*
X150519900Y-75433123D01*
X150519518Y-75442853D01*
X150515420Y-75494916D01*
X150503114Y-75635571D01*
X150500160Y-75653705D01*
X150481266Y-75732408D01*
X150480467Y-75735556D01*
X150452268Y-75840793D01*
X150447055Y-75856150D01*
X150413788Y-75936467D01*
X150411608Y-75941421D01*
X150368080Y-76034767D01*
X150361425Y-76047153D01*
X150314851Y-76123153D01*
X150310699Y-76129485D01*
X150252814Y-76212154D01*
X150245529Y-76221563D01*
X150187099Y-76289975D01*
X150180490Y-76297124D01*
X150109524Y-76368090D01*
X150102375Y-76374699D01*
X150033963Y-76433129D01*
X150024554Y-76440414D01*
X149941885Y-76498299D01*
X149935553Y-76502451D01*
X149859553Y-76549025D01*
X149847167Y-76555680D01*
X149753821Y-76599208D01*
X149748867Y-76601388D01*
X149668550Y-76634655D01*
X149653193Y-76639868D01*
X149547956Y-76668067D01*
X149544809Y-76668866D01*
X149466108Y-76687760D01*
X149447969Y-76690714D01*
X149307317Y-76703020D01*
X149284106Y-76704847D01*
X149255233Y-76707119D01*
X149245529Y-76707500D01*
X138385152Y-76707500D01*
X138373433Y-76704059D01*
X138339501Y-76707028D01*
X138328693Y-76707500D01*
X138328400Y-76707500D01*
X138228409Y-76707500D01*
X138182605Y-76714754D01*
X138141946Y-76721194D01*
X138134311Y-76720207D01*
X138120543Y-76723896D01*
X138107852Y-76726593D01*
X138030890Y-76738783D01*
X137929955Y-76771579D01*
X137921409Y-76771823D01*
X137910367Y-76776972D01*
X137896285Y-76782518D01*
X137873622Y-76789882D01*
X137867397Y-76791727D01*
X137834129Y-76800641D01*
X137817239Y-76812532D01*
X137732830Y-76855542D01*
X137723064Y-76857376D01*
X137713686Y-76863943D01*
X137698860Y-76872851D01*
X137653819Y-76895801D01*
X137653813Y-76895790D01*
X137647166Y-76899705D01*
X137644640Y-76900882D01*
X137630893Y-76914343D01*
X137553462Y-76970600D01*
X137542765Y-76974416D01*
X137535200Y-76981982D01*
X137520407Y-76994616D01*
X137500725Y-77008916D01*
X137494576Y-77015065D01*
X137478023Y-77028954D01*
X137474407Y-77031485D01*
X137463960Y-77045680D01*
X137396080Y-77113560D01*
X137384943Y-77119641D01*
X137379354Y-77127623D01*
X137365465Y-77144176D01*
X137359316Y-77150325D01*
X137345016Y-77170007D01*
X137332382Y-77184800D01*
X137328212Y-77188969D01*
X137321000Y-77203062D01*
X137264743Y-77280493D01*
X137253735Y-77288981D01*
X137250105Y-77296766D01*
X137246190Y-77303413D01*
X137246201Y-77303419D01*
X137223251Y-77348460D01*
X137214343Y-77363286D01*
X137210203Y-77369197D01*
X137205942Y-77382430D01*
X137162932Y-77466839D01*
X137152650Y-77477725D01*
X137142127Y-77516997D01*
X137140282Y-77523222D01*
X137132918Y-77545885D01*
X137127372Y-77559967D01*
X137123775Y-77567680D01*
X137121979Y-77579555D01*
X137089183Y-77680490D01*
X137076993Y-77757452D01*
X137074296Y-77770143D01*
X137071470Y-77780687D01*
X137071594Y-77791546D01*
X137057900Y-77878011D01*
X137057900Y-77978287D01*
X137057428Y-77989095D01*
X137054924Y-78017708D01*
X137057900Y-78034756D01*
X137057900Y-112465247D01*
X137054459Y-112476965D01*
X137057428Y-112510898D01*
X137057900Y-112521706D01*
X137057900Y-112621994D01*
X137071593Y-112708452D01*
X137070606Y-112716085D01*
X137074295Y-112729852D01*
X137076993Y-112742546D01*
X137089182Y-112819508D01*
X137121979Y-112920443D01*
X137122223Y-112928990D01*
X137127370Y-112940028D01*
X137132916Y-112954108D01*
X137140282Y-112976775D01*
X137142128Y-112983005D01*
X137151042Y-113016273D01*
X137162933Y-113033160D01*
X137205942Y-113117569D01*
X137207775Y-113127334D01*
X137214339Y-113136707D01*
X137223244Y-113151526D01*
X137241771Y-113187887D01*
X137241773Y-113187890D01*
X137246202Y-113196582D01*
X137246190Y-113196587D01*
X137250105Y-113203234D01*
X137251282Y-113205759D01*
X137264739Y-113219500D01*
X137300117Y-113268193D01*
X137321000Y-113296936D01*
X137324816Y-113307632D01*
X137332375Y-113315191D01*
X137345012Y-113329987D01*
X137359316Y-113349675D01*
X137365465Y-113355824D01*
X137379359Y-113372382D01*
X137381889Y-113375996D01*
X137396080Y-113386439D01*
X137463959Y-113454318D01*
X137470039Y-113465454D01*
X137478016Y-113471039D01*
X137494574Y-113484933D01*
X137500723Y-113491082D01*
X137520412Y-113505387D01*
X137535208Y-113518024D01*
X137539374Y-113522190D01*
X137553462Y-113529399D01*
X137630891Y-113585654D01*
X137639379Y-113596661D01*
X137647160Y-113600290D01*
X137653813Y-113604209D01*
X137653819Y-113604199D01*
X137698868Y-113627153D01*
X137713694Y-113636061D01*
X137719601Y-113640197D01*
X137732823Y-113644454D01*
X137817238Y-113687466D01*
X137828125Y-113697748D01*
X137867373Y-113708265D01*
X137873598Y-113710109D01*
X137896290Y-113717482D01*
X137910377Y-113723031D01*
X137918086Y-113726625D01*
X137929954Y-113728420D01*
X138030886Y-113761215D01*
X138030887Y-113761215D01*
X138030890Y-113761216D01*
X138107880Y-113773410D01*
X138120560Y-113776106D01*
X138131093Y-113778928D01*
X138141948Y-113778806D01*
X138228407Y-113792500D01*
X138228409Y-113792500D01*
X138328301Y-113792500D01*
X138328704Y-113792500D01*
X138339512Y-113792972D01*
X138368110Y-113795474D01*
X138385151Y-113792500D01*
X149245526Y-113792500D01*
X149255253Y-113792881D01*
X149307401Y-113796986D01*
X149447983Y-113809286D01*
X149466105Y-113812238D01*
X149544876Y-113831149D01*
X149547877Y-113831910D01*
X149653193Y-113860130D01*
X149668550Y-113865343D01*
X149696851Y-113877065D01*
X149748896Y-113898622D01*
X149753776Y-113900770D01*
X149847188Y-113944329D01*
X149859535Y-113950963D01*
X149935563Y-113997553D01*
X149941877Y-114001694D01*
X150024566Y-114059594D01*
X150033951Y-114066860D01*
X150102375Y-114125299D01*
X150109524Y-114131908D01*
X150180490Y-114202874D01*
X150187099Y-114210023D01*
X150245535Y-114278442D01*
X150252814Y-114287844D01*
X150310699Y-114370513D01*
X150314851Y-114376845D01*
X150361428Y-114452852D01*
X150368080Y-114465231D01*
X150411608Y-114558577D01*
X150413788Y-114563531D01*
X150447055Y-114643848D01*
X150452268Y-114659205D01*
X150480467Y-114764442D01*
X150481266Y-114767589D01*
X150500160Y-114846290D01*
X150503114Y-114864429D01*
X150515420Y-115005082D01*
X150519519Y-115057166D01*
X150519900Y-115066871D01*
X150519900Y-120137123D01*
X150519518Y-120146853D01*
X150515420Y-120198916D01*
X150503114Y-120339571D01*
X150500160Y-120357705D01*
X150481266Y-120436408D01*
X150480467Y-120439556D01*
X150452268Y-120544793D01*
X150447055Y-120560150D01*
X150413788Y-120640467D01*
X150411608Y-120645421D01*
X150368080Y-120738767D01*
X150361425Y-120751153D01*
X150314851Y-120827153D01*
X150310699Y-120833485D01*
X150252814Y-120916154D01*
X150245529Y-120925563D01*
X150187099Y-120993975D01*
X150180490Y-121001124D01*
X150109524Y-121072090D01*
X150102375Y-121078699D01*
X150033963Y-121137129D01*
X150024554Y-121144414D01*
X149941885Y-121202299D01*
X149935553Y-121206451D01*
X149859553Y-121253025D01*
X149847167Y-121259680D01*
X149753821Y-121303208D01*
X149748867Y-121305388D01*
X149668550Y-121338655D01*
X149653193Y-121343868D01*
X149547956Y-121372067D01*
X149544809Y-121372866D01*
X149466108Y-121391760D01*
X149447969Y-121394714D01*
X149307317Y-121407020D01*
X149284106Y-121408847D01*
X149255233Y-121411119D01*
X149245529Y-121411500D01*
X138385152Y-121411500D01*
X138373433Y-121408059D01*
X138339501Y-121411028D01*
X138328693Y-121411500D01*
X138328400Y-121411500D01*
X138228409Y-121411500D01*
X138182605Y-121418754D01*
X138141946Y-121425194D01*
X138134311Y-121424207D01*
X138120543Y-121427896D01*
X138107852Y-121430593D01*
X138030890Y-121442783D01*
X137929955Y-121475579D01*
X137921409Y-121475823D01*
X137910367Y-121480972D01*
X137896285Y-121486518D01*
X137873622Y-121493882D01*
X137867397Y-121495727D01*
X137834129Y-121504641D01*
X137817239Y-121516532D01*
X137732830Y-121559542D01*
X137723064Y-121561376D01*
X137713686Y-121567943D01*
X137698860Y-121576851D01*
X137653819Y-121599801D01*
X137653813Y-121599790D01*
X137647166Y-121603705D01*
X137644640Y-121604882D01*
X137630893Y-121618343D01*
X137553462Y-121674600D01*
X137542765Y-121678416D01*
X137535200Y-121685982D01*
X137520407Y-121698616D01*
X137500725Y-121712916D01*
X137494576Y-121719065D01*
X137478023Y-121732954D01*
X137474407Y-121735485D01*
X137463960Y-121749680D01*
X137396080Y-121817560D01*
X137384943Y-121823641D01*
X137379354Y-121831623D01*
X137365465Y-121848176D01*
X137359316Y-121854325D01*
X137345016Y-121874007D01*
X137332382Y-121888800D01*
X137328212Y-121892969D01*
X137321000Y-121907062D01*
X137264743Y-121984493D01*
X137253735Y-121992981D01*
X137250105Y-122000766D01*
X137246190Y-122007413D01*
X137246201Y-122007419D01*
X137223251Y-122052460D01*
X137214343Y-122067286D01*
X137210203Y-122073197D01*
X137205942Y-122086430D01*
X137162932Y-122170839D01*
X137152650Y-122181725D01*
X137142127Y-122220997D01*
X137140282Y-122227222D01*
X137132918Y-122249885D01*
X137127372Y-122263967D01*
X137123775Y-122271680D01*
X137121979Y-122283555D01*
X137089183Y-122384490D01*
X137076993Y-122461452D01*
X137074296Y-122474143D01*
X137071470Y-122484687D01*
X137071594Y-122495546D01*
X137057900Y-122582011D01*
X137057900Y-122682287D01*
X137057428Y-122693095D01*
X137054924Y-122721708D01*
X137057900Y-122738756D01*
X137057900Y-129535123D01*
X137057518Y-129544853D01*
X137053420Y-129596916D01*
X137041114Y-129737571D01*
X137038160Y-129755705D01*
X137019266Y-129834408D01*
X137018467Y-129837556D01*
X136990268Y-129942793D01*
X136985055Y-129958150D01*
X136951788Y-130038467D01*
X136949608Y-130043421D01*
X136906080Y-130136767D01*
X136899425Y-130149153D01*
X136852851Y-130225153D01*
X136848699Y-130231485D01*
X136790814Y-130314154D01*
X136783529Y-130323563D01*
X136725099Y-130391975D01*
X136718490Y-130399124D01*
X136647524Y-130470090D01*
X136640375Y-130476699D01*
X136571963Y-130535129D01*
X136562554Y-130542414D01*
X136479885Y-130600299D01*
X136473553Y-130604451D01*
X136397553Y-130651025D01*
X136385167Y-130657680D01*
X136291821Y-130701208D01*
X136286867Y-130703388D01*
X136206550Y-130736655D01*
X136191193Y-130741868D01*
X136085956Y-130770067D01*
X136082809Y-130770866D01*
X136004108Y-130789760D01*
X135985969Y-130792714D01*
X135845317Y-130805020D01*
X135822106Y-130806847D01*
X135793233Y-130809119D01*
X135783529Y-130809500D01*
X93375277Y-130809500D01*
X93365547Y-130809118D01*
X93313483Y-130805020D01*
X93172827Y-130792714D01*
X93154693Y-130789760D01*
X93075990Y-130770866D01*
X93072842Y-130770067D01*
X92967605Y-130741868D01*
X92952248Y-130736655D01*
X92871931Y-130703388D01*
X92866977Y-130701208D01*
X92773624Y-130657676D01*
X92761252Y-130651028D01*
X92713954Y-130622044D01*
X92685245Y-130604451D01*
X92678913Y-130600299D01*
X92644024Y-130575869D01*
X92596239Y-130542410D01*
X92586842Y-130535135D01*
X92518423Y-130476699D01*
X92511274Y-130470090D01*
X92440308Y-130399124D01*
X92433699Y-130391975D01*
X92412945Y-130367675D01*
X92375260Y-130323551D01*
X92367994Y-130314166D01*
X92310094Y-130231477D01*
X92305947Y-130225153D01*
X92259363Y-130149135D01*
X92252729Y-130136788D01*
X92209170Y-130043376D01*
X92207022Y-130038496D01*
X92173743Y-129958150D01*
X92168530Y-129942793D01*
X92151616Y-129879670D01*
X92140310Y-129837476D01*
X92139553Y-129834494D01*
X92120636Y-129755698D01*
X92117685Y-129737579D01*
X92105379Y-129596916D01*
X92101280Y-129544833D01*
X92100900Y-129535131D01*
X92100900Y-127003605D01*
X92905526Y-127003605D01*
X92925424Y-127345255D01*
X92926263Y-127352434D01*
X92985690Y-127689462D01*
X92987352Y-127696475D01*
X93085513Y-128024353D01*
X93087970Y-128031102D01*
X93223530Y-128345368D01*
X93226763Y-128351804D01*
X93397880Y-128648189D01*
X93401848Y-128654221D01*
X93606216Y-128928735D01*
X93610848Y-128934256D01*
X93616548Y-128940297D01*
X93616548Y-128940298D01*
X94864065Y-127692781D01*
X95003255Y-127867320D01*
X95172699Y-128015358D01*
X95220208Y-128043743D01*
X93973217Y-129290733D01*
X93973218Y-129290734D01*
X94113115Y-129408122D01*
X94118902Y-129412430D01*
X94404841Y-129600494D01*
X94411091Y-129604102D01*
X94716909Y-129757691D01*
X94723548Y-129760554D01*
X95045142Y-129877605D01*
X95052039Y-129879670D01*
X95385066Y-129958599D01*
X95392150Y-129959848D01*
X95732099Y-129999582D01*
X95739268Y-130000000D01*
X96081532Y-130000000D01*
X96088700Y-129999582D01*
X96428649Y-129959848D01*
X96435733Y-129958599D01*
X96768760Y-129879670D01*
X96775657Y-129877605D01*
X97097251Y-129760554D01*
X97103890Y-129757691D01*
X97409708Y-129604102D01*
X97415958Y-129600494D01*
X97701909Y-129412422D01*
X97707668Y-129408135D01*
X97847580Y-129290734D01*
X97847581Y-129290733D01*
X96600525Y-128043678D01*
X96736147Y-127945144D01*
X96891639Y-127782512D01*
X96953201Y-127689249D01*
X98204251Y-128940298D01*
X98209945Y-128934262D01*
X98214583Y-128928735D01*
X98418951Y-128654221D01*
X98422919Y-128648189D01*
X98594036Y-128351804D01*
X98597269Y-128345368D01*
X98732829Y-128031102D01*
X98735286Y-128024353D01*
X98833447Y-127696475D01*
X98835109Y-127689462D01*
X98894536Y-127352434D01*
X98895375Y-127345255D01*
X98915274Y-127003605D01*
X130243526Y-127003605D01*
X130263424Y-127345255D01*
X130264263Y-127352434D01*
X130323690Y-127689462D01*
X130325352Y-127696475D01*
X130423513Y-128024353D01*
X130425970Y-128031102D01*
X130561530Y-128345368D01*
X130564763Y-128351804D01*
X130735880Y-128648189D01*
X130739848Y-128654221D01*
X130944216Y-128928735D01*
X130948848Y-128934256D01*
X130954548Y-128940297D01*
X130954549Y-128940298D01*
X132202065Y-127692781D01*
X132341255Y-127867320D01*
X132510699Y-128015358D01*
X132558208Y-128043743D01*
X131311217Y-129290733D01*
X131311218Y-129290734D01*
X131451115Y-129408122D01*
X131456902Y-129412430D01*
X131742841Y-129600494D01*
X131749091Y-129604102D01*
X132054909Y-129757691D01*
X132061548Y-129760554D01*
X132383142Y-129877605D01*
X132390039Y-129879670D01*
X132723066Y-129958599D01*
X132730150Y-129959848D01*
X133070099Y-129999582D01*
X133077268Y-130000000D01*
X133419532Y-130000000D01*
X133426700Y-129999582D01*
X133766649Y-129959848D01*
X133773733Y-129958599D01*
X134106760Y-129879670D01*
X134113657Y-129877605D01*
X134435251Y-129760554D01*
X134441890Y-129757691D01*
X134747708Y-129604102D01*
X134753958Y-129600494D01*
X135039909Y-129412422D01*
X135045668Y-129408135D01*
X135185580Y-129290734D01*
X135185581Y-129290733D01*
X133938525Y-128043678D01*
X134074147Y-127945144D01*
X134229639Y-127782512D01*
X134291201Y-127689248D01*
X135542251Y-128940298D01*
X135547945Y-128934262D01*
X135552583Y-128928735D01*
X135756951Y-128654221D01*
X135760919Y-128648189D01*
X135932036Y-128351804D01*
X135935269Y-128345368D01*
X136070829Y-128031102D01*
X136073286Y-128024353D01*
X136171447Y-127696475D01*
X136173109Y-127689462D01*
X136232536Y-127352434D01*
X136233375Y-127345255D01*
X136253274Y-127003605D01*
X136253274Y-126996394D01*
X136233375Y-126654744D01*
X136232536Y-126647565D01*
X136173109Y-126310537D01*
X136171447Y-126303524D01*
X136073286Y-125975646D01*
X136070829Y-125968897D01*
X135935269Y-125654631D01*
X135932036Y-125648195D01*
X135760919Y-125351810D01*
X135756951Y-125345778D01*
X135552583Y-125071264D01*
X135547951Y-125065743D01*
X135542250Y-125059701D01*
X135542250Y-125059700D01*
X134294733Y-126307217D01*
X134155545Y-126132680D01*
X133986101Y-125984642D01*
X133938591Y-125956255D01*
X135185580Y-124709265D01*
X135045660Y-124591858D01*
X135039907Y-124587575D01*
X134753958Y-124399505D01*
X134747708Y-124395897D01*
X134441890Y-124242308D01*
X134435251Y-124239445D01*
X134113657Y-124122394D01*
X134106760Y-124120329D01*
X133773733Y-124041400D01*
X133766649Y-124040151D01*
X133426700Y-124000417D01*
X133419532Y-124000000D01*
X133077268Y-124000000D01*
X133070099Y-124000417D01*
X132730150Y-124040151D01*
X132723066Y-124041400D01*
X132390039Y-124120329D01*
X132383142Y-124122394D01*
X132061548Y-124239445D01*
X132054909Y-124242308D01*
X131749091Y-124395897D01*
X131742841Y-124399505D01*
X131456892Y-124587575D01*
X131451130Y-124591865D01*
X131311217Y-124709264D01*
X132558274Y-125956321D01*
X132422653Y-126054856D01*
X132267161Y-126217488D01*
X132205598Y-126310751D01*
X130954548Y-125059701D01*
X130954547Y-125059701D01*
X130948842Y-125065749D01*
X130944220Y-125071258D01*
X130739848Y-125345778D01*
X130735880Y-125351810D01*
X130564763Y-125648195D01*
X130561530Y-125654631D01*
X130425970Y-125968897D01*
X130423513Y-125975646D01*
X130325352Y-126303524D01*
X130323690Y-126310537D01*
X130264263Y-126647565D01*
X130263424Y-126654744D01*
X130243526Y-126996394D01*
X130243526Y-127003605D01*
X98915274Y-127003605D01*
X98915274Y-126996394D01*
X98895375Y-126654744D01*
X98894536Y-126647565D01*
X98835109Y-126310537D01*
X98833447Y-126303524D01*
X98735286Y-125975646D01*
X98732829Y-125968897D01*
X98597269Y-125654631D01*
X98594036Y-125648195D01*
X98422919Y-125351810D01*
X98418951Y-125345778D01*
X98214583Y-125071264D01*
X98209951Y-125065743D01*
X98204250Y-125059701D01*
X98204250Y-125059700D01*
X96956733Y-126307217D01*
X96817545Y-126132680D01*
X96648101Y-125984642D01*
X96600590Y-125956255D01*
X97847580Y-124709266D01*
X97707660Y-124591858D01*
X97701907Y-124587575D01*
X97415958Y-124399505D01*
X97409708Y-124395897D01*
X97103890Y-124242308D01*
X97097251Y-124239445D01*
X96775657Y-124122394D01*
X96768760Y-124120329D01*
X96435733Y-124041400D01*
X96428649Y-124040151D01*
X96088700Y-124000417D01*
X96081532Y-124000000D01*
X95739268Y-124000000D01*
X95732099Y-124000417D01*
X95392150Y-124040151D01*
X95385066Y-124041400D01*
X95052039Y-124120329D01*
X95045142Y-124122394D01*
X94723548Y-124239445D01*
X94716909Y-124242308D01*
X94411091Y-124395897D01*
X94404841Y-124399505D01*
X94118892Y-124587575D01*
X94113130Y-124591865D01*
X93973217Y-124709264D01*
X93973217Y-124709265D01*
X95220273Y-125956322D01*
X95084653Y-126054856D01*
X94929161Y-126217488D01*
X94867598Y-126310750D01*
X93616548Y-125059701D01*
X93616547Y-125059701D01*
X93610842Y-125065749D01*
X93606220Y-125071258D01*
X93401848Y-125345778D01*
X93397880Y-125351810D01*
X93226763Y-125648195D01*
X93223530Y-125654631D01*
X93087970Y-125968897D01*
X93085513Y-125975646D01*
X92987352Y-126303524D01*
X92985690Y-126310537D01*
X92926263Y-126647565D01*
X92925424Y-126654744D01*
X92905526Y-126996394D01*
X92905526Y-127003605D01*
X92100900Y-127003605D01*
X92100900Y-117412578D01*
X110166900Y-117412578D01*
X110166901Y-117415872D01*
X110167253Y-117419152D01*
X110167254Y-117419159D01*
X110171159Y-117455483D01*
X110173309Y-117475483D01*
X110223604Y-117610331D01*
X110309854Y-117725546D01*
X110425069Y-117811796D01*
X110425070Y-117811796D01*
X110433424Y-117818050D01*
X110475296Y-117873983D01*
X110480280Y-117943675D01*
X110457579Y-117989438D01*
X110458237Y-117989841D01*
X110453738Y-117997182D01*
X110453413Y-117997838D01*
X110453141Y-117998155D01*
X110328458Y-118201620D01*
X110237139Y-118422081D01*
X110184342Y-118641999D01*
X110184342Y-118642000D01*
X111299808Y-118642000D01*
X111252997Y-118723079D01*
X111222329Y-118857447D01*
X111232628Y-118994886D01*
X111282981Y-119123182D01*
X111297988Y-119142000D01*
X110184342Y-119142000D01*
X110237139Y-119361918D01*
X110328458Y-119582379D01*
X110453137Y-119785836D01*
X110608111Y-119967288D01*
X110789563Y-120122262D01*
X110993020Y-120246941D01*
X111213481Y-120338260D01*
X111433399Y-120391057D01*
X111433400Y-120391057D01*
X111433400Y-119274903D01*
X111482788Y-119308576D01*
X111614488Y-119349200D01*
X111717660Y-119349200D01*
X111819684Y-119333822D01*
X111933400Y-119279059D01*
X111933400Y-120391057D01*
X112153318Y-120338260D01*
X112373779Y-120246941D01*
X112577236Y-120122262D01*
X112758688Y-119967288D01*
X112913662Y-119785836D01*
X113038341Y-119582379D01*
X113129660Y-119361918D01*
X113182458Y-119142000D01*
X112066992Y-119142000D01*
X112113803Y-119060921D01*
X112144471Y-118926553D01*
X112134172Y-118789114D01*
X112083819Y-118660818D01*
X112068812Y-118642000D01*
X113182458Y-118642000D01*
X113182457Y-118641999D01*
X113129660Y-118422081D01*
X113038341Y-118201620D01*
X112913663Y-117998163D01*
X112913397Y-117997852D01*
X112913192Y-117997395D01*
X112908563Y-117989841D01*
X112909539Y-117989242D01*
X112884825Y-117934092D01*
X112895260Y-117865006D01*
X112933374Y-117818051D01*
X112941728Y-117811797D01*
X112941731Y-117811796D01*
X113056946Y-117725546D01*
X113143196Y-117610331D01*
X113193491Y-117475483D01*
X113199900Y-117415873D01*
X113199899Y-116332000D01*
X116588811Y-116332000D01*
X116607539Y-116569967D01*
X116663262Y-116802073D01*
X116754609Y-117022601D01*
X116879334Y-117226135D01*
X116940873Y-117298188D01*
X117034357Y-117407643D01*
X117151905Y-117508039D01*
X117190098Y-117566545D01*
X117190596Y-117636413D01*
X117153243Y-117695459D01*
X117151905Y-117696618D01*
X117034711Y-117796711D01*
X116879737Y-117978163D01*
X116755058Y-118181620D01*
X116663739Y-118402081D01*
X116610942Y-118621999D01*
X116610942Y-118622000D01*
X117726408Y-118622000D01*
X117679597Y-118703079D01*
X117648929Y-118837447D01*
X117659228Y-118974886D01*
X117709581Y-119103182D01*
X117724588Y-119122000D01*
X116610942Y-119122000D01*
X116663739Y-119341918D01*
X116755058Y-119562379D01*
X116879737Y-119765836D01*
X117034711Y-119947288D01*
X117216163Y-120102262D01*
X117419620Y-120226941D01*
X117640081Y-120318260D01*
X117859999Y-120371057D01*
X117860000Y-120371057D01*
X117860000Y-119254903D01*
X117909388Y-119288576D01*
X118041088Y-119329200D01*
X118144260Y-119329200D01*
X118246284Y-119313822D01*
X118360000Y-119259059D01*
X118360000Y-120371057D01*
X118579918Y-120318260D01*
X118800379Y-120226941D01*
X119003836Y-120102262D01*
X119185287Y-119947289D01*
X119285708Y-119829711D01*
X119344215Y-119791518D01*
X119414083Y-119791018D01*
X119473129Y-119828372D01*
X119474289Y-119829710D01*
X119574711Y-119947288D01*
X119756163Y-120102262D01*
X119959620Y-120226941D01*
X120180081Y-120318260D01*
X120399998Y-120371057D01*
X120399999Y-120371057D01*
X120399999Y-119254903D01*
X120449388Y-119288576D01*
X120581088Y-119329200D01*
X120684260Y-119329200D01*
X120786284Y-119313822D01*
X120900000Y-119259059D01*
X120900000Y-120371057D01*
X121119918Y-120318260D01*
X121340379Y-120226941D01*
X121543836Y-120102262D01*
X121725291Y-119947285D01*
X121825710Y-119829711D01*
X121884216Y-119791517D01*
X121954084Y-119791018D01*
X122013131Y-119828372D01*
X122014290Y-119829711D01*
X122114708Y-119947285D01*
X122296163Y-120102262D01*
X122499620Y-120226941D01*
X122720081Y-120318260D01*
X122939999Y-120371057D01*
X122940000Y-120371057D01*
X122940000Y-119254903D01*
X122989388Y-119288576D01*
X123121088Y-119329200D01*
X123224260Y-119329200D01*
X123326284Y-119313822D01*
X123440000Y-119259059D01*
X123440000Y-120371057D01*
X123659918Y-120318260D01*
X123880379Y-120226941D01*
X124083836Y-120102262D01*
X124265291Y-119947285D01*
X124365710Y-119829711D01*
X124424216Y-119791517D01*
X124494084Y-119791018D01*
X124553131Y-119828372D01*
X124554290Y-119829711D01*
X124654708Y-119947285D01*
X124836163Y-120102262D01*
X125039620Y-120226941D01*
X125260081Y-120318260D01*
X125479999Y-120371057D01*
X125480000Y-120371057D01*
X125480000Y-119254903D01*
X125529388Y-119288576D01*
X125661088Y-119329200D01*
X125764260Y-119329200D01*
X125866284Y-119313822D01*
X125980000Y-119259059D01*
X125980000Y-120371057D01*
X126199918Y-120318260D01*
X126420379Y-120226941D01*
X126623836Y-120102262D01*
X126805288Y-119947288D01*
X126960262Y-119765836D01*
X127084941Y-119562379D01*
X127176260Y-119341918D01*
X127229058Y-119122000D01*
X126113592Y-119122000D01*
X126160403Y-119040921D01*
X126191071Y-118906553D01*
X126180772Y-118769114D01*
X126130419Y-118640818D01*
X126115412Y-118622000D01*
X127229058Y-118622000D01*
X127229057Y-118621999D01*
X127176260Y-118402081D01*
X127084941Y-118181620D01*
X126960263Y-117978163D01*
X126959997Y-117977852D01*
X126959792Y-117977395D01*
X126955163Y-117969841D01*
X126956139Y-117969242D01*
X126931425Y-117914092D01*
X126941860Y-117845006D01*
X126979974Y-117798051D01*
X126988328Y-117791797D01*
X126988331Y-117791796D01*
X127103546Y-117705546D01*
X127189796Y-117590331D01*
X127240091Y-117455483D01*
X127246500Y-117395873D01*
X127246499Y-116331999D01*
X143919211Y-116331999D01*
X143937939Y-116569967D01*
X143993662Y-116802073D01*
X144085009Y-117022601D01*
X144209734Y-117226135D01*
X144271273Y-117298188D01*
X144364757Y-117407643D01*
X144482305Y-117508039D01*
X144520498Y-117566545D01*
X144520996Y-117636413D01*
X144483643Y-117695459D01*
X144482305Y-117696618D01*
X144365111Y-117796711D01*
X144210137Y-117978163D01*
X144085458Y-118181620D01*
X143994139Y-118402081D01*
X143941342Y-118621999D01*
X143941342Y-118622000D01*
X145056808Y-118622000D01*
X145009997Y-118703079D01*
X144979329Y-118837447D01*
X144989628Y-118974886D01*
X145039981Y-119103182D01*
X145054988Y-119122000D01*
X143941342Y-119122000D01*
X143994139Y-119341918D01*
X144085458Y-119562379D01*
X144210137Y-119765836D01*
X144365111Y-119947288D01*
X144546563Y-120102262D01*
X144750020Y-120226941D01*
X144970481Y-120318260D01*
X145190399Y-120371057D01*
X145190400Y-120371057D01*
X145190400Y-119254903D01*
X145239788Y-119288576D01*
X145371488Y-119329200D01*
X145474660Y-119329200D01*
X145576684Y-119313822D01*
X145690400Y-119259059D01*
X145690400Y-120371057D01*
X145910318Y-120318260D01*
X146130779Y-120226941D01*
X146334236Y-120102262D01*
X146515691Y-119947285D01*
X146616110Y-119829711D01*
X146674616Y-119791517D01*
X146744484Y-119791018D01*
X146803531Y-119828372D01*
X146804690Y-119829711D01*
X146905108Y-119947285D01*
X147086563Y-120102262D01*
X147290020Y-120226941D01*
X147510481Y-120318260D01*
X147730400Y-120371057D01*
X147730400Y-119254903D01*
X147779788Y-119288576D01*
X147911488Y-119329200D01*
X148014660Y-119329200D01*
X148116684Y-119313822D01*
X148230400Y-119259059D01*
X148230400Y-120371057D01*
X148450318Y-120318260D01*
X148670779Y-120226941D01*
X148874236Y-120102262D01*
X149055688Y-119947288D01*
X149210662Y-119765836D01*
X149335341Y-119562379D01*
X149426660Y-119341918D01*
X149479458Y-119122000D01*
X148363992Y-119122000D01*
X148410803Y-119040921D01*
X148441471Y-118906553D01*
X148431172Y-118769114D01*
X148380819Y-118640818D01*
X148365812Y-118622000D01*
X149479458Y-118622000D01*
X149479457Y-118621999D01*
X149426660Y-118402081D01*
X149335341Y-118181620D01*
X149210663Y-117978163D01*
X149210397Y-117977852D01*
X149210192Y-117977395D01*
X149205563Y-117969841D01*
X149206539Y-117969242D01*
X149181825Y-117914092D01*
X149192260Y-117845006D01*
X149230374Y-117798051D01*
X149238728Y-117791797D01*
X149238731Y-117791796D01*
X149353946Y-117705546D01*
X149440196Y-117590331D01*
X149490491Y-117455483D01*
X149496900Y-117395873D01*
X149496899Y-115268128D01*
X149490491Y-115208517D01*
X149440196Y-115073669D01*
X149353946Y-114958454D01*
X149238731Y-114872204D01*
X149103883Y-114821909D01*
X149044273Y-114815500D01*
X149040950Y-114815500D01*
X146919839Y-114815500D01*
X146919820Y-114815500D01*
X146916528Y-114815501D01*
X146913248Y-114815853D01*
X146913240Y-114815854D01*
X146856915Y-114821909D01*
X146722069Y-114872204D01*
X146606853Y-114958454D01*
X146514649Y-115081624D01*
X146458715Y-115123495D01*
X146389023Y-115128479D01*
X146343255Y-115105774D01*
X146342853Y-115106432D01*
X146335511Y-115101933D01*
X146334856Y-115101608D01*
X146334538Y-115101336D01*
X146334533Y-115101333D01*
X146334532Y-115101332D01*
X146131005Y-114976611D01*
X146131002Y-114976610D01*
X146131001Y-114976609D01*
X145910473Y-114885262D01*
X145678367Y-114829539D01*
X145440400Y-114810811D01*
X145202432Y-114829539D01*
X144970326Y-114885262D01*
X144749798Y-114976609D01*
X144546264Y-115101334D01*
X144364757Y-115256357D01*
X144209734Y-115437864D01*
X144085009Y-115641398D01*
X143993662Y-115861926D01*
X143937939Y-116094032D01*
X143919211Y-116331999D01*
X127246499Y-116331999D01*
X127246499Y-115268128D01*
X127240091Y-115208517D01*
X127189796Y-115073669D01*
X127103546Y-114958454D01*
X126988331Y-114872204D01*
X126853483Y-114821909D01*
X126793873Y-114815500D01*
X126790550Y-114815500D01*
X124669439Y-114815500D01*
X124669420Y-114815500D01*
X124666128Y-114815501D01*
X124662848Y-114815853D01*
X124662840Y-114815854D01*
X124606515Y-114821909D01*
X124471669Y-114872204D01*
X124356453Y-114958454D01*
X124264249Y-115081624D01*
X124208315Y-115123495D01*
X124138623Y-115128479D01*
X124092855Y-115105774D01*
X124092453Y-115106432D01*
X124085111Y-115101933D01*
X124084456Y-115101608D01*
X124084138Y-115101336D01*
X124084133Y-115101333D01*
X124084132Y-115101332D01*
X123880605Y-114976611D01*
X123880602Y-114976610D01*
X123880601Y-114976609D01*
X123660073Y-114885262D01*
X123427967Y-114829539D01*
X123308982Y-114820175D01*
X123190000Y-114810811D01*
X123189999Y-114810811D01*
X122952032Y-114829539D01*
X122719926Y-114885262D01*
X122499398Y-114976609D01*
X122295864Y-115101334D01*
X122114357Y-115256357D01*
X122014290Y-115373520D01*
X121955783Y-115411713D01*
X121885915Y-115412211D01*
X121826869Y-115374857D01*
X121825710Y-115373520D01*
X121755614Y-115291449D01*
X121725643Y-115256357D01*
X121570082Y-115123495D01*
X121544135Y-115101334D01*
X121498990Y-115073669D01*
X121340605Y-114976611D01*
X121340602Y-114976610D01*
X121340601Y-114976609D01*
X121120073Y-114885262D01*
X120887967Y-114829539D01*
X120650000Y-114810811D01*
X120412032Y-114829539D01*
X120179926Y-114885262D01*
X119959398Y-114976609D01*
X119755864Y-115101334D01*
X119574357Y-115256357D01*
X119474290Y-115373520D01*
X119415783Y-115411713D01*
X119345915Y-115412211D01*
X119286869Y-115374857D01*
X119285710Y-115373520D01*
X119215614Y-115291449D01*
X119185643Y-115256357D01*
X119030082Y-115123495D01*
X119004135Y-115101334D01*
X118958990Y-115073669D01*
X118800605Y-114976611D01*
X118800602Y-114976610D01*
X118800601Y-114976609D01*
X118580073Y-114885262D01*
X118347967Y-114829539D01*
X118228982Y-114820175D01*
X118110000Y-114810811D01*
X118109999Y-114810811D01*
X117872032Y-114829539D01*
X117639926Y-114885262D01*
X117419398Y-114976609D01*
X117215864Y-115101334D01*
X117034357Y-115256357D01*
X116879334Y-115437864D01*
X116754609Y-115641398D01*
X116663262Y-115861926D01*
X116607539Y-116094032D01*
X116588811Y-116332000D01*
X113199899Y-116332000D01*
X113199899Y-115288128D01*
X113193491Y-115228517D01*
X113143196Y-115093669D01*
X113056946Y-114978454D01*
X112941731Y-114892204D01*
X112806883Y-114841909D01*
X112747273Y-114835500D01*
X112743950Y-114835500D01*
X110622839Y-114835500D01*
X110622820Y-114835500D01*
X110619528Y-114835501D01*
X110616248Y-114835853D01*
X110616240Y-114835854D01*
X110559915Y-114841909D01*
X110425069Y-114892204D01*
X110309854Y-114978454D01*
X110223604Y-115093668D01*
X110173310Y-115228515D01*
X110173309Y-115228517D01*
X110166900Y-115288127D01*
X110166900Y-115291448D01*
X110166900Y-115291449D01*
X110166900Y-117412560D01*
X110166900Y-117412578D01*
X92100900Y-117412578D01*
X92100900Y-105917999D01*
X116487211Y-105917999D01*
X116505939Y-106155967D01*
X116561662Y-106388073D01*
X116653009Y-106608601D01*
X116777734Y-106812135D01*
X116839273Y-106884188D01*
X116932757Y-106993643D01*
X117060910Y-107103096D01*
X117113573Y-107148075D01*
X117114268Y-107148668D01*
X117317795Y-107273389D01*
X117399262Y-107307134D01*
X117538326Y-107364737D01*
X117590872Y-107377352D01*
X117770434Y-107420461D01*
X118008400Y-107439189D01*
X118246366Y-107420461D01*
X118478473Y-107364737D01*
X118699005Y-107273389D01*
X118902532Y-107148668D01*
X119084043Y-106993643D01*
X119239068Y-106812132D01*
X119363789Y-106608605D01*
X119455137Y-106388073D01*
X119510861Y-106155966D01*
X119529589Y-105918000D01*
X119529589Y-105917999D01*
X124107211Y-105917999D01*
X124125939Y-106155967D01*
X124181662Y-106388073D01*
X124273009Y-106608601D01*
X124397734Y-106812135D01*
X124459273Y-106884188D01*
X124552757Y-106993643D01*
X124680910Y-107103096D01*
X124733573Y-107148075D01*
X124734268Y-107148668D01*
X124937795Y-107273389D01*
X125019262Y-107307134D01*
X125158326Y-107364737D01*
X125210872Y-107377352D01*
X125390434Y-107420461D01*
X125628400Y-107439189D01*
X125866366Y-107420461D01*
X126098473Y-107364737D01*
X126319005Y-107273389D01*
X126522532Y-107148668D01*
X126704043Y-106993643D01*
X126859068Y-106812132D01*
X126983789Y-106608605D01*
X127075137Y-106388073D01*
X127130861Y-106155966D01*
X127149589Y-105918000D01*
X127149589Y-105917999D01*
X128492211Y-105917999D01*
X128510939Y-106155967D01*
X128566662Y-106388073D01*
X128658009Y-106608601D01*
X128782734Y-106812135D01*
X128844273Y-106884188D01*
X128937757Y-106993643D01*
X129065910Y-107103096D01*
X129118573Y-107148075D01*
X129119268Y-107148668D01*
X129322795Y-107273389D01*
X129404262Y-107307134D01*
X129543326Y-107364737D01*
X129595872Y-107377352D01*
X129775434Y-107420461D01*
X130013400Y-107439189D01*
X130251366Y-107420461D01*
X130483473Y-107364737D01*
X130704005Y-107273389D01*
X130907532Y-107148668D01*
X130908226Y-107148074D01*
X130909239Y-107147620D01*
X130915853Y-107143568D01*
X130916376Y-107144422D01*
X130971985Y-107119501D01*
X131041072Y-107129935D01*
X131088029Y-107168050D01*
X131180210Y-107291188D01*
X131295310Y-107377352D01*
X131430028Y-107427599D01*
X131486267Y-107433645D01*
X131492882Y-107434000D01*
X132303399Y-107434000D01*
X132303399Y-106300903D01*
X132352788Y-106334576D01*
X132484488Y-106375200D01*
X132587660Y-106375200D01*
X132689684Y-106359822D01*
X132803400Y-106305059D01*
X132803400Y-107434000D01*
X133613918Y-107434000D01*
X133620532Y-107433645D01*
X133676771Y-107427599D01*
X133811489Y-107377352D01*
X133926588Y-107291188D01*
X134012752Y-107176089D01*
X134062999Y-107041371D01*
X134069045Y-106985132D01*
X134069400Y-106978518D01*
X134069400Y-106168000D01*
X132936992Y-106168000D01*
X132983803Y-106086921D01*
X133014471Y-105952553D01*
X133004172Y-105815114D01*
X132953819Y-105686818D01*
X132938812Y-105668000D01*
X134069400Y-105668000D01*
X134069400Y-104857481D01*
X134069045Y-104850867D01*
X134062999Y-104794628D01*
X134012752Y-104659910D01*
X133926588Y-104544811D01*
X133811489Y-104458647D01*
X133676771Y-104408400D01*
X133620532Y-104402354D01*
X133613918Y-104402000D01*
X132803400Y-104402000D01*
X132803400Y-105535096D01*
X132754012Y-105501424D01*
X132622312Y-105460800D01*
X132519140Y-105460800D01*
X132417116Y-105476178D01*
X132303399Y-105530940D01*
X132303400Y-104402000D01*
X131492882Y-104402000D01*
X131486267Y-104402354D01*
X131430028Y-104408400D01*
X131295310Y-104458647D01*
X131180208Y-104544812D01*
X131088028Y-104667949D01*
X131032094Y-104709820D01*
X130962403Y-104714804D01*
X130916191Y-104691878D01*
X130915853Y-104692432D01*
X130909672Y-104688644D01*
X130908232Y-104687930D01*
X130907535Y-104687334D01*
X130907532Y-104687332D01*
X130704005Y-104562611D01*
X130704002Y-104562610D01*
X130704001Y-104562609D01*
X130483473Y-104471262D01*
X130251367Y-104415539D01*
X130132383Y-104406175D01*
X130013400Y-104396811D01*
X130013399Y-104396811D01*
X129775432Y-104415539D01*
X129543326Y-104471262D01*
X129322798Y-104562609D01*
X129119264Y-104687334D01*
X128937757Y-104842357D01*
X128782734Y-105023864D01*
X128658009Y-105227398D01*
X128566662Y-105447926D01*
X128510939Y-105680032D01*
X128492211Y-105917999D01*
X127149589Y-105917999D01*
X127130861Y-105680034D01*
X127087981Y-105501424D01*
X127075137Y-105447926D01*
X126983790Y-105227398D01*
X126983789Y-105227395D01*
X126859068Y-105023868D01*
X126704043Y-104842357D01*
X126548862Y-104709820D01*
X126522535Y-104687334D01*
X126522532Y-104687332D01*
X126319005Y-104562611D01*
X126319002Y-104562610D01*
X126319001Y-104562609D01*
X126098473Y-104471262D01*
X125866367Y-104415539D01*
X125747383Y-104406175D01*
X125628400Y-104396811D01*
X125628399Y-104396811D01*
X125390432Y-104415539D01*
X125158326Y-104471262D01*
X124937798Y-104562609D01*
X124734264Y-104687334D01*
X124552757Y-104842357D01*
X124397734Y-105023864D01*
X124273009Y-105227398D01*
X124181662Y-105447926D01*
X124125939Y-105680032D01*
X124107211Y-105917999D01*
X119529589Y-105917999D01*
X119510861Y-105680034D01*
X119467981Y-105501424D01*
X119455137Y-105447926D01*
X119363790Y-105227398D01*
X119363789Y-105227395D01*
X119239068Y-105023868D01*
X119084043Y-104842357D01*
X118928862Y-104709820D01*
X118902535Y-104687334D01*
X118902532Y-104687332D01*
X118699005Y-104562611D01*
X118699002Y-104562610D01*
X118699001Y-104562609D01*
X118478473Y-104471262D01*
X118246367Y-104415539D01*
X118008400Y-104396811D01*
X117770432Y-104415539D01*
X117538326Y-104471262D01*
X117317798Y-104562609D01*
X117114264Y-104687334D01*
X116932757Y-104842357D01*
X116777734Y-105023864D01*
X116653009Y-105227398D01*
X116561662Y-105447926D01*
X116505939Y-105680032D01*
X116487211Y-105917999D01*
X92100900Y-105917999D01*
X92100900Y-99822000D01*
X109435712Y-99822000D01*
X109454434Y-100059889D01*
X109510139Y-100291918D01*
X109601458Y-100512379D01*
X109719629Y-100705216D01*
X110505232Y-99919612D01*
X110505628Y-99924886D01*
X110555981Y-100053182D01*
X110641913Y-100160937D01*
X110755788Y-100238576D01*
X110860941Y-100271011D01*
X110073182Y-101058769D01*
X110266020Y-101176941D01*
X110486481Y-101268260D01*
X110718510Y-101323965D01*
X110956399Y-101342687D01*
X111194289Y-101323965D01*
X111426318Y-101268260D01*
X111646779Y-101176942D01*
X111839615Y-101058770D01*
X111839616Y-101058769D01*
X111663425Y-100882578D01*
X114439900Y-100882578D01*
X114439901Y-100885872D01*
X114446309Y-100945483D01*
X114496604Y-101080331D01*
X114582854Y-101195546D01*
X114698069Y-101281796D01*
X114832917Y-101332091D01*
X114892527Y-101338500D01*
X117020272Y-101338499D01*
X117079883Y-101332091D01*
X117214731Y-101281796D01*
X117329946Y-101195546D01*
X117416196Y-101080331D01*
X117466491Y-100945483D01*
X117472900Y-100885873D01*
X117472899Y-99821999D01*
X118599211Y-99821999D01*
X118617939Y-100059967D01*
X118673662Y-100292073D01*
X118765009Y-100512601D01*
X118889734Y-100716135D01*
X118951273Y-100788188D01*
X119044757Y-100897643D01*
X119226268Y-101052668D01*
X119429795Y-101177389D01*
X119473627Y-101195545D01*
X119650326Y-101268737D01*
X119723654Y-101286341D01*
X119882434Y-101324461D01*
X120120400Y-101343189D01*
X120358366Y-101324461D01*
X120590473Y-101268737D01*
X120811005Y-101177389D01*
X121014532Y-101052668D01*
X121196043Y-100897643D01*
X121351068Y-100716132D01*
X121475789Y-100512605D01*
X121567137Y-100292073D01*
X121622861Y-100059966D01*
X121641589Y-99822000D01*
X123599712Y-99822000D01*
X123618434Y-100059889D01*
X123674139Y-100291918D01*
X123765458Y-100512379D01*
X123883629Y-100705216D01*
X124669232Y-99919613D01*
X124669628Y-99924886D01*
X124719981Y-100053182D01*
X124805913Y-100160937D01*
X124919788Y-100238576D01*
X125024941Y-100271011D01*
X124237182Y-101058769D01*
X124430020Y-101176941D01*
X124650481Y-101268260D01*
X124882510Y-101323965D01*
X125120399Y-101342687D01*
X125358289Y-101323965D01*
X125590318Y-101268260D01*
X125810779Y-101176942D01*
X126003615Y-101058770D01*
X126003616Y-101058769D01*
X125214959Y-100270111D01*
X125256684Y-100263822D01*
X125380859Y-100204023D01*
X125481891Y-100110279D01*
X125550803Y-99990921D01*
X125567912Y-99915958D01*
X126357169Y-100705216D01*
X126357170Y-100705215D01*
X126475342Y-100512379D01*
X126566660Y-100291918D01*
X126622365Y-100059889D01*
X126641087Y-99822000D01*
X126622365Y-99584110D01*
X126566660Y-99352081D01*
X126475341Y-99131620D01*
X126357169Y-98938782D01*
X125571566Y-99724384D01*
X125571172Y-99719114D01*
X125520819Y-99590818D01*
X125434887Y-99483063D01*
X125321012Y-99405424D01*
X125215858Y-99372988D01*
X126003616Y-98585229D01*
X125810779Y-98467058D01*
X125590318Y-98375739D01*
X125358289Y-98320034D01*
X125120400Y-98301312D01*
X124882510Y-98320034D01*
X124650478Y-98375740D01*
X124430022Y-98467055D01*
X124237182Y-98585229D01*
X125025842Y-99373888D01*
X124984116Y-99380178D01*
X124859941Y-99439977D01*
X124758909Y-99533721D01*
X124689997Y-99653079D01*
X124672887Y-99728040D01*
X123883629Y-98938782D01*
X123765455Y-99131622D01*
X123674140Y-99352078D01*
X123618434Y-99584110D01*
X123599712Y-99822000D01*
X121641589Y-99822000D01*
X121622861Y-99584034D01*
X121579981Y-99405424D01*
X121567137Y-99351926D01*
X121475790Y-99131398D01*
X121475789Y-99131395D01*
X121351068Y-98927868D01*
X121196043Y-98746357D01*
X121086588Y-98652873D01*
X121014535Y-98591334D01*
X121014532Y-98591332D01*
X120811005Y-98466611D01*
X120811002Y-98466610D01*
X120811001Y-98466609D01*
X120590473Y-98375262D01*
X120358367Y-98319539D01*
X120120400Y-98300811D01*
X119882432Y-98319539D01*
X119650326Y-98375262D01*
X119429798Y-98466609D01*
X119226264Y-98591334D01*
X119044757Y-98746357D01*
X118889734Y-98927864D01*
X118765009Y-99131398D01*
X118673662Y-99351926D01*
X118617939Y-99584032D01*
X118599211Y-99821999D01*
X117472899Y-99821999D01*
X117472899Y-98758128D01*
X117466491Y-98698517D01*
X117416196Y-98563669D01*
X117329946Y-98448454D01*
X117214731Y-98362204D01*
X117079883Y-98311909D01*
X117020273Y-98305500D01*
X117016950Y-98305500D01*
X114895839Y-98305500D01*
X114895820Y-98305500D01*
X114892528Y-98305501D01*
X114889248Y-98305853D01*
X114889240Y-98305854D01*
X114832915Y-98311909D01*
X114698069Y-98362204D01*
X114582854Y-98448454D01*
X114496604Y-98563668D01*
X114446310Y-98698515D01*
X114446309Y-98698517D01*
X114439900Y-98758127D01*
X114439900Y-98761448D01*
X114439900Y-98761449D01*
X114439900Y-100882560D01*
X114439900Y-100882578D01*
X111663425Y-100882578D01*
X111050959Y-100270111D01*
X111092684Y-100263822D01*
X111216859Y-100204023D01*
X111317891Y-100110279D01*
X111386803Y-99990921D01*
X111403912Y-99915958D01*
X112193169Y-100705216D01*
X112193170Y-100705215D01*
X112311342Y-100512379D01*
X112402660Y-100291918D01*
X112458365Y-100059889D01*
X112477087Y-99822000D01*
X112458365Y-99584110D01*
X112402660Y-99352081D01*
X112311341Y-99131620D01*
X112193169Y-98938782D01*
X111407566Y-99724384D01*
X111407172Y-99719114D01*
X111356819Y-99590818D01*
X111270887Y-99483063D01*
X111157012Y-99405424D01*
X111051856Y-99372988D01*
X111839616Y-98585229D01*
X111646779Y-98467058D01*
X111426318Y-98375739D01*
X111194289Y-98320034D01*
X110956400Y-98301312D01*
X110718510Y-98320034D01*
X110486478Y-98375740D01*
X110266022Y-98467055D01*
X110073182Y-98585229D01*
X110861840Y-99373888D01*
X110820116Y-99380178D01*
X110695941Y-99439977D01*
X110594909Y-99533721D01*
X110525997Y-99653079D01*
X110508887Y-99728040D01*
X109719629Y-98938782D01*
X109601455Y-99131622D01*
X109510140Y-99352078D01*
X109454434Y-99584110D01*
X109435712Y-99822000D01*
X92100900Y-99822000D01*
X92100900Y-94234000D01*
X113200811Y-94234000D01*
X113219539Y-94471967D01*
X113275262Y-94704073D01*
X113366609Y-94924601D01*
X113491334Y-95128135D01*
X113552873Y-95200188D01*
X113646357Y-95309643D01*
X113827868Y-95464668D01*
X114031395Y-95589389D01*
X114112862Y-95623134D01*
X114251926Y-95680737D01*
X114325254Y-95698341D01*
X114484034Y-95736461D01*
X114722000Y-95755189D01*
X114959966Y-95736461D01*
X115192073Y-95680737D01*
X115412605Y-95589389D01*
X115616132Y-95464668D01*
X115797643Y-95309643D01*
X115952668Y-95128132D01*
X116077389Y-94924605D01*
X116168737Y-94704073D01*
X116224461Y-94471966D01*
X116243189Y-94234000D01*
X116224461Y-93996034D01*
X116168737Y-93763927D01*
X116128408Y-93666566D01*
X116077390Y-93543398D01*
X116077389Y-93543395D01*
X115952668Y-93339868D01*
X115797643Y-93158357D01*
X115680478Y-93058288D01*
X115642286Y-92999783D01*
X115641788Y-92929915D01*
X115679141Y-92870869D01*
X115680439Y-92869744D01*
X115797643Y-92769643D01*
X115952668Y-92588132D01*
X116077389Y-92384605D01*
X116168737Y-92164073D01*
X116224461Y-91931966D01*
X116243189Y-91694000D01*
X128230726Y-91694000D01*
X128230908Y-91697356D01*
X128249626Y-92042597D01*
X128249627Y-92042612D01*
X128249809Y-92045957D01*
X128250351Y-92049267D01*
X128250352Y-92049270D01*
X128306288Y-92390474D01*
X128306290Y-92390486D01*
X128306832Y-92393788D01*
X128307728Y-92397017D01*
X128307731Y-92397028D01*
X128360792Y-92588135D01*
X128401129Y-92733414D01*
X128402371Y-92736531D01*
X128402374Y-92736540D01*
X128530348Y-93057730D01*
X128531593Y-93060854D01*
X128696695Y-93372269D01*
X128894499Y-93664008D01*
X129122686Y-93932650D01*
X129125117Y-93934953D01*
X129125123Y-93934959D01*
X129301614Y-94102139D01*
X129378580Y-94175046D01*
X129659182Y-94388354D01*
X129961202Y-94570074D01*
X130281099Y-94718074D01*
X130615122Y-94830619D01*
X130959355Y-94906391D01*
X131309763Y-94944500D01*
X131313121Y-94944500D01*
X131658879Y-94944500D01*
X131662237Y-94944500D01*
X132012645Y-94906391D01*
X132356878Y-94830619D01*
X132690901Y-94718074D01*
X133010798Y-94570074D01*
X133312818Y-94388354D01*
X133593420Y-94175046D01*
X133849314Y-93932650D01*
X134077501Y-93664008D01*
X134275305Y-93372269D01*
X134440407Y-93060854D01*
X134570871Y-92733414D01*
X134665168Y-92393788D01*
X134722191Y-92045957D01*
X134741274Y-91694000D01*
X134722191Y-91342043D01*
X134665168Y-90994212D01*
X134570871Y-90654586D01*
X134440407Y-90327146D01*
X134275305Y-90015731D01*
X134077501Y-89723992D01*
X133849314Y-89455350D01*
X133846881Y-89453045D01*
X133846876Y-89453040D01*
X133595850Y-89215256D01*
X133593420Y-89212954D01*
X133312818Y-88999646D01*
X133309944Y-88997917D01*
X133309940Y-88997914D01*
X133013680Y-88819660D01*
X133013679Y-88819659D01*
X133010798Y-88817926D01*
X132690901Y-88669926D01*
X132572001Y-88629864D01*
X132360053Y-88558450D01*
X132360039Y-88558446D01*
X132356878Y-88557381D01*
X132353611Y-88556662D01*
X132353608Y-88556661D01*
X132015926Y-88482331D01*
X132015922Y-88482330D01*
X132012645Y-88481609D01*
X132009309Y-88481246D01*
X132009302Y-88481245D01*
X131665575Y-88443863D01*
X131665574Y-88443862D01*
X131662237Y-88443500D01*
X131309763Y-88443500D01*
X131306426Y-88443862D01*
X131306424Y-88443863D01*
X130962697Y-88481245D01*
X130962687Y-88481246D01*
X130959355Y-88481609D01*
X130956080Y-88482329D01*
X130956073Y-88482331D01*
X130618391Y-88556661D01*
X130618383Y-88556663D01*
X130615122Y-88557381D01*
X130611964Y-88558444D01*
X130611946Y-88558450D01*
X130284286Y-88668852D01*
X130284283Y-88668853D01*
X130281099Y-88669926D01*
X130278050Y-88671336D01*
X130278044Y-88671339D01*
X129964257Y-88816512D01*
X129964247Y-88816516D01*
X129961202Y-88817926D01*
X129958328Y-88819655D01*
X129958319Y-88819660D01*
X129662059Y-88997914D01*
X129662046Y-88997922D01*
X129659182Y-88999646D01*
X129656524Y-89001666D01*
X129656513Y-89001674D01*
X129381239Y-89210932D01*
X129381231Y-89210938D01*
X129378580Y-89212954D01*
X129376156Y-89215249D01*
X129376149Y-89215256D01*
X129125123Y-89453040D01*
X129125108Y-89453055D01*
X129122686Y-89455350D01*
X129120523Y-89457895D01*
X129120512Y-89457908D01*
X128896672Y-89721433D01*
X128896666Y-89721440D01*
X128894499Y-89723992D01*
X128892619Y-89726764D01*
X128892612Y-89726774D01*
X128698585Y-90012942D01*
X128698577Y-90012954D01*
X128696695Y-90015731D01*
X128695120Y-90018701D01*
X128695118Y-90018705D01*
X128533168Y-90324174D01*
X128533163Y-90324183D01*
X128531593Y-90327146D01*
X128530352Y-90330258D01*
X128530348Y-90330269D01*
X128402374Y-90651459D01*
X128402369Y-90651473D01*
X128401129Y-90654586D01*
X128400229Y-90657824D01*
X128400229Y-90657827D01*
X128307731Y-90990971D01*
X128307727Y-90990985D01*
X128306832Y-90994212D01*
X128306291Y-90997509D01*
X128306288Y-90997525D01*
X128250352Y-91338729D01*
X128249809Y-91342043D01*
X128249627Y-91345385D01*
X128249626Y-91345402D01*
X128235883Y-91598879D01*
X128230726Y-91694000D01*
X116243189Y-91694000D01*
X116224461Y-91456034D01*
X116168737Y-91223927D01*
X116077389Y-91003395D01*
X115952668Y-90799868D01*
X115797643Y-90618357D01*
X115680478Y-90518288D01*
X115642286Y-90459783D01*
X115641788Y-90389915D01*
X115679141Y-90330869D01*
X115680439Y-90329744D01*
X115797643Y-90229643D01*
X115952668Y-90048132D01*
X116077389Y-89844605D01*
X116168737Y-89624073D01*
X116224461Y-89391966D01*
X116243189Y-89154000D01*
X116224461Y-88916034D01*
X116174717Y-88708834D01*
X116168737Y-88683926D01*
X116094307Y-88504239D01*
X116077389Y-88463395D01*
X115952668Y-88259868D01*
X115797643Y-88078357D01*
X115664220Y-87964403D01*
X115616135Y-87923334D01*
X115493610Y-87848251D01*
X115412605Y-87798611D01*
X115412602Y-87798610D01*
X115412601Y-87798609D01*
X115192073Y-87707262D01*
X114959967Y-87651539D01*
X114722000Y-87632811D01*
X114484032Y-87651539D01*
X114251926Y-87707262D01*
X114031398Y-87798609D01*
X113827864Y-87923334D01*
X113646357Y-88078357D01*
X113491334Y-88259864D01*
X113366609Y-88463398D01*
X113275262Y-88683926D01*
X113219539Y-88916032D01*
X113200811Y-89154000D01*
X113219539Y-89391967D01*
X113275262Y-89624073D01*
X113366609Y-89844601D01*
X113491334Y-90048135D01*
X113552873Y-90120188D01*
X113646357Y-90229643D01*
X113731876Y-90302683D01*
X113763520Y-90329710D01*
X113801713Y-90388217D01*
X113802211Y-90458085D01*
X113764857Y-90517131D01*
X113763520Y-90518290D01*
X113646357Y-90618357D01*
X113491334Y-90799864D01*
X113366609Y-91003398D01*
X113275262Y-91223926D01*
X113219539Y-91456032D01*
X113200811Y-91693999D01*
X113219539Y-91931967D01*
X113275262Y-92164073D01*
X113366609Y-92384601D01*
X113366611Y-92384605D01*
X113374224Y-92397028D01*
X113491334Y-92588135D01*
X113552873Y-92660188D01*
X113646357Y-92769643D01*
X113731876Y-92842683D01*
X113763520Y-92869710D01*
X113801713Y-92928217D01*
X113802211Y-92998085D01*
X113764857Y-93057131D01*
X113763520Y-93058290D01*
X113646357Y-93158357D01*
X113491334Y-93339864D01*
X113366609Y-93543398D01*
X113275262Y-93763926D01*
X113219539Y-93996032D01*
X113200811Y-94234000D01*
X92100900Y-94234000D01*
X92100900Y-87582380D01*
X107699312Y-87582380D01*
X107718034Y-87820269D01*
X107773739Y-88052298D01*
X107865058Y-88272759D01*
X107983358Y-88465808D01*
X108001603Y-88533254D01*
X107980487Y-88599856D01*
X107951942Y-88629864D01*
X107846455Y-88708831D01*
X107760204Y-88824048D01*
X107709910Y-88958895D01*
X107709909Y-88958897D01*
X107703500Y-89018507D01*
X107703500Y-89021828D01*
X107703500Y-89021829D01*
X107703500Y-91142940D01*
X107703500Y-91142958D01*
X107703501Y-91146252D01*
X107709909Y-91205863D01*
X107760204Y-91340711D01*
X107846454Y-91455926D01*
X107961669Y-91542176D01*
X108096517Y-91592471D01*
X108156127Y-91598880D01*
X110283872Y-91598879D01*
X110343483Y-91592471D01*
X110478331Y-91542176D01*
X110593546Y-91455926D01*
X110679796Y-91340711D01*
X110730091Y-91205863D01*
X110736500Y-91146253D01*
X110736499Y-89018508D01*
X110730091Y-88958897D01*
X110679796Y-88824049D01*
X110593546Y-88708834D01*
X110488056Y-88629864D01*
X110446186Y-88573931D01*
X110441202Y-88504239D01*
X110456641Y-88465808D01*
X110574941Y-88272759D01*
X110666260Y-88052298D01*
X110721965Y-87820269D01*
X110740687Y-87582380D01*
X110721965Y-87344490D01*
X110666260Y-87112461D01*
X110574941Y-86892000D01*
X110456769Y-86699162D01*
X109671166Y-87484764D01*
X109670772Y-87479494D01*
X109620419Y-87351198D01*
X109534487Y-87243443D01*
X109420612Y-87165804D01*
X109315458Y-87133368D01*
X110103216Y-86345609D01*
X109910379Y-86227438D01*
X109689918Y-86136119D01*
X109457889Y-86080414D01*
X109219999Y-86061692D01*
X108982110Y-86080414D01*
X108750078Y-86136120D01*
X108529622Y-86227435D01*
X108336782Y-86345609D01*
X109125442Y-87134268D01*
X109083716Y-87140558D01*
X108959541Y-87200357D01*
X108858509Y-87294101D01*
X108789597Y-87413459D01*
X108772487Y-87488420D01*
X107983229Y-86699162D01*
X107865055Y-86892002D01*
X107773740Y-87112458D01*
X107718034Y-87344490D01*
X107699312Y-87582380D01*
X92100900Y-87582380D01*
X92100900Y-78689277D01*
X98227000Y-78689277D01*
X98227127Y-78693242D01*
X98237180Y-78850299D01*
X98238296Y-78858678D01*
X98292869Y-79126628D01*
X98387313Y-79387762D01*
X98518768Y-79632351D01*
X98684444Y-79855208D01*
X98880791Y-80051555D01*
X99103648Y-80217231D01*
X99348237Y-80348686D01*
X99609372Y-80443131D01*
X99743000Y-80470346D01*
X99743000Y-78924361D01*
X99835721Y-79024291D01*
X99955079Y-79093203D01*
X100089447Y-79123871D01*
X100226886Y-79113572D01*
X100355182Y-79063219D01*
X100462937Y-78977287D01*
X100504999Y-78915592D01*
X100505000Y-80470346D01*
X100529734Y-80490551D01*
X100569201Y-80548207D01*
X100571231Y-80618047D01*
X100538971Y-80674265D01*
X100414441Y-80798795D01*
X100248768Y-81021648D01*
X100117313Y-81266237D01*
X100022868Y-81527372D01*
X99995654Y-81661000D01*
X101795638Y-81661000D01*
X101695709Y-81753721D01*
X101626797Y-81873079D01*
X101596129Y-82007447D01*
X101606428Y-82144886D01*
X101656781Y-82273182D01*
X101742713Y-82380937D01*
X101804408Y-82423000D01*
X99995654Y-82423000D01*
X100022868Y-82556627D01*
X100117313Y-82817762D01*
X100248768Y-83062351D01*
X100414444Y-83285208D01*
X100610791Y-83481555D01*
X100833648Y-83647231D01*
X101078237Y-83778686D01*
X101339371Y-83873130D01*
X101607321Y-83927703D01*
X101615700Y-83928819D01*
X101772756Y-83938873D01*
X101776721Y-83938999D01*
X102742999Y-83938999D01*
X102743000Y-83938998D01*
X102743000Y-82499200D01*
X103505000Y-82499200D01*
X103505000Y-83938999D01*
X104471277Y-83938999D01*
X104475242Y-83938872D01*
X104632299Y-83928819D01*
X104640678Y-83927703D01*
X104908628Y-83873130D01*
X105169762Y-83778686D01*
X105414351Y-83647231D01*
X105637208Y-83481555D01*
X105833555Y-83285208D01*
X105999231Y-83062351D01*
X106130686Y-82817762D01*
X106225131Y-82556627D01*
X106252346Y-82423000D01*
X104452362Y-82423000D01*
X104552291Y-82330279D01*
X104619669Y-82213578D01*
X109862500Y-82213578D01*
X109862501Y-82216872D01*
X109862853Y-82220152D01*
X109862854Y-82220159D01*
X109866779Y-82256668D01*
X109868909Y-82276483D01*
X109919204Y-82411331D01*
X110005454Y-82526546D01*
X110120669Y-82612796D01*
X110255517Y-82663091D01*
X110315127Y-82669500D01*
X112696872Y-82669499D01*
X112756483Y-82663091D01*
X112891331Y-82612796D01*
X113006546Y-82526546D01*
X113092796Y-82411331D01*
X113143091Y-82276483D01*
X113149500Y-82216873D01*
X113149500Y-81276000D01*
X116610942Y-81276000D01*
X116663739Y-81495918D01*
X116755058Y-81716379D01*
X116879737Y-81919836D01*
X117034711Y-82101288D01*
X117216163Y-82256262D01*
X117419620Y-82380941D01*
X117640081Y-82472260D01*
X117859999Y-82525057D01*
X117860000Y-82525057D01*
X117860000Y-81408903D01*
X117909388Y-81442576D01*
X118041088Y-81483200D01*
X118144260Y-81483200D01*
X118246284Y-81467822D01*
X118360000Y-81413059D01*
X118360000Y-82525057D01*
X118579918Y-82472260D01*
X118800379Y-82380941D01*
X119003836Y-82256262D01*
X119185288Y-82101288D01*
X119340262Y-81919836D01*
X119464941Y-81716379D01*
X119556260Y-81495918D01*
X119609058Y-81276000D01*
X118493592Y-81276000D01*
X118540403Y-81194921D01*
X118571071Y-81060553D01*
X118568482Y-81026000D01*
X121668811Y-81026000D01*
X121687539Y-81263967D01*
X121743262Y-81496073D01*
X121834609Y-81716601D01*
X121959334Y-81920135D01*
X121975544Y-81939114D01*
X122114357Y-82101643D01*
X122242305Y-82210921D01*
X122295392Y-82256262D01*
X122295868Y-82256668D01*
X122499395Y-82381389D01*
X122571681Y-82411331D01*
X122719926Y-82472737D01*
X122766099Y-82483822D01*
X122952034Y-82528461D01*
X123190000Y-82547189D01*
X123427966Y-82528461D01*
X123660073Y-82472737D01*
X123880605Y-82381389D01*
X124084132Y-82256668D01*
X124265643Y-82101643D01*
X124420668Y-81920132D01*
X124545389Y-81716605D01*
X124636737Y-81496073D01*
X124692461Y-81263966D01*
X124711189Y-81026000D01*
X126748811Y-81026000D01*
X126767539Y-81263967D01*
X126823262Y-81496073D01*
X126914609Y-81716601D01*
X127039334Y-81920135D01*
X127055544Y-81939114D01*
X127194357Y-82101643D01*
X127322305Y-82210921D01*
X127375392Y-82256262D01*
X127375868Y-82256668D01*
X127579395Y-82381389D01*
X127651681Y-82411331D01*
X127799926Y-82472737D01*
X127846099Y-82483822D01*
X128032034Y-82528461D01*
X128270000Y-82547189D01*
X128507966Y-82528461D01*
X128740073Y-82472737D01*
X128960605Y-82381389D01*
X129164132Y-82256668D01*
X129345643Y-82101643D01*
X129500668Y-81920132D01*
X129625389Y-81716605D01*
X129716737Y-81496073D01*
X129772461Y-81263966D01*
X129791189Y-81026000D01*
X129772461Y-80788034D01*
X129724957Y-80590165D01*
X129716737Y-80555926D01*
X129625390Y-80335398D01*
X129625389Y-80335395D01*
X129500668Y-80131868D01*
X129345643Y-79950357D01*
X129210726Y-79835127D01*
X129164135Y-79795334D01*
X129164132Y-79795332D01*
X128960605Y-79670611D01*
X128960602Y-79670610D01*
X128960601Y-79670609D01*
X128740073Y-79579262D01*
X128507967Y-79523539D01*
X128388983Y-79514175D01*
X128270000Y-79504811D01*
X128269999Y-79504811D01*
X128032032Y-79523539D01*
X127799926Y-79579262D01*
X127579398Y-79670609D01*
X127375864Y-79795334D01*
X127194357Y-79950357D01*
X127039334Y-80131864D01*
X126914609Y-80335398D01*
X126823262Y-80555926D01*
X126767539Y-80788032D01*
X126748811Y-81026000D01*
X124711189Y-81026000D01*
X124692461Y-80788034D01*
X124644957Y-80590165D01*
X124636737Y-80555926D01*
X124545390Y-80335398D01*
X124545389Y-80335395D01*
X124420668Y-80131868D01*
X124265643Y-79950357D01*
X124130726Y-79835127D01*
X124084135Y-79795334D01*
X124084132Y-79795332D01*
X123880605Y-79670611D01*
X123880602Y-79670610D01*
X123880601Y-79670609D01*
X123660073Y-79579262D01*
X123427967Y-79523539D01*
X123308983Y-79514175D01*
X123190000Y-79504811D01*
X123189999Y-79504811D01*
X122952032Y-79523539D01*
X122719926Y-79579262D01*
X122499398Y-79670609D01*
X122295864Y-79795334D01*
X122114357Y-79950357D01*
X121959334Y-80131864D01*
X121834609Y-80335398D01*
X121743262Y-80555926D01*
X121687539Y-80788032D01*
X121668811Y-81026000D01*
X118568482Y-81026000D01*
X118560772Y-80923114D01*
X118510419Y-80794818D01*
X118495412Y-80776000D01*
X119609058Y-80776000D01*
X119609057Y-80775999D01*
X119556260Y-80556081D01*
X119464941Y-80335620D01*
X119340262Y-80132163D01*
X119185288Y-79950711D01*
X119003836Y-79795737D01*
X118800379Y-79671058D01*
X118579919Y-79579740D01*
X118359999Y-79526940D01*
X118359999Y-80643095D01*
X118310612Y-80609424D01*
X118178912Y-80568800D01*
X118075740Y-80568800D01*
X117973716Y-80584178D01*
X117860000Y-80638940D01*
X117860000Y-79526940D01*
X117640080Y-79579740D01*
X117419620Y-79671058D01*
X117216163Y-79795737D01*
X117034711Y-79950711D01*
X116879737Y-80132163D01*
X116755058Y-80335620D01*
X116663739Y-80556081D01*
X116610942Y-80775999D01*
X116610942Y-80776000D01*
X117726408Y-80776000D01*
X117679597Y-80857079D01*
X117648929Y-80991447D01*
X117659228Y-81128886D01*
X117709581Y-81257182D01*
X117724588Y-81276000D01*
X116610942Y-81276000D01*
X113149500Y-81276000D01*
X113149499Y-79835128D01*
X113143091Y-79775517D01*
X113092796Y-79640669D01*
X113006546Y-79525454D01*
X112891331Y-79439204D01*
X112756483Y-79388909D01*
X112696873Y-79382500D01*
X112693550Y-79382500D01*
X110318439Y-79382500D01*
X110318420Y-79382500D01*
X110315128Y-79382501D01*
X110311848Y-79382853D01*
X110311840Y-79382854D01*
X110255515Y-79388909D01*
X110120669Y-79439204D01*
X110005454Y-79525454D01*
X109919204Y-79640668D01*
X109868909Y-79775516D01*
X109866779Y-79795332D01*
X109862500Y-79835127D01*
X109862500Y-79838448D01*
X109862500Y-79838449D01*
X109862500Y-82213560D01*
X109862500Y-82213578D01*
X104619669Y-82213578D01*
X104621203Y-82210921D01*
X104651871Y-82076553D01*
X104641572Y-81939114D01*
X104591219Y-81810818D01*
X104505287Y-81703063D01*
X104443592Y-81661000D01*
X106252346Y-81661000D01*
X106225131Y-81527372D01*
X106130686Y-81266237D01*
X105999231Y-81021648D01*
X105833555Y-80798791D01*
X105755944Y-80721180D01*
X105722459Y-80659857D01*
X105727443Y-80590165D01*
X105769315Y-80534232D01*
X105834779Y-80509815D01*
X105843608Y-80509499D01*
X107568872Y-80509499D01*
X107628483Y-80503091D01*
X107763331Y-80452796D01*
X107878546Y-80366546D01*
X107964796Y-80251331D01*
X108015091Y-80116483D01*
X108021500Y-80056873D01*
X108021499Y-74627128D01*
X108015091Y-74567517D01*
X107964796Y-74432669D01*
X107878546Y-74317454D01*
X107763331Y-74231204D01*
X107628483Y-74180909D01*
X107568873Y-74174500D01*
X107565550Y-74174500D01*
X104682439Y-74174500D01*
X104682420Y-74174500D01*
X104679128Y-74174501D01*
X104675848Y-74174853D01*
X104675840Y-74174854D01*
X104619515Y-74180909D01*
X104484669Y-74231204D01*
X104369454Y-74317454D01*
X104283204Y-74432668D01*
X104232909Y-74567516D01*
X104228361Y-74609822D01*
X104226500Y-74627127D01*
X104226500Y-74630448D01*
X104226500Y-74630449D01*
X104226501Y-80021000D01*
X104206816Y-80088039D01*
X104154012Y-80133794D01*
X104102501Y-80145000D01*
X103505000Y-80145000D01*
X103505000Y-81584800D01*
X102743000Y-81584800D01*
X102743000Y-80145000D01*
X101776722Y-80145000D01*
X101772757Y-80145127D01*
X101615700Y-80155180D01*
X101607311Y-80156297D01*
X101578136Y-80162239D01*
X101508517Y-80156328D01*
X101453145Y-80113716D01*
X101429601Y-80047933D01*
X101445360Y-79979863D01*
X101465711Y-79953051D01*
X101563558Y-79855204D01*
X101729231Y-79632351D01*
X101860686Y-79387762D01*
X101955130Y-79126628D01*
X102009703Y-78858678D01*
X102010819Y-78850299D01*
X102020873Y-78693243D01*
X102021000Y-78689278D01*
X102021000Y-77723000D01*
X100581200Y-77723000D01*
X100581200Y-76961000D01*
X102020999Y-76961000D01*
X102020999Y-75994722D01*
X102020872Y-75990757D01*
X102010819Y-75833700D01*
X102009703Y-75825321D01*
X101955130Y-75557371D01*
X101860686Y-75296237D01*
X101729231Y-75051648D01*
X101563555Y-74828791D01*
X101367208Y-74632444D01*
X101144351Y-74466768D01*
X100899762Y-74335313D01*
X100638623Y-74240866D01*
X100505001Y-74213651D01*
X100505000Y-74213652D01*
X100504999Y-75759637D01*
X100412279Y-75659709D01*
X100292921Y-75590797D01*
X100158553Y-75560129D01*
X100021114Y-75570428D01*
X99892818Y-75620781D01*
X99785063Y-75706713D01*
X99742999Y-75768407D01*
X99743000Y-74213652D01*
X99742998Y-74213651D01*
X99609376Y-74240866D01*
X99348237Y-74335313D01*
X99103648Y-74466768D01*
X98880791Y-74632444D01*
X98684444Y-74828791D01*
X98518768Y-75051648D01*
X98387313Y-75296237D01*
X98292869Y-75557371D01*
X98238296Y-75825321D01*
X98237180Y-75833700D01*
X98227126Y-75990756D01*
X98227000Y-75994721D01*
X98227000Y-76961000D01*
X99666800Y-76961000D01*
X99666800Y-77723000D01*
X98227001Y-77723000D01*
X98227000Y-78689277D01*
X92100900Y-78689277D01*
X92100900Y-73405999D01*
X109857418Y-73405999D01*
X109877715Y-73663896D01*
X109938104Y-73915440D01*
X110000102Y-74065114D01*
X110037103Y-74154441D01*
X110090064Y-74240866D01*
X110172270Y-74375014D01*
X110340275Y-74571724D01*
X110536985Y-74739729D01*
X110536987Y-74739730D01*
X110536988Y-74739731D01*
X110757559Y-74874897D01*
X110934130Y-74948035D01*
X110996559Y-74973895D01*
X111076027Y-74992973D01*
X111248105Y-75034285D01*
X111506000Y-75054582D01*
X111763895Y-75034285D01*
X112015440Y-74973895D01*
X112254441Y-74874897D01*
X112475012Y-74739731D01*
X112671724Y-74571724D01*
X112839731Y-74375012D01*
X112974897Y-74154441D01*
X113073895Y-73915440D01*
X113134285Y-73663895D01*
X113154582Y-73406000D01*
X113154582Y-73405999D01*
X116588811Y-73405999D01*
X116607539Y-73643967D01*
X116663262Y-73876073D01*
X116754609Y-74096601D01*
X116754611Y-74096605D01*
X116819536Y-74202553D01*
X116879334Y-74300135D01*
X116940873Y-74372188D01*
X117034357Y-74481643D01*
X117154876Y-74584576D01*
X117208574Y-74630439D01*
X117215868Y-74636668D01*
X117419395Y-74761389D01*
X117500862Y-74795134D01*
X117639926Y-74852737D01*
X117713254Y-74870341D01*
X117872034Y-74908461D01*
X118110000Y-74927189D01*
X118347966Y-74908461D01*
X118580073Y-74852737D01*
X118800605Y-74761389D01*
X119004132Y-74636668D01*
X119185643Y-74481643D01*
X119340668Y-74300132D01*
X119465389Y-74096605D01*
X119556737Y-73876073D01*
X119612461Y-73643966D01*
X119631189Y-73406000D01*
X119631189Y-73405999D01*
X121668811Y-73405999D01*
X121687539Y-73643967D01*
X121743262Y-73876073D01*
X121834609Y-74096601D01*
X121834611Y-74096605D01*
X121899536Y-74202553D01*
X121959334Y-74300135D01*
X122020873Y-74372188D01*
X122114357Y-74481643D01*
X122234876Y-74584576D01*
X122288574Y-74630439D01*
X122295868Y-74636668D01*
X122499395Y-74761389D01*
X122580862Y-74795134D01*
X122719926Y-74852737D01*
X122793254Y-74870341D01*
X122952034Y-74908461D01*
X123190000Y-74927189D01*
X123427966Y-74908461D01*
X123660073Y-74852737D01*
X123880605Y-74761389D01*
X124084132Y-74636668D01*
X124265643Y-74481643D01*
X124420668Y-74300132D01*
X124545389Y-74096605D01*
X124636737Y-73876073D01*
X124692461Y-73643966D01*
X124711189Y-73406000D01*
X124711189Y-73405999D01*
X126748811Y-73405999D01*
X126767539Y-73643967D01*
X126823262Y-73876073D01*
X126914609Y-74096601D01*
X126914611Y-74096605D01*
X126979536Y-74202553D01*
X127039334Y-74300135D01*
X127100873Y-74372188D01*
X127194357Y-74481643D01*
X127314876Y-74584576D01*
X127368574Y-74630439D01*
X127375868Y-74636668D01*
X127579395Y-74761389D01*
X127660862Y-74795134D01*
X127799926Y-74852737D01*
X127873254Y-74870341D01*
X128032034Y-74908461D01*
X128270000Y-74927189D01*
X128507966Y-74908461D01*
X128740073Y-74852737D01*
X128960605Y-74761389D01*
X129164132Y-74636668D01*
X129345643Y-74481643D01*
X129500668Y-74300132D01*
X129625389Y-74096605D01*
X129716737Y-73876073D01*
X129772461Y-73643966D01*
X129791189Y-73406000D01*
X129772461Y-73168034D01*
X129732491Y-73001546D01*
X129716737Y-72935926D01*
X129625390Y-72715398D01*
X129625389Y-72715395D01*
X129500668Y-72511868D01*
X129345643Y-72330357D01*
X129236188Y-72236873D01*
X129164135Y-72175334D01*
X128995949Y-72072270D01*
X128960605Y-72050611D01*
X128960602Y-72050610D01*
X128960601Y-72050609D01*
X128740073Y-71959262D01*
X128507967Y-71903539D01*
X128388983Y-71894175D01*
X128270000Y-71884811D01*
X128269999Y-71884811D01*
X128032032Y-71903539D01*
X127799926Y-71959262D01*
X127579398Y-72050609D01*
X127375864Y-72175334D01*
X127194357Y-72330357D01*
X127039334Y-72511864D01*
X126914609Y-72715398D01*
X126823262Y-72935926D01*
X126767539Y-73168032D01*
X126748811Y-73405999D01*
X124711189Y-73405999D01*
X124692461Y-73168034D01*
X124652491Y-73001546D01*
X124636737Y-72935926D01*
X124545390Y-72715398D01*
X124545389Y-72715395D01*
X124420668Y-72511868D01*
X124265643Y-72330357D01*
X124156188Y-72236873D01*
X124084135Y-72175334D01*
X123915949Y-72072270D01*
X123880605Y-72050611D01*
X123880602Y-72050610D01*
X123880601Y-72050609D01*
X123660073Y-71959262D01*
X123427967Y-71903539D01*
X123308983Y-71894175D01*
X123190000Y-71884811D01*
X123189999Y-71884811D01*
X122952032Y-71903539D01*
X122719926Y-71959262D01*
X122499398Y-72050609D01*
X122295864Y-72175334D01*
X122114357Y-72330357D01*
X121959334Y-72511864D01*
X121834609Y-72715398D01*
X121743262Y-72935926D01*
X121687539Y-73168032D01*
X121668811Y-73405999D01*
X119631189Y-73405999D01*
X119612461Y-73168034D01*
X119572491Y-73001546D01*
X119556737Y-72935926D01*
X119465390Y-72715398D01*
X119465389Y-72715395D01*
X119340668Y-72511868D01*
X119185643Y-72330357D01*
X119076188Y-72236873D01*
X119004135Y-72175334D01*
X118835949Y-72072270D01*
X118800605Y-72050611D01*
X118800602Y-72050610D01*
X118800601Y-72050609D01*
X118580073Y-71959262D01*
X118347967Y-71903539D01*
X118228983Y-71894175D01*
X118110000Y-71884811D01*
X118109999Y-71884811D01*
X117872032Y-71903539D01*
X117639926Y-71959262D01*
X117419398Y-72050609D01*
X117215864Y-72175334D01*
X117034357Y-72330357D01*
X116879334Y-72511864D01*
X116754609Y-72715398D01*
X116663262Y-72935926D01*
X116607539Y-73168032D01*
X116588811Y-73405999D01*
X113154582Y-73405999D01*
X113134285Y-73148105D01*
X113083346Y-72935926D01*
X113073895Y-72896559D01*
X113035571Y-72804038D01*
X112974897Y-72657559D01*
X112839731Y-72436988D01*
X112839730Y-72436987D01*
X112839729Y-72436985D01*
X112671724Y-72240275D01*
X112475014Y-72072270D01*
X112393811Y-72022509D01*
X112254441Y-71937103D01*
X112128198Y-71884811D01*
X112015440Y-71838104D01*
X111763896Y-71777715D01*
X111506000Y-71757418D01*
X111248103Y-71777715D01*
X110996559Y-71838104D01*
X110757557Y-71937104D01*
X110536985Y-72072270D01*
X110340275Y-72240275D01*
X110172270Y-72436985D01*
X110037104Y-72657557D01*
X109938104Y-72896559D01*
X109877715Y-73148103D01*
X109857418Y-73405999D01*
X92100900Y-73405999D01*
X92100900Y-71627999D01*
X143919211Y-71627999D01*
X143937939Y-71865967D01*
X143993662Y-72098073D01*
X144085009Y-72318601D01*
X144209734Y-72522135D01*
X144271273Y-72594188D01*
X144364757Y-72703643D01*
X144482305Y-72804039D01*
X144520498Y-72862545D01*
X144520996Y-72932413D01*
X144483643Y-72991459D01*
X144482305Y-72992618D01*
X144365111Y-73092711D01*
X144210137Y-73274163D01*
X144085458Y-73477620D01*
X143994139Y-73698081D01*
X143941342Y-73917999D01*
X143941342Y-73918000D01*
X145056808Y-73918000D01*
X145009997Y-73999079D01*
X144979329Y-74133447D01*
X144989628Y-74270886D01*
X145039981Y-74399182D01*
X145054988Y-74418000D01*
X143941342Y-74418000D01*
X143994139Y-74637918D01*
X144085458Y-74858379D01*
X144210137Y-75061836D01*
X144365111Y-75243288D01*
X144546563Y-75398262D01*
X144750020Y-75522941D01*
X144970481Y-75614260D01*
X145190399Y-75667057D01*
X145190400Y-75667057D01*
X145190400Y-74550903D01*
X145239788Y-74584576D01*
X145371488Y-74625200D01*
X145474660Y-74625200D01*
X145576684Y-74609822D01*
X145690400Y-74555059D01*
X145690400Y-75667057D01*
X145910318Y-75614260D01*
X146130779Y-75522941D01*
X146334236Y-75398262D01*
X146515691Y-75243285D01*
X146616110Y-75125711D01*
X146674616Y-75087517D01*
X146744484Y-75087018D01*
X146803531Y-75124372D01*
X146804690Y-75125711D01*
X146905108Y-75243285D01*
X147086563Y-75398262D01*
X147290020Y-75522941D01*
X147510481Y-75614260D01*
X147730399Y-75667057D01*
X147730400Y-75667057D01*
X147730400Y-74550903D01*
X147779788Y-74584576D01*
X147911488Y-74625200D01*
X148014660Y-74625200D01*
X148116684Y-74609822D01*
X148230400Y-74555059D01*
X148230400Y-75667057D01*
X148450318Y-75614260D01*
X148670779Y-75522941D01*
X148874236Y-75398262D01*
X149055688Y-75243288D01*
X149210662Y-75061836D01*
X149335341Y-74858379D01*
X149426660Y-74637918D01*
X149479458Y-74418000D01*
X148363992Y-74418000D01*
X148410803Y-74336921D01*
X148441471Y-74202553D01*
X148431172Y-74065114D01*
X148380819Y-73936818D01*
X148365812Y-73918000D01*
X149479458Y-73918000D01*
X149479457Y-73917999D01*
X149426660Y-73698081D01*
X149335341Y-73477620D01*
X149210663Y-73274163D01*
X149210397Y-73273852D01*
X149210192Y-73273395D01*
X149205563Y-73265841D01*
X149206539Y-73265242D01*
X149181825Y-73210092D01*
X149192260Y-73141006D01*
X149230374Y-73094051D01*
X149238728Y-73087797D01*
X149238731Y-73087796D01*
X149353946Y-73001546D01*
X149440196Y-72886331D01*
X149490491Y-72751483D01*
X149496900Y-72691873D01*
X149496899Y-70564128D01*
X149490491Y-70504517D01*
X149440196Y-70369669D01*
X149353946Y-70254454D01*
X149238731Y-70168204D01*
X149103883Y-70117909D01*
X149044273Y-70111500D01*
X149040950Y-70111500D01*
X146919839Y-70111500D01*
X146919820Y-70111500D01*
X146916528Y-70111501D01*
X146913248Y-70111853D01*
X146913240Y-70111854D01*
X146856915Y-70117909D01*
X146722069Y-70168204D01*
X146606853Y-70254454D01*
X146514649Y-70377624D01*
X146458715Y-70419495D01*
X146389023Y-70424479D01*
X146343255Y-70401774D01*
X146342853Y-70402432D01*
X146335511Y-70397933D01*
X146334856Y-70397608D01*
X146334538Y-70397336D01*
X146334533Y-70397333D01*
X146334532Y-70397332D01*
X146131005Y-70272611D01*
X146131002Y-70272610D01*
X146131001Y-70272609D01*
X145910473Y-70181262D01*
X145678367Y-70125539D01*
X145440400Y-70106811D01*
X145202432Y-70125539D01*
X144970326Y-70181262D01*
X144749798Y-70272609D01*
X144546264Y-70397334D01*
X144364757Y-70552357D01*
X144209734Y-70733864D01*
X144085009Y-70937398D01*
X143993662Y-71157926D01*
X143937939Y-71390032D01*
X143919211Y-71627999D01*
X92100900Y-71627999D01*
X92100900Y-68370578D01*
X103893500Y-68370578D01*
X103893501Y-68373872D01*
X103893853Y-68377152D01*
X103893854Y-68377159D01*
X103899909Y-68433483D01*
X103950204Y-68568331D01*
X104036454Y-68683546D01*
X104151669Y-68769796D01*
X104286517Y-68820091D01*
X104346127Y-68826500D01*
X106473872Y-68826499D01*
X106533483Y-68820091D01*
X106668331Y-68769796D01*
X106783546Y-68683546D01*
X106869796Y-68568331D01*
X106869797Y-68568328D01*
X106875750Y-68560376D01*
X106931683Y-68518504D01*
X107001375Y-68513520D01*
X107047144Y-68536225D01*
X107047547Y-68535568D01*
X107054888Y-68540066D01*
X107055544Y-68540392D01*
X107055851Y-68540654D01*
X107055868Y-68540668D01*
X107259395Y-68665389D01*
X107266621Y-68668382D01*
X107479926Y-68756737D01*
X107553254Y-68774341D01*
X107712034Y-68812461D01*
X107950000Y-68831189D01*
X108187966Y-68812461D01*
X108420073Y-68756737D01*
X108640605Y-68665389D01*
X108844132Y-68540668D01*
X109025643Y-68385643D01*
X109125711Y-68268478D01*
X109184217Y-68230286D01*
X109254085Y-68229788D01*
X109313131Y-68267141D01*
X109314255Y-68268439D01*
X109414357Y-68385643D01*
X109529386Y-68483887D01*
X109595860Y-68540662D01*
X109595868Y-68540668D01*
X109799395Y-68665389D01*
X109806621Y-68668382D01*
X110019926Y-68756737D01*
X110093254Y-68774341D01*
X110252034Y-68812461D01*
X110490000Y-68831189D01*
X110727966Y-68812461D01*
X110960073Y-68756737D01*
X111180605Y-68665389D01*
X111384132Y-68540668D01*
X111565643Y-68385643D01*
X111720668Y-68204132D01*
X111845389Y-68000605D01*
X111936737Y-67780073D01*
X111989572Y-67560000D01*
X119150942Y-67560000D01*
X119203739Y-67779918D01*
X119295058Y-68000379D01*
X119419737Y-68203836D01*
X119574711Y-68385288D01*
X119756163Y-68540262D01*
X119959620Y-68664941D01*
X120180081Y-68756260D01*
X120399998Y-68809057D01*
X120399999Y-68809057D01*
X120399999Y-67692903D01*
X120449388Y-67726576D01*
X120581088Y-67767200D01*
X120684260Y-67767200D01*
X120786284Y-67751822D01*
X120900000Y-67697059D01*
X120900000Y-68809057D01*
X121119918Y-68756260D01*
X121340379Y-68664941D01*
X121543836Y-68540262D01*
X121725287Y-68385289D01*
X121825380Y-68268095D01*
X121883887Y-68229902D01*
X121953755Y-68229402D01*
X122012801Y-68266756D01*
X122013940Y-68268070D01*
X122114357Y-68385643D01*
X122229386Y-68483887D01*
X122295860Y-68540662D01*
X122295868Y-68540668D01*
X122499395Y-68665389D01*
X122506621Y-68668382D01*
X122719926Y-68756737D01*
X122793254Y-68774341D01*
X122952034Y-68812461D01*
X123190000Y-68831189D01*
X123427966Y-68812461D01*
X123660073Y-68756737D01*
X123880605Y-68665389D01*
X124084132Y-68540668D01*
X124084449Y-68540396D01*
X124084909Y-68540190D01*
X124092453Y-68535568D01*
X124093050Y-68536542D01*
X124148209Y-68511826D01*
X124217295Y-68522261D01*
X124264249Y-68560375D01*
X124270203Y-68568328D01*
X124270204Y-68568331D01*
X124356454Y-68683546D01*
X124471669Y-68769796D01*
X124606517Y-68820091D01*
X124666127Y-68826500D01*
X126793872Y-68826499D01*
X126853483Y-68820091D01*
X126988331Y-68769796D01*
X127103546Y-68683546D01*
X127189796Y-68568331D01*
X127240091Y-68433483D01*
X127246500Y-68373873D01*
X127246499Y-66246128D01*
X127240091Y-66186517D01*
X127189796Y-66051669D01*
X127103546Y-65936454D01*
X126988331Y-65850204D01*
X126853483Y-65799909D01*
X126793873Y-65793500D01*
X126790550Y-65793500D01*
X124669439Y-65793500D01*
X124669420Y-65793500D01*
X124666128Y-65793501D01*
X124662848Y-65793853D01*
X124662840Y-65793854D01*
X124606515Y-65799909D01*
X124471669Y-65850204D01*
X124356453Y-65936454D01*
X124264249Y-66059624D01*
X124208315Y-66101495D01*
X124138623Y-66106479D01*
X124092855Y-66083774D01*
X124092453Y-66084432D01*
X124085111Y-66079933D01*
X124084456Y-66079608D01*
X124084138Y-66079336D01*
X124084133Y-66079333D01*
X124084132Y-66079332D01*
X123880605Y-65954611D01*
X123880602Y-65954610D01*
X123880601Y-65954609D01*
X123660073Y-65863262D01*
X123427967Y-65807539D01*
X123308983Y-65798175D01*
X123190000Y-65788811D01*
X123189999Y-65788811D01*
X122952032Y-65807539D01*
X122719926Y-65863262D01*
X122499398Y-65954609D01*
X122295864Y-66079334D01*
X122114357Y-66234357D01*
X122013961Y-66351905D01*
X121955454Y-66390098D01*
X121885586Y-66390596D01*
X121826540Y-66353242D01*
X121825381Y-66351904D01*
X121725291Y-66234714D01*
X121543836Y-66079737D01*
X121340379Y-65955058D01*
X121119919Y-65863740D01*
X120900000Y-65810940D01*
X120900000Y-66927096D01*
X120850612Y-66893424D01*
X120718912Y-66852800D01*
X120615740Y-66852800D01*
X120513716Y-66868178D01*
X120399998Y-66922940D01*
X120399999Y-65810940D01*
X120180080Y-65863740D01*
X119959620Y-65955058D01*
X119756163Y-66079737D01*
X119574711Y-66234711D01*
X119419737Y-66416163D01*
X119295058Y-66619620D01*
X119203739Y-66840081D01*
X119150942Y-67059999D01*
X119150942Y-67060000D01*
X120266408Y-67060000D01*
X120219597Y-67141079D01*
X120188929Y-67275447D01*
X120199228Y-67412886D01*
X120249581Y-67541182D01*
X120264588Y-67560000D01*
X119150942Y-67560000D01*
X111989572Y-67560000D01*
X111992461Y-67547966D01*
X112011189Y-67310000D01*
X111992461Y-67072034D01*
X111949581Y-66893424D01*
X111936737Y-66839926D01*
X111845390Y-66619398D01*
X111845389Y-66619395D01*
X111720668Y-66415868D01*
X111698658Y-66390098D01*
X111667180Y-66353242D01*
X111565643Y-66234357D01*
X111408910Y-66100494D01*
X111384135Y-66079334D01*
X111181334Y-65955058D01*
X111180605Y-65954611D01*
X111180602Y-65954610D01*
X111180601Y-65954609D01*
X110960073Y-65863262D01*
X110727967Y-65807539D01*
X110490000Y-65788811D01*
X110252032Y-65807539D01*
X110019926Y-65863262D01*
X109799398Y-65954609D01*
X109595864Y-66079334D01*
X109414357Y-66234357D01*
X109314290Y-66351520D01*
X109255783Y-66389713D01*
X109185915Y-66390211D01*
X109126869Y-66352857D01*
X109125710Y-66351520D01*
X109048017Y-66260554D01*
X109025643Y-66234357D01*
X108868910Y-66100494D01*
X108844135Y-66079334D01*
X108641334Y-65955058D01*
X108640605Y-65954611D01*
X108640602Y-65954610D01*
X108640601Y-65954609D01*
X108420073Y-65863262D01*
X108187967Y-65807539D01*
X108068983Y-65798175D01*
X107950000Y-65788811D01*
X107949999Y-65788811D01*
X107712032Y-65807539D01*
X107479926Y-65863262D01*
X107259398Y-65954609D01*
X107055857Y-66079339D01*
X107055537Y-66079613D01*
X107055068Y-66079822D01*
X107047547Y-66084432D01*
X107046950Y-66083459D01*
X106991773Y-66108176D01*
X106922688Y-66097731D01*
X106875750Y-66059624D01*
X106869797Y-66051671D01*
X106869796Y-66051669D01*
X106783546Y-65936454D01*
X106751443Y-65912422D01*
X106668331Y-65850204D01*
X106533483Y-65799909D01*
X106477166Y-65793854D01*
X106477165Y-65793853D01*
X106473873Y-65793500D01*
X106470550Y-65793500D01*
X104349439Y-65793500D01*
X104349420Y-65793500D01*
X104346128Y-65793501D01*
X104342848Y-65793853D01*
X104342840Y-65793854D01*
X104286515Y-65799909D01*
X104151669Y-65850204D01*
X104036454Y-65936454D01*
X103950204Y-66051668D01*
X103899910Y-66186515D01*
X103899909Y-66186517D01*
X103893500Y-66246127D01*
X103893500Y-66249448D01*
X103893500Y-66249449D01*
X103893500Y-68370560D01*
X103893500Y-68370578D01*
X92100900Y-68370578D01*
X92100900Y-63503605D01*
X92905526Y-63503605D01*
X92925424Y-63845255D01*
X92926263Y-63852434D01*
X92985690Y-64189462D01*
X92987352Y-64196475D01*
X93085513Y-64524353D01*
X93087970Y-64531102D01*
X93223530Y-64845368D01*
X93226763Y-64851804D01*
X93397880Y-65148189D01*
X93401848Y-65154221D01*
X93606216Y-65428735D01*
X93610848Y-65434256D01*
X93616548Y-65440297D01*
X93616549Y-65440298D01*
X94864065Y-64192781D01*
X95003255Y-64367320D01*
X95172699Y-64515358D01*
X95220208Y-64543743D01*
X93973217Y-65790733D01*
X93973218Y-65790734D01*
X94113115Y-65908122D01*
X94118902Y-65912430D01*
X94404841Y-66100494D01*
X94411091Y-66104102D01*
X94716909Y-66257691D01*
X94723548Y-66260554D01*
X95045142Y-66377605D01*
X95052039Y-66379670D01*
X95385066Y-66458599D01*
X95392150Y-66459848D01*
X95732099Y-66499582D01*
X95739268Y-66500000D01*
X96081532Y-66500000D01*
X96088700Y-66499582D01*
X96428649Y-66459848D01*
X96435733Y-66458599D01*
X96768760Y-66379670D01*
X96775657Y-66377605D01*
X97097251Y-66260554D01*
X97103890Y-66257691D01*
X97409708Y-66104102D01*
X97415958Y-66100494D01*
X97701909Y-65912422D01*
X97707668Y-65908135D01*
X97847580Y-65790734D01*
X97847581Y-65790733D01*
X96600525Y-64543678D01*
X96736147Y-64445144D01*
X96891639Y-64282512D01*
X96953201Y-64189248D01*
X98204251Y-65440298D01*
X98209945Y-65434262D01*
X98214583Y-65428735D01*
X98418951Y-65154221D01*
X98422919Y-65148189D01*
X98594036Y-64851804D01*
X98597269Y-64845368D01*
X98732829Y-64531102D01*
X98735286Y-64524353D01*
X98833447Y-64196475D01*
X98835109Y-64189462D01*
X98894536Y-63852434D01*
X98895375Y-63845255D01*
X98915274Y-63503605D01*
X130243526Y-63503605D01*
X130263424Y-63845255D01*
X130264263Y-63852434D01*
X130323690Y-64189462D01*
X130325352Y-64196475D01*
X130423513Y-64524353D01*
X130425970Y-64531102D01*
X130561530Y-64845368D01*
X130564763Y-64851804D01*
X130735880Y-65148189D01*
X130739848Y-65154221D01*
X130944216Y-65428735D01*
X130948848Y-65434256D01*
X130954548Y-65440297D01*
X130954548Y-65440298D01*
X132202065Y-64192780D01*
X132341255Y-64367320D01*
X132510699Y-64515358D01*
X132558208Y-64543743D01*
X131311217Y-65790733D01*
X131311218Y-65790734D01*
X131451115Y-65908122D01*
X131456902Y-65912430D01*
X131742841Y-66100494D01*
X131749091Y-66104102D01*
X132054909Y-66257691D01*
X132061548Y-66260554D01*
X132383142Y-66377605D01*
X132390039Y-66379670D01*
X132723066Y-66458599D01*
X132730150Y-66459848D01*
X133070099Y-66499582D01*
X133077268Y-66500000D01*
X133419532Y-66500000D01*
X133426700Y-66499582D01*
X133766649Y-66459848D01*
X133773733Y-66458599D01*
X134106760Y-66379670D01*
X134113657Y-66377605D01*
X134435251Y-66260554D01*
X134441890Y-66257691D01*
X134747708Y-66104102D01*
X134753958Y-66100494D01*
X135039909Y-65912422D01*
X135045668Y-65908135D01*
X135185580Y-65790734D01*
X135185581Y-65790733D01*
X133938525Y-64543678D01*
X134074147Y-64445144D01*
X134229639Y-64282512D01*
X134291201Y-64189248D01*
X135542251Y-65440298D01*
X135547945Y-65434262D01*
X135552583Y-65428735D01*
X135756951Y-65154221D01*
X135760919Y-65148189D01*
X135932036Y-64851804D01*
X135935269Y-64845368D01*
X136070829Y-64531102D01*
X136073286Y-64524353D01*
X136171447Y-64196475D01*
X136173109Y-64189462D01*
X136232536Y-63852434D01*
X136233375Y-63845255D01*
X136253274Y-63503605D01*
X136253274Y-63496394D01*
X136233375Y-63154744D01*
X136232536Y-63147565D01*
X136173109Y-62810537D01*
X136171447Y-62803524D01*
X136073286Y-62475646D01*
X136070829Y-62468897D01*
X135935269Y-62154631D01*
X135932036Y-62148195D01*
X135760919Y-61851810D01*
X135756951Y-61845778D01*
X135552583Y-61571264D01*
X135547951Y-61565743D01*
X135542250Y-61559701D01*
X135542250Y-61559700D01*
X134294733Y-62807216D01*
X134155545Y-62632680D01*
X133986101Y-62484642D01*
X133938590Y-62456255D01*
X135185580Y-61209266D01*
X135045660Y-61091858D01*
X135039907Y-61087575D01*
X134753958Y-60899505D01*
X134747708Y-60895897D01*
X134441890Y-60742308D01*
X134435251Y-60739445D01*
X134113657Y-60622394D01*
X134106760Y-60620329D01*
X133773733Y-60541400D01*
X133766649Y-60540151D01*
X133426700Y-60500417D01*
X133419532Y-60500000D01*
X133077268Y-60500000D01*
X133070099Y-60500417D01*
X132730150Y-60540151D01*
X132723066Y-60541400D01*
X132390039Y-60620329D01*
X132383142Y-60622394D01*
X132061548Y-60739445D01*
X132054909Y-60742308D01*
X131749091Y-60895897D01*
X131742841Y-60899505D01*
X131456892Y-61087575D01*
X131451130Y-61091865D01*
X131311217Y-61209264D01*
X132558274Y-62456321D01*
X132422653Y-62554856D01*
X132267161Y-62717488D01*
X132205598Y-62810750D01*
X130954548Y-61559701D01*
X130954547Y-61559701D01*
X130948842Y-61565749D01*
X130944220Y-61571258D01*
X130739848Y-61845778D01*
X130735880Y-61851810D01*
X130564763Y-62148195D01*
X130561530Y-62154631D01*
X130425970Y-62468897D01*
X130423513Y-62475646D01*
X130325352Y-62803524D01*
X130323690Y-62810537D01*
X130264263Y-63147565D01*
X130263424Y-63154744D01*
X130243526Y-63496394D01*
X130243526Y-63503605D01*
X98915274Y-63503605D01*
X98915274Y-63496394D01*
X98895375Y-63154744D01*
X98894536Y-63147565D01*
X98835109Y-62810537D01*
X98833447Y-62803524D01*
X98735286Y-62475646D01*
X98732829Y-62468897D01*
X98597269Y-62154631D01*
X98594036Y-62148195D01*
X98422919Y-61851810D01*
X98418951Y-61845778D01*
X98214583Y-61571264D01*
X98209951Y-61565743D01*
X98204250Y-61559701D01*
X98204250Y-61559700D01*
X96956733Y-62807217D01*
X96817545Y-62632680D01*
X96648101Y-62484642D01*
X96600591Y-62456255D01*
X97847580Y-61209265D01*
X97707660Y-61091858D01*
X97701907Y-61087575D01*
X97415958Y-60899505D01*
X97409708Y-60895897D01*
X97103890Y-60742308D01*
X97097251Y-60739445D01*
X96775657Y-60622394D01*
X96768760Y-60620329D01*
X96435733Y-60541400D01*
X96428649Y-60540151D01*
X96088700Y-60500417D01*
X96081532Y-60500000D01*
X95739268Y-60500000D01*
X95732099Y-60500417D01*
X95392150Y-60540151D01*
X95385066Y-60541400D01*
X95052039Y-60620329D01*
X95045142Y-60622394D01*
X94723548Y-60739445D01*
X94716909Y-60742308D01*
X94411091Y-60895897D01*
X94404841Y-60899505D01*
X94118892Y-61087575D01*
X94113130Y-61091865D01*
X93973217Y-61209264D01*
X95220274Y-62456321D01*
X95084653Y-62554856D01*
X94929161Y-62717488D01*
X94867598Y-62810751D01*
X93616548Y-61559701D01*
X93616547Y-61559701D01*
X93610842Y-61565749D01*
X93606220Y-61571258D01*
X93401848Y-61845778D01*
X93397880Y-61851810D01*
X93226763Y-62148195D01*
X93223530Y-62154631D01*
X93087970Y-62468897D01*
X93085513Y-62475646D01*
X92987352Y-62803524D01*
X92985690Y-62810537D01*
X92926263Y-63147565D01*
X92925424Y-63154744D01*
X92905526Y-63496394D01*
X92905526Y-63503605D01*
X92100900Y-63503605D01*
X92100900Y-60964873D01*
X92101282Y-60955145D01*
X92105379Y-60903078D01*
X92117686Y-60762412D01*
X92120638Y-60744293D01*
X92121802Y-60739445D01*
X92139558Y-60665486D01*
X92140301Y-60662558D01*
X92168533Y-60557196D01*
X92173743Y-60541848D01*
X92174446Y-60540151D01*
X92207037Y-60461469D01*
X92209154Y-60456656D01*
X92252736Y-60363196D01*
X92259354Y-60350878D01*
X92305972Y-60274806D01*
X92310073Y-60268552D01*
X92368008Y-60185812D01*
X92375243Y-60176468D01*
X92433723Y-60107996D01*
X92440283Y-60100900D01*
X92511300Y-60029883D01*
X92518396Y-60023323D01*
X92586868Y-59964843D01*
X92596212Y-59957608D01*
X92678952Y-59899673D01*
X92685206Y-59895572D01*
X92761278Y-59848954D01*
X92773596Y-59842336D01*
X92867056Y-59798754D01*
X92871869Y-59796637D01*
X92952253Y-59763341D01*
X92967596Y-59758133D01*
X93072959Y-59729901D01*
X93075869Y-59729162D01*
X93154705Y-59710235D01*
X93172816Y-59707286D01*
X93313478Y-59694979D01*
X93365567Y-59690880D01*
X93375268Y-59690500D01*
X135783526Y-59690500D01*
X135793253Y-59690881D01*
G37*
%TD.AperFunction*%
%TD*%
M02*
