M48
; DRILL file {KiCad 7.0.2} date Fri May 19 13:56:44 2023
; FORMAT={-:-/ absolute / inch / decimal}
; #@! TF.CreationDate,2023-05-19T13:56:44-04:00
; #@! TF.GenerationSoftware,Kicad,Pcbnew,7.0.2
; #@! TF.FileFunction,Plated,1,2,PTH
FMAT,2
INCH
; #@! TA.AperFunction,Plated,PTH,ComponentDrill
T1C0.0360
; #@! TA.AperFunction,Plated,PTH,ComponentDrill
T2C0.0984
; #@! TA.AperFunction,Plated,PTH,ComponentDrill
T3C0.1575
%
G90
G05
T1
X4.15Y-2.65
X4.25Y-2.65
X4.3Y-3.4481
X4.3Y-3.5466
X4.35Y-2.65
X4.3684Y-3.93
X4.39Y-2.89
X4.39Y-3.19
X4.397Y-4.5808
X4.397Y-4.6808
X4.5166Y-3.51
X4.5166Y-3.61
X4.5166Y-3.71
X4.5652Y-3.93
X4.646Y-4.17
X4.65Y-2.89
X4.65Y-3.19
X4.65Y-4.58
X4.65Y-4.68
X4.7291Y-3.93
X4.75Y-2.65
X4.75Y-4.58
X4.75Y-4.68
X4.85Y-2.65
X4.85Y-2.89
X4.85Y-3.19
X4.85Y-4.58
X4.85Y-4.68
X4.926Y-3.93
X4.946Y-4.17
X4.95Y-2.65
X4.95Y-4.58
X4.95Y-4.68
X5.05Y-2.89
X5.05Y-3.19
X5.1186Y-4.17
X5.2186Y-4.17
X5.726Y-2.82
X5.726Y-2.92
X5.726Y-4.58
X5.726Y-4.68
X5.826Y-2.82
X5.826Y-2.92
X5.826Y-4.58
X5.826Y-4.68
T2
X3.776Y-2.5
X3.776Y-5.0
X5.246Y-2.5
X5.246Y-5.0
T3
X5.1766Y-3.61
T1
G00X3.9419Y-2.993
M15
G01X3.9419Y-3.097
M16
G05
G00X4.018Y-3.23
M15
G01X4.102Y-3.23
M16
G05
G00X4.1781Y-2.993
M15
G01X4.1781Y-3.097
M16
G05
T0
M30
