%TF.GenerationSoftware,KiCad,Pcbnew,7.0.2*%
%TF.CreationDate,2023-05-16T16:52:15-04:00*%
%TF.ProjectId,breadboard_psu,62726561-6462-46f6-9172-645f7073752e,A*%
%TF.SameCoordinates,Original*%
%TF.FileFunction,Copper,L1,Top*%
%TF.FilePolarity,Positive*%
%FSLAX46Y46*%
G04 Gerber Fmt 4.6, Leading zero omitted, Abs format (unit mm)*
G04 Created by KiCad (PCBNEW 7.0.2) date 2023-05-16 16:52:15*
%MOMM*%
%LPD*%
G01*
G04 APERTURE LIST*
G04 Aperture macros list*
%AMRoundRect*
0 Rectangle with rounded corners*
0 $1 Rounding radius*
0 $2 $3 $4 $5 $6 $7 $8 $9 X,Y pos of 4 corners*
0 Add a 4 corners polygon primitive as box body*
4,1,4,$2,$3,$4,$5,$6,$7,$8,$9,$2,$3,0*
0 Add four circle primitives for the rounded corners*
1,1,$1+$1,$2,$3*
1,1,$1+$1,$4,$5*
1,1,$1+$1,$6,$7*
1,1,$1+$1,$8,$9*
0 Add four rect primitives between the rounded corners*
20,1,$1+$1,$2,$3,$4,$5,0*
20,1,$1+$1,$4,$5,$6,$7,0*
20,1,$1+$1,$6,$7,$8,$9,0*
20,1,$1+$1,$8,$9,$2,$3,0*%
G04 Aperture macros list end*
%TA.AperFunction,NonConductor*%
%ADD10C,0.050800*%
%TD*%
%TA.AperFunction,NonConductor*%
%ADD11C,0.200000*%
%TD*%
%TA.AperFunction,ComponentPad*%
%ADD12R,1.700000X1.700000*%
%TD*%
%TA.AperFunction,ComponentPad*%
%ADD13O,1.700000X1.700000*%
%TD*%
%TA.AperFunction,ComponentPad*%
%ADD14C,2.900000*%
%TD*%
%TA.AperFunction,ConnectorPad*%
%ADD15C,5.000000*%
%TD*%
%TA.AperFunction,ComponentPad*%
%ADD16R,2.000000X4.500000*%
%TD*%
%TA.AperFunction,ComponentPad*%
%ADD17RoundRect,1.000000X0.000000X-1.250000X0.000000X-1.250000X0.000000X1.250000X0.000000X1.250000X0*%
%TD*%
%TA.AperFunction,ComponentPad*%
%ADD18RoundRect,1.000000X-1.000000X0.000000X1.000000X0.000000X1.000000X0.000000X-1.000000X0.000000X0*%
%TD*%
%TA.AperFunction,HeatsinkPad*%
%ADD19C,5.500000*%
%TD*%
%TA.AperFunction,ComponentPad*%
%ADD20C,1.600000*%
%TD*%
%TA.AperFunction,ComponentPad*%
%ADD21O,1.600000X1.600000*%
%TD*%
%TA.AperFunction,Conductor*%
%ADD22C,1.000000*%
%TD*%
%TA.AperFunction,Conductor*%
%ADD23C,1.016000*%
%TD*%
G04 APERTURE END LIST*
D10*
X108737800Y-116388200D02*
X108610800Y-116464400D01*
X108331400Y-116591400D01*
X108026600Y-116896200D01*
X107848800Y-117302600D01*
X107798000Y-117734400D01*
X107823400Y-118140800D01*
X108001200Y-118623400D01*
X108356800Y-119029800D01*
X108763200Y-119258400D01*
X109118800Y-119360000D01*
X109499800Y-119410800D01*
X109931600Y-119410800D01*
X110388800Y-119360000D01*
X110769800Y-119233000D01*
X111150800Y-118953600D01*
X111354000Y-118674200D01*
X111531800Y-118344000D01*
X111608000Y-117836000D01*
X111531800Y-117251800D01*
X111303200Y-116870800D01*
X110998400Y-116642200D01*
X110744400Y-116515200D01*
X110414200Y-116489800D01*
X110261800Y-116489800D01*
X110261800Y-117963000D01*
X110160200Y-118039200D01*
X109626800Y-118039200D01*
X109525200Y-117937600D01*
X109525200Y-115778600D01*
X109601400Y-115702400D01*
X112141400Y-115702400D01*
X112243000Y-115778600D01*
X112243000Y-116235800D01*
X112166800Y-116312000D01*
X111735000Y-116388200D01*
X111989000Y-116667600D01*
X112192200Y-117099400D01*
X112319200Y-117582000D01*
X112319200Y-118090000D01*
X112217600Y-118598000D01*
X112039800Y-119080600D01*
X111760400Y-119410800D01*
X111379400Y-119741000D01*
X110973000Y-119969600D01*
X110439600Y-120147400D01*
X109906200Y-120198200D01*
X109398200Y-120198200D01*
X108890200Y-120122000D01*
X108382200Y-119944200D01*
X107899600Y-119664800D01*
X107467800Y-119207600D01*
X107188400Y-118623400D01*
X107086800Y-117988400D01*
X107112200Y-117404200D01*
X107213800Y-116921600D01*
X107391600Y-116515200D01*
X107696400Y-116134200D01*
X108026600Y-115905600D01*
X108382200Y-115753200D01*
X108636200Y-115677000D01*
X108737800Y-115677000D01*
X108737800Y-116388200D01*
%TA.AperFunction,NonConductor*%
G36*
X108737800Y-116388200D02*
G01*
X108610800Y-116464400D01*
X108331400Y-116591400D01*
X108026600Y-116896200D01*
X107848800Y-117302600D01*
X107798000Y-117734400D01*
X107823400Y-118140800D01*
X108001200Y-118623400D01*
X108356800Y-119029800D01*
X108763200Y-119258400D01*
X109118800Y-119360000D01*
X109499800Y-119410800D01*
X109931600Y-119410800D01*
X110388800Y-119360000D01*
X110769800Y-119233000D01*
X111150800Y-118953600D01*
X111354000Y-118674200D01*
X111531800Y-118344000D01*
X111608000Y-117836000D01*
X111531800Y-117251800D01*
X111303200Y-116870800D01*
X110998400Y-116642200D01*
X110744400Y-116515200D01*
X110414200Y-116489800D01*
X110261800Y-116489800D01*
X110261800Y-117963000D01*
X110160200Y-118039200D01*
X109626800Y-118039200D01*
X109525200Y-117937600D01*
X109525200Y-115778600D01*
X109601400Y-115702400D01*
X112141400Y-115702400D01*
X112243000Y-115778600D01*
X112243000Y-116235800D01*
X112166800Y-116312000D01*
X111735000Y-116388200D01*
X111989000Y-116667600D01*
X112192200Y-117099400D01*
X112319200Y-117582000D01*
X112319200Y-118090000D01*
X112217600Y-118598000D01*
X112039800Y-119080600D01*
X111760400Y-119410800D01*
X111379400Y-119741000D01*
X110973000Y-119969600D01*
X110439600Y-120147400D01*
X109906200Y-120198200D01*
X109398200Y-120198200D01*
X108890200Y-120122000D01*
X108382200Y-119944200D01*
X107899600Y-119664800D01*
X107467800Y-119207600D01*
X107188400Y-118623400D01*
X107086800Y-117988400D01*
X107112200Y-117404200D01*
X107213800Y-116921600D01*
X107391600Y-116515200D01*
X107696400Y-116134200D01*
X108026600Y-115905600D01*
X108382200Y-115753200D01*
X108636200Y-115677000D01*
X108737800Y-115677000D01*
X108737800Y-116388200D01*
G37*
%TD.AperFunction*%
D11*
X107899600Y-114635600D02*
X109296600Y-114635600D01*
X109296600Y-112146400D01*
X110033200Y-112146400D01*
X110033200Y-114635600D01*
X111531800Y-114635600D01*
X111531800Y-112019400D01*
X112243000Y-112019400D01*
X112243000Y-115448400D01*
X107137600Y-115448400D01*
X107163000Y-112019400D01*
X107899600Y-112019400D01*
X107899600Y-114635600D01*
X107315400Y-119385400D02*
X107544000Y-119614000D01*
X107772600Y-119842600D01*
X107798000Y-120604600D01*
X112116000Y-120604600D01*
X112116000Y-121366600D01*
X107798000Y-121366600D01*
X107798000Y-123017600D01*
X107036000Y-123017600D01*
X107036000Y-119131400D01*
X107163000Y-119131400D01*
X107315400Y-119385400D01*
D12*
%TO.P,J3,1,Pin_1*%
%TO.N,VCC*%
X144678400Y-116586000D03*
D13*
%TO.P,J3,2,Pin_2*%
X142138400Y-116586000D03*
%TO.P,J3,3,Pin_3*%
%TO.N,GND*%
X144678400Y-119126000D03*
%TO.P,J3,4,Pin_4*%
X142138400Y-119126000D03*
%TD*%
D12*
%TO.P,J2,1,Pin_1*%
%TO.N,VCC*%
X144678400Y-70866000D03*
D13*
%TO.P,J2,2,Pin_2*%
X142138400Y-70866000D03*
%TO.P,J2,3,Pin_3*%
%TO.N,GND*%
X144678400Y-73406000D03*
%TO.P,J2,4,Pin_4*%
X142138400Y-73406000D03*
%TD*%
D12*
%TO.P,D2,1,K*%
%TO.N,GND*%
X132553400Y-105918000D03*
D13*
%TO.P,D2,2,A*%
%TO.N,Net-(D2-A)*%
X130013400Y-105918000D03*
%TD*%
D14*
%TO.P,H4,1,1*%
%TO.N,GND*%
X132334000Y-126492000D03*
D15*
X132334000Y-126492000D03*
%TD*%
D16*
%TO.P,J1,1*%
%TO.N,Net-(SW1A-B)*%
X106124000Y-77342000D03*
D17*
%TO.P,J1,2*%
%TO.N,GND*%
X100124000Y-77342000D03*
D18*
%TO.P,J1,3,MountPin*%
X103124000Y-82042000D03*
%TD*%
D13*
%TO.P,U1,*%
%TO.N,*%
X131382000Y-91694000D03*
%TO.P,U1,1,ADJ*%
%TO.N,Net-(U1-ADJ)*%
X114722000Y-89154000D03*
%TO.P,U1,2,VO*%
%TO.N,VCC*%
X114722000Y-91694000D03*
%TO.P,U1,3,VI*%
%TO.N,+7.5V*%
X114722000Y-94234000D03*
D19*
%TO.P,U1,4,TAB*%
%TO.N,VCC*%
X131486000Y-91694000D03*
%TD*%
D13*
%TO.P,H1,1,1*%
%TO.N,GND*%
X95885000Y-63500000D03*
D15*
X95885000Y-63500000D03*
%TD*%
D20*
%TO.P,R1,1*%
%TO.N,VCC*%
X115824000Y-105918000D03*
D21*
%TO.P,R1,2*%
%TO.N,Net-(D2-A)*%
X125984000Y-105918000D03*
%TD*%
D13*
%TO.P,R4,1*%
%TO.N,Net-(SW2A-B)*%
X118110000Y-72136000D03*
%TO.P,R4,2*%
%TO.N,GND*%
X118110000Y-82296000D03*
%TD*%
%TO.P,H3,1,1*%
%TO.N,GND*%
X132334000Y-63500000D03*
D15*
X132334000Y-63500000D03*
%TD*%
D12*
%TO.P,SW2,1,A*%
%TO.N,unconnected-(SW2A-A-Pad1)*%
X125730000Y-67310000D03*
D13*
%TO.P,SW2,2,B*%
%TO.N,Net-(SW2A-B)*%
X123190000Y-67310000D03*
%TO.P,SW2,3,C*%
%TO.N,GND*%
X120650000Y-67310000D03*
%TD*%
D12*
%TO.P,D1,1,K*%
%TO.N,+7.5V*%
X111506000Y-82804000D03*
D13*
%TO.P,D1,2,A*%
%TO.N,Net-(D1-A)*%
X111506000Y-72644000D03*
%TD*%
D12*
%TO.P,C1,1*%
%TO.N,VCC*%
X115759113Y-99822000D03*
D13*
%TO.P,C1,2*%
%TO.N,GND*%
X113259113Y-99822000D03*
%TD*%
%TO.P,R3,1*%
%TO.N,Net-(U1-ADJ)*%
X123190000Y-82296000D03*
%TO.P,R3,2*%
%TO.N,Net-(SW2A-B)*%
X123190000Y-72136000D03*
%TD*%
%TO.P,R2,1*%
%TO.N,VCC*%
X128270000Y-72136000D03*
%TO.P,R2,2*%
%TO.N,Net-(U1-ADJ)*%
X128270000Y-82296000D03*
%TD*%
D14*
%TO.P,H2,1,1*%
%TO.N,GND*%
X95885000Y-126492000D03*
D15*
X95885000Y-126492000D03*
%TD*%
D13*
%TO.P,C2,1*%
%TO.N,VCC*%
X119054113Y-99822000D03*
%TO.P,C2,2*%
%TO.N,GND*%
X126554113Y-99822000D03*
%TD*%
D12*
%TO.P,J5,1,Pin_1*%
%TO.N,+7.5V*%
X104292400Y-116332000D03*
D13*
%TO.P,J5,2,Pin_2*%
%TO.N,GND*%
X104292400Y-118872000D03*
%TD*%
D12*
%TO.P,SW1,1,A*%
%TO.N,unconnected-(SW1A-A-Pad1)*%
X105410000Y-67310000D03*
D13*
%TO.P,SW1,2,B*%
%TO.N,Net-(SW1A-B)*%
X107950000Y-67310000D03*
%TO.P,SW1,3,C*%
%TO.N,Net-(D1-A)*%
X110490000Y-67310000D03*
%TD*%
%TO.P,J4,8,Pin_8*%
%TO.N,GND*%
X118110000Y-118872000D03*
%TO.P,J4,7,Pin_7*%
%TO.N,VCC*%
X118110000Y-116332000D03*
%TO.P,J4,6,Pin_6*%
%TO.N,GND*%
X120650000Y-118872000D03*
%TO.P,J4,5,Pin_5*%
%TO.N,VCC*%
X120650000Y-116332000D03*
%TO.P,J4,4,Pin_4*%
%TO.N,GND*%
X123190000Y-118872000D03*
%TO.P,J4,3,Pin_3*%
%TO.N,VCC*%
X123190000Y-116332000D03*
%TO.P,J4,2,Pin_2*%
%TO.N,GND*%
X125730000Y-118872000D03*
D12*
%TO.P,J4,1,Pin_1*%
%TO.N,VCC*%
X125730000Y-116332000D03*
%TD*%
%TO.P,C3,1*%
%TO.N,+7.5V*%
X109220000Y-94146380D03*
D13*
%TO.P,C3,2*%
%TO.N,GND*%
X109220000Y-91646380D03*
%TD*%
D22*
%TO.N,Net-(D2-A)*%
X125984000Y-105918000D02*
X130013400Y-105918000D01*
D23*
%TO.N,+7.5V*%
X114722010Y-94233990D02*
G75*
G03*
X114510467Y-94146380I-211510J-211510D01*
G01*
%TO.N,Net-(D1-A)*%
X111506000Y-71689630D02*
X111506000Y-72644000D01*
X110490000Y-67310000D02*
X110490000Y-69236790D01*
X111505987Y-71689630D02*
G75*
G03*
X110744000Y-69850000I-2601587J30D01*
G01*
X110490005Y-69236790D02*
G75*
G03*
X110744001Y-69849999I867195J-10D01*
G01*
%TO.N,Net-(U1-ADJ)*%
X117282630Y-85471000D02*
X121254185Y-85471000D01*
X114722000Y-89154000D02*
X114722000Y-87973647D01*
X123190000Y-82296000D02*
X128270000Y-82296000D01*
X123190000Y-82637160D02*
X123190000Y-82296000D01*
X115442986Y-86232986D02*
G75*
G03*
X114722000Y-87973647I1740614J-1740614D01*
G01*
X122174012Y-85090012D02*
G75*
G03*
X123190000Y-82637160I-2452812J2452812D01*
G01*
X121254185Y-85470993D02*
G75*
G03*
X122174000Y-85090000I15J1300793D01*
G01*
X117282630Y-85471013D02*
G75*
G03*
X115443000Y-86233000I-30J-2601587D01*
G01*
%TO.N,Net-(SW2A-B)*%
X123190000Y-67310000D02*
X123190000Y-72136000D01*
X118110000Y-72136000D02*
X123190000Y-72136000D01*
%TO.N,Net-(SW1A-B)*%
X106124000Y-77342000D02*
X106124000Y-73942723D01*
X107950000Y-69534370D02*
X107950000Y-67310000D01*
X107187993Y-71373993D02*
G75*
G03*
X106124000Y-73942723I2568707J-2568707D01*
G01*
X107188009Y-71374009D02*
G75*
G03*
X107950000Y-69534370I-1839609J1839609D01*
G01*
%TD*%
%TA.AperFunction,Conductor*%
%TO.N,VCC*%
G36*
X120219597Y-116163079D02*
G01*
X120188929Y-116297447D01*
X120199228Y-116434886D01*
X120249581Y-116563182D01*
X120264588Y-116582000D01*
X118493592Y-116582000D01*
X118540403Y-116500921D01*
X118571071Y-116366553D01*
X118560772Y-116229114D01*
X118510419Y-116100818D01*
X118495412Y-116082000D01*
X120266408Y-116082000D01*
X120219597Y-116163079D01*
G37*
%TD.AperFunction*%
%TA.AperFunction,Conductor*%
G36*
X122759597Y-116163079D02*
G01*
X122728929Y-116297447D01*
X122739228Y-116434886D01*
X122789581Y-116563182D01*
X122804588Y-116582000D01*
X121033592Y-116582000D01*
X121080403Y-116500921D01*
X121111071Y-116366553D01*
X121100772Y-116229114D01*
X121050419Y-116100818D01*
X121035412Y-116082000D01*
X122806408Y-116082000D01*
X122759597Y-116163079D01*
G37*
%TD.AperFunction*%
%TA.AperFunction,Conductor*%
G36*
X125299597Y-116163079D02*
G01*
X125268929Y-116297447D01*
X125279228Y-116434886D01*
X125329581Y-116563182D01*
X125344588Y-116582000D01*
X123573592Y-116582000D01*
X123620403Y-116500921D01*
X123651071Y-116366553D01*
X123640772Y-116229114D01*
X123590419Y-116100818D01*
X123575412Y-116082000D01*
X125346408Y-116082000D01*
X125299597Y-116163079D01*
G37*
%TD.AperFunction*%
%TA.AperFunction,Conductor*%
G36*
X144247997Y-116417079D02*
G01*
X144217329Y-116551447D01*
X144227628Y-116688886D01*
X144277981Y-116817182D01*
X144292988Y-116836000D01*
X142521992Y-116836000D01*
X142568803Y-116754921D01*
X142599471Y-116620553D01*
X142589172Y-116483114D01*
X142538819Y-116354818D01*
X142523812Y-116336000D01*
X144294808Y-116336000D01*
X144247997Y-116417079D01*
G37*
%TD.AperFunction*%
%TA.AperFunction,Conductor*%
G36*
X144247997Y-70697079D02*
G01*
X144217329Y-70831447D01*
X144227628Y-70968886D01*
X144277981Y-71097182D01*
X144292988Y-71116000D01*
X142521992Y-71116000D01*
X142568803Y-71034921D01*
X142599471Y-70900553D01*
X142589172Y-70763114D01*
X142538819Y-70634818D01*
X142523812Y-70616000D01*
X144294808Y-70616000D01*
X144247997Y-70697079D01*
G37*
%TD.AperFunction*%
%TA.AperFunction,Conductor*%
G36*
X133861471Y-59690694D02*
G01*
X133973603Y-59696992D01*
X134142353Y-59707199D01*
X134155588Y-59708720D01*
X134288387Y-59731283D01*
X134434243Y-59758013D01*
X134446133Y-59760809D01*
X134578788Y-59799025D01*
X134581279Y-59799773D01*
X134718146Y-59842423D01*
X134728682Y-59846237D01*
X134857736Y-59899693D01*
X134861063Y-59901130D01*
X134990306Y-59959298D01*
X134999369Y-59963832D01*
X135119381Y-60030161D01*
X135122331Y-60031791D01*
X135126500Y-60034202D01*
X135246988Y-60107040D01*
X135254592Y-60112027D01*
X135369525Y-60193575D01*
X135374223Y-60197078D01*
X135484752Y-60283672D01*
X135490906Y-60288823D01*
X135596133Y-60382859D01*
X135601187Y-60387638D01*
X135700360Y-60486811D01*
X135705139Y-60491865D01*
X135799175Y-60597092D01*
X135804326Y-60603246D01*
X135890904Y-60713754D01*
X135894423Y-60718473D01*
X135975971Y-60833406D01*
X135980958Y-60841010D01*
X136053796Y-60961498D01*
X136056207Y-60965667D01*
X136124164Y-61088626D01*
X136128712Y-61097716D01*
X136186832Y-61226853D01*
X136188317Y-61230291D01*
X136241756Y-61359303D01*
X136245580Y-61369866D01*
X136288214Y-61506684D01*
X136288983Y-61509246D01*
X136327180Y-61641831D01*
X136329995Y-61653807D01*
X136356723Y-61799655D01*
X136379276Y-61932390D01*
X136380800Y-61945663D01*
X136391012Y-62114474D01*
X136397305Y-62226528D01*
X136397500Y-62233480D01*
X136397500Y-65244637D01*
X136397448Y-65244814D01*
X136397448Y-65287231D01*
X136397354Y-65287548D01*
X136397448Y-65290653D01*
X136397451Y-65435239D01*
X136397451Y-65435255D01*
X136397452Y-65438723D01*
X136397841Y-65442182D01*
X136397842Y-65442185D01*
X136416802Y-65610429D01*
X136417357Y-65616846D01*
X136421923Y-65692533D01*
X136428103Y-65710720D01*
X136429015Y-65718813D01*
X136429017Y-65718829D01*
X136429406Y-65722274D01*
X136430176Y-65725650D01*
X136430178Y-65725658D01*
X136474841Y-65921325D01*
X136475918Y-65926565D01*
X136487127Y-65987725D01*
X136492583Y-65999092D01*
X136491167Y-65993724D01*
X136492132Y-65997075D01*
X136492906Y-66000463D01*
X136494055Y-66003746D01*
X136573956Y-66232082D01*
X136575300Y-66236145D01*
X136585307Y-66268259D01*
X136588889Y-66273672D01*
X136587153Y-66269794D01*
X136709453Y-66523743D01*
X136709458Y-66523753D01*
X136710964Y-66526879D01*
X136711970Y-66528480D01*
X136714114Y-66532765D01*
X136715985Y-66534869D01*
X136832536Y-66720356D01*
X136832646Y-66720746D01*
X136833920Y-66722558D01*
X136862779Y-66768486D01*
X136864946Y-66771204D01*
X136864953Y-66771213D01*
X136868848Y-66776097D01*
X136873593Y-66782907D01*
X136875988Y-66785049D01*
X137012722Y-66956504D01*
X137013099Y-66957427D01*
X137016439Y-66961165D01*
X137027062Y-66974486D01*
X137040691Y-66991575D01*
X137043154Y-66994038D01*
X137043155Y-66994039D01*
X137057726Y-67008610D01*
X137062098Y-67013545D01*
X137064016Y-67014900D01*
X137111759Y-67062642D01*
X137211828Y-67162709D01*
X137219137Y-67170017D01*
X137219895Y-67171406D01*
X137225420Y-67176300D01*
X137242463Y-67193343D01*
X137245181Y-67195511D01*
X137245185Y-67195514D01*
X137272871Y-67217593D01*
X137276237Y-67220600D01*
X137277530Y-67221307D01*
X137448991Y-67358040D01*
X137450232Y-67359808D01*
X137457953Y-67365187D01*
X137462838Y-67369083D01*
X137462843Y-67369086D01*
X137465556Y-67371250D01*
X137511484Y-67400108D01*
X137513132Y-67401266D01*
X137513684Y-67401490D01*
X137699176Y-67518041D01*
X137700472Y-67519506D01*
X137705556Y-67522049D01*
X137707166Y-67523061D01*
X137964253Y-67646866D01*
X137960190Y-67645048D01*
X137964071Y-67648175D01*
X137997855Y-67658702D01*
X138001877Y-67660031D01*
X138233586Y-67741109D01*
X138236982Y-67741884D01*
X138240317Y-67742845D01*
X138232912Y-67740958D01*
X138242322Y-67746150D01*
X138307457Y-67758087D01*
X138312678Y-67759161D01*
X138511777Y-67804603D01*
X138523334Y-67805905D01*
X138537413Y-67811820D01*
X138617174Y-67816644D01*
X138623531Y-67817194D01*
X138795328Y-67836551D01*
X138937901Y-67836551D01*
X144776521Y-67836551D01*
X144783471Y-67836745D01*
X144891441Y-67842809D01*
X145064795Y-67853323D01*
X145078019Y-67854843D01*
X145206579Y-67876686D01*
X145356693Y-67904195D01*
X145368631Y-67907001D01*
X145498604Y-67944445D01*
X145501054Y-67945180D01*
X145640655Y-67988681D01*
X145651197Y-67992498D01*
X145778213Y-68045109D01*
X145781622Y-68046582D01*
X145912839Y-68105637D01*
X145921905Y-68110173D01*
X146043281Y-68177254D01*
X146047361Y-68179614D01*
X146169565Y-68253487D01*
X146177120Y-68258441D01*
X146290720Y-68339043D01*
X146295406Y-68342538D01*
X146407344Y-68430235D01*
X146413482Y-68435373D01*
X146505436Y-68517546D01*
X146517492Y-68528320D01*
X146522546Y-68533098D01*
X146622962Y-68633512D01*
X146627741Y-68638566D01*
X146720689Y-68742573D01*
X146725834Y-68748719D01*
X146813549Y-68860676D01*
X146817041Y-68865359D01*
X146893084Y-68972529D01*
X146897606Y-68978902D01*
X146902593Y-68986507D01*
X146976436Y-69108655D01*
X146978847Y-69112824D01*
X147045900Y-69234144D01*
X147050448Y-69243233D01*
X147109483Y-69374399D01*
X147110968Y-69377837D01*
X147163583Y-69504854D01*
X147167408Y-69515417D01*
X147210888Y-69654943D01*
X147211656Y-69657506D01*
X147249080Y-69787400D01*
X147251895Y-69799375D01*
X147279408Y-69949490D01*
X147301242Y-70077985D01*
X147302766Y-70091257D01*
X147313697Y-70271888D01*
X147319305Y-70371711D01*
X147319500Y-70378665D01*
X147319500Y-74164519D01*
X147319305Y-74171472D01*
X147313012Y-74283524D01*
X147302801Y-74452330D01*
X147301275Y-74465613D01*
X147278723Y-74598343D01*
X147251995Y-74744195D01*
X147249182Y-74756163D01*
X147210983Y-74888752D01*
X147210214Y-74891314D01*
X147167580Y-75028132D01*
X147163756Y-75038695D01*
X147110317Y-75167707D01*
X147108832Y-75171145D01*
X147050712Y-75300282D01*
X147046164Y-75309372D01*
X146978207Y-75432331D01*
X146975796Y-75436500D01*
X146902958Y-75556988D01*
X146897971Y-75564592D01*
X146816423Y-75679525D01*
X146812904Y-75684244D01*
X146726326Y-75794752D01*
X146721175Y-75800906D01*
X146627139Y-75906133D01*
X146622360Y-75911187D01*
X146523187Y-76010360D01*
X146518133Y-76015139D01*
X146412906Y-76109175D01*
X146406752Y-76114326D01*
X146296244Y-76200904D01*
X146291525Y-76204423D01*
X146176592Y-76285971D01*
X146168988Y-76290958D01*
X146048500Y-76363796D01*
X146044331Y-76366207D01*
X145921372Y-76434164D01*
X145912282Y-76438712D01*
X145783145Y-76496832D01*
X145779707Y-76498317D01*
X145650695Y-76551756D01*
X145640132Y-76555580D01*
X145503314Y-76598214D01*
X145500752Y-76598983D01*
X145368167Y-76637180D01*
X145356191Y-76639995D01*
X145210344Y-76666723D01*
X145077608Y-76689276D01*
X145064335Y-76690800D01*
X144895525Y-76701012D01*
X144783472Y-76707305D01*
X144776520Y-76707500D01*
X138938500Y-76707500D01*
X138938000Y-76707500D01*
X138795329Y-76707500D01*
X138791873Y-76707889D01*
X138791862Y-76707890D01*
X138623584Y-76726850D01*
X138617189Y-76727404D01*
X138541491Y-76731983D01*
X138523355Y-76738143D01*
X138520125Y-76738507D01*
X138515239Y-76739058D01*
X138515234Y-76739058D01*
X138511780Y-76739448D01*
X138508392Y-76740221D01*
X138508376Y-76740224D01*
X138312724Y-76784880D01*
X138307485Y-76785958D01*
X138246338Y-76797164D01*
X138234963Y-76802620D01*
X138240330Y-76801205D01*
X138236988Y-76802167D01*
X138233591Y-76802943D01*
X138230306Y-76804092D01*
X138230304Y-76804093D01*
X138001972Y-76883990D01*
X137997910Y-76885333D01*
X137965784Y-76895344D01*
X137960353Y-76898934D01*
X137964261Y-76897186D01*
X137710310Y-77019481D01*
X137710299Y-77019486D01*
X137707176Y-77020991D01*
X137705569Y-77022000D01*
X137701289Y-77024141D01*
X137699188Y-77026010D01*
X137513688Y-77142567D01*
X137513298Y-77142677D01*
X137511490Y-77143948D01*
X137468510Y-77170955D01*
X137465569Y-77172803D01*
X137462855Y-77174967D01*
X137462847Y-77174973D01*
X137457956Y-77178873D01*
X137451153Y-77183612D01*
X137449007Y-77186010D01*
X137277546Y-77322745D01*
X137276622Y-77323121D01*
X137272880Y-77326466D01*
X137245202Y-77348538D01*
X137245186Y-77348551D01*
X137242479Y-77350711D01*
X137240022Y-77353166D01*
X137240023Y-77353167D01*
X137225445Y-77367745D01*
X137220513Y-77372114D01*
X137219158Y-77374031D01*
X137064031Y-77529158D01*
X137062644Y-77529915D01*
X137057745Y-77535445D01*
X137040711Y-77552479D01*
X137038551Y-77555186D01*
X137038538Y-77555202D01*
X137016466Y-77582880D01*
X137013455Y-77586248D01*
X137012745Y-77587546D01*
X136876010Y-77759007D01*
X136874243Y-77760247D01*
X136868873Y-77767956D01*
X136864973Y-77772847D01*
X136864967Y-77772855D01*
X136862803Y-77775569D01*
X136860955Y-77778509D01*
X136860955Y-77778510D01*
X136833948Y-77821490D01*
X136832791Y-77823135D01*
X136832567Y-77823688D01*
X136716010Y-78009188D01*
X136714545Y-78010483D01*
X136712001Y-78015567D01*
X136710991Y-78017176D01*
X136709486Y-78020299D01*
X136709481Y-78020310D01*
X136587186Y-78274261D01*
X136588993Y-78270221D01*
X136585870Y-78274096D01*
X136575333Y-78307910D01*
X136573990Y-78311972D01*
X136492943Y-78543591D01*
X136492167Y-78546988D01*
X136491205Y-78550330D01*
X136492620Y-78544962D01*
X136487667Y-78553590D01*
X136475958Y-78617485D01*
X136474880Y-78622724D01*
X136430224Y-78818376D01*
X136430221Y-78818392D01*
X136429448Y-78821780D01*
X136429058Y-78825234D01*
X136429058Y-78825239D01*
X136428144Y-78833355D01*
X136422229Y-78847429D01*
X136417404Y-78927189D01*
X136416850Y-78933584D01*
X136397890Y-79101862D01*
X136397889Y-79101873D01*
X136397500Y-79105329D01*
X136397500Y-79108814D01*
X136397500Y-111004157D01*
X136397549Y-111004411D01*
X136397548Y-111119145D01*
X136397548Y-111122619D01*
X136397935Y-111126060D01*
X136397936Y-111126066D01*
X136416903Y-111294428D01*
X136417455Y-111300804D01*
X136422046Y-111376521D01*
X136428186Y-111394591D01*
X136429100Y-111402707D01*
X136429103Y-111402728D01*
X136429491Y-111406167D01*
X136430260Y-111409540D01*
X136430262Y-111409547D01*
X136474924Y-111605239D01*
X136476001Y-111610479D01*
X136487371Y-111672530D01*
X136492997Y-111684437D01*
X136491241Y-111677615D01*
X136492207Y-111680971D01*
X136492980Y-111684354D01*
X136494127Y-111687632D01*
X136574042Y-111916027D01*
X136575386Y-111920091D01*
X136585381Y-111952167D01*
X136588962Y-111957581D01*
X136587218Y-111953684D01*
X136709508Y-112207633D01*
X136709514Y-112207644D01*
X136711019Y-112210769D01*
X136712027Y-112212374D01*
X136714167Y-112216651D01*
X136716034Y-112218751D01*
X136832592Y-112404258D01*
X136832702Y-112404648D01*
X136833975Y-112406459D01*
X136860976Y-112449431D01*
X136860981Y-112449438D01*
X136862827Y-112452376D01*
X136868882Y-112459970D01*
X136873635Y-112466792D01*
X136876030Y-112468933D01*
X137012759Y-112640390D01*
X137013136Y-112641313D01*
X137016478Y-112645053D01*
X137040731Y-112675466D01*
X137043193Y-112677928D01*
X137057759Y-112692494D01*
X137062135Y-112697433D01*
X137064053Y-112698788D01*
X137140907Y-112775644D01*
X137219168Y-112853907D01*
X137219926Y-112855296D01*
X137225454Y-112860194D01*
X137242495Y-112877235D01*
X137245214Y-112879403D01*
X137245217Y-112879406D01*
X137272898Y-112901481D01*
X137276272Y-112904496D01*
X137277568Y-112905205D01*
X137449020Y-113041936D01*
X137450259Y-113043702D01*
X137457968Y-113049072D01*
X137465582Y-113055144D01*
X137511506Y-113084000D01*
X137513149Y-113085156D01*
X137513702Y-113085380D01*
X137699197Y-113201936D01*
X137700492Y-113203400D01*
X137705574Y-113205943D01*
X137707186Y-113206956D01*
X137964269Y-113330762D01*
X137960183Y-113328934D01*
X137964071Y-113332066D01*
X137997896Y-113342606D01*
X138001935Y-113343942D01*
X138233597Y-113425005D01*
X138237000Y-113425781D01*
X138240336Y-113426743D01*
X138227573Y-113423787D01*
X138238951Y-113429428D01*
X138307477Y-113441986D01*
X138312683Y-113443056D01*
X138511783Y-113488501D01*
X138523330Y-113489802D01*
X138537408Y-113495715D01*
X138617151Y-113500539D01*
X138623511Y-113501089D01*
X138795330Y-113520449D01*
X138937901Y-113520449D01*
X144776521Y-113520449D01*
X144783471Y-113520643D01*
X144900054Y-113527191D01*
X145063903Y-113537076D01*
X145077194Y-113538602D01*
X145214080Y-113561860D01*
X145355746Y-113587823D01*
X145367664Y-113590624D01*
X145502991Y-113629611D01*
X145505396Y-113630333D01*
X145639625Y-113672161D01*
X145650182Y-113675983D01*
X145781201Y-113730254D01*
X145784624Y-113731732D01*
X145911781Y-113788962D01*
X145920841Y-113793496D01*
X146045435Y-113862357D01*
X146049561Y-113864743D01*
X146168453Y-113936617D01*
X146176027Y-113941584D01*
X146292345Y-114024117D01*
X146297060Y-114027634D01*
X146406187Y-114113131D01*
X146412328Y-114118271D01*
X146462002Y-114162663D01*
X146518753Y-114213380D01*
X146523807Y-114218158D01*
X146621765Y-114316117D01*
X146626543Y-114321172D01*
X146721668Y-114427619D01*
X146726803Y-114433753D01*
X146812283Y-114542863D01*
X146815792Y-114547567D01*
X146898340Y-114663911D01*
X146903326Y-114671516D01*
X146975152Y-114790333D01*
X146977563Y-114794502D01*
X147046423Y-114919098D01*
X147050972Y-114928189D01*
X147108175Y-115055296D01*
X147109660Y-115058733D01*
X147163932Y-115189761D01*
X147167756Y-115200324D01*
X147209561Y-115334487D01*
X147210329Y-115337050D01*
X147249278Y-115472253D01*
X147252093Y-115484229D01*
X147278059Y-115625934D01*
X147301308Y-115762777D01*
X147302832Y-115776052D01*
X147312335Y-115933206D01*
X147313277Y-115949977D01*
X147319305Y-116057357D01*
X147319500Y-116064290D01*
X147319500Y-120138519D01*
X147319305Y-120145472D01*
X147313012Y-120257524D01*
X147302801Y-120426330D01*
X147301275Y-120439613D01*
X147278723Y-120572343D01*
X147251995Y-120718195D01*
X147249182Y-120730163D01*
X147210983Y-120862752D01*
X147210214Y-120865314D01*
X147167580Y-121002132D01*
X147163756Y-121012695D01*
X147110317Y-121141707D01*
X147108832Y-121145145D01*
X147050712Y-121274282D01*
X147046164Y-121283372D01*
X146978207Y-121406331D01*
X146975796Y-121410500D01*
X146902958Y-121530988D01*
X146897971Y-121538592D01*
X146816423Y-121653525D01*
X146812904Y-121658244D01*
X146726326Y-121768752D01*
X146721175Y-121774906D01*
X146627139Y-121880133D01*
X146622360Y-121885187D01*
X146523187Y-121984360D01*
X146518133Y-121989139D01*
X146412906Y-122083175D01*
X146406752Y-122088326D01*
X146296244Y-122174904D01*
X146291525Y-122178423D01*
X146176592Y-122259971D01*
X146168988Y-122264958D01*
X146048500Y-122337796D01*
X146044331Y-122340207D01*
X145921372Y-122408164D01*
X145912282Y-122412712D01*
X145783145Y-122470832D01*
X145779707Y-122472317D01*
X145650695Y-122525756D01*
X145640132Y-122529580D01*
X145503314Y-122572214D01*
X145500752Y-122572983D01*
X145368167Y-122611180D01*
X145356191Y-122613995D01*
X145210344Y-122640723D01*
X145077608Y-122663276D01*
X145064335Y-122664800D01*
X144895525Y-122675012D01*
X144783472Y-122681305D01*
X144776520Y-122681500D01*
X138938500Y-122681500D01*
X138938000Y-122681500D01*
X138795329Y-122681500D01*
X138791873Y-122681889D01*
X138791862Y-122681890D01*
X138623584Y-122700850D01*
X138617189Y-122701404D01*
X138541491Y-122705983D01*
X138523355Y-122712143D01*
X138520125Y-122712507D01*
X138515239Y-122713058D01*
X138515234Y-122713058D01*
X138511780Y-122713448D01*
X138508392Y-122714221D01*
X138508376Y-122714224D01*
X138312724Y-122758880D01*
X138307485Y-122759958D01*
X138246338Y-122771164D01*
X138234963Y-122776620D01*
X138240330Y-122775205D01*
X138236988Y-122776167D01*
X138233591Y-122776943D01*
X138230306Y-122778092D01*
X138230304Y-122778093D01*
X138001972Y-122857990D01*
X137997910Y-122859333D01*
X137965784Y-122869344D01*
X137960353Y-122872934D01*
X137964261Y-122871186D01*
X137710310Y-122993481D01*
X137710299Y-122993486D01*
X137707176Y-122994991D01*
X137705569Y-122996000D01*
X137701289Y-122998141D01*
X137699188Y-123000010D01*
X137513688Y-123116567D01*
X137513298Y-123116677D01*
X137511490Y-123117948D01*
X137468510Y-123144955D01*
X137465569Y-123146803D01*
X137462855Y-123148967D01*
X137462847Y-123148973D01*
X137457956Y-123152873D01*
X137451153Y-123157612D01*
X137449007Y-123160010D01*
X137277546Y-123296745D01*
X137276622Y-123297121D01*
X137272880Y-123300466D01*
X137245202Y-123322538D01*
X137245186Y-123322551D01*
X137242479Y-123324711D01*
X137240022Y-123327166D01*
X137240023Y-123327167D01*
X137225445Y-123341745D01*
X137220513Y-123346114D01*
X137219158Y-123348031D01*
X137064031Y-123503158D01*
X137062644Y-123503915D01*
X137057745Y-123509445D01*
X137040711Y-123526479D01*
X137038551Y-123529186D01*
X137038538Y-123529202D01*
X137016466Y-123556880D01*
X137013455Y-123560248D01*
X137012745Y-123561546D01*
X136876010Y-123733007D01*
X136874243Y-123734247D01*
X136868873Y-123741956D01*
X136864973Y-123746847D01*
X136864967Y-123746855D01*
X136862803Y-123749569D01*
X136860955Y-123752509D01*
X136860955Y-123752510D01*
X136833948Y-123795490D01*
X136832791Y-123797135D01*
X136832567Y-123797688D01*
X136716010Y-123983188D01*
X136714545Y-123984483D01*
X136712001Y-123989567D01*
X136710991Y-123991176D01*
X136709486Y-123994299D01*
X136709481Y-123994310D01*
X136587186Y-124248261D01*
X136588993Y-124244221D01*
X136585870Y-124248096D01*
X136575333Y-124281910D01*
X136573990Y-124285972D01*
X136539949Y-124383256D01*
X136492943Y-124517591D01*
X136492167Y-124520988D01*
X136491205Y-124524330D01*
X136492620Y-124518962D01*
X136487667Y-124527590D01*
X136475958Y-124591485D01*
X136474880Y-124596724D01*
X136430224Y-124792376D01*
X136430221Y-124792392D01*
X136429448Y-124795780D01*
X136429058Y-124799234D01*
X136429058Y-124799239D01*
X136428144Y-124807355D01*
X136422229Y-124821429D01*
X136417404Y-124901189D01*
X136416850Y-124907584D01*
X136397890Y-125075862D01*
X136397889Y-125075873D01*
X136397500Y-125079329D01*
X136397500Y-125082814D01*
X136397500Y-128266519D01*
X136397305Y-128273472D01*
X136391012Y-128385524D01*
X136380801Y-128554330D01*
X136379275Y-128567613D01*
X136356723Y-128700343D01*
X136329995Y-128846195D01*
X136327182Y-128858163D01*
X136288983Y-128990752D01*
X136288214Y-128993314D01*
X136245580Y-129130132D01*
X136241756Y-129140695D01*
X136188317Y-129269707D01*
X136186832Y-129273145D01*
X136128712Y-129402282D01*
X136124164Y-129411372D01*
X136056207Y-129534331D01*
X136053796Y-129538500D01*
X135980958Y-129658988D01*
X135975971Y-129666592D01*
X135894423Y-129781525D01*
X135890904Y-129786244D01*
X135804326Y-129896752D01*
X135799175Y-129902906D01*
X135705139Y-130008133D01*
X135700360Y-130013187D01*
X135601187Y-130112360D01*
X135596133Y-130117139D01*
X135490906Y-130211175D01*
X135484752Y-130216326D01*
X135374244Y-130302904D01*
X135369525Y-130306423D01*
X135254592Y-130387971D01*
X135246988Y-130392958D01*
X135126500Y-130465796D01*
X135122331Y-130468207D01*
X134999372Y-130536164D01*
X134990282Y-130540712D01*
X134861145Y-130598832D01*
X134857707Y-130600317D01*
X134728695Y-130653756D01*
X134718132Y-130657580D01*
X134581314Y-130700214D01*
X134578752Y-130700983D01*
X134446167Y-130739180D01*
X134434191Y-130741995D01*
X134288344Y-130768723D01*
X134155608Y-130791276D01*
X134142335Y-130792800D01*
X133973525Y-130803012D01*
X133861472Y-130809305D01*
X133854520Y-130809500D01*
X115431316Y-130809500D01*
X115364277Y-130789815D01*
X115318522Y-130737011D01*
X115307319Y-130686367D01*
X115277987Y-126492000D01*
X129328415Y-126492000D01*
X129348738Y-126840927D01*
X129349364Y-126844481D01*
X129349366Y-126844492D01*
X129408803Y-127181578D01*
X129408805Y-127181588D01*
X129409431Y-127185136D01*
X129509674Y-127519971D01*
X129511099Y-127523274D01*
X129646682Y-127837593D01*
X129646687Y-127837603D01*
X129648111Y-127840904D01*
X129649913Y-127844026D01*
X129649915Y-127844029D01*
X129821061Y-128140464D01*
X129821067Y-128140473D01*
X129822870Y-128143596D01*
X129825029Y-128146496D01*
X130029435Y-128421062D01*
X130029441Y-128421069D01*
X130031588Y-128423953D01*
X130271442Y-128678183D01*
X130274200Y-128680497D01*
X130274204Y-128680501D01*
X130458439Y-128835092D01*
X130539189Y-128902849D01*
X130831207Y-129094913D01*
X131143549Y-129251777D01*
X131471989Y-129371319D01*
X131602633Y-129402282D01*
X131808579Y-129451092D01*
X131808581Y-129451092D01*
X131812086Y-129451923D01*
X132159241Y-129492500D01*
X132162839Y-129492500D01*
X132505161Y-129492500D01*
X132508759Y-129492500D01*
X132855914Y-129451923D01*
X133196011Y-129371319D01*
X133524451Y-129251777D01*
X133836793Y-129094913D01*
X134128811Y-128902849D01*
X134396558Y-128678183D01*
X134636412Y-128423953D01*
X134845130Y-128143596D01*
X135019889Y-127840904D01*
X135158326Y-127519971D01*
X135258569Y-127185136D01*
X135319262Y-126840927D01*
X135339585Y-126492000D01*
X135319262Y-126143073D01*
X135258569Y-125798864D01*
X135158326Y-125464029D01*
X135019889Y-125143096D01*
X134901284Y-124937666D01*
X134846938Y-124843535D01*
X134846935Y-124843531D01*
X134845130Y-124840404D01*
X134766164Y-124734335D01*
X134638564Y-124562937D01*
X134638559Y-124562931D01*
X134636412Y-124560047D01*
X134396558Y-124305817D01*
X134393800Y-124303503D01*
X134393795Y-124303498D01*
X134131570Y-124083466D01*
X134131569Y-124083465D01*
X134128811Y-124081151D01*
X134052167Y-124030741D01*
X133839812Y-123891072D01*
X133839804Y-123891067D01*
X133836793Y-123889087D01*
X133654803Y-123797688D01*
X133527688Y-123733848D01*
X133527678Y-123733843D01*
X133524451Y-123732223D01*
X133420686Y-123694456D01*
X133199400Y-123613914D01*
X133199392Y-123613911D01*
X133196011Y-123612681D01*
X133192512Y-123611851D01*
X133192503Y-123611849D01*
X132859420Y-123532907D01*
X132859404Y-123532904D01*
X132855914Y-123532077D01*
X132852349Y-123531660D01*
X132852336Y-123531658D01*
X132512329Y-123491917D01*
X132512324Y-123491916D01*
X132508759Y-123491500D01*
X132159241Y-123491500D01*
X132155676Y-123491916D01*
X132155670Y-123491917D01*
X131815663Y-123531658D01*
X131815647Y-123531660D01*
X131812086Y-123532077D01*
X131808598Y-123532903D01*
X131808579Y-123532907D01*
X131475496Y-123611849D01*
X131475482Y-123611852D01*
X131471989Y-123612681D01*
X131468612Y-123613910D01*
X131468599Y-123613914D01*
X131146950Y-123730985D01*
X131143549Y-123732223D01*
X131140327Y-123733840D01*
X131140311Y-123733848D01*
X130834436Y-123887465D01*
X130834431Y-123887467D01*
X130831207Y-123889087D01*
X130828203Y-123891062D01*
X130828187Y-123891072D01*
X130542206Y-124079166D01*
X130542198Y-124079171D01*
X130539189Y-124081151D01*
X130536438Y-124083458D01*
X130536429Y-124083466D01*
X130274204Y-124303498D01*
X130274190Y-124303510D01*
X130271442Y-124305817D01*
X130268967Y-124308439D01*
X130268962Y-124308445D01*
X130034062Y-124557424D01*
X130034056Y-124557430D01*
X130031588Y-124560047D01*
X130029448Y-124562921D01*
X130029435Y-124562937D01*
X129825029Y-124837503D01*
X129825023Y-124837511D01*
X129822870Y-124840404D01*
X129821071Y-124843518D01*
X129821061Y-124843535D01*
X129649915Y-125139970D01*
X129649909Y-125139980D01*
X129648111Y-125143096D01*
X129646690Y-125146389D01*
X129646682Y-125146406D01*
X129511099Y-125460725D01*
X129509674Y-125464029D01*
X129508645Y-125467464D01*
X129508642Y-125467474D01*
X129410465Y-125795408D01*
X129410462Y-125795418D01*
X129409431Y-125798864D01*
X129408806Y-125802407D01*
X129408803Y-125802421D01*
X129349366Y-126139507D01*
X129349364Y-126139520D01*
X129348738Y-126143073D01*
X129348528Y-126146678D01*
X129348527Y-126146687D01*
X129345314Y-126201852D01*
X129328415Y-126492000D01*
X115277987Y-126492000D01*
X115273165Y-125802421D01*
X115224700Y-118872000D01*
X116754340Y-118872000D01*
X116774936Y-119107407D01*
X116819709Y-119274502D01*
X116836097Y-119335663D01*
X116935965Y-119549830D01*
X117071505Y-119743401D01*
X117238599Y-119910495D01*
X117432170Y-120046035D01*
X117646337Y-120145903D01*
X117874592Y-120207063D01*
X118110000Y-120227659D01*
X118345408Y-120207063D01*
X118573663Y-120145903D01*
X118787830Y-120046035D01*
X118981401Y-119910495D01*
X119148495Y-119743401D01*
X119278426Y-119557839D01*
X119333002Y-119514216D01*
X119402500Y-119507022D01*
X119464855Y-119538545D01*
X119481571Y-119557837D01*
X119611505Y-119743401D01*
X119778599Y-119910495D01*
X119972170Y-120046035D01*
X120186337Y-120145903D01*
X120414592Y-120207063D01*
X120650000Y-120227659D01*
X120885408Y-120207063D01*
X121113663Y-120145903D01*
X121327830Y-120046035D01*
X121521401Y-119910495D01*
X121688495Y-119743401D01*
X121818426Y-119557839D01*
X121873002Y-119514216D01*
X121942500Y-119507022D01*
X122004855Y-119538545D01*
X122021571Y-119557837D01*
X122151505Y-119743401D01*
X122318599Y-119910495D01*
X122512170Y-120046035D01*
X122726337Y-120145903D01*
X122954592Y-120207063D01*
X123189999Y-120227659D01*
X123189999Y-120227658D01*
X123190000Y-120227659D01*
X123425408Y-120207063D01*
X123653663Y-120145903D01*
X123867830Y-120046035D01*
X124061401Y-119910495D01*
X124228495Y-119743401D01*
X124358426Y-119557839D01*
X124413002Y-119514216D01*
X124482500Y-119507022D01*
X124544855Y-119538545D01*
X124561571Y-119557837D01*
X124691505Y-119743401D01*
X124858599Y-119910495D01*
X125052170Y-120046035D01*
X125266337Y-120145903D01*
X125494591Y-120207063D01*
X125494592Y-120207063D01*
X125729999Y-120227659D01*
X125729999Y-120227658D01*
X125730000Y-120227659D01*
X125965408Y-120207063D01*
X126193663Y-120145903D01*
X126407830Y-120046035D01*
X126601401Y-119910495D01*
X126768495Y-119743401D01*
X126904035Y-119549830D01*
X127003903Y-119335663D01*
X127060082Y-119125999D01*
X140782740Y-119125999D01*
X140803336Y-119361407D01*
X140834989Y-119479537D01*
X140864497Y-119589663D01*
X140964365Y-119803830D01*
X141099905Y-119997401D01*
X141266999Y-120164495D01*
X141460570Y-120300035D01*
X141674737Y-120399903D01*
X141902991Y-120461063D01*
X141902992Y-120461063D01*
X142138399Y-120481659D01*
X142138399Y-120481658D01*
X142138400Y-120481659D01*
X142373808Y-120461063D01*
X142602063Y-120399903D01*
X142816230Y-120300035D01*
X143009801Y-120164495D01*
X143176895Y-119997401D01*
X143306826Y-119811839D01*
X143361402Y-119768216D01*
X143430900Y-119761022D01*
X143493255Y-119792545D01*
X143509971Y-119811837D01*
X143639905Y-119997401D01*
X143806999Y-120164495D01*
X144000570Y-120300035D01*
X144214737Y-120399903D01*
X144442992Y-120461063D01*
X144678400Y-120481659D01*
X144913808Y-120461063D01*
X145142063Y-120399903D01*
X145356230Y-120300035D01*
X145549801Y-120164495D01*
X145716895Y-119997401D01*
X145852435Y-119803830D01*
X145952303Y-119589663D01*
X146013463Y-119361408D01*
X146034059Y-119126000D01*
X146032886Y-119112598D01*
X146013463Y-118890592D01*
X146005411Y-118860541D01*
X145952303Y-118662337D01*
X145852435Y-118448171D01*
X145716895Y-118254599D01*
X145594581Y-118132285D01*
X145561096Y-118070962D01*
X145566080Y-118001270D01*
X145607952Y-117945337D01*
X145638928Y-117928422D01*
X145770489Y-117879352D01*
X145885588Y-117793188D01*
X145971752Y-117678089D01*
X146021999Y-117543371D01*
X146028045Y-117487132D01*
X146028400Y-117480518D01*
X146028400Y-116836000D01*
X145061992Y-116836000D01*
X145108803Y-116754921D01*
X145139471Y-116620553D01*
X145129172Y-116483114D01*
X145078819Y-116354818D01*
X145063812Y-116336000D01*
X146028400Y-116336000D01*
X146028400Y-115691481D01*
X146028045Y-115684867D01*
X146021999Y-115628628D01*
X145971752Y-115493910D01*
X145885588Y-115378811D01*
X145770489Y-115292647D01*
X145635771Y-115242400D01*
X145579532Y-115236354D01*
X145572918Y-115236000D01*
X144928400Y-115236000D01*
X144928400Y-116203096D01*
X144879012Y-116169424D01*
X144747312Y-116128800D01*
X144644140Y-116128800D01*
X144542116Y-116144178D01*
X144428400Y-116198940D01*
X144428400Y-115236000D01*
X143783882Y-115236000D01*
X143777267Y-115236354D01*
X143721028Y-115242400D01*
X143586310Y-115292647D01*
X143471211Y-115378811D01*
X143385047Y-115493911D01*
X143335785Y-115625987D01*
X143293913Y-115681921D01*
X143228448Y-115706337D01*
X143160176Y-115691485D01*
X143131922Y-115670334D01*
X143009481Y-115547893D01*
X142815976Y-115412399D01*
X142601892Y-115312569D01*
X142388400Y-115255364D01*
X142388400Y-116203096D01*
X142339012Y-116169424D01*
X142207312Y-116128800D01*
X142104140Y-116128800D01*
X142002116Y-116144178D01*
X141888400Y-116198940D01*
X141888400Y-115255364D01*
X141888399Y-115255364D01*
X141674907Y-115312569D01*
X141460821Y-115412400D01*
X141267321Y-115547890D01*
X141100290Y-115714921D01*
X140964800Y-115908421D01*
X140864969Y-116122507D01*
X140807764Y-116335999D01*
X140807764Y-116336000D01*
X141754808Y-116336000D01*
X141707997Y-116417079D01*
X141677329Y-116551447D01*
X141687628Y-116688886D01*
X141737981Y-116817182D01*
X141752988Y-116836000D01*
X140807764Y-116836000D01*
X140864969Y-117049492D01*
X140964799Y-117263576D01*
X141100293Y-117457081D01*
X141267318Y-117624106D01*
X141452995Y-117754119D01*
X141496619Y-117808696D01*
X141503812Y-117878195D01*
X141472290Y-117940549D01*
X141452995Y-117957269D01*
X141266995Y-118087508D01*
X141099905Y-118254598D01*
X140964365Y-118448170D01*
X140864497Y-118662336D01*
X140803336Y-118890592D01*
X140782740Y-119125999D01*
X127060082Y-119125999D01*
X127065063Y-119107408D01*
X127085659Y-118872000D01*
X127065063Y-118636592D01*
X127003903Y-118408337D01*
X126904035Y-118194171D01*
X126768495Y-118000599D01*
X126646180Y-117878284D01*
X126612696Y-117816962D01*
X126617680Y-117747270D01*
X126659552Y-117691337D01*
X126690528Y-117674422D01*
X126822089Y-117625352D01*
X126937188Y-117539188D01*
X127023352Y-117424089D01*
X127073599Y-117289371D01*
X127079645Y-117233132D01*
X127080000Y-117226518D01*
X127080000Y-116582000D01*
X126113592Y-116582000D01*
X126160403Y-116500921D01*
X126191071Y-116366553D01*
X126180772Y-116229114D01*
X126130419Y-116100818D01*
X126115412Y-116082000D01*
X127080000Y-116082000D01*
X127080000Y-115437481D01*
X127079645Y-115430867D01*
X127073599Y-115374628D01*
X127023352Y-115239910D01*
X126937188Y-115124811D01*
X126822089Y-115038647D01*
X126687371Y-114988400D01*
X126631132Y-114982354D01*
X126624518Y-114982000D01*
X125980000Y-114982000D01*
X125980000Y-115949096D01*
X125930612Y-115915424D01*
X125798912Y-115874800D01*
X125695740Y-115874800D01*
X125593716Y-115890178D01*
X125480000Y-115944940D01*
X125480000Y-114982000D01*
X124835482Y-114982000D01*
X124828867Y-114982354D01*
X124772628Y-114988400D01*
X124637910Y-115038647D01*
X124522811Y-115124811D01*
X124436647Y-115239911D01*
X124387385Y-115371987D01*
X124345513Y-115427921D01*
X124280048Y-115452337D01*
X124211776Y-115437485D01*
X124183522Y-115416334D01*
X124061081Y-115293893D01*
X123867576Y-115158399D01*
X123653492Y-115058569D01*
X123439999Y-115001364D01*
X123439999Y-115949096D01*
X123390612Y-115915424D01*
X123258912Y-115874800D01*
X123155740Y-115874800D01*
X123053716Y-115890178D01*
X122939999Y-115944940D01*
X122939999Y-115001364D01*
X122726507Y-115058569D01*
X122512421Y-115158400D01*
X122318921Y-115293890D01*
X122151893Y-115460918D01*
X122021575Y-115647032D01*
X121966998Y-115690656D01*
X121897499Y-115697849D01*
X121835145Y-115666327D01*
X121818425Y-115647032D01*
X121688106Y-115460918D01*
X121521081Y-115293893D01*
X121327576Y-115158399D01*
X121113492Y-115058569D01*
X120899999Y-115001364D01*
X120899999Y-115949095D01*
X120850612Y-115915424D01*
X120718912Y-115874800D01*
X120615740Y-115874800D01*
X120513716Y-115890178D01*
X120399999Y-115944940D01*
X120400000Y-115001364D01*
X120399999Y-115001364D01*
X120186507Y-115058569D01*
X119972421Y-115158400D01*
X119778921Y-115293890D01*
X119611893Y-115460918D01*
X119481575Y-115647032D01*
X119426998Y-115690656D01*
X119357499Y-115697849D01*
X119295145Y-115666327D01*
X119278425Y-115647032D01*
X119148106Y-115460918D01*
X118981081Y-115293893D01*
X118787576Y-115158399D01*
X118573492Y-115058569D01*
X118359999Y-115001364D01*
X118359999Y-115949096D01*
X118310612Y-115915424D01*
X118178912Y-115874800D01*
X118075740Y-115874800D01*
X117973716Y-115890178D01*
X117859999Y-115944940D01*
X117859999Y-115001364D01*
X117859998Y-115001364D01*
X117646507Y-115058569D01*
X117432421Y-115158400D01*
X117238921Y-115293890D01*
X117071890Y-115460921D01*
X116936400Y-115654421D01*
X116836569Y-115868507D01*
X116779364Y-116081999D01*
X116779364Y-116082000D01*
X117726408Y-116082000D01*
X117679597Y-116163079D01*
X117648929Y-116297447D01*
X117659228Y-116434886D01*
X117709581Y-116563182D01*
X117724588Y-116582000D01*
X116779364Y-116582000D01*
X116836569Y-116795492D01*
X116936399Y-117009576D01*
X117071893Y-117203081D01*
X117238918Y-117370106D01*
X117424595Y-117500119D01*
X117468219Y-117554696D01*
X117475412Y-117624195D01*
X117443890Y-117686549D01*
X117424595Y-117703269D01*
X117238595Y-117833508D01*
X117071505Y-118000598D01*
X116935965Y-118194170D01*
X116836097Y-118408336D01*
X116774936Y-118636592D01*
X116754340Y-118872000D01*
X115224700Y-118872000D01*
X115143291Y-107230475D01*
X115162506Y-107163303D01*
X115214989Y-107117180D01*
X115284076Y-107106753D01*
X115319694Y-107117229D01*
X115377675Y-107144267D01*
X115597397Y-107203141D01*
X115824000Y-107222966D01*
X116050602Y-107203141D01*
X116270326Y-107144266D01*
X116476480Y-107048134D01*
X116549472Y-106997025D01*
X115918558Y-106366111D01*
X115960284Y-106359822D01*
X116084459Y-106300023D01*
X116185491Y-106206279D01*
X116254403Y-106086921D01*
X116271512Y-106011959D01*
X116903025Y-106643472D01*
X116954134Y-106570480D01*
X117050266Y-106364326D01*
X117109141Y-106144602D01*
X117128966Y-105918000D01*
X124678531Y-105918000D01*
X124698364Y-106144689D01*
X124757261Y-106364497D01*
X124853432Y-106570735D01*
X124983953Y-106757140D01*
X125144859Y-106918046D01*
X125331264Y-107048567D01*
X125331265Y-107048567D01*
X125331266Y-107048568D01*
X125537504Y-107144739D01*
X125757308Y-107203635D01*
X125984000Y-107223468D01*
X126210692Y-107203635D01*
X126430496Y-107144739D01*
X126636734Y-107048568D01*
X126790465Y-106940924D01*
X126856671Y-106918598D01*
X126861588Y-106918500D01*
X129052642Y-106918500D01*
X129119681Y-106938185D01*
X129140323Y-106954819D01*
X129141999Y-106956495D01*
X129335570Y-107092035D01*
X129549737Y-107191903D01*
X129777992Y-107253062D01*
X129777992Y-107253063D01*
X130013399Y-107273659D01*
X130013399Y-107273658D01*
X130013400Y-107273659D01*
X130248808Y-107253063D01*
X130477063Y-107191903D01*
X130691230Y-107092035D01*
X130884801Y-106956495D01*
X131006729Y-106834566D01*
X131068048Y-106801084D01*
X131137740Y-106806068D01*
X131193674Y-106847939D01*
X131210589Y-106878916D01*
X131259604Y-107010331D01*
X131345854Y-107125546D01*
X131461069Y-107211796D01*
X131595917Y-107262091D01*
X131655527Y-107268500D01*
X133451272Y-107268499D01*
X133510883Y-107262091D01*
X133645731Y-107211796D01*
X133760946Y-107125546D01*
X133847196Y-107010331D01*
X133897491Y-106875483D01*
X133903900Y-106815873D01*
X133903899Y-105020128D01*
X133897491Y-104960517D01*
X133847196Y-104825669D01*
X133760946Y-104710454D01*
X133645731Y-104624204D01*
X133510883Y-104573909D01*
X133451273Y-104567500D01*
X133447950Y-104567500D01*
X131658839Y-104567500D01*
X131658820Y-104567500D01*
X131655528Y-104567501D01*
X131652248Y-104567853D01*
X131652240Y-104567854D01*
X131595915Y-104573909D01*
X131461069Y-104624204D01*
X131345854Y-104710454D01*
X131259604Y-104825669D01*
X131210589Y-104957083D01*
X131168717Y-105013016D01*
X131103252Y-105037433D01*
X131034980Y-105022581D01*
X131006726Y-105001430D01*
X130884804Y-104879508D01*
X130884801Y-104879505D01*
X130691230Y-104743965D01*
X130477063Y-104644097D01*
X130415902Y-104627709D01*
X130248807Y-104582936D01*
X130013399Y-104562340D01*
X129777992Y-104582936D01*
X129549736Y-104644097D01*
X129335570Y-104743965D01*
X129141998Y-104879505D01*
X129140323Y-104881181D01*
X129137065Y-104882959D01*
X129133112Y-104885728D01*
X129132803Y-104885287D01*
X129079000Y-104914666D01*
X129052642Y-104917500D01*
X126861588Y-104917500D01*
X126794549Y-104897815D01*
X126790465Y-104895075D01*
X126776486Y-104885287D01*
X126636734Y-104787432D01*
X126430497Y-104691261D01*
X126210689Y-104632364D01*
X125984000Y-104612531D01*
X125757310Y-104632364D01*
X125537502Y-104691261D01*
X125331264Y-104787432D01*
X125144859Y-104917953D01*
X124983953Y-105078859D01*
X124853432Y-105265264D01*
X124757261Y-105471502D01*
X124698364Y-105691310D01*
X124678531Y-105918000D01*
X117128966Y-105918000D01*
X117109141Y-105691397D01*
X117050266Y-105471673D01*
X116954133Y-105265515D01*
X116903025Y-105192526D01*
X116275166Y-105820384D01*
X116274772Y-105815114D01*
X116224419Y-105686818D01*
X116138487Y-105579063D01*
X116024612Y-105501424D01*
X115919458Y-105468988D01*
X116549472Y-104838974D01*
X116549471Y-104838972D01*
X116476484Y-104787866D01*
X116270326Y-104691733D01*
X116050602Y-104632858D01*
X115824000Y-104613033D01*
X115597397Y-104632858D01*
X115377672Y-104691733D01*
X115301405Y-104727297D01*
X115232328Y-104737788D01*
X115168544Y-104709267D01*
X115130305Y-104650790D01*
X115125006Y-104615788D01*
X115101797Y-101296865D01*
X115121012Y-101229692D01*
X115173495Y-101183569D01*
X115225794Y-101172000D01*
X115509113Y-101172000D01*
X115509113Y-100204903D01*
X115558501Y-100238576D01*
X115690201Y-100279200D01*
X115793373Y-100279200D01*
X115895397Y-100263822D01*
X116009113Y-100209059D01*
X116009113Y-101172000D01*
X116653631Y-101172000D01*
X116660245Y-101171645D01*
X116716484Y-101165599D01*
X116851202Y-101115352D01*
X116966301Y-101029188D01*
X117052465Y-100914089D01*
X117102712Y-100779371D01*
X117108758Y-100723132D01*
X117109112Y-100716518D01*
X117109113Y-100072000D01*
X117723477Y-100072000D01*
X117780682Y-100285492D01*
X117880512Y-100499576D01*
X118016006Y-100693081D01*
X118183031Y-100860106D01*
X118376536Y-100995600D01*
X118590622Y-101095430D01*
X118804113Y-101152634D01*
X118804113Y-100204903D01*
X118853501Y-100238576D01*
X118985201Y-100279200D01*
X119088373Y-100279200D01*
X119190397Y-100263822D01*
X119304113Y-100209059D01*
X119304113Y-101152633D01*
X119517603Y-101095430D01*
X119731689Y-100995600D01*
X119925194Y-100860106D01*
X120092219Y-100693081D01*
X120227713Y-100499576D01*
X120327543Y-100285492D01*
X120384749Y-100072000D01*
X119437705Y-100072000D01*
X119484516Y-99990921D01*
X119515184Y-99856553D01*
X119512595Y-99821999D01*
X125198453Y-99821999D01*
X125219049Y-100057407D01*
X125246790Y-100160937D01*
X125280210Y-100285663D01*
X125380078Y-100499830D01*
X125515618Y-100693401D01*
X125682712Y-100860495D01*
X125876283Y-100996035D01*
X126090450Y-101095903D01*
X126318705Y-101157063D01*
X126554113Y-101177659D01*
X126789521Y-101157063D01*
X127017776Y-101095903D01*
X127231943Y-100996035D01*
X127425514Y-100860495D01*
X127592608Y-100693401D01*
X127728148Y-100499830D01*
X127828016Y-100285663D01*
X127889176Y-100057408D01*
X127909772Y-99822000D01*
X127889176Y-99586592D01*
X127828016Y-99358337D01*
X127728148Y-99144171D01*
X127592608Y-98950599D01*
X127425514Y-98783505D01*
X127231943Y-98647965D01*
X127017776Y-98548097D01*
X126945187Y-98528647D01*
X126789520Y-98486936D01*
X126554113Y-98466340D01*
X126318705Y-98486936D01*
X126090449Y-98548097D01*
X125876283Y-98647965D01*
X125682711Y-98783505D01*
X125515618Y-98950598D01*
X125380078Y-99144170D01*
X125280210Y-99358336D01*
X125219049Y-99586592D01*
X125198453Y-99821999D01*
X119512595Y-99821999D01*
X119504885Y-99719114D01*
X119454532Y-99590818D01*
X119439525Y-99572000D01*
X120384749Y-99572000D01*
X120384748Y-99571999D01*
X120327543Y-99358507D01*
X120227712Y-99144421D01*
X120092222Y-98950921D01*
X119925194Y-98783893D01*
X119731689Y-98648399D01*
X119517605Y-98548569D01*
X119304112Y-98491364D01*
X119304112Y-99439096D01*
X119254725Y-99405424D01*
X119123025Y-99364800D01*
X119019853Y-99364800D01*
X118917829Y-99380178D01*
X118804113Y-99434940D01*
X118804113Y-98491364D01*
X118804112Y-98491364D01*
X118590620Y-98548569D01*
X118376534Y-98648400D01*
X118183034Y-98783890D01*
X118016003Y-98950921D01*
X117880513Y-99144421D01*
X117780682Y-99358507D01*
X117723477Y-99571999D01*
X117723477Y-99572000D01*
X118670521Y-99572000D01*
X118623710Y-99653079D01*
X118593042Y-99787447D01*
X118603341Y-99924886D01*
X118653694Y-100053182D01*
X118668701Y-100072000D01*
X117723477Y-100072000D01*
X117109113Y-100072000D01*
X116142705Y-100072000D01*
X116189516Y-99990921D01*
X116220184Y-99856553D01*
X116209885Y-99719114D01*
X116159532Y-99590818D01*
X116144525Y-99572000D01*
X117109113Y-99572000D01*
X117109112Y-98927481D01*
X117108758Y-98920867D01*
X117102712Y-98864628D01*
X117052465Y-98729910D01*
X116966301Y-98614811D01*
X116851202Y-98528647D01*
X116716484Y-98478400D01*
X116660245Y-98472354D01*
X116653631Y-98472000D01*
X116009113Y-98472000D01*
X116009113Y-99439096D01*
X115959725Y-99405424D01*
X115828025Y-99364800D01*
X115724853Y-99364800D01*
X115622829Y-99380178D01*
X115509113Y-99434940D01*
X115509113Y-98472000D01*
X115205179Y-98472000D01*
X115138140Y-98452315D01*
X115092385Y-98399511D01*
X115081182Y-98348867D01*
X115062506Y-95678163D01*
X115060825Y-95642351D01*
X115077345Y-95574462D01*
X115127945Y-95526282D01*
X115152585Y-95516765D01*
X115185663Y-95507903D01*
X115399830Y-95408035D01*
X115593401Y-95272495D01*
X115760495Y-95105401D01*
X115896035Y-94911830D01*
X115995903Y-94697663D01*
X116057063Y-94469408D01*
X116077659Y-94234000D01*
X116057063Y-93998592D01*
X115995903Y-93770337D01*
X115896035Y-93556171D01*
X115760495Y-93362599D01*
X115593401Y-93195505D01*
X115407402Y-93065267D01*
X115363780Y-93010692D01*
X115356587Y-92941193D01*
X115388109Y-92878839D01*
X115407405Y-92862119D01*
X115593078Y-92732109D01*
X115760106Y-92565081D01*
X115895600Y-92371576D01*
X115995430Y-92157492D01*
X116052636Y-91944000D01*
X115105592Y-91944000D01*
X115152403Y-91862921D01*
X115183071Y-91728553D01*
X115180733Y-91697356D01*
X128231409Y-91697356D01*
X128250124Y-92042539D01*
X128250852Y-92049229D01*
X128306777Y-92390361D01*
X128308221Y-92396918D01*
X128400701Y-92730002D01*
X128402852Y-92736386D01*
X128530803Y-93057520D01*
X128533623Y-93063616D01*
X128584180Y-93158977D01*
X129845790Y-91897367D01*
X129907113Y-91863882D01*
X129976805Y-91868866D01*
X130032738Y-91910738D01*
X130053246Y-91952955D01*
X130074677Y-92032937D01*
X130108097Y-92157663D01*
X130207965Y-92371830D01*
X130343505Y-92565401D01*
X130510599Y-92732495D01*
X130704170Y-92868035D01*
X130918337Y-92967903D01*
X131146592Y-93029063D01*
X131287376Y-93041380D01*
X131352445Y-93066832D01*
X131393424Y-93123423D01*
X131397302Y-93193185D01*
X131364250Y-93252589D01*
X130020079Y-94596759D01*
X130020079Y-94596760D01*
X130278236Y-94716197D01*
X130284471Y-94718681D01*
X130612072Y-94829063D01*
X130618536Y-94830858D01*
X130956148Y-94905172D01*
X130962782Y-94906259D01*
X131306451Y-94943636D01*
X131313148Y-94944000D01*
X131658852Y-94944000D01*
X131665548Y-94943636D01*
X132009217Y-94906259D01*
X132015851Y-94905172D01*
X132353463Y-94830858D01*
X132359927Y-94829063D01*
X132687539Y-94718678D01*
X132693756Y-94716201D01*
X132951919Y-94596760D01*
X132951919Y-94596759D01*
X131585368Y-93230209D01*
X131551883Y-93168886D01*
X131556867Y-93099194D01*
X131598739Y-93043261D01*
X131640954Y-93022753D01*
X131845663Y-92967903D01*
X132059830Y-92868035D01*
X132253401Y-92732495D01*
X132420495Y-92565401D01*
X132556035Y-92371830D01*
X132655903Y-92157663D01*
X132717063Y-91929408D01*
X132729380Y-91788620D01*
X132754832Y-91723553D01*
X132795424Y-91694159D01*
X132794987Y-91693832D01*
X132908390Y-91693832D01*
X132940589Y-91711748D01*
X134387818Y-93158977D01*
X134438382Y-93063604D01*
X134441193Y-93057528D01*
X134569147Y-92736386D01*
X134571298Y-92730002D01*
X134663778Y-92396918D01*
X134665222Y-92390361D01*
X134721147Y-92049229D01*
X134721875Y-92042539D01*
X134740591Y-91697356D01*
X134740591Y-91690643D01*
X134721875Y-91345460D01*
X134721147Y-91338770D01*
X134665222Y-90997638D01*
X134663778Y-90991081D01*
X134571298Y-90657997D01*
X134569147Y-90651613D01*
X134441196Y-90330479D01*
X134438376Y-90324384D01*
X134387818Y-90229021D01*
X132940589Y-91676251D01*
X132908390Y-91693832D01*
X132794987Y-91693832D01*
X132753641Y-91662880D01*
X132729380Y-91599377D01*
X132724772Y-91546711D01*
X132717063Y-91458592D01*
X132655903Y-91230337D01*
X132556035Y-91016171D01*
X132420495Y-90822599D01*
X132253401Y-90655505D01*
X132059830Y-90519965D01*
X131845663Y-90420097D01*
X131640956Y-90365246D01*
X131581296Y-90328881D01*
X131550767Y-90266034D01*
X131559062Y-90196658D01*
X131585369Y-90157790D01*
X132951919Y-88791238D01*
X132951919Y-88791237D01*
X132693771Y-88671805D01*
X132687528Y-88669318D01*
X132359927Y-88558936D01*
X132353463Y-88557141D01*
X132015851Y-88482827D01*
X132009217Y-88481740D01*
X131665548Y-88444363D01*
X131658852Y-88444000D01*
X131313148Y-88444000D01*
X131306451Y-88444363D01*
X130962782Y-88481740D01*
X130956148Y-88482827D01*
X130618536Y-88557141D01*
X130612072Y-88558936D01*
X130284471Y-88669318D01*
X130278244Y-88671799D01*
X130020079Y-88791238D01*
X131364251Y-90135410D01*
X131397736Y-90196733D01*
X131392752Y-90266425D01*
X131350880Y-90322358D01*
X131287378Y-90346619D01*
X131146592Y-90358936D01*
X130918336Y-90420097D01*
X130704170Y-90519965D01*
X130510598Y-90655505D01*
X130343505Y-90822598D01*
X130207965Y-91016170D01*
X130108097Y-91230335D01*
X130053246Y-91435044D01*
X130016881Y-91494704D01*
X129954034Y-91525233D01*
X129884658Y-91516938D01*
X129845790Y-91490631D01*
X128584181Y-90229022D01*
X128584180Y-90229022D01*
X128533621Y-90324387D01*
X128530803Y-90330479D01*
X128402852Y-90651613D01*
X128400701Y-90657997D01*
X128308221Y-90991081D01*
X128306777Y-90997638D01*
X128250852Y-91338770D01*
X128250124Y-91345460D01*
X128231409Y-91690643D01*
X128231409Y-91697356D01*
X115180733Y-91697356D01*
X115172772Y-91591114D01*
X115122419Y-91462818D01*
X115107412Y-91444000D01*
X116052636Y-91444000D01*
X116052635Y-91443999D01*
X115995430Y-91230507D01*
X115895599Y-91016421D01*
X115760109Y-90822921D01*
X115593081Y-90655893D01*
X115407404Y-90525880D01*
X115363780Y-90471303D01*
X115356587Y-90401804D01*
X115388109Y-90339450D01*
X115407399Y-90322734D01*
X115593401Y-90192495D01*
X115760495Y-90025401D01*
X115896035Y-89831830D01*
X115995903Y-89617663D01*
X116057063Y-89389408D01*
X116077659Y-89154000D01*
X116057063Y-88918592D01*
X115995903Y-88690337D01*
X115896035Y-88476171D01*
X115760495Y-88282599D01*
X115760494Y-88282598D01*
X115754272Y-88273712D01*
X115757340Y-88271563D01*
X115733334Y-88227600D01*
X115730500Y-88201242D01*
X115730500Y-88079366D01*
X115730501Y-88079345D01*
X115730500Y-88067084D01*
X115730502Y-88067079D01*
X115730500Y-87977689D01*
X115730765Y-87969583D01*
X115742397Y-87792057D01*
X115744513Y-87775984D01*
X115778425Y-87605486D01*
X115782616Y-87589844D01*
X115838496Y-87425221D01*
X115844692Y-87410260D01*
X115921585Y-87254333D01*
X115929681Y-87240311D01*
X116026266Y-87095759D01*
X116036126Y-87082909D01*
X116150656Y-86952312D01*
X116162091Y-86940877D01*
X116306692Y-86814066D01*
X116319540Y-86804208D01*
X116479316Y-86697450D01*
X116493345Y-86689351D01*
X116665668Y-86604371D01*
X116680643Y-86598167D01*
X116862600Y-86536403D01*
X116878258Y-86532208D01*
X117066713Y-86494723D01*
X117082775Y-86492609D01*
X117278783Y-86479764D01*
X117286870Y-86479500D01*
X117376070Y-86479502D01*
X117376076Y-86479500D01*
X117387238Y-86479501D01*
X117387261Y-86479500D01*
X121303609Y-86479500D01*
X121303732Y-86479500D01*
X121303773Y-86479495D01*
X121303860Y-86479493D01*
X121383862Y-86479495D01*
X121641610Y-86450456D01*
X121894485Y-86392741D01*
X122139308Y-86307076D01*
X122373001Y-86194537D01*
X122592623Y-86056540D01*
X122795413Y-85894821D01*
X122806802Y-85883432D01*
X122806807Y-85883428D01*
X122850786Y-85839449D01*
X122850838Y-85839420D01*
X122887129Y-85803129D01*
X123025358Y-85664899D01*
X123276670Y-85365397D01*
X123500921Y-85045131D01*
X123696406Y-84706539D01*
X123861636Y-84352197D01*
X123995354Y-83984802D01*
X124096542Y-83607152D01*
X124124314Y-83449637D01*
X124131838Y-83406969D01*
X124162864Y-83344366D01*
X124222811Y-83308475D01*
X124253954Y-83304500D01*
X127317242Y-83304500D01*
X127384281Y-83324185D01*
X127389583Y-83328457D01*
X127389713Y-83328272D01*
X127398595Y-83334491D01*
X127398599Y-83334495D01*
X127592170Y-83470035D01*
X127806337Y-83569903D01*
X128034591Y-83631062D01*
X128034592Y-83631063D01*
X128269999Y-83651659D01*
X128269999Y-83651658D01*
X128270000Y-83651659D01*
X128505408Y-83631063D01*
X128733663Y-83569903D01*
X128947830Y-83470035D01*
X129141401Y-83334495D01*
X129308495Y-83167401D01*
X129444035Y-82973830D01*
X129543903Y-82759663D01*
X129605063Y-82531408D01*
X129625659Y-82296000D01*
X129605063Y-82060592D01*
X129543903Y-81832337D01*
X129444035Y-81618171D01*
X129308495Y-81424599D01*
X129141401Y-81257505D01*
X128947830Y-81121965D01*
X128733663Y-81022097D01*
X128672501Y-81005709D01*
X128505407Y-80960936D01*
X128270000Y-80940340D01*
X128034592Y-80960936D01*
X127806336Y-81022097D01*
X127592170Y-81121965D01*
X127389712Y-81263728D01*
X127387563Y-81260659D01*
X127343600Y-81284666D01*
X127317242Y-81287500D01*
X124142758Y-81287500D01*
X124075719Y-81267815D01*
X124070416Y-81263542D01*
X124070287Y-81263728D01*
X124061404Y-81257508D01*
X124061401Y-81257505D01*
X123867830Y-81121965D01*
X123653663Y-81022097D01*
X123592501Y-81005709D01*
X123425407Y-80960936D01*
X123189999Y-80940340D01*
X122954592Y-80960936D01*
X122726336Y-81022097D01*
X122512170Y-81121965D01*
X122318598Y-81257505D01*
X122151505Y-81424598D01*
X122015965Y-81618170D01*
X121916097Y-81832336D01*
X121854936Y-82060592D01*
X121834340Y-82295999D01*
X121854936Y-82531407D01*
X121899709Y-82698501D01*
X121916097Y-82759663D01*
X122015965Y-82973830D01*
X122098599Y-83091844D01*
X122120925Y-83158048D01*
X122116177Y-83197292D01*
X122045368Y-83443082D01*
X122040775Y-83456207D01*
X121940525Y-83698234D01*
X121934492Y-83710762D01*
X121807768Y-83940056D01*
X121800370Y-83951831D01*
X121648769Y-84165494D01*
X121640098Y-84176366D01*
X121468707Y-84368151D01*
X121451736Y-84383898D01*
X121413299Y-84413393D01*
X121385263Y-84429580D01*
X121344928Y-84446287D01*
X121313662Y-84454664D01*
X121281049Y-84458958D01*
X121262201Y-84461439D01*
X121246018Y-84462499D01*
X121171242Y-84462498D01*
X121160745Y-84462498D01*
X121160744Y-84462498D01*
X121149576Y-84462498D01*
X121149554Y-84462500D01*
X117233083Y-84462500D01*
X117233007Y-84462507D01*
X117232828Y-84462511D01*
X117108338Y-84462511D01*
X117108337Y-84462511D01*
X117105287Y-84462511D01*
X117102270Y-84462808D01*
X117102251Y-84462809D01*
X116755318Y-84496976D01*
X116755311Y-84496976D01*
X116752285Y-84497275D01*
X116749317Y-84497865D01*
X116749299Y-84497868D01*
X116407373Y-84565878D01*
X116407359Y-84565881D01*
X116404390Y-84566472D01*
X116401484Y-84567353D01*
X116401478Y-84567355D01*
X116067856Y-84668556D01*
X116067843Y-84668560D01*
X116064954Y-84669437D01*
X116062153Y-84670596D01*
X116062145Y-84670600D01*
X115740061Y-84804008D01*
X115740040Y-84804017D01*
X115737244Y-84805176D01*
X115734567Y-84806606D01*
X115734554Y-84806613D01*
X115427108Y-84970945D01*
X115427098Y-84970950D01*
X115424417Y-84972384D01*
X115180947Y-85135063D01*
X115114273Y-85155940D01*
X115046893Y-85137455D01*
X115000203Y-85085476D01*
X114988063Y-85032827D01*
X114982037Y-84171169D01*
X114968924Y-82295999D01*
X116754340Y-82295999D01*
X116774936Y-82531407D01*
X116819709Y-82698501D01*
X116836097Y-82759663D01*
X116935965Y-82973830D01*
X117071505Y-83167401D01*
X117238599Y-83334495D01*
X117432170Y-83470035D01*
X117646337Y-83569903D01*
X117874591Y-83631062D01*
X117874592Y-83631063D01*
X118109999Y-83651659D01*
X118109999Y-83651658D01*
X118110000Y-83651659D01*
X118345408Y-83631063D01*
X118573663Y-83569903D01*
X118787830Y-83470035D01*
X118981401Y-83334495D01*
X119148495Y-83167401D01*
X119284035Y-82973830D01*
X119383903Y-82759663D01*
X119445063Y-82531408D01*
X119465659Y-82296000D01*
X119445063Y-82060592D01*
X119383903Y-81832337D01*
X119284035Y-81618171D01*
X119148495Y-81424599D01*
X118981401Y-81257505D01*
X118787830Y-81121965D01*
X118573663Y-81022097D01*
X118512501Y-81005709D01*
X118345407Y-80960936D01*
X118110000Y-80940340D01*
X117874592Y-80960936D01*
X117646336Y-81022097D01*
X117432170Y-81121965D01*
X117238598Y-81257505D01*
X117071505Y-81424598D01*
X116935965Y-81618170D01*
X116836097Y-81832336D01*
X116774936Y-82060592D01*
X116754340Y-82295999D01*
X114968924Y-82295999D01*
X114918157Y-75036207D01*
X114897876Y-72136000D01*
X116754340Y-72136000D01*
X116774936Y-72371407D01*
X116802677Y-72474937D01*
X116836097Y-72599663D01*
X116935965Y-72813830D01*
X117071505Y-73007401D01*
X117238599Y-73174495D01*
X117432170Y-73310035D01*
X117646337Y-73409903D01*
X117874592Y-73471063D01*
X118110000Y-73491659D01*
X118345408Y-73471063D01*
X118573663Y-73409903D01*
X118787830Y-73310035D01*
X118981401Y-73174495D01*
X118981404Y-73174491D01*
X118990287Y-73168272D01*
X118992435Y-73171340D01*
X119036400Y-73147334D01*
X119062758Y-73144500D01*
X122237242Y-73144500D01*
X122304281Y-73164185D01*
X122309583Y-73168457D01*
X122309713Y-73168272D01*
X122318595Y-73174491D01*
X122318599Y-73174495D01*
X122512170Y-73310035D01*
X122726337Y-73409903D01*
X122938059Y-73466633D01*
X122954592Y-73471063D01*
X123189999Y-73491659D01*
X123189999Y-73491658D01*
X123190000Y-73491659D01*
X123425408Y-73471063D01*
X123653663Y-73409903D01*
X123867830Y-73310035D01*
X124061401Y-73174495D01*
X124228495Y-73007401D01*
X124364035Y-72813830D01*
X124463903Y-72599663D01*
X124521153Y-72386000D01*
X126939364Y-72386000D01*
X126996569Y-72599492D01*
X127096399Y-72813576D01*
X127231893Y-73007081D01*
X127398918Y-73174106D01*
X127592423Y-73309600D01*
X127806507Y-73409430D01*
X128019998Y-73466634D01*
X128019999Y-73466634D01*
X128019999Y-72518903D01*
X128069388Y-72552576D01*
X128201088Y-72593200D01*
X128304260Y-72593200D01*
X128406284Y-72577822D01*
X128520000Y-72523059D01*
X128520000Y-73466633D01*
X128733490Y-73409430D01*
X128740848Y-73405999D01*
X140782740Y-73405999D01*
X140803336Y-73641407D01*
X140848109Y-73808501D01*
X140864497Y-73869663D01*
X140964365Y-74083830D01*
X141099905Y-74277401D01*
X141266999Y-74444495D01*
X141460570Y-74580035D01*
X141674737Y-74679903D01*
X141902992Y-74741063D01*
X142138400Y-74761659D01*
X142373808Y-74741063D01*
X142602063Y-74679903D01*
X142816230Y-74580035D01*
X143009801Y-74444495D01*
X143176895Y-74277401D01*
X143306826Y-74091839D01*
X143361402Y-74048216D01*
X143430900Y-74041022D01*
X143493255Y-74072545D01*
X143509971Y-74091837D01*
X143639905Y-74277401D01*
X143806999Y-74444495D01*
X144000570Y-74580035D01*
X144214737Y-74679903D01*
X144442992Y-74741063D01*
X144678400Y-74761659D01*
X144913808Y-74741063D01*
X145142063Y-74679903D01*
X145356230Y-74580035D01*
X145549801Y-74444495D01*
X145716895Y-74277401D01*
X145852435Y-74083830D01*
X145952303Y-73869663D01*
X146013463Y-73641408D01*
X146034059Y-73406000D01*
X146020686Y-73253155D01*
X146013463Y-73170592D01*
X145986004Y-73068113D01*
X145952303Y-72942337D01*
X145852435Y-72728171D01*
X145716895Y-72534599D01*
X145594581Y-72412285D01*
X145561096Y-72350962D01*
X145566080Y-72281270D01*
X145607952Y-72225337D01*
X145638928Y-72208422D01*
X145770489Y-72159352D01*
X145885588Y-72073188D01*
X145971752Y-71958089D01*
X146021999Y-71823371D01*
X146028045Y-71767132D01*
X146028400Y-71760518D01*
X146028400Y-71116000D01*
X145061992Y-71116000D01*
X145108803Y-71034921D01*
X145139471Y-70900553D01*
X145129172Y-70763114D01*
X145078819Y-70634818D01*
X145063812Y-70616000D01*
X146028400Y-70616000D01*
X146028400Y-69971481D01*
X146028045Y-69964867D01*
X146021999Y-69908628D01*
X145971752Y-69773910D01*
X145885588Y-69658811D01*
X145770489Y-69572647D01*
X145635771Y-69522400D01*
X145579532Y-69516354D01*
X145572918Y-69516000D01*
X144928400Y-69516000D01*
X144928400Y-70483096D01*
X144879012Y-70449424D01*
X144747312Y-70408800D01*
X144644140Y-70408800D01*
X144542116Y-70424178D01*
X144428400Y-70478940D01*
X144428400Y-69516000D01*
X143783882Y-69516000D01*
X143777267Y-69516354D01*
X143721028Y-69522400D01*
X143586310Y-69572647D01*
X143471211Y-69658811D01*
X143385047Y-69773911D01*
X143335785Y-69905987D01*
X143293913Y-69961921D01*
X143228448Y-69986337D01*
X143160176Y-69971485D01*
X143131922Y-69950334D01*
X143009481Y-69827893D01*
X142815976Y-69692399D01*
X142601892Y-69592569D01*
X142388400Y-69535364D01*
X142388400Y-70483096D01*
X142339012Y-70449424D01*
X142207312Y-70408800D01*
X142104140Y-70408800D01*
X142002116Y-70424178D01*
X141888400Y-70478940D01*
X141888400Y-69535364D01*
X141888399Y-69535364D01*
X141674907Y-69592569D01*
X141460821Y-69692400D01*
X141267321Y-69827890D01*
X141100290Y-69994921D01*
X140964800Y-70188421D01*
X140864969Y-70402507D01*
X140807764Y-70615999D01*
X140807764Y-70616000D01*
X141754808Y-70616000D01*
X141707997Y-70697079D01*
X141677329Y-70831447D01*
X141687628Y-70968886D01*
X141737981Y-71097182D01*
X141752988Y-71116000D01*
X140807764Y-71116000D01*
X140864969Y-71329492D01*
X140964799Y-71543576D01*
X141100293Y-71737081D01*
X141267318Y-71904106D01*
X141452995Y-72034119D01*
X141496619Y-72088696D01*
X141503812Y-72158195D01*
X141472290Y-72220549D01*
X141452995Y-72237269D01*
X141306032Y-72340173D01*
X141267461Y-72367182D01*
X141266995Y-72367508D01*
X141099905Y-72534598D01*
X140964365Y-72728170D01*
X140864497Y-72942336D01*
X140803336Y-73170592D01*
X140782740Y-73405999D01*
X128740848Y-73405999D01*
X128947576Y-73309600D01*
X129141081Y-73174106D01*
X129308106Y-73007081D01*
X129443600Y-72813576D01*
X129543430Y-72599492D01*
X129600636Y-72386000D01*
X128653592Y-72386000D01*
X128700403Y-72304921D01*
X128731071Y-72170553D01*
X128720772Y-72033114D01*
X128670419Y-71904818D01*
X128655412Y-71886000D01*
X129600636Y-71886000D01*
X129600635Y-71885999D01*
X129543430Y-71672507D01*
X129443599Y-71458421D01*
X129308109Y-71264921D01*
X129141081Y-71097893D01*
X128947576Y-70962399D01*
X128733492Y-70862569D01*
X128520000Y-70805364D01*
X128520000Y-71753096D01*
X128470612Y-71719424D01*
X128338912Y-71678800D01*
X128235740Y-71678800D01*
X128133716Y-71694178D01*
X128019999Y-71748940D01*
X128019999Y-70805364D01*
X128019998Y-70805364D01*
X127806507Y-70862569D01*
X127592421Y-70962400D01*
X127398921Y-71097890D01*
X127231890Y-71264921D01*
X127096400Y-71458421D01*
X126996569Y-71672507D01*
X126939364Y-71885999D01*
X126939364Y-71886000D01*
X127886408Y-71886000D01*
X127839597Y-71967079D01*
X127808929Y-72101447D01*
X127819228Y-72238886D01*
X127869581Y-72367182D01*
X127884588Y-72386000D01*
X126939364Y-72386000D01*
X124521153Y-72386000D01*
X124525063Y-72371408D01*
X124545659Y-72136000D01*
X124525063Y-71900592D01*
X124463903Y-71672337D01*
X124364035Y-71458171D01*
X124228495Y-71264599D01*
X124228494Y-71264598D01*
X124222272Y-71255712D01*
X124225340Y-71253563D01*
X124201334Y-71209600D01*
X124198500Y-71183242D01*
X124198500Y-68452306D01*
X124218185Y-68385267D01*
X124270989Y-68339512D01*
X124340147Y-68329568D01*
X124403703Y-68358593D01*
X124424625Y-68388727D01*
X124425520Y-68388058D01*
X124436203Y-68402328D01*
X124436204Y-68402331D01*
X124522454Y-68517546D01*
X124637669Y-68603796D01*
X124772517Y-68654091D01*
X124832127Y-68660500D01*
X126627872Y-68660499D01*
X126687483Y-68654091D01*
X126822331Y-68603796D01*
X126937546Y-68517546D01*
X127023796Y-68402331D01*
X127074091Y-68267483D01*
X127080500Y-68207873D01*
X127080499Y-66412128D01*
X127074091Y-66352517D01*
X127023796Y-66217669D01*
X126937546Y-66102454D01*
X126822331Y-66016204D01*
X126687483Y-65965909D01*
X126627873Y-65959500D01*
X126624550Y-65959500D01*
X124835439Y-65959500D01*
X124835420Y-65959500D01*
X124832128Y-65959501D01*
X124828848Y-65959853D01*
X124828840Y-65959854D01*
X124772515Y-65965909D01*
X124637669Y-66016204D01*
X124522454Y-66102454D01*
X124436204Y-66217669D01*
X124387189Y-66349083D01*
X124345317Y-66405016D01*
X124279852Y-66429433D01*
X124211580Y-66414581D01*
X124183326Y-66393430D01*
X124061404Y-66271508D01*
X124061404Y-66271507D01*
X124061401Y-66271505D01*
X123867830Y-66135965D01*
X123653663Y-66036097D01*
X123592501Y-66019709D01*
X123425407Y-65974936D01*
X123189999Y-65954340D01*
X122954592Y-65974936D01*
X122726336Y-66036097D01*
X122512170Y-66135965D01*
X122318598Y-66271505D01*
X122151505Y-66438598D01*
X122021575Y-66624159D01*
X121966998Y-66667784D01*
X121897500Y-66674978D01*
X121835145Y-66643455D01*
X121818425Y-66624159D01*
X121731838Y-66500500D01*
X121688495Y-66438599D01*
X121521401Y-66271505D01*
X121327830Y-66135965D01*
X121113663Y-66036097D01*
X121052501Y-66019709D01*
X120885407Y-65974936D01*
X120649999Y-65954340D01*
X120414592Y-65974936D01*
X120186336Y-66036097D01*
X119972170Y-66135965D01*
X119778598Y-66271505D01*
X119611505Y-66438598D01*
X119475965Y-66632170D01*
X119376097Y-66846336D01*
X119314936Y-67074592D01*
X119294340Y-67309999D01*
X119314936Y-67545407D01*
X119345654Y-67660046D01*
X119376097Y-67773663D01*
X119475965Y-67987830D01*
X119611505Y-68181401D01*
X119778599Y-68348495D01*
X119972170Y-68484035D01*
X120186337Y-68583903D01*
X120371483Y-68633512D01*
X120414592Y-68645063D01*
X120649999Y-68665659D01*
X120649999Y-68665658D01*
X120650000Y-68665659D01*
X120885408Y-68645063D01*
X121113663Y-68583903D01*
X121327830Y-68484035D01*
X121521401Y-68348495D01*
X121688495Y-68181401D01*
X121818426Y-67995839D01*
X121873002Y-67952216D01*
X121942500Y-67945022D01*
X122004855Y-67976545D01*
X122021571Y-67995837D01*
X122133018Y-68154999D01*
X122157728Y-68190288D01*
X122154659Y-68192436D01*
X122178666Y-68236400D01*
X122181500Y-68262758D01*
X122181500Y-71003500D01*
X122161815Y-71070539D01*
X122109011Y-71116294D01*
X122057500Y-71127500D01*
X119062758Y-71127500D01*
X118995719Y-71107815D01*
X118990416Y-71103542D01*
X118990287Y-71103728D01*
X118981404Y-71097508D01*
X118981401Y-71097505D01*
X118787830Y-70961965D01*
X118573663Y-70862097D01*
X118504724Y-70843625D01*
X118345407Y-70800936D01*
X118110000Y-70780340D01*
X117874592Y-70800936D01*
X117646336Y-70862097D01*
X117432170Y-70961965D01*
X117238598Y-71097505D01*
X117071505Y-71264598D01*
X116935965Y-71458170D01*
X116836097Y-71672336D01*
X116774936Y-71900592D01*
X116754340Y-72136000D01*
X114897876Y-72136000D01*
X114837485Y-63500000D01*
X129328415Y-63500000D01*
X129348738Y-63848927D01*
X129349364Y-63852481D01*
X129349366Y-63852492D01*
X129408803Y-64189578D01*
X129408805Y-64189588D01*
X129409431Y-64193136D01*
X129509674Y-64527971D01*
X129511099Y-64531274D01*
X129646682Y-64845593D01*
X129646687Y-64845603D01*
X129648111Y-64848904D01*
X129649913Y-64852026D01*
X129649915Y-64852029D01*
X129821061Y-65148464D01*
X129821067Y-65148473D01*
X129822870Y-65151596D01*
X129825029Y-65154496D01*
X130029435Y-65429062D01*
X130029441Y-65429069D01*
X130031588Y-65431953D01*
X130271442Y-65686183D01*
X130274200Y-65688497D01*
X130274204Y-65688501D01*
X130479955Y-65861146D01*
X130539189Y-65910849D01*
X130691465Y-66011003D01*
X130729618Y-66036097D01*
X130831207Y-66102913D01*
X131143549Y-66259777D01*
X131471989Y-66379319D01*
X131550402Y-66397903D01*
X131808579Y-66459092D01*
X131808581Y-66459092D01*
X131812086Y-66459923D01*
X132159241Y-66500500D01*
X132162839Y-66500500D01*
X132505161Y-66500500D01*
X132508759Y-66500500D01*
X132855914Y-66459923D01*
X133196011Y-66379319D01*
X133524451Y-66259777D01*
X133836793Y-66102913D01*
X134128811Y-65910849D01*
X134396558Y-65686183D01*
X134636412Y-65431953D01*
X134845130Y-65151596D01*
X135019889Y-64848904D01*
X135158326Y-64527971D01*
X135258569Y-64193136D01*
X135319262Y-63848927D01*
X135339585Y-63500000D01*
X135319262Y-63151073D01*
X135258569Y-62806864D01*
X135158326Y-62472029D01*
X135019889Y-62151096D01*
X134901284Y-61945666D01*
X134846938Y-61851535D01*
X134846935Y-61851531D01*
X134845130Y-61848404D01*
X134745777Y-61714950D01*
X134638564Y-61570937D01*
X134638559Y-61570931D01*
X134636412Y-61568047D01*
X134396558Y-61313817D01*
X134393800Y-61311503D01*
X134393795Y-61311498D01*
X134131570Y-61091466D01*
X134131569Y-61091465D01*
X134128811Y-61089151D01*
X134052167Y-61038741D01*
X133839812Y-60899072D01*
X133839804Y-60899067D01*
X133836793Y-60897087D01*
X133731347Y-60844130D01*
X133527688Y-60741848D01*
X133527678Y-60741843D01*
X133524451Y-60740223D01*
X133420686Y-60702456D01*
X133199400Y-60621914D01*
X133199392Y-60621911D01*
X133196011Y-60620681D01*
X133192512Y-60619851D01*
X133192503Y-60619849D01*
X132859420Y-60540907D01*
X132859404Y-60540904D01*
X132855914Y-60540077D01*
X132852349Y-60539660D01*
X132852336Y-60539658D01*
X132512329Y-60499917D01*
X132512324Y-60499916D01*
X132508759Y-60499500D01*
X132159241Y-60499500D01*
X132155676Y-60499916D01*
X132155670Y-60499917D01*
X131815663Y-60539658D01*
X131815647Y-60539660D01*
X131812086Y-60540077D01*
X131808598Y-60540903D01*
X131808579Y-60540907D01*
X131475496Y-60619849D01*
X131475482Y-60619852D01*
X131471989Y-60620681D01*
X131468612Y-60621910D01*
X131468599Y-60621914D01*
X131146950Y-60738985D01*
X131143549Y-60740223D01*
X131140327Y-60741840D01*
X131140311Y-60741848D01*
X130834436Y-60895465D01*
X130834431Y-60895467D01*
X130831207Y-60897087D01*
X130828203Y-60899062D01*
X130828187Y-60899072D01*
X130542206Y-61087166D01*
X130542198Y-61087171D01*
X130539189Y-61089151D01*
X130536438Y-61091458D01*
X130536429Y-61091466D01*
X130274204Y-61311498D01*
X130274190Y-61311510D01*
X130271442Y-61313817D01*
X130268967Y-61316439D01*
X130268962Y-61316445D01*
X130034062Y-61565424D01*
X130034056Y-61565430D01*
X130031588Y-61568047D01*
X130029448Y-61570921D01*
X130029435Y-61570937D01*
X129825029Y-61845503D01*
X129825023Y-61845511D01*
X129822870Y-61848404D01*
X129821071Y-61851518D01*
X129821061Y-61851535D01*
X129649915Y-62147970D01*
X129649909Y-62147980D01*
X129648111Y-62151096D01*
X129646690Y-62154389D01*
X129646682Y-62154406D01*
X129511099Y-62468725D01*
X129509674Y-62472029D01*
X129508645Y-62475464D01*
X129508642Y-62475474D01*
X129410465Y-62803408D01*
X129410462Y-62803418D01*
X129409431Y-62806864D01*
X129408806Y-62810407D01*
X129408803Y-62810421D01*
X129349366Y-63147507D01*
X129349364Y-63147520D01*
X129348738Y-63151073D01*
X129348528Y-63154678D01*
X129348527Y-63154687D01*
X129345314Y-63209852D01*
X129328415Y-63500000D01*
X114837485Y-63500000D01*
X114811718Y-59815367D01*
X114830933Y-59748192D01*
X114883416Y-59702069D01*
X114935715Y-59690500D01*
X133854521Y-59690500D01*
X133861471Y-59690694D01*
G37*
%TD.AperFunction*%
%TD*%
%TA.AperFunction,Conductor*%
%TO.N,+7.5V*%
G36*
X114249235Y-59710185D02*
G01*
X114294990Y-59762989D01*
X114306193Y-59813633D01*
X114487521Y-85743592D01*
X114468306Y-85810767D01*
X114459378Y-85823123D01*
X114394945Y-85901636D01*
X114393021Y-85903981D01*
X114391348Y-85906484D01*
X114391336Y-85906501D01*
X114205290Y-86184941D01*
X114205279Y-86184957D01*
X114203596Y-86187478D01*
X114202163Y-86190158D01*
X114202157Y-86190169D01*
X114154540Y-86279256D01*
X114042871Y-86488178D01*
X114041712Y-86490973D01*
X114041711Y-86490978D01*
X113913558Y-86800374D01*
X113913552Y-86800390D01*
X113912395Y-86803184D01*
X113911517Y-86806078D01*
X113911510Y-86806098D01*
X113814308Y-87126545D01*
X113814304Y-87126560D01*
X113813424Y-87129462D01*
X113812833Y-87132431D01*
X113812829Y-87132449D01*
X113747505Y-87460881D01*
X113747503Y-87460890D01*
X113746911Y-87463870D01*
X113713497Y-87803187D01*
X113713497Y-87806235D01*
X113713497Y-87806237D01*
X113713500Y-87973628D01*
X113713500Y-88201242D01*
X113693815Y-88268281D01*
X113689542Y-88273582D01*
X113689728Y-88273712D01*
X113547965Y-88476170D01*
X113448097Y-88690336D01*
X113386936Y-88918592D01*
X113366340Y-89153999D01*
X113386936Y-89389407D01*
X113431709Y-89556502D01*
X113448097Y-89617663D01*
X113547965Y-89831830D01*
X113683505Y-90025401D01*
X113850599Y-90192495D01*
X114036160Y-90322426D01*
X114079783Y-90377002D01*
X114086976Y-90446501D01*
X114055454Y-90508855D01*
X114036158Y-90525575D01*
X113918604Y-90607888D01*
X113850595Y-90655508D01*
X113683505Y-90822598D01*
X113547965Y-91016170D01*
X113448097Y-91230336D01*
X113386936Y-91458592D01*
X113366340Y-91694000D01*
X113386936Y-91929407D01*
X113431709Y-92096502D01*
X113448097Y-92157663D01*
X113547965Y-92371830D01*
X113683505Y-92565401D01*
X113850599Y-92732495D01*
X114036596Y-92862732D01*
X114080219Y-92917307D01*
X114087412Y-92986806D01*
X114055890Y-93049160D01*
X114036595Y-93065880D01*
X113850919Y-93195892D01*
X113683890Y-93362921D01*
X113548400Y-93556421D01*
X113448569Y-93770507D01*
X113391364Y-93983999D01*
X113391364Y-93984000D01*
X114338408Y-93984000D01*
X114291597Y-94065079D01*
X114260929Y-94199447D01*
X114271228Y-94336886D01*
X114321581Y-94465182D01*
X114336588Y-94484000D01*
X113391364Y-94484000D01*
X113448569Y-94697492D01*
X113548399Y-94911576D01*
X113683893Y-95105081D01*
X113850918Y-95272106D01*
X114044423Y-95407600D01*
X114258508Y-95507430D01*
X114465114Y-95562790D01*
X114524775Y-95599155D01*
X114555304Y-95662002D01*
X114557018Y-95681698D01*
X114576994Y-98538344D01*
X114557779Y-98605519D01*
X114552264Y-98613521D01*
X114465316Y-98729668D01*
X114427167Y-98831950D01*
X114385296Y-98887883D01*
X114319831Y-98912299D01*
X114251558Y-98897447D01*
X114223305Y-98876296D01*
X114130517Y-98783508D01*
X114130514Y-98783505D01*
X113936943Y-98647965D01*
X113722776Y-98548097D01*
X113661615Y-98531709D01*
X113494520Y-98486936D01*
X113259112Y-98466340D01*
X113023705Y-98486936D01*
X112795449Y-98548097D01*
X112581283Y-98647965D01*
X112387711Y-98783505D01*
X112220618Y-98950598D01*
X112085078Y-99144170D01*
X111985210Y-99358336D01*
X111924049Y-99586592D01*
X111903453Y-99822000D01*
X111924049Y-100057407D01*
X111968822Y-100224501D01*
X111985210Y-100285663D01*
X112085078Y-100499830D01*
X112220618Y-100693401D01*
X112387712Y-100860495D01*
X112581283Y-100996035D01*
X112795450Y-101095903D01*
X113023705Y-101157062D01*
X113023705Y-101157063D01*
X113259112Y-101177659D01*
X113259112Y-101177658D01*
X113259113Y-101177659D01*
X113494521Y-101157063D01*
X113722776Y-101095903D01*
X113936943Y-100996035D01*
X114130514Y-100860495D01*
X114223306Y-100767703D01*
X114284629Y-100734218D01*
X114354321Y-100739202D01*
X114410254Y-100781074D01*
X114427169Y-100812051D01*
X114465317Y-100914331D01*
X114526481Y-100996035D01*
X114562251Y-101043818D01*
X114560509Y-101045122D01*
X114587255Y-101080851D01*
X114595071Y-101123318D01*
X114624865Y-105383941D01*
X114613251Y-105437210D01*
X114597262Y-105471499D01*
X114538364Y-105691310D01*
X114518531Y-105918000D01*
X114538364Y-106144689D01*
X114597260Y-106364495D01*
X114607896Y-106387304D01*
X114620822Y-106415023D01*
X114632437Y-106466560D01*
X114801794Y-130684635D01*
X114782580Y-130751808D01*
X114730097Y-130797931D01*
X114677798Y-130809500D01*
X94618481Y-130809500D01*
X94611528Y-130809305D01*
X94499475Y-130803012D01*
X94330668Y-130792801D01*
X94317385Y-130791275D01*
X94184656Y-130768723D01*
X94057694Y-130745456D01*
X94038800Y-130741994D01*
X94026837Y-130739182D01*
X94009400Y-130734159D01*
X93894246Y-130700983D01*
X93891684Y-130700214D01*
X93754866Y-130657580D01*
X93744303Y-130653756D01*
X93615291Y-130600317D01*
X93611873Y-130598841D01*
X93482713Y-130540710D01*
X93473626Y-130536164D01*
X93350667Y-130468207D01*
X93346498Y-130465796D01*
X93226010Y-130392958D01*
X93218406Y-130387971D01*
X93103473Y-130306423D01*
X93098754Y-130302904D01*
X92988246Y-130216326D01*
X92982092Y-130211175D01*
X92876865Y-130117139D01*
X92871811Y-130112360D01*
X92772638Y-130013187D01*
X92767859Y-130008133D01*
X92673823Y-129902906D01*
X92668672Y-129896752D01*
X92582078Y-129786223D01*
X92578575Y-129781525D01*
X92497027Y-129666592D01*
X92492040Y-129658988D01*
X92419202Y-129538500D01*
X92416791Y-129534331D01*
X92398272Y-129500824D01*
X92348832Y-129411369D01*
X92344298Y-129402306D01*
X92286130Y-129273063D01*
X92284693Y-129269736D01*
X92231237Y-129140682D01*
X92227423Y-129130146D01*
X92184773Y-128993279D01*
X92184015Y-128990752D01*
X92179307Y-128974409D01*
X92145814Y-128858153D01*
X92143006Y-128846205D01*
X92116288Y-128700416D01*
X92093721Y-128567599D01*
X92092199Y-128554345D01*
X92081991Y-128385589D01*
X92075692Y-128273435D01*
X92075500Y-128266556D01*
X92075500Y-126492000D01*
X92879415Y-126492000D01*
X92899738Y-126840927D01*
X92900364Y-126844481D01*
X92900366Y-126844492D01*
X92959803Y-127181578D01*
X92959805Y-127181588D01*
X92960431Y-127185136D01*
X93060674Y-127519971D01*
X93062099Y-127523274D01*
X93197682Y-127837593D01*
X93197687Y-127837603D01*
X93199111Y-127840904D01*
X93200913Y-127844026D01*
X93200915Y-127844029D01*
X93372061Y-128140464D01*
X93372067Y-128140473D01*
X93373870Y-128143596D01*
X93376029Y-128146496D01*
X93580435Y-128421062D01*
X93580441Y-128421069D01*
X93582588Y-128423953D01*
X93822442Y-128678183D01*
X93825200Y-128680497D01*
X93825204Y-128680501D01*
X93848844Y-128700337D01*
X94090189Y-128902849D01*
X94382207Y-129094913D01*
X94694549Y-129251777D01*
X95022989Y-129371319D01*
X95153734Y-129402306D01*
X95359579Y-129451092D01*
X95359581Y-129451092D01*
X95363086Y-129451923D01*
X95710241Y-129492500D01*
X95713839Y-129492500D01*
X96056161Y-129492500D01*
X96059759Y-129492500D01*
X96406914Y-129451923D01*
X96747011Y-129371319D01*
X97075451Y-129251777D01*
X97387793Y-129094913D01*
X97679811Y-128902849D01*
X97947558Y-128678183D01*
X98187412Y-128423953D01*
X98396130Y-128143596D01*
X98570889Y-127840904D01*
X98709326Y-127519971D01*
X98809569Y-127185136D01*
X98870262Y-126840927D01*
X98890585Y-126492000D01*
X98870262Y-126143073D01*
X98809569Y-125798864D01*
X98709326Y-125464029D01*
X98570889Y-125143096D01*
X98396130Y-124840404D01*
X98187412Y-124560047D01*
X97947558Y-124305817D01*
X97944800Y-124303503D01*
X97944795Y-124303498D01*
X97682570Y-124083466D01*
X97682569Y-124083465D01*
X97679811Y-124081151D01*
X97676793Y-124079166D01*
X97390812Y-123891072D01*
X97390804Y-123891067D01*
X97387793Y-123889087D01*
X97324550Y-123857325D01*
X97078688Y-123733848D01*
X97078678Y-123733843D01*
X97075451Y-123732223D01*
X96971686Y-123694456D01*
X96750400Y-123613914D01*
X96750392Y-123613911D01*
X96747011Y-123612681D01*
X96743512Y-123611851D01*
X96743503Y-123611849D01*
X96410420Y-123532907D01*
X96410404Y-123532904D01*
X96406914Y-123532077D01*
X96403349Y-123531660D01*
X96403336Y-123531658D01*
X96063329Y-123491917D01*
X96063324Y-123491916D01*
X96059759Y-123491500D01*
X95710241Y-123491500D01*
X95706676Y-123491916D01*
X95706670Y-123491917D01*
X95366663Y-123531658D01*
X95366647Y-123531660D01*
X95363086Y-123532077D01*
X95359598Y-123532903D01*
X95359579Y-123532907D01*
X95026496Y-123611849D01*
X95026482Y-123611852D01*
X95022989Y-123612681D01*
X95019612Y-123613910D01*
X95019599Y-123613914D01*
X94697950Y-123730985D01*
X94694549Y-123732223D01*
X94691327Y-123733840D01*
X94691311Y-123733848D01*
X94385436Y-123887465D01*
X94385431Y-123887467D01*
X94382207Y-123889087D01*
X94379203Y-123891062D01*
X94379187Y-123891072D01*
X94093206Y-124079166D01*
X94093198Y-124079171D01*
X94090189Y-124081151D01*
X94087438Y-124083458D01*
X94087429Y-124083466D01*
X93825204Y-124303498D01*
X93825190Y-124303510D01*
X93822442Y-124305817D01*
X93819967Y-124308439D01*
X93819962Y-124308445D01*
X93585062Y-124557424D01*
X93585056Y-124557430D01*
X93582588Y-124560047D01*
X93580448Y-124562921D01*
X93580435Y-124562937D01*
X93376029Y-124837503D01*
X93376023Y-124837511D01*
X93373870Y-124840404D01*
X93372071Y-124843518D01*
X93372061Y-124843535D01*
X93200915Y-125139970D01*
X93200909Y-125139980D01*
X93199111Y-125143096D01*
X93197690Y-125146389D01*
X93197682Y-125146406D01*
X93062099Y-125460725D01*
X93060674Y-125464029D01*
X93059645Y-125467464D01*
X93059642Y-125467474D01*
X92961465Y-125795408D01*
X92961462Y-125795418D01*
X92960431Y-125798864D01*
X92959806Y-125802407D01*
X92959803Y-125802421D01*
X92900366Y-126139507D01*
X92900364Y-126139520D01*
X92899738Y-126143073D01*
X92899528Y-126146678D01*
X92899527Y-126146687D01*
X92879625Y-126488394D01*
X92879415Y-126492000D01*
X92075500Y-126492000D01*
X92075500Y-123017599D01*
X106430317Y-123017599D01*
X106435500Y-123056960D01*
X106450956Y-123174362D01*
X106511463Y-123320440D01*
X106607717Y-123445882D01*
X106667712Y-123491917D01*
X106733159Y-123542136D01*
X106879238Y-123602644D01*
X107004698Y-123619161D01*
X107035999Y-123623282D01*
X107035999Y-123623281D01*
X107036000Y-123623282D01*
X107067302Y-123619160D01*
X107083487Y-123618100D01*
X107750513Y-123618100D01*
X107766697Y-123619160D01*
X107798000Y-123623282D01*
X107954762Y-123602644D01*
X108100841Y-123542136D01*
X108226282Y-123445882D01*
X108322536Y-123320441D01*
X108383044Y-123174362D01*
X108398500Y-123056961D01*
X108403682Y-123017600D01*
X108399561Y-122986296D01*
X108398500Y-122970111D01*
X108398500Y-122091100D01*
X108418185Y-122024061D01*
X108470989Y-121978306D01*
X108522500Y-121967100D01*
X112068513Y-121967100D01*
X112084697Y-121968160D01*
X112116000Y-121972282D01*
X112272762Y-121951644D01*
X112418841Y-121891136D01*
X112544282Y-121794882D01*
X112640536Y-121669441D01*
X112701044Y-121523362D01*
X112716500Y-121405961D01*
X112721682Y-121366600D01*
X112717561Y-121335296D01*
X112716500Y-121319111D01*
X112716500Y-120652087D01*
X112717561Y-120635901D01*
X112721682Y-120604599D01*
X112718964Y-120583960D01*
X112701044Y-120447838D01*
X112640536Y-120301759D01*
X112640535Y-120301758D01*
X112544282Y-120176317D01*
X112418840Y-120080063D01*
X112272762Y-120019556D01*
X112193325Y-120009098D01*
X112129429Y-119980831D01*
X112090958Y-119922507D01*
X112090127Y-119852642D01*
X112114851Y-119806062D01*
X112115172Y-119805681D01*
X112115174Y-119805681D01*
X112158837Y-119754079D01*
X112203404Y-119703278D01*
X112203403Y-119703278D01*
X112209855Y-119695925D01*
X112215751Y-119686816D01*
X112399764Y-119469346D01*
X112417278Y-119452365D01*
X112423563Y-119447372D01*
X112451429Y-119408844D01*
X112457237Y-119401424D01*
X112464500Y-119392842D01*
X112473242Y-119379069D01*
X112477439Y-119372879D01*
X112508286Y-119330233D01*
X112509293Y-119327498D01*
X112520963Y-119303903D01*
X112522523Y-119301447D01*
X112537690Y-119251075D01*
X112540066Y-119243970D01*
X112567038Y-119170761D01*
X112697854Y-118815688D01*
X112703675Y-118802359D01*
X112719112Y-118772017D01*
X112732313Y-118706011D01*
X112735797Y-118690166D01*
X112748767Y-118631171D01*
X112749573Y-118619706D01*
X112830059Y-118217274D01*
X112832240Y-118208178D01*
X112845100Y-118162283D01*
X112845100Y-118109760D01*
X112845329Y-118102226D01*
X112848520Y-118049808D01*
X112847886Y-118046866D01*
X112845100Y-118020731D01*
X112845100Y-117586147D01*
X112846180Y-117518066D01*
X112837780Y-117486147D01*
X112834852Y-117471472D01*
X112830359Y-117438780D01*
X112821333Y-117418000D01*
X112815152Y-117400161D01*
X112808308Y-117374154D01*
X112708282Y-116994056D01*
X112705924Y-116983105D01*
X112698822Y-116940877D01*
X112674390Y-116888960D01*
X112672093Y-116883772D01*
X112649566Y-116829571D01*
X112636465Y-116808369D01*
X112602867Y-116736974D01*
X112592133Y-116667936D01*
X112620429Y-116604052D01*
X112630430Y-116593552D01*
X112654780Y-116570811D01*
X112654780Y-116570810D01*
X112654782Y-116570809D01*
X112675036Y-116537500D01*
X112682170Y-116527021D01*
X112705716Y-116495972D01*
X112711832Y-116480460D01*
X112721232Y-116461535D01*
X112729896Y-116447289D01*
X112740412Y-116409751D01*
X112744457Y-116397727D01*
X112758750Y-116361485D01*
X112760454Y-116344904D01*
X112764400Y-116324140D01*
X112768900Y-116308083D01*
X112768900Y-116269109D01*
X112769550Y-116256429D01*
X112773534Y-116217676D01*
X112773534Y-116217675D01*
X112770702Y-116201251D01*
X112768900Y-116180198D01*
X112768900Y-115832464D01*
X112770592Y-115812063D01*
X112773623Y-115793909D01*
X112772111Y-115779931D01*
X112780831Y-115719143D01*
X112828044Y-115605162D01*
X112840404Y-115511281D01*
X112848682Y-115448400D01*
X112844561Y-115417096D01*
X112843500Y-115400911D01*
X112843500Y-112066887D01*
X112844561Y-112050701D01*
X112848682Y-112019399D01*
X112844764Y-111989637D01*
X112828044Y-111862638D01*
X112767536Y-111716559D01*
X112718057Y-111652076D01*
X112671282Y-111591117D01*
X112545840Y-111494863D01*
X112399762Y-111434356D01*
X112282361Y-111418900D01*
X112243000Y-111413717D01*
X112215163Y-111417382D01*
X112211697Y-111417839D01*
X112195513Y-111418900D01*
X111579287Y-111418900D01*
X111563102Y-111417839D01*
X111559176Y-111417322D01*
X111531799Y-111413717D01*
X111496541Y-111418359D01*
X111492439Y-111418900D01*
X111433738Y-111426628D01*
X111375037Y-111434356D01*
X111228959Y-111494863D01*
X111103517Y-111591117D01*
X111007263Y-111716559D01*
X110946756Y-111862637D01*
X110926117Y-112019399D01*
X110930239Y-112050701D01*
X110931300Y-112066887D01*
X110931300Y-113911100D01*
X110911615Y-113978139D01*
X110858811Y-114023894D01*
X110807300Y-114035100D01*
X110757700Y-114035100D01*
X110690661Y-114015415D01*
X110644906Y-113962611D01*
X110633700Y-113911100D01*
X110633699Y-112193891D01*
X110634760Y-112177703D01*
X110638882Y-112146400D01*
X110618244Y-111989638D01*
X110557736Y-111843559D01*
X110514766Y-111787559D01*
X110461482Y-111718117D01*
X110336040Y-111621863D01*
X110189962Y-111561356D01*
X110072561Y-111545900D01*
X110033200Y-111540717D01*
X110005363Y-111544382D01*
X110001897Y-111544839D01*
X109985713Y-111545900D01*
X109344087Y-111545900D01*
X109327902Y-111544839D01*
X109323976Y-111544322D01*
X109296599Y-111540717D01*
X109261341Y-111545359D01*
X109257239Y-111545900D01*
X109198538Y-111553628D01*
X109139837Y-111561356D01*
X108993759Y-111621863D01*
X108868317Y-111718117D01*
X108772064Y-111843558D01*
X108729154Y-111947153D01*
X108685313Y-112001556D01*
X108619019Y-112023621D01*
X108551320Y-112006342D01*
X108503709Y-111955205D01*
X108491654Y-111915885D01*
X108484644Y-111862638D01*
X108424136Y-111716559D01*
X108374657Y-111652076D01*
X108327882Y-111591117D01*
X108202440Y-111494863D01*
X108056362Y-111434356D01*
X107938961Y-111418900D01*
X107899600Y-111413717D01*
X107871763Y-111417382D01*
X107868297Y-111417839D01*
X107852113Y-111418900D01*
X107213182Y-111418900D01*
X107196087Y-111417716D01*
X107191650Y-111417098D01*
X107167483Y-111413734D01*
X107127395Y-111418710D01*
X107125392Y-111418900D01*
X107123639Y-111418900D01*
X107119635Y-111419427D01*
X107119621Y-111419428D01*
X107086798Y-111423750D01*
X107008329Y-111433489D01*
X106970536Y-111449144D01*
X106935245Y-111463762D01*
X106895563Y-111479855D01*
X106861953Y-111493486D01*
X106799220Y-111541623D01*
X106736094Y-111589323D01*
X106687942Y-111652076D01*
X106639328Y-111714469D01*
X106609053Y-111787559D01*
X106578251Y-111860392D01*
X106567928Y-111938808D01*
X106563365Y-111971582D01*
X106563363Y-111971599D01*
X106562808Y-111975592D01*
X106562794Y-111977343D01*
X106562589Y-111979352D01*
X106557317Y-112019398D01*
X106561086Y-112048026D01*
X106562144Y-112065129D01*
X106537447Y-115399164D01*
X106536389Y-115414428D01*
X106531917Y-115448398D01*
X106541948Y-115524591D01*
X106551689Y-115603070D01*
X106581962Y-115676154D01*
X106611686Y-115749445D01*
X106659823Y-115812179D01*
X106707521Y-115875303D01*
X106709317Y-115876681D01*
X106709318Y-115876682D01*
X106770276Y-115923456D01*
X106830882Y-115970678D01*
X106830883Y-115970678D01*
X106832668Y-115972069D01*
X106834756Y-115972934D01*
X106834759Y-115972936D01*
X106905759Y-116002345D01*
X106921081Y-116008825D01*
X106975150Y-116053063D01*
X106996721Y-116119520D01*
X106978939Y-116187089D01*
X106968786Y-116201482D01*
X106938765Y-116238187D01*
X106938763Y-116238190D01*
X106938764Y-116238190D01*
X106926188Y-116266934D01*
X106919060Y-116280784D01*
X106902981Y-116307720D01*
X106896623Y-116331151D01*
X106890556Y-116348376D01*
X106740885Y-116690481D01*
X106737231Y-116698112D01*
X106714072Y-116742524D01*
X106703754Y-116791530D01*
X106701728Y-116799748D01*
X106688092Y-116847928D01*
X106688078Y-116853416D01*
X106685418Y-116878625D01*
X106604893Y-117261119D01*
X106601390Y-117274180D01*
X106589935Y-117309141D01*
X106587183Y-117372441D01*
X106586989Y-117375837D01*
X106582038Y-117445553D01*
X106583309Y-117461529D01*
X106562399Y-117942473D01*
X106561704Y-117951255D01*
X106556084Y-118000112D01*
X106564141Y-118050471D01*
X106565160Y-118058525D01*
X106569901Y-118109278D01*
X106571535Y-118113537D01*
X106578204Y-118138359D01*
X106650235Y-118588556D01*
X106641389Y-118657864D01*
X106616678Y-118689416D01*
X106617656Y-118690166D01*
X106511463Y-118828559D01*
X106450956Y-118974637D01*
X106430317Y-119131399D01*
X106434439Y-119162701D01*
X106435500Y-119178887D01*
X106435500Y-122970111D01*
X106434439Y-122986296D01*
X106430317Y-123017599D01*
X92075500Y-123017599D01*
X92075500Y-118871999D01*
X102936740Y-118871999D01*
X102957336Y-119107407D01*
X102993928Y-119243970D01*
X103018497Y-119335663D01*
X103118365Y-119549830D01*
X103253905Y-119743401D01*
X103420999Y-119910495D01*
X103614570Y-120046035D01*
X103828737Y-120145903D01*
X104056992Y-120207063D01*
X104292400Y-120227659D01*
X104527808Y-120207063D01*
X104756063Y-120145903D01*
X104970230Y-120046035D01*
X105163801Y-119910495D01*
X105330895Y-119743401D01*
X105466435Y-119549830D01*
X105566303Y-119335663D01*
X105627463Y-119107408D01*
X105648059Y-118872000D01*
X105627463Y-118636592D01*
X105566303Y-118408337D01*
X105466435Y-118194171D01*
X105330895Y-118000599D01*
X105208581Y-117878285D01*
X105175096Y-117816962D01*
X105180080Y-117747270D01*
X105221952Y-117691337D01*
X105252928Y-117674422D01*
X105384489Y-117625352D01*
X105499588Y-117539188D01*
X105585752Y-117424089D01*
X105635999Y-117289371D01*
X105642045Y-117233132D01*
X105642400Y-117226518D01*
X105642400Y-116582000D01*
X104675992Y-116582000D01*
X104722803Y-116500921D01*
X104753471Y-116366553D01*
X104743172Y-116229114D01*
X104692819Y-116100818D01*
X104677812Y-116082000D01*
X105642400Y-116082000D01*
X105642400Y-115437481D01*
X105642045Y-115430867D01*
X105635999Y-115374628D01*
X105585752Y-115239910D01*
X105499588Y-115124811D01*
X105384489Y-115038647D01*
X105249771Y-114988400D01*
X105193532Y-114982354D01*
X105186918Y-114982000D01*
X104542400Y-114982000D01*
X104542400Y-115949096D01*
X104493012Y-115915424D01*
X104361312Y-115874800D01*
X104258140Y-115874800D01*
X104156116Y-115890178D01*
X104042399Y-115944940D01*
X104042400Y-114982000D01*
X103397882Y-114982000D01*
X103391267Y-114982354D01*
X103335028Y-114988400D01*
X103200310Y-115038647D01*
X103085211Y-115124811D01*
X102999047Y-115239910D01*
X102948800Y-115374628D01*
X102942754Y-115430867D01*
X102942400Y-115437481D01*
X102942400Y-116082000D01*
X103908808Y-116082000D01*
X103861997Y-116163079D01*
X103831329Y-116297447D01*
X103841628Y-116434886D01*
X103891981Y-116563182D01*
X103906988Y-116582000D01*
X102942400Y-116582000D01*
X102942400Y-117226518D01*
X102942754Y-117233132D01*
X102948800Y-117289371D01*
X102999047Y-117424089D01*
X103085211Y-117539188D01*
X103200311Y-117625352D01*
X103331871Y-117674422D01*
X103387804Y-117716294D01*
X103412221Y-117781758D01*
X103397369Y-117850031D01*
X103376219Y-117878285D01*
X103253903Y-118000601D01*
X103118365Y-118194170D01*
X103018497Y-118408336D01*
X102957336Y-118636592D01*
X102936740Y-118871999D01*
X92075500Y-118871999D01*
X92075500Y-91646379D01*
X107864340Y-91646379D01*
X107884936Y-91881787D01*
X107929709Y-92048881D01*
X107946097Y-92110043D01*
X108045965Y-92324210D01*
X108181505Y-92517781D01*
X108181507Y-92517784D01*
X108181508Y-92517784D01*
X108274685Y-92610961D01*
X108308170Y-92672284D01*
X108303186Y-92741976D01*
X108261314Y-92797909D01*
X108230338Y-92814824D01*
X108127911Y-92853027D01*
X108012811Y-92939191D01*
X107926647Y-93054290D01*
X107876400Y-93189008D01*
X107870354Y-93245247D01*
X107870000Y-93251861D01*
X107870000Y-93896380D01*
X108836408Y-93896380D01*
X108789597Y-93977459D01*
X108758929Y-94111827D01*
X108769228Y-94249266D01*
X108819581Y-94377562D01*
X108834588Y-94396380D01*
X107870000Y-94396380D01*
X107870000Y-95040898D01*
X107870354Y-95047512D01*
X107876400Y-95103751D01*
X107926647Y-95238469D01*
X108012811Y-95353568D01*
X108127910Y-95439732D01*
X108262628Y-95489979D01*
X108318867Y-95496025D01*
X108325482Y-95496380D01*
X108969999Y-95496380D01*
X108969999Y-94529283D01*
X109019388Y-94562956D01*
X109151088Y-94603580D01*
X109254260Y-94603580D01*
X109356284Y-94588202D01*
X109470000Y-94533439D01*
X109470000Y-95496380D01*
X110114518Y-95496380D01*
X110121132Y-95496025D01*
X110177371Y-95489979D01*
X110312089Y-95439732D01*
X110427188Y-95353568D01*
X110513352Y-95238469D01*
X110563599Y-95103751D01*
X110569645Y-95047512D01*
X110570000Y-95040898D01*
X110570000Y-94396380D01*
X109603592Y-94396380D01*
X109650403Y-94315301D01*
X109681071Y-94180933D01*
X109670772Y-94043494D01*
X109620419Y-93915198D01*
X109605412Y-93896380D01*
X110570000Y-93896380D01*
X110570000Y-93251861D01*
X110569645Y-93245247D01*
X110563599Y-93189008D01*
X110513352Y-93054290D01*
X110427188Y-92939191D01*
X110312089Y-92853027D01*
X110209661Y-92814824D01*
X110153728Y-92772952D01*
X110129311Y-92707488D01*
X110144163Y-92639215D01*
X110165308Y-92610967D01*
X110258495Y-92517781D01*
X110394035Y-92324210D01*
X110493903Y-92110043D01*
X110555063Y-91881788D01*
X110575659Y-91646380D01*
X110555063Y-91410972D01*
X110493903Y-91182717D01*
X110394035Y-90968551D01*
X110258495Y-90774979D01*
X110091401Y-90607885D01*
X109897830Y-90472345D01*
X109683663Y-90372477D01*
X109622502Y-90356089D01*
X109455407Y-90311316D01*
X109220000Y-90290720D01*
X108984592Y-90311316D01*
X108756336Y-90372477D01*
X108542170Y-90472345D01*
X108348598Y-90607885D01*
X108181505Y-90774978D01*
X108045965Y-90968550D01*
X107946097Y-91182716D01*
X107884936Y-91410972D01*
X107864340Y-91646379D01*
X92075500Y-91646379D01*
X92075500Y-82124842D01*
X100623500Y-82124842D01*
X100623618Y-82126751D01*
X100623619Y-82126766D01*
X100629919Y-82228237D01*
X100680950Y-82471616D01*
X100771343Y-82703272D01*
X100898634Y-82916896D01*
X101059349Y-83106650D01*
X101249103Y-83267365D01*
X101462727Y-83394656D01*
X101694386Y-83485050D01*
X101937763Y-83536081D01*
X102041158Y-83542500D01*
X102043092Y-83542500D01*
X104204908Y-83542500D01*
X104206842Y-83542500D01*
X104310237Y-83536081D01*
X104553614Y-83485050D01*
X104785273Y-83394656D01*
X104998894Y-83267366D01*
X104998893Y-83267366D01*
X104998896Y-83267365D01*
X105188650Y-83106650D01*
X105349365Y-82916896D01*
X105437225Y-82769447D01*
X105476656Y-82703273D01*
X105534903Y-82554000D01*
X110155999Y-82554000D01*
X111122408Y-82554000D01*
X111075597Y-82635079D01*
X111044929Y-82769447D01*
X111055228Y-82906886D01*
X111105581Y-83035182D01*
X111120588Y-83054000D01*
X110156000Y-83054000D01*
X110156000Y-83698518D01*
X110156354Y-83705132D01*
X110162400Y-83761371D01*
X110212647Y-83896089D01*
X110298811Y-84011188D01*
X110413910Y-84097352D01*
X110548628Y-84147599D01*
X110604867Y-84153645D01*
X110611482Y-84154000D01*
X111256000Y-84154000D01*
X111256000Y-83186903D01*
X111305388Y-83220576D01*
X111437088Y-83261200D01*
X111540260Y-83261200D01*
X111642284Y-83245822D01*
X111756000Y-83191059D01*
X111756000Y-84154000D01*
X112400518Y-84154000D01*
X112407132Y-84153645D01*
X112463371Y-84147599D01*
X112598089Y-84097352D01*
X112713188Y-84011188D01*
X112799352Y-83896089D01*
X112849599Y-83761371D01*
X112855645Y-83705132D01*
X112856000Y-83698518D01*
X112856000Y-83054000D01*
X111889592Y-83054000D01*
X111936403Y-82972921D01*
X111967071Y-82838553D01*
X111956772Y-82701114D01*
X111906419Y-82572818D01*
X111891412Y-82554000D01*
X112856000Y-82554000D01*
X112856000Y-81909481D01*
X112855645Y-81902867D01*
X112849599Y-81846628D01*
X112799352Y-81711910D01*
X112713188Y-81596811D01*
X112598089Y-81510647D01*
X112463371Y-81460400D01*
X112407132Y-81454354D01*
X112400518Y-81454000D01*
X111756000Y-81454000D01*
X111756000Y-82421096D01*
X111706612Y-82387424D01*
X111574912Y-82346800D01*
X111471740Y-82346800D01*
X111369716Y-82362178D01*
X111256000Y-82416940D01*
X111256000Y-81454000D01*
X110611482Y-81454000D01*
X110604867Y-81454354D01*
X110548628Y-81460400D01*
X110413910Y-81510647D01*
X110298811Y-81596811D01*
X110212647Y-81711910D01*
X110162400Y-81846628D01*
X110156354Y-81902867D01*
X110156000Y-81909481D01*
X110155999Y-82554000D01*
X105534903Y-82554000D01*
X105567050Y-82471614D01*
X105618081Y-82228237D01*
X105624500Y-82124842D01*
X105624500Y-81959158D01*
X105618081Y-81855763D01*
X105567050Y-81612386D01*
X105505385Y-81454354D01*
X105476656Y-81380727D01*
X105349365Y-81167103D01*
X105188650Y-80977349D01*
X104998896Y-80816634D01*
X104785272Y-80689343D01*
X104553616Y-80598950D01*
X104310237Y-80547919D01*
X104208766Y-80541619D01*
X104208751Y-80541618D01*
X104206842Y-80541500D01*
X102041158Y-80541500D01*
X102039249Y-80541618D01*
X102039233Y-80541619D01*
X101937762Y-80547919D01*
X101694383Y-80598950D01*
X101462727Y-80689343D01*
X101249103Y-80816634D01*
X101059349Y-80977349D01*
X100898634Y-81167103D01*
X100771343Y-81380727D01*
X100680950Y-81612383D01*
X100629919Y-81855762D01*
X100623619Y-81957233D01*
X100623618Y-81957249D01*
X100623500Y-81959158D01*
X100623500Y-82124842D01*
X92075500Y-82124842D01*
X92075500Y-78674842D01*
X98623500Y-78674842D01*
X98623618Y-78676751D01*
X98623619Y-78676766D01*
X98629919Y-78778237D01*
X98680950Y-79021616D01*
X98771343Y-79253272D01*
X98898634Y-79466896D01*
X99059349Y-79656650D01*
X99249103Y-79817365D01*
X99462727Y-79944656D01*
X99694386Y-80035050D01*
X99937763Y-80086081D01*
X100041158Y-80092500D01*
X100043092Y-80092500D01*
X100204908Y-80092500D01*
X100206842Y-80092500D01*
X100310237Y-80086081D01*
X100553614Y-80035050D01*
X100785273Y-79944656D01*
X100998894Y-79817366D01*
X100998893Y-79817366D01*
X100998896Y-79817365D01*
X101188650Y-79656650D01*
X101349365Y-79466896D01*
X101380353Y-79414890D01*
X101476656Y-79253273D01*
X101567050Y-79021614D01*
X101618081Y-78778237D01*
X101624500Y-78674842D01*
X101624500Y-76009158D01*
X101618081Y-75905763D01*
X101567050Y-75662386D01*
X101476656Y-75430727D01*
X101349365Y-75217103D01*
X101188650Y-75027349D01*
X100998896Y-74866634D01*
X100785272Y-74739343D01*
X100553616Y-74648950D01*
X100310237Y-74597919D01*
X100208766Y-74591619D01*
X100208751Y-74591618D01*
X100206842Y-74591500D01*
X100041158Y-74591500D01*
X100039249Y-74591618D01*
X100039233Y-74591619D01*
X99937762Y-74597919D01*
X99694383Y-74648950D01*
X99462727Y-74739343D01*
X99249103Y-74866634D01*
X99059349Y-75027349D01*
X98898634Y-75217103D01*
X98771343Y-75430727D01*
X98680950Y-75662383D01*
X98629919Y-75905762D01*
X98623619Y-76007233D01*
X98623618Y-76007249D01*
X98623500Y-76009158D01*
X98623500Y-78674842D01*
X92075500Y-78674842D01*
X92075500Y-68204578D01*
X104059500Y-68204578D01*
X104059501Y-68207872D01*
X104059853Y-68211152D01*
X104059854Y-68211159D01*
X104065401Y-68262758D01*
X104065909Y-68267483D01*
X104116204Y-68402331D01*
X104202454Y-68517546D01*
X104317669Y-68603796D01*
X104452517Y-68654091D01*
X104512127Y-68660500D01*
X106307872Y-68660499D01*
X106367483Y-68654091D01*
X106502331Y-68603796D01*
X106617546Y-68517546D01*
X106703796Y-68402331D01*
X106703796Y-68402328D01*
X106714480Y-68388058D01*
X106716079Y-68389255D01*
X106743187Y-68353041D01*
X106808651Y-68328622D01*
X106876924Y-68343472D01*
X106926331Y-68392876D01*
X106941500Y-68452306D01*
X106941500Y-69429738D01*
X106941498Y-69429762D01*
X106941499Y-69530317D01*
X106941234Y-69538426D01*
X106928404Y-69734215D01*
X106926287Y-69750297D01*
X106888804Y-69938747D01*
X106884607Y-69954408D01*
X106822847Y-70136349D01*
X106816643Y-70151327D01*
X106731660Y-70323657D01*
X106723550Y-70337704D01*
X106616808Y-70497456D01*
X106606934Y-70510325D01*
X106477788Y-70657587D01*
X106472241Y-70663509D01*
X106333496Y-70802253D01*
X106333473Y-70802277D01*
X106331587Y-70804164D01*
X106329868Y-70806211D01*
X106329863Y-70806218D01*
X106072804Y-71112569D01*
X106072796Y-71112578D01*
X106071077Y-71114628D01*
X106069540Y-71116821D01*
X106069530Y-71116836D01*
X105840164Y-71444407D01*
X105840156Y-71444418D01*
X105838618Y-71446616D01*
X105837284Y-71448925D01*
X105837269Y-71448950D01*
X105637334Y-71795251D01*
X105637327Y-71795264D01*
X105635978Y-71797601D01*
X105634834Y-71800052D01*
X105634832Y-71800058D01*
X105465839Y-72162465D01*
X105465834Y-72162476D01*
X105464699Y-72164911D01*
X105463783Y-72167427D01*
X105463775Y-72167447D01*
X105327013Y-72543203D01*
X105327008Y-72543218D01*
X105326086Y-72545752D01*
X105325387Y-72548359D01*
X105325384Y-72548370D01*
X105221890Y-72934620D01*
X105221886Y-72934635D01*
X105221193Y-72937224D01*
X105220726Y-72939869D01*
X105220724Y-72939881D01*
X105151289Y-73333680D01*
X105151287Y-73333693D01*
X105150819Y-73336349D01*
X105150584Y-73339025D01*
X105150582Y-73339047D01*
X105115734Y-73737388D01*
X105115498Y-73740089D01*
X105115498Y-73742796D01*
X105115498Y-73742797D01*
X105115500Y-73893176D01*
X105115499Y-74475883D01*
X105095814Y-74542923D01*
X105043010Y-74588677D01*
X105030933Y-74591991D01*
X105031110Y-74592466D01*
X104881669Y-74648204D01*
X104766454Y-74734454D01*
X104680204Y-74849668D01*
X104629910Y-74984515D01*
X104629909Y-74984517D01*
X104623500Y-75044127D01*
X104623500Y-75047448D01*
X104623500Y-75047449D01*
X104623500Y-79636560D01*
X104623500Y-79636578D01*
X104623501Y-79639872D01*
X104623853Y-79643152D01*
X104623854Y-79643159D01*
X104629909Y-79699483D01*
X104680204Y-79834331D01*
X104766454Y-79949546D01*
X104881669Y-80035796D01*
X105016517Y-80086091D01*
X105076127Y-80092500D01*
X107171872Y-80092499D01*
X107231483Y-80086091D01*
X107366331Y-80035796D01*
X107481546Y-79949546D01*
X107567796Y-79834331D01*
X107618091Y-79699483D01*
X107624500Y-79639873D01*
X107624499Y-75044128D01*
X107618091Y-74984517D01*
X107567796Y-74849669D01*
X107481546Y-74734454D01*
X107366331Y-74648204D01*
X107231483Y-74597909D01*
X107216890Y-74592466D01*
X107218249Y-74588820D01*
X107178678Y-74572422D01*
X107138839Y-74515023D01*
X107132500Y-74475883D01*
X107132500Y-74036173D01*
X107132501Y-74036168D01*
X107132500Y-73946194D01*
X107132695Y-73939243D01*
X107143878Y-73740089D01*
X107148609Y-73655836D01*
X107150163Y-73642042D01*
X107197126Y-73365634D01*
X107200219Y-73352082D01*
X107203975Y-73339047D01*
X107277832Y-73082674D01*
X107282424Y-73069554D01*
X107336136Y-72939881D01*
X107389709Y-72810542D01*
X107395740Y-72798018D01*
X107531358Y-72552634D01*
X107538753Y-72540866D01*
X107700999Y-72312201D01*
X107709640Y-72301364D01*
X107898542Y-72089982D01*
X107903279Y-72084972D01*
X108026536Y-71961717D01*
X108251561Y-71687521D01*
X108448627Y-71392590D01*
X108615836Y-71079762D01*
X108751576Y-70752051D01*
X108854540Y-70412613D01*
X108923738Y-70064717D01*
X108958502Y-69711714D01*
X108958500Y-69534358D01*
X108958500Y-69528134D01*
X108958500Y-68262758D01*
X108978185Y-68195719D01*
X108982457Y-68190417D01*
X108982272Y-68190288D01*
X108988495Y-68181401D01*
X109118426Y-67995839D01*
X109173002Y-67952216D01*
X109242500Y-67945022D01*
X109304855Y-67976545D01*
X109321571Y-67995837D01*
X109451505Y-68181401D01*
X109457728Y-68190288D01*
X109454659Y-68192436D01*
X109478666Y-68236400D01*
X109481499Y-68262758D01*
X109481500Y-69286337D01*
X109481501Y-69286356D01*
X109481503Y-69286421D01*
X109481503Y-69355664D01*
X109481503Y-69359720D01*
X109482031Y-69363735D01*
X109482032Y-69363741D01*
X109505108Y-69539031D01*
X109513595Y-69603499D01*
X109577232Y-69841004D01*
X109578781Y-69844746D01*
X109578784Y-69844752D01*
X109668639Y-70061683D01*
X109671326Y-70068171D01*
X109794267Y-70281112D01*
X109943950Y-70476184D01*
X109946822Y-70479056D01*
X109958567Y-70490801D01*
X109958571Y-70490806D01*
X110028023Y-70560258D01*
X110033555Y-70566164D01*
X110116500Y-70660745D01*
X110162924Y-70713682D01*
X110172797Y-70726549D01*
X110279541Y-70886303D01*
X110287651Y-70900351D01*
X110372625Y-71072663D01*
X110378833Y-71087648D01*
X110440594Y-71269595D01*
X110444792Y-71285263D01*
X110482274Y-71473704D01*
X110484391Y-71489785D01*
X110494257Y-71640335D01*
X110497073Y-71683294D01*
X110481814Y-71751477D01*
X110472989Y-71763196D01*
X110473727Y-71763713D01*
X110331965Y-71966170D01*
X110232097Y-72180336D01*
X110170936Y-72408592D01*
X110150340Y-72643999D01*
X110170936Y-72879407D01*
X110187140Y-72939881D01*
X110232097Y-73107663D01*
X110331965Y-73321830D01*
X110467505Y-73515401D01*
X110634599Y-73682495D01*
X110828170Y-73818035D01*
X111042337Y-73917903D01*
X111270591Y-73979063D01*
X111270592Y-73979063D01*
X111505999Y-73999659D01*
X111505999Y-73999658D01*
X111506000Y-73999659D01*
X111741408Y-73979063D01*
X111969663Y-73917903D01*
X112183830Y-73818035D01*
X112377401Y-73682495D01*
X112544495Y-73515401D01*
X112680035Y-73321830D01*
X112779903Y-73107663D01*
X112841063Y-72879408D01*
X112861659Y-72644000D01*
X112841063Y-72408592D01*
X112779903Y-72180337D01*
X112680035Y-71966171D01*
X112544495Y-71772599D01*
X112544494Y-71772598D01*
X112538272Y-71763712D01*
X112541340Y-71761563D01*
X112517334Y-71717600D01*
X112514500Y-71691242D01*
X112514500Y-71640335D01*
X112514500Y-71640083D01*
X112514491Y-71639999D01*
X112514487Y-71639826D01*
X112514489Y-71512287D01*
X112479725Y-71159285D01*
X112410528Y-70811390D01*
X112307563Y-70471954D01*
X112171824Y-70144244D01*
X112004616Y-69831417D01*
X111807551Y-69536486D01*
X111582526Y-69262292D01*
X111534819Y-69214585D01*
X111501334Y-69153262D01*
X111498500Y-69126904D01*
X111498500Y-68262758D01*
X111518185Y-68195719D01*
X111522457Y-68190418D01*
X111522272Y-68190289D01*
X111566294Y-68127417D01*
X111664035Y-67987830D01*
X111763903Y-67773663D01*
X111825063Y-67545408D01*
X111845659Y-67310000D01*
X111825063Y-67074592D01*
X111763903Y-66846337D01*
X111664035Y-66632171D01*
X111528495Y-66438599D01*
X111361401Y-66271505D01*
X111167830Y-66135965D01*
X110953663Y-66036097D01*
X110892502Y-66019709D01*
X110725407Y-65974936D01*
X110489999Y-65954340D01*
X110254592Y-65974936D01*
X110026336Y-66036097D01*
X109812170Y-66135965D01*
X109618598Y-66271505D01*
X109451505Y-66438598D01*
X109321575Y-66624159D01*
X109266998Y-66667784D01*
X109197500Y-66674978D01*
X109135145Y-66643455D01*
X109118425Y-66624159D01*
X109031838Y-66500500D01*
X108988495Y-66438599D01*
X108821401Y-66271505D01*
X108627830Y-66135965D01*
X108413663Y-66036097D01*
X108352501Y-66019709D01*
X108185407Y-65974936D01*
X107949999Y-65954340D01*
X107714592Y-65974936D01*
X107486336Y-66036097D01*
X107272170Y-66135965D01*
X107078601Y-66271503D01*
X106956673Y-66393431D01*
X106895350Y-66426915D01*
X106825658Y-66421931D01*
X106769725Y-66380059D01*
X106752810Y-66349082D01*
X106745658Y-66329907D01*
X106703796Y-66217669D01*
X106617546Y-66102454D01*
X106502331Y-66016204D01*
X106367483Y-65965909D01*
X106307873Y-65959500D01*
X106304550Y-65959500D01*
X104515439Y-65959500D01*
X104515420Y-65959500D01*
X104512128Y-65959501D01*
X104508848Y-65959853D01*
X104508840Y-65959854D01*
X104452515Y-65965909D01*
X104317669Y-66016204D01*
X104202454Y-66102454D01*
X104116204Y-66217668D01*
X104100499Y-66259777D01*
X104065909Y-66352517D01*
X104059500Y-66412127D01*
X104059500Y-66415448D01*
X104059500Y-66415449D01*
X104059500Y-68204560D01*
X104059500Y-68204578D01*
X92075500Y-68204578D01*
X92075500Y-63500000D01*
X92879415Y-63500000D01*
X92899738Y-63848927D01*
X92900364Y-63852481D01*
X92900366Y-63852492D01*
X92959803Y-64189578D01*
X92959805Y-64189588D01*
X92960431Y-64193136D01*
X93060674Y-64527971D01*
X93062099Y-64531274D01*
X93197682Y-64845593D01*
X93197687Y-64845603D01*
X93199111Y-64848904D01*
X93200913Y-64852026D01*
X93200915Y-64852029D01*
X93372061Y-65148464D01*
X93372067Y-65148473D01*
X93373870Y-65151596D01*
X93376029Y-65154496D01*
X93580435Y-65429062D01*
X93580441Y-65429069D01*
X93582588Y-65431953D01*
X93822442Y-65686183D01*
X94090189Y-65910849D01*
X94187628Y-65974936D01*
X94280618Y-66036097D01*
X94382207Y-66102913D01*
X94694549Y-66259777D01*
X95022989Y-66379319D01*
X95082533Y-66393431D01*
X95359579Y-66459092D01*
X95359581Y-66459092D01*
X95363086Y-66459923D01*
X95710241Y-66500500D01*
X95713839Y-66500500D01*
X96056161Y-66500500D01*
X96059759Y-66500500D01*
X96406914Y-66459923D01*
X96747011Y-66379319D01*
X97075451Y-66259777D01*
X97387793Y-66102913D01*
X97679811Y-65910849D01*
X97947558Y-65686183D01*
X98187412Y-65431953D01*
X98396130Y-65151596D01*
X98570889Y-64848904D01*
X98709326Y-64527971D01*
X98809569Y-64193136D01*
X98870262Y-63848927D01*
X98890585Y-63500000D01*
X98870262Y-63151073D01*
X98809569Y-62806864D01*
X98709326Y-62472029D01*
X98570889Y-62151096D01*
X98396130Y-61848404D01*
X98317164Y-61742335D01*
X98189564Y-61570937D01*
X98189559Y-61570931D01*
X98187412Y-61568047D01*
X97947558Y-61313817D01*
X97944800Y-61311503D01*
X97944795Y-61311498D01*
X97682570Y-61091466D01*
X97682569Y-61091465D01*
X97679811Y-61089151D01*
X97676793Y-61087166D01*
X97390812Y-60899072D01*
X97390804Y-60899067D01*
X97387793Y-60897087D01*
X97260994Y-60833406D01*
X97078688Y-60741848D01*
X97078678Y-60741843D01*
X97075451Y-60740223D01*
X96971686Y-60702456D01*
X96750400Y-60621914D01*
X96750392Y-60621911D01*
X96747011Y-60620681D01*
X96743512Y-60619851D01*
X96743503Y-60619849D01*
X96410420Y-60540907D01*
X96410404Y-60540904D01*
X96406914Y-60540077D01*
X96403349Y-60539660D01*
X96403336Y-60539658D01*
X96063329Y-60499917D01*
X96063324Y-60499916D01*
X96059759Y-60499500D01*
X95710241Y-60499500D01*
X95706676Y-60499916D01*
X95706670Y-60499917D01*
X95366663Y-60539658D01*
X95366647Y-60539660D01*
X95363086Y-60540077D01*
X95359598Y-60540903D01*
X95359579Y-60540907D01*
X95026496Y-60619849D01*
X95026482Y-60619852D01*
X95022989Y-60620681D01*
X95019612Y-60621910D01*
X95019599Y-60621914D01*
X94697950Y-60738985D01*
X94694549Y-60740223D01*
X94691327Y-60741840D01*
X94691311Y-60741848D01*
X94385436Y-60895465D01*
X94385431Y-60895467D01*
X94382207Y-60897087D01*
X94379203Y-60899062D01*
X94379187Y-60899072D01*
X94093206Y-61087166D01*
X94093198Y-61087171D01*
X94090189Y-61089151D01*
X94087438Y-61091458D01*
X94087429Y-61091466D01*
X93825204Y-61311498D01*
X93825190Y-61311510D01*
X93822442Y-61313817D01*
X93819967Y-61316439D01*
X93819962Y-61316445D01*
X93585062Y-61565424D01*
X93585056Y-61565430D01*
X93582588Y-61568047D01*
X93580448Y-61570921D01*
X93580435Y-61570937D01*
X93376029Y-61845503D01*
X93376023Y-61845511D01*
X93373870Y-61848404D01*
X93372071Y-61851518D01*
X93372061Y-61851535D01*
X93200915Y-62147970D01*
X93200909Y-62147980D01*
X93199111Y-62151096D01*
X93197690Y-62154389D01*
X93197682Y-62154406D01*
X93062099Y-62468725D01*
X93060674Y-62472029D01*
X93059645Y-62475464D01*
X93059642Y-62475474D01*
X92961465Y-62803408D01*
X92961462Y-62803418D01*
X92960431Y-62806864D01*
X92959806Y-62810407D01*
X92959803Y-62810421D01*
X92900366Y-63147507D01*
X92900364Y-63147520D01*
X92899738Y-63151073D01*
X92899528Y-63154678D01*
X92899527Y-63154687D01*
X92879625Y-63496394D01*
X92879415Y-63500000D01*
X92075500Y-63500000D01*
X92075500Y-62233478D01*
X92075695Y-62226527D01*
X92081995Y-62114333D01*
X92092200Y-61945642D01*
X92093719Y-61932415D01*
X92116281Y-61799623D01*
X92143015Y-61653747D01*
X92145806Y-61641875D01*
X92184040Y-61509161D01*
X92184757Y-61506772D01*
X92227427Y-61369839D01*
X92231231Y-61359330D01*
X92284714Y-61230214D01*
X92286109Y-61226984D01*
X92344307Y-61097673D01*
X92348821Y-61088650D01*
X92416820Y-60965615D01*
X92419172Y-60961549D01*
X92492051Y-60840991D01*
X92497027Y-60833406D01*
X92578605Y-60718431D01*
X92582048Y-60713815D01*
X92668697Y-60603215D01*
X92673797Y-60597122D01*
X92767892Y-60491829D01*
X92772603Y-60486847D01*
X92871847Y-60387603D01*
X92876829Y-60382892D01*
X92982122Y-60288797D01*
X92988215Y-60283697D01*
X93098815Y-60197048D01*
X93103431Y-60193605D01*
X93218410Y-60112024D01*
X93225991Y-60107051D01*
X93346549Y-60034172D01*
X93350615Y-60031820D01*
X93473650Y-59963821D01*
X93482673Y-59959307D01*
X93611984Y-59901109D01*
X93615214Y-59899714D01*
X93744330Y-59846231D01*
X93754839Y-59842427D01*
X93891772Y-59799757D01*
X93894161Y-59799040D01*
X94026855Y-59760812D01*
X94038784Y-59758008D01*
X94184598Y-59731286D01*
X94317404Y-59708721D01*
X94330650Y-59707199D01*
X94499333Y-59696995D01*
X94611527Y-59690695D01*
X94618479Y-59690500D01*
X114182196Y-59690500D01*
X114249235Y-59710185D01*
G37*
%TD.AperFunction*%
%TD*%
M02*
