%TF.GenerationSoftware,KiCad,Pcbnew,7.0.2*%
%TF.CreationDate,2023-05-18T12:22:54-04:00*%
%TF.ProjectId,breadboard_psu,62726561-6462-46f6-9172-645f7073752e,A*%
%TF.SameCoordinates,Original*%
%TF.FileFunction,Copper,L1,Top*%
%TF.FilePolarity,Positive*%
%FSLAX46Y46*%
G04 Gerber Fmt 4.6, Leading zero omitted, Abs format (unit mm)*
G04 Created by KiCad (PCBNEW 7.0.2) date 2023-05-18 12:22:54*
%MOMM*%
%LPD*%
G01*
G04 APERTURE LIST*
G04 Aperture macros list*
%AMRoundRect*
0 Rectangle with rounded corners*
0 $1 Rounding radius*
0 $2 $3 $4 $5 $6 $7 $8 $9 X,Y pos of 4 corners*
0 Add a 4 corners polygon primitive as box body*
4,1,4,$2,$3,$4,$5,$6,$7,$8,$9,$2,$3,0*
0 Add four circle primitives for the rounded corners*
1,1,$1+$1,$2,$3*
1,1,$1+$1,$4,$5*
1,1,$1+$1,$6,$7*
1,1,$1+$1,$8,$9*
0 Add four rect primitives between the rounded corners*
20,1,$1+$1,$2,$3,$4,$5,0*
20,1,$1+$1,$4,$5,$6,$7,0*
20,1,$1+$1,$6,$7,$8,$9,0*
20,1,$1+$1,$8,$9,$2,$3,0*%
G04 Aperture macros list end*
%TA.AperFunction,ComponentPad*%
%ADD10C,2.900000*%
%TD*%
%TA.AperFunction,ConnectorPad*%
%ADD11C,5.000000*%
%TD*%
%TA.AperFunction,ComponentPad*%
%ADD12R,2.000000X4.500000*%
%TD*%
%TA.AperFunction,ComponentPad*%
%ADD13RoundRect,1.000000X0.000000X-1.250000X0.000000X-1.250000X0.000000X1.250000X0.000000X1.250000X0*%
%TD*%
%TA.AperFunction,ComponentPad*%
%ADD14RoundRect,1.000000X-1.000000X0.000000X1.000000X0.000000X1.000000X0.000000X-1.000000X0.000000X0*%
%TD*%
%TA.AperFunction,ComponentPad*%
%ADD15C,1.905000*%
%TD*%
%TA.AperFunction,ComponentPad*%
%ADD16O,2.000000X1.905000*%
%TD*%
%TA.AperFunction,HeatsinkPad*%
%ADD17C,5.500000*%
%TD*%
%TA.AperFunction,ComponentPad*%
%ADD18C,1.600000*%
%TD*%
%TA.AperFunction,ComponentPad*%
%ADD19O,1.600000X1.600000*%
%TD*%
%TA.AperFunction,ComponentPad*%
%ADD20R,1.700000X1.700000*%
%TD*%
%TA.AperFunction,ComponentPad*%
%ADD21O,1.700000X1.700000*%
%TD*%
%TA.AperFunction,ComponentPad*%
%ADD22R,2.200000X2.200000*%
%TD*%
%TA.AperFunction,ComponentPad*%
%ADD23O,2.200000X2.200000*%
%TD*%
%TA.AperFunction,ComponentPad*%
%ADD24R,1.600000X1.600000*%
%TD*%
%TA.AperFunction,ComponentPad*%
%ADD25R,1.800000X1.800000*%
%TD*%
%TA.AperFunction,ComponentPad*%
%ADD26C,1.800000*%
%TD*%
%TA.AperFunction,Conductor*%
%ADD27C,1.016000*%
%TD*%
G04 APERTURE END LIST*
D10*
%TO.P,H4,1,1*%
%TO.N,GND*%
X133248400Y-127000000D03*
D11*
X133248400Y-127000000D03*
%TD*%
D12*
%TO.P,J1,1*%
%TO.N,Net-(SW1A-B)*%
X106124000Y-77342000D03*
D13*
%TO.P,J1,2*%
%TO.N,GND*%
X100124000Y-77342000D03*
D14*
%TO.P,J1,3,MountPin*%
X103124000Y-82042000D03*
%TD*%
D15*
%TO.P,U1,1,ADJ*%
%TO.N,Net-(U1-ADJ)*%
X114722000Y-89154000D03*
D16*
%TO.P,U1,2,VO*%
%TO.N,VCC*%
X114722000Y-91694000D03*
%TO.P,U1,3,VI*%
%TO.N,+7.5V*%
X114722000Y-94234000D03*
D17*
%TO.P,U1,4,TAB*%
%TO.N,VCC*%
X131486000Y-91694000D03*
%TD*%
D10*
%TO.P,H1,1,1*%
%TO.N,GND*%
X95910400Y-63500000D03*
D11*
X95910400Y-63500000D03*
%TD*%
D18*
%TO.P,R1,1*%
%TO.N,VCC*%
X118008400Y-105918000D03*
D19*
%TO.P,R1,2*%
%TO.N,Net-(D2-A)*%
X125628400Y-105918000D03*
%TD*%
D18*
%TO.P,R4,1*%
%TO.N,Net-(SW2A-B)*%
X118110000Y-73406000D03*
D19*
%TO.P,R4,2*%
%TO.N,GND*%
X118110000Y-81026000D03*
%TD*%
D10*
%TO.P,H3,1,1*%
%TO.N,GND*%
X133248400Y-63500000D03*
D11*
X133248400Y-63500000D03*
%TD*%
D20*
%TO.P,SW2,1,A*%
%TO.N,unconnected-(SW2A-A-Pad1)*%
X125730000Y-67310000D03*
D21*
%TO.P,SW2,2,B*%
%TO.N,Net-(SW2A-B)*%
X123190000Y-67310000D03*
%TO.P,SW2,3,C*%
%TO.N,GND*%
X120650000Y-67310000D03*
%TD*%
D22*
%TO.P,D1,1,K*%
%TO.N,+7.5V*%
X111506000Y-81026000D03*
D23*
%TO.P,D1,2,A*%
%TO.N,Net-(D1-A)*%
X111506000Y-73406000D03*
%TD*%
D24*
%TO.P,C1,1*%
%TO.N,VCC*%
X115956400Y-99822000D03*
D18*
%TO.P,C1,2*%
%TO.N,GND*%
X110956400Y-99822000D03*
%TD*%
%TO.P,R3,1*%
%TO.N,Net-(U1-ADJ)*%
X123190000Y-81026000D03*
D19*
%TO.P,R3,2*%
%TO.N,Net-(SW2A-B)*%
X123190000Y-73406000D03*
%TD*%
D18*
%TO.P,R2,1*%
%TO.N,VCC*%
X128270000Y-73406000D03*
D19*
%TO.P,R2,2*%
%TO.N,Net-(U1-ADJ)*%
X128270000Y-81026000D03*
%TD*%
D10*
%TO.P,H2,1,1*%
%TO.N,GND*%
X95910400Y-127000000D03*
D11*
X95910400Y-127000000D03*
%TD*%
D18*
%TO.P,C2,1*%
%TO.N,VCC*%
X120120400Y-99822000D03*
%TO.P,C2,2*%
%TO.N,GND*%
X125120400Y-99822000D03*
%TD*%
D20*
%TO.P,J5,1,Pin_1*%
%TO.N,+7.5V*%
X111683400Y-116352000D03*
D21*
%TO.P,J5,2,Pin_2*%
%TO.N,GND*%
X111683400Y-118892000D03*
%TD*%
D25*
%TO.P,D2,1,K*%
%TO.N,GND*%
X132553400Y-105918000D03*
D26*
%TO.P,D2,2,A*%
%TO.N,Net-(D2-A)*%
X130013400Y-105918000D03*
%TD*%
D20*
%TO.P,SW1,1,A*%
%TO.N,unconnected-(SW1A-A-Pad1)*%
X105410000Y-67310000D03*
D21*
%TO.P,SW1,2,B*%
%TO.N,Net-(SW1A-B)*%
X107950000Y-67310000D03*
%TO.P,SW1,3,C*%
%TO.N,Net-(D1-A)*%
X110490000Y-67310000D03*
%TD*%
D20*
%TO.P,J4,1,Pin_1*%
%TO.N,VCC*%
X125730000Y-116332000D03*
D21*
%TO.P,J4,2,Pin_2*%
%TO.N,GND*%
X125730000Y-118872000D03*
%TO.P,J4,3,Pin_3*%
%TO.N,VCC*%
X123190000Y-116332000D03*
%TO.P,J4,4,Pin_4*%
%TO.N,GND*%
X123190000Y-118872000D03*
%TO.P,J4,5,Pin_5*%
%TO.N,VCC*%
X120650000Y-116332000D03*
%TO.P,J4,6,Pin_6*%
%TO.N,GND*%
X120650000Y-118872000D03*
%TO.P,J4,7,Pin_7*%
%TO.N,VCC*%
X118110000Y-116332000D03*
%TO.P,J4,8,Pin_8*%
%TO.N,GND*%
X118110000Y-118872000D03*
%TD*%
D24*
%TO.P,C3,1*%
%TO.N,+7.5V*%
X109220000Y-90082380D03*
D18*
%TO.P,C3,2*%
%TO.N,GND*%
X109220000Y-87582380D03*
%TD*%
D20*
%TO.P,J3,1,Pin_1*%
%TO.N,VCC*%
X147980400Y-116332000D03*
D21*
%TO.P,J3,2,Pin_2*%
X145440400Y-116332000D03*
%TO.P,J3,3,Pin_3*%
%TO.N,GND*%
X147980400Y-118872000D03*
%TO.P,J3,4,Pin_4*%
X145440400Y-118872000D03*
%TD*%
D20*
%TO.P,J2,1,Pin_1*%
%TO.N,VCC*%
X147980400Y-71628000D03*
D21*
%TO.P,J2,2,Pin_2*%
X145440400Y-71628000D03*
%TO.P,J2,3,Pin_3*%
%TO.N,GND*%
X147980400Y-74168000D03*
%TO.P,J2,4,Pin_4*%
X145440400Y-74168000D03*
%TD*%
D27*
%TO.N,+7.5V*%
X114722010Y-94233990D02*
G75*
G03*
X114510467Y-94146380I-211510J-211510D01*
G01*
%TO.N,Net-(D1-A)*%
X110490000Y-67310000D02*
X110490000Y-69236790D01*
X111506000Y-73406000D02*
X111506000Y-71575704D01*
X110896400Y-70104000D02*
X110815842Y-70023442D01*
X111505998Y-71575704D02*
G75*
G03*
X110896400Y-70104000I-2081298J4D01*
G01*
X110490005Y-69236790D02*
G75*
G03*
X110744001Y-69849999I867195J-10D01*
G01*
X110744005Y-69850000D02*
G75*
G03*
X110815842Y-70023442I245295J0D01*
G01*
%TO.N,Net-(D2-A)*%
X125628400Y-105918000D02*
X130013400Y-105918000D01*
%TO.N,Net-(U1-ADJ)*%
X117282630Y-85471000D02*
X121301375Y-85471000D01*
X128270000Y-81026000D02*
X123190000Y-81026000D01*
X123190000Y-83977506D02*
X123190000Y-81026000D01*
X114722000Y-89154000D02*
X114722000Y-87973647D01*
X117282630Y-85471013D02*
G75*
G03*
X115443000Y-86233000I-30J-2601587D01*
G01*
X115442986Y-86232986D02*
G75*
G03*
X114722000Y-87973647I1740614J-1740614D01*
G01*
X121301375Y-85470989D02*
G75*
G03*
X122834400Y-84836000I25J2167989D01*
G01*
X122834398Y-84835998D02*
G75*
G03*
X123190000Y-83977506I-858498J858498D01*
G01*
%TO.N,Net-(SW2A-B)*%
X118110000Y-73406000D02*
X123190000Y-73406000D01*
X123190000Y-67310000D02*
X123190000Y-73406000D01*
%TO.N,Net-(SW1A-B)*%
X106124000Y-77342000D02*
X106124000Y-73942723D01*
X107950000Y-69534370D02*
X107950000Y-67310000D01*
X107187993Y-71373993D02*
G75*
G03*
X106124000Y-73942723I2568707J-2568707D01*
G01*
X107188009Y-71374009D02*
G75*
G03*
X107950000Y-69534370I-1839609J1839609D01*
G01*
%TD*%
%TA.AperFunction,Conductor*%
%TO.N,VCC*%
G36*
X120190507Y-116122156D02*
G01*
X120150000Y-116260111D01*
X120150000Y-116403889D01*
X120190507Y-116541844D01*
X120216314Y-116582000D01*
X118543686Y-116582000D01*
X118569493Y-116541844D01*
X118610000Y-116403889D01*
X118610000Y-116260111D01*
X118569493Y-116122156D01*
X118543686Y-116082000D01*
X120216314Y-116082000D01*
X120190507Y-116122156D01*
G37*
%TD.AperFunction*%
%TA.AperFunction,Conductor*%
G36*
X122730507Y-116122156D02*
G01*
X122690000Y-116260111D01*
X122690000Y-116403889D01*
X122730507Y-116541844D01*
X122756314Y-116582000D01*
X121083686Y-116582000D01*
X121109493Y-116541844D01*
X121150000Y-116403889D01*
X121150000Y-116260111D01*
X121109493Y-116122156D01*
X121083686Y-116082000D01*
X122756314Y-116082000D01*
X122730507Y-116122156D01*
G37*
%TD.AperFunction*%
%TA.AperFunction,Conductor*%
G36*
X125270507Y-116122156D02*
G01*
X125230000Y-116260111D01*
X125230000Y-116403889D01*
X125270507Y-116541844D01*
X125296314Y-116582000D01*
X123623686Y-116582000D01*
X123649493Y-116541844D01*
X123690000Y-116403889D01*
X123690000Y-116260111D01*
X123649493Y-116122156D01*
X123623686Y-116082000D01*
X125296314Y-116082000D01*
X125270507Y-116122156D01*
G37*
%TD.AperFunction*%
%TA.AperFunction,Conductor*%
G36*
X147520907Y-116122156D02*
G01*
X147480400Y-116260111D01*
X147480400Y-116403889D01*
X147520907Y-116541844D01*
X147546714Y-116582000D01*
X145874086Y-116582000D01*
X145899893Y-116541844D01*
X145940400Y-116403889D01*
X145940400Y-116260111D01*
X145899893Y-116122156D01*
X145874086Y-116082000D01*
X147546714Y-116082000D01*
X147520907Y-116122156D01*
G37*
%TD.AperFunction*%
%TA.AperFunction,Conductor*%
G36*
X147520907Y-71418156D02*
G01*
X147480400Y-71556111D01*
X147480400Y-71699889D01*
X147520907Y-71837844D01*
X147546714Y-71878000D01*
X145874086Y-71878000D01*
X145899893Y-71837844D01*
X145940400Y-71699889D01*
X145940400Y-71556111D01*
X145899893Y-71418156D01*
X145874086Y-71378000D01*
X147546714Y-71378000D01*
X147520907Y-71418156D01*
G37*
%TD.AperFunction*%
%TA.AperFunction,Conductor*%
G36*
X135793253Y-59690881D02*
G01*
X135845401Y-59694986D01*
X135985983Y-59707286D01*
X136004105Y-59710238D01*
X136082876Y-59729149D01*
X136085877Y-59729910D01*
X136191193Y-59758130D01*
X136206550Y-59763343D01*
X136234851Y-59775065D01*
X136286896Y-59796622D01*
X136291776Y-59798770D01*
X136385188Y-59842329D01*
X136397535Y-59848963D01*
X136473563Y-59895553D01*
X136479877Y-59899694D01*
X136562566Y-59957594D01*
X136571951Y-59964860D01*
X136625599Y-60010679D01*
X136640375Y-60023299D01*
X136647524Y-60029908D01*
X136718490Y-60100874D01*
X136725099Y-60108023D01*
X136783535Y-60176442D01*
X136790814Y-60185844D01*
X136848699Y-60268513D01*
X136852851Y-60274845D01*
X136899428Y-60350852D01*
X136906080Y-60363231D01*
X136949608Y-60456577D01*
X136951788Y-60461531D01*
X136985055Y-60541848D01*
X136990268Y-60557205D01*
X137018467Y-60662442D01*
X137019266Y-60665589D01*
X137038160Y-60744290D01*
X137041114Y-60762429D01*
X137053420Y-60903082D01*
X137057519Y-60955166D01*
X137057900Y-60964871D01*
X137057900Y-67761247D01*
X137054459Y-67772965D01*
X137057428Y-67806898D01*
X137057900Y-67817706D01*
X137057900Y-67917994D01*
X137071593Y-68004452D01*
X137070606Y-68012085D01*
X137074295Y-68025852D01*
X137076993Y-68038546D01*
X137089182Y-68115508D01*
X137121979Y-68216443D01*
X137122223Y-68224990D01*
X137127370Y-68236028D01*
X137132916Y-68250108D01*
X137140282Y-68272775D01*
X137142128Y-68279005D01*
X137151042Y-68312273D01*
X137162933Y-68329160D01*
X137205942Y-68413569D01*
X137207775Y-68423334D01*
X137214339Y-68432707D01*
X137223244Y-68447526D01*
X137241771Y-68483887D01*
X137241773Y-68483890D01*
X137246202Y-68492582D01*
X137246190Y-68492587D01*
X137250105Y-68499234D01*
X137251282Y-68501759D01*
X137264739Y-68515500D01*
X137314437Y-68583903D01*
X137321000Y-68592936D01*
X137324816Y-68603632D01*
X137332375Y-68611191D01*
X137345012Y-68625987D01*
X137359316Y-68645675D01*
X137365465Y-68651824D01*
X137379359Y-68668382D01*
X137381889Y-68671996D01*
X137396080Y-68682439D01*
X137463959Y-68750318D01*
X137470039Y-68761454D01*
X137478016Y-68767039D01*
X137494574Y-68780933D01*
X137500723Y-68787082D01*
X137520412Y-68801387D01*
X137535208Y-68814024D01*
X137539374Y-68818190D01*
X137553462Y-68825399D01*
X137630891Y-68881654D01*
X137639379Y-68892661D01*
X137647160Y-68896290D01*
X137653813Y-68900209D01*
X137653819Y-68900199D01*
X137698868Y-68923153D01*
X137713694Y-68932061D01*
X137719601Y-68936197D01*
X137732823Y-68940454D01*
X137817238Y-68983466D01*
X137828125Y-68993748D01*
X137867373Y-69004265D01*
X137873598Y-69006109D01*
X137896290Y-69013482D01*
X137910377Y-69019031D01*
X137918086Y-69022625D01*
X137929954Y-69024420D01*
X138030886Y-69057215D01*
X138030887Y-69057215D01*
X138030890Y-69057216D01*
X138107880Y-69069410D01*
X138120560Y-69072106D01*
X138131093Y-69074928D01*
X138141948Y-69074806D01*
X138228407Y-69088500D01*
X138228409Y-69088500D01*
X138328301Y-69088500D01*
X138328704Y-69088500D01*
X138339512Y-69088972D01*
X138368110Y-69091474D01*
X138385151Y-69088500D01*
X149245526Y-69088500D01*
X149255253Y-69088881D01*
X149307401Y-69092986D01*
X149447983Y-69105286D01*
X149466105Y-69108238D01*
X149544876Y-69127149D01*
X149547877Y-69127910D01*
X149653193Y-69156130D01*
X149668550Y-69161343D01*
X149696851Y-69173065D01*
X149748896Y-69194622D01*
X149753776Y-69196770D01*
X149847188Y-69240329D01*
X149859535Y-69246963D01*
X149935563Y-69293553D01*
X149941877Y-69297694D01*
X150024566Y-69355594D01*
X150033951Y-69362860D01*
X150102375Y-69421299D01*
X150109524Y-69427908D01*
X150180490Y-69498874D01*
X150187099Y-69506023D01*
X150245535Y-69574442D01*
X150252814Y-69583844D01*
X150310699Y-69666513D01*
X150314851Y-69672845D01*
X150323456Y-69686887D01*
X150361428Y-69748852D01*
X150368080Y-69761231D01*
X150411608Y-69854577D01*
X150413788Y-69859531D01*
X150447055Y-69939848D01*
X150452268Y-69955205D01*
X150480467Y-70060442D01*
X150481266Y-70063589D01*
X150500160Y-70142290D01*
X150503114Y-70160429D01*
X150515420Y-70301082D01*
X150519519Y-70353166D01*
X150519900Y-70362871D01*
X150519900Y-75433123D01*
X150519518Y-75442853D01*
X150515420Y-75494916D01*
X150503114Y-75635571D01*
X150500160Y-75653705D01*
X150481266Y-75732408D01*
X150480467Y-75735556D01*
X150452268Y-75840793D01*
X150447055Y-75856150D01*
X150413788Y-75936467D01*
X150411608Y-75941421D01*
X150368080Y-76034767D01*
X150361425Y-76047153D01*
X150314851Y-76123153D01*
X150310699Y-76129485D01*
X150252814Y-76212154D01*
X150245529Y-76221563D01*
X150187099Y-76289975D01*
X150180490Y-76297124D01*
X150109524Y-76368090D01*
X150102375Y-76374699D01*
X150033963Y-76433129D01*
X150024554Y-76440414D01*
X149941885Y-76498299D01*
X149935553Y-76502451D01*
X149859553Y-76549025D01*
X149847167Y-76555680D01*
X149753821Y-76599208D01*
X149748867Y-76601388D01*
X149668550Y-76634655D01*
X149653193Y-76639868D01*
X149547956Y-76668067D01*
X149544809Y-76668866D01*
X149466108Y-76687760D01*
X149447969Y-76690714D01*
X149307317Y-76703020D01*
X149284106Y-76704847D01*
X149255233Y-76707119D01*
X149245529Y-76707500D01*
X138385152Y-76707500D01*
X138373433Y-76704059D01*
X138339501Y-76707028D01*
X138328693Y-76707500D01*
X138328400Y-76707500D01*
X138228409Y-76707500D01*
X138182605Y-76714754D01*
X138141946Y-76721194D01*
X138134311Y-76720207D01*
X138120543Y-76723896D01*
X138107852Y-76726593D01*
X138030890Y-76738783D01*
X137929955Y-76771579D01*
X137921409Y-76771823D01*
X137910367Y-76776972D01*
X137896285Y-76782518D01*
X137873622Y-76789882D01*
X137867397Y-76791727D01*
X137834129Y-76800641D01*
X137817239Y-76812532D01*
X137732830Y-76855542D01*
X137723064Y-76857376D01*
X137713686Y-76863943D01*
X137698860Y-76872851D01*
X137653819Y-76895801D01*
X137653813Y-76895790D01*
X137647166Y-76899705D01*
X137644640Y-76900882D01*
X137630893Y-76914343D01*
X137553462Y-76970600D01*
X137542765Y-76974416D01*
X137535200Y-76981982D01*
X137520407Y-76994616D01*
X137500725Y-77008916D01*
X137494576Y-77015065D01*
X137478023Y-77028954D01*
X137474407Y-77031485D01*
X137463960Y-77045680D01*
X137396080Y-77113560D01*
X137384943Y-77119641D01*
X137379354Y-77127623D01*
X137365465Y-77144176D01*
X137359316Y-77150325D01*
X137345016Y-77170007D01*
X137332382Y-77184800D01*
X137328212Y-77188969D01*
X137321000Y-77203062D01*
X137264743Y-77280493D01*
X137253735Y-77288981D01*
X137250105Y-77296766D01*
X137246190Y-77303413D01*
X137246201Y-77303419D01*
X137223251Y-77348460D01*
X137214343Y-77363286D01*
X137210203Y-77369197D01*
X137205942Y-77382430D01*
X137162932Y-77466839D01*
X137152650Y-77477725D01*
X137142127Y-77516997D01*
X137140282Y-77523222D01*
X137132918Y-77545885D01*
X137127372Y-77559967D01*
X137123775Y-77567680D01*
X137121979Y-77579555D01*
X137089183Y-77680490D01*
X137076993Y-77757452D01*
X137074296Y-77770143D01*
X137071470Y-77780687D01*
X137071594Y-77791546D01*
X137057900Y-77878011D01*
X137057900Y-77978287D01*
X137057428Y-77989095D01*
X137054924Y-78017708D01*
X137057900Y-78034756D01*
X137057900Y-112465247D01*
X137054459Y-112476965D01*
X137057428Y-112510898D01*
X137057900Y-112521706D01*
X137057900Y-112621994D01*
X137071593Y-112708452D01*
X137070606Y-112716085D01*
X137074295Y-112729852D01*
X137076993Y-112742546D01*
X137089182Y-112819508D01*
X137121979Y-112920443D01*
X137122223Y-112928990D01*
X137127370Y-112940028D01*
X137132916Y-112954108D01*
X137140282Y-112976775D01*
X137142128Y-112983005D01*
X137151042Y-113016273D01*
X137162933Y-113033160D01*
X137205942Y-113117569D01*
X137207775Y-113127334D01*
X137214339Y-113136707D01*
X137223244Y-113151526D01*
X137241771Y-113187887D01*
X137241773Y-113187890D01*
X137246202Y-113196582D01*
X137246190Y-113196587D01*
X137250105Y-113203234D01*
X137251282Y-113205759D01*
X137264739Y-113219500D01*
X137300117Y-113268193D01*
X137321000Y-113296936D01*
X137324816Y-113307632D01*
X137332375Y-113315191D01*
X137345012Y-113329987D01*
X137359316Y-113349675D01*
X137365465Y-113355824D01*
X137379359Y-113372382D01*
X137381889Y-113375996D01*
X137396080Y-113386439D01*
X137463959Y-113454318D01*
X137470039Y-113465454D01*
X137478016Y-113471039D01*
X137494574Y-113484933D01*
X137500723Y-113491082D01*
X137520412Y-113505387D01*
X137535208Y-113518024D01*
X137539374Y-113522190D01*
X137553462Y-113529399D01*
X137630891Y-113585654D01*
X137639379Y-113596661D01*
X137647160Y-113600290D01*
X137653813Y-113604209D01*
X137653819Y-113604199D01*
X137698868Y-113627153D01*
X137713694Y-113636061D01*
X137719601Y-113640197D01*
X137732823Y-113644454D01*
X137817238Y-113687466D01*
X137828125Y-113697748D01*
X137867373Y-113708265D01*
X137873598Y-113710109D01*
X137896290Y-113717482D01*
X137910377Y-113723031D01*
X137918086Y-113726625D01*
X137929954Y-113728420D01*
X138030886Y-113761215D01*
X138030887Y-113761215D01*
X138030890Y-113761216D01*
X138107880Y-113773410D01*
X138120560Y-113776106D01*
X138131093Y-113778928D01*
X138141948Y-113778806D01*
X138228407Y-113792500D01*
X138228409Y-113792500D01*
X138328301Y-113792500D01*
X138328704Y-113792500D01*
X138339512Y-113792972D01*
X138368110Y-113795474D01*
X138385151Y-113792500D01*
X149245526Y-113792500D01*
X149255253Y-113792881D01*
X149307401Y-113796986D01*
X149447983Y-113809286D01*
X149466105Y-113812238D01*
X149544876Y-113831149D01*
X149547877Y-113831910D01*
X149653193Y-113860130D01*
X149668550Y-113865343D01*
X149696851Y-113877065D01*
X149748896Y-113898622D01*
X149753776Y-113900770D01*
X149847188Y-113944329D01*
X149859535Y-113950963D01*
X149935563Y-113997553D01*
X149941877Y-114001694D01*
X150024566Y-114059594D01*
X150033951Y-114066860D01*
X150102375Y-114125299D01*
X150109524Y-114131908D01*
X150180490Y-114202874D01*
X150187099Y-114210023D01*
X150245535Y-114278442D01*
X150252814Y-114287844D01*
X150310699Y-114370513D01*
X150314851Y-114376845D01*
X150361428Y-114452852D01*
X150368080Y-114465231D01*
X150411608Y-114558577D01*
X150413788Y-114563531D01*
X150447055Y-114643848D01*
X150452268Y-114659205D01*
X150480467Y-114764442D01*
X150481266Y-114767589D01*
X150500160Y-114846290D01*
X150503114Y-114864429D01*
X150515420Y-115005082D01*
X150519519Y-115057166D01*
X150519900Y-115066871D01*
X150519900Y-120137123D01*
X150519518Y-120146853D01*
X150515420Y-120198916D01*
X150503114Y-120339571D01*
X150500160Y-120357705D01*
X150481266Y-120436408D01*
X150480467Y-120439556D01*
X150452268Y-120544793D01*
X150447055Y-120560150D01*
X150413788Y-120640467D01*
X150411608Y-120645421D01*
X150368080Y-120738767D01*
X150361425Y-120751153D01*
X150314851Y-120827153D01*
X150310699Y-120833485D01*
X150252814Y-120916154D01*
X150245529Y-120925563D01*
X150187099Y-120993975D01*
X150180490Y-121001124D01*
X150109524Y-121072090D01*
X150102375Y-121078699D01*
X150033963Y-121137129D01*
X150024554Y-121144414D01*
X149941885Y-121202299D01*
X149935553Y-121206451D01*
X149859553Y-121253025D01*
X149847167Y-121259680D01*
X149753821Y-121303208D01*
X149748867Y-121305388D01*
X149668550Y-121338655D01*
X149653193Y-121343868D01*
X149547956Y-121372067D01*
X149544809Y-121372866D01*
X149466108Y-121391760D01*
X149447969Y-121394714D01*
X149307317Y-121407020D01*
X149284106Y-121408847D01*
X149255233Y-121411119D01*
X149245529Y-121411500D01*
X138385152Y-121411500D01*
X138373433Y-121408059D01*
X138339501Y-121411028D01*
X138328693Y-121411500D01*
X138328400Y-121411500D01*
X138228409Y-121411500D01*
X138182605Y-121418754D01*
X138141946Y-121425194D01*
X138134311Y-121424207D01*
X138120543Y-121427896D01*
X138107852Y-121430593D01*
X138030890Y-121442783D01*
X137929955Y-121475579D01*
X137921409Y-121475823D01*
X137910367Y-121480972D01*
X137896285Y-121486518D01*
X137873622Y-121493882D01*
X137867397Y-121495727D01*
X137834129Y-121504641D01*
X137817239Y-121516532D01*
X137732830Y-121559542D01*
X137723064Y-121561376D01*
X137713686Y-121567943D01*
X137698860Y-121576851D01*
X137653819Y-121599801D01*
X137653813Y-121599790D01*
X137647166Y-121603705D01*
X137644640Y-121604882D01*
X137630893Y-121618343D01*
X137553462Y-121674600D01*
X137542765Y-121678416D01*
X137535200Y-121685982D01*
X137520407Y-121698616D01*
X137500725Y-121712916D01*
X137494576Y-121719065D01*
X137478023Y-121732954D01*
X137474407Y-121735485D01*
X137463960Y-121749680D01*
X137396080Y-121817560D01*
X137384943Y-121823641D01*
X137379354Y-121831623D01*
X137365465Y-121848176D01*
X137359316Y-121854325D01*
X137345016Y-121874007D01*
X137332382Y-121888800D01*
X137328212Y-121892969D01*
X137321000Y-121907062D01*
X137264743Y-121984493D01*
X137253735Y-121992981D01*
X137250105Y-122000766D01*
X137246190Y-122007413D01*
X137246201Y-122007419D01*
X137223251Y-122052460D01*
X137214343Y-122067286D01*
X137210203Y-122073197D01*
X137205942Y-122086430D01*
X137162932Y-122170839D01*
X137152650Y-122181725D01*
X137142127Y-122220997D01*
X137140282Y-122227222D01*
X137132918Y-122249885D01*
X137127372Y-122263967D01*
X137123775Y-122271680D01*
X137121979Y-122283555D01*
X137089183Y-122384490D01*
X137076993Y-122461452D01*
X137074296Y-122474143D01*
X137071470Y-122484687D01*
X137071594Y-122495546D01*
X137057900Y-122582011D01*
X137057900Y-122682287D01*
X137057428Y-122693095D01*
X137054924Y-122721708D01*
X137057900Y-122738756D01*
X137057900Y-129535123D01*
X137057518Y-129544853D01*
X137053420Y-129596916D01*
X137041114Y-129737571D01*
X137038160Y-129755705D01*
X137019266Y-129834408D01*
X137018467Y-129837556D01*
X136990268Y-129942793D01*
X136985055Y-129958150D01*
X136951788Y-130038467D01*
X136949608Y-130043421D01*
X136906080Y-130136767D01*
X136899425Y-130149153D01*
X136852851Y-130225153D01*
X136848699Y-130231485D01*
X136790814Y-130314154D01*
X136783529Y-130323563D01*
X136725099Y-130391975D01*
X136718490Y-130399124D01*
X136647524Y-130470090D01*
X136640375Y-130476699D01*
X136571963Y-130535129D01*
X136562554Y-130542414D01*
X136479885Y-130600299D01*
X136473553Y-130604451D01*
X136397553Y-130651025D01*
X136385167Y-130657680D01*
X136291821Y-130701208D01*
X136286867Y-130703388D01*
X136206550Y-130736655D01*
X136191193Y-130741868D01*
X136085956Y-130770067D01*
X136082809Y-130770866D01*
X136004108Y-130789760D01*
X135985969Y-130792714D01*
X135845317Y-130805020D01*
X135822106Y-130806847D01*
X135793233Y-130809119D01*
X135783529Y-130809500D01*
X115081460Y-130809500D01*
X115014421Y-130789815D01*
X114968666Y-130737011D01*
X114957461Y-130685943D01*
X114944297Y-127000000D01*
X130242815Y-127000000D01*
X130263138Y-127348927D01*
X130263764Y-127352481D01*
X130263766Y-127352492D01*
X130323203Y-127689578D01*
X130323205Y-127689588D01*
X130323831Y-127693136D01*
X130424074Y-128027971D01*
X130425499Y-128031274D01*
X130561082Y-128345593D01*
X130561087Y-128345603D01*
X130562511Y-128348904D01*
X130564313Y-128352026D01*
X130564315Y-128352029D01*
X130735461Y-128648464D01*
X130735467Y-128648473D01*
X130737270Y-128651596D01*
X130739429Y-128654496D01*
X130943835Y-128929062D01*
X130943841Y-128929069D01*
X130945988Y-128931953D01*
X131185842Y-129186183D01*
X131188600Y-129188497D01*
X131188604Y-129188501D01*
X131404055Y-129369285D01*
X131453589Y-129410849D01*
X131456606Y-129412833D01*
X131649192Y-129539500D01*
X131745607Y-129602913D01*
X132057949Y-129759777D01*
X132386389Y-129879319D01*
X132556437Y-129919621D01*
X132722979Y-129959092D01*
X132722981Y-129959092D01*
X132726486Y-129959923D01*
X133073641Y-130000500D01*
X133077239Y-130000500D01*
X133419561Y-130000500D01*
X133423159Y-130000500D01*
X133770314Y-129959923D01*
X134110411Y-129879319D01*
X134438851Y-129759777D01*
X134751193Y-129602913D01*
X135043211Y-129410849D01*
X135310958Y-129186183D01*
X135550812Y-128931953D01*
X135759530Y-128651596D01*
X135934289Y-128348904D01*
X136072726Y-128027971D01*
X136172969Y-127693136D01*
X136233662Y-127348927D01*
X136253985Y-127000000D01*
X136233662Y-126651073D01*
X136172969Y-126306864D01*
X136072726Y-125972029D01*
X135934289Y-125651096D01*
X135759530Y-125348404D01*
X135680564Y-125242335D01*
X135552964Y-125070937D01*
X135552959Y-125070931D01*
X135550812Y-125068047D01*
X135310958Y-124813817D01*
X135308200Y-124811503D01*
X135308195Y-124811498D01*
X135045970Y-124591466D01*
X135045969Y-124591465D01*
X135043211Y-124589151D01*
X134966567Y-124538741D01*
X134754212Y-124399072D01*
X134754204Y-124399067D01*
X134751193Y-124397087D01*
X134687950Y-124365325D01*
X134442088Y-124241848D01*
X134442078Y-124241843D01*
X134438851Y-124240223D01*
X134335086Y-124202456D01*
X134113800Y-124121914D01*
X134113792Y-124121911D01*
X134110411Y-124120681D01*
X134106912Y-124119851D01*
X134106903Y-124119849D01*
X133773820Y-124040907D01*
X133773804Y-124040904D01*
X133770314Y-124040077D01*
X133766749Y-124039660D01*
X133766736Y-124039658D01*
X133426729Y-123999917D01*
X133426724Y-123999916D01*
X133423159Y-123999500D01*
X133073641Y-123999500D01*
X133070076Y-123999916D01*
X133070070Y-123999917D01*
X132730063Y-124039658D01*
X132730047Y-124039660D01*
X132726486Y-124040077D01*
X132722998Y-124040903D01*
X132722979Y-124040907D01*
X132389896Y-124119849D01*
X132389882Y-124119852D01*
X132386389Y-124120681D01*
X132383012Y-124121910D01*
X132382999Y-124121914D01*
X132061350Y-124238985D01*
X132057949Y-124240223D01*
X132054727Y-124241840D01*
X132054711Y-124241848D01*
X131748836Y-124395465D01*
X131748831Y-124395467D01*
X131745607Y-124397087D01*
X131742603Y-124399062D01*
X131742587Y-124399072D01*
X131456606Y-124587166D01*
X131456598Y-124587171D01*
X131453589Y-124589151D01*
X131450838Y-124591458D01*
X131450829Y-124591466D01*
X131188604Y-124811498D01*
X131188590Y-124811510D01*
X131185842Y-124813817D01*
X131183367Y-124816439D01*
X131183362Y-124816445D01*
X130948462Y-125065424D01*
X130948456Y-125065430D01*
X130945988Y-125068047D01*
X130943848Y-125070921D01*
X130943835Y-125070937D01*
X130739429Y-125345503D01*
X130739423Y-125345511D01*
X130737270Y-125348404D01*
X130735471Y-125351518D01*
X130735461Y-125351535D01*
X130564315Y-125647970D01*
X130564309Y-125647980D01*
X130562511Y-125651096D01*
X130561090Y-125654389D01*
X130561082Y-125654406D01*
X130425499Y-125968725D01*
X130424074Y-125972029D01*
X130423045Y-125975464D01*
X130423042Y-125975474D01*
X130324865Y-126303408D01*
X130324862Y-126303418D01*
X130323831Y-126306864D01*
X130323206Y-126310407D01*
X130323203Y-126310421D01*
X130263766Y-126647507D01*
X130263764Y-126647520D01*
X130263138Y-126651073D01*
X130262928Y-126654678D01*
X130262927Y-126654687D01*
X130259714Y-126709852D01*
X130242815Y-127000000D01*
X114944297Y-127000000D01*
X114918380Y-119743401D01*
X114915268Y-118872000D01*
X116754340Y-118872000D01*
X116774936Y-119107407D01*
X116794954Y-119182114D01*
X116836097Y-119335663D01*
X116935965Y-119549830D01*
X117071505Y-119743401D01*
X117238599Y-119910495D01*
X117432170Y-120046035D01*
X117646337Y-120145903D01*
X117874592Y-120207063D01*
X118110000Y-120227659D01*
X118345408Y-120207063D01*
X118573663Y-120145903D01*
X118787830Y-120046035D01*
X118981401Y-119910495D01*
X119148495Y-119743401D01*
X119278426Y-119557839D01*
X119333002Y-119514216D01*
X119402500Y-119507022D01*
X119464855Y-119538545D01*
X119481571Y-119557837D01*
X119611505Y-119743401D01*
X119778599Y-119910495D01*
X119972170Y-120046035D01*
X120186337Y-120145903D01*
X120414592Y-120207063D01*
X120650000Y-120227659D01*
X120885408Y-120207063D01*
X121113663Y-120145903D01*
X121327830Y-120046035D01*
X121521401Y-119910495D01*
X121688495Y-119743401D01*
X121818426Y-119557839D01*
X121873002Y-119514216D01*
X121942500Y-119507022D01*
X122004855Y-119538545D01*
X122021571Y-119557837D01*
X122151505Y-119743401D01*
X122318599Y-119910495D01*
X122512170Y-120046035D01*
X122726337Y-120145903D01*
X122924187Y-120198916D01*
X122954592Y-120207063D01*
X123189999Y-120227659D01*
X123189999Y-120227658D01*
X123190000Y-120227659D01*
X123425408Y-120207063D01*
X123653663Y-120145903D01*
X123867830Y-120046035D01*
X124061401Y-119910495D01*
X124228495Y-119743401D01*
X124358426Y-119557839D01*
X124413002Y-119514216D01*
X124482500Y-119507022D01*
X124544855Y-119538545D01*
X124561571Y-119557837D01*
X124691505Y-119743401D01*
X124858599Y-119910495D01*
X125052170Y-120046035D01*
X125266337Y-120145903D01*
X125464187Y-120198916D01*
X125494592Y-120207063D01*
X125729999Y-120227659D01*
X125729999Y-120227658D01*
X125730000Y-120227659D01*
X125965408Y-120207063D01*
X126193663Y-120145903D01*
X126407830Y-120046035D01*
X126601401Y-119910495D01*
X126768495Y-119743401D01*
X126904035Y-119549830D01*
X127003903Y-119335663D01*
X127065063Y-119107408D01*
X127085659Y-118872000D01*
X144084740Y-118872000D01*
X144105336Y-119107407D01*
X144125354Y-119182114D01*
X144166497Y-119335663D01*
X144266365Y-119549830D01*
X144401905Y-119743401D01*
X144568999Y-119910495D01*
X144762570Y-120046035D01*
X144976737Y-120145903D01*
X145174587Y-120198916D01*
X145204992Y-120207063D01*
X145440399Y-120227659D01*
X145440399Y-120227658D01*
X145440400Y-120227659D01*
X145675808Y-120207063D01*
X145904063Y-120145903D01*
X146118230Y-120046035D01*
X146311801Y-119910495D01*
X146478895Y-119743401D01*
X146608826Y-119557839D01*
X146663402Y-119514216D01*
X146732900Y-119507022D01*
X146795255Y-119538545D01*
X146811971Y-119557837D01*
X146941905Y-119743401D01*
X147108999Y-119910495D01*
X147302570Y-120046035D01*
X147516737Y-120145903D01*
X147714587Y-120198916D01*
X147744992Y-120207063D01*
X147980399Y-120227659D01*
X147980399Y-120227658D01*
X147980400Y-120227659D01*
X148215808Y-120207063D01*
X148444063Y-120145903D01*
X148658230Y-120046035D01*
X148851801Y-119910495D01*
X149018895Y-119743401D01*
X149154435Y-119549830D01*
X149254303Y-119335663D01*
X149315463Y-119107408D01*
X149336059Y-118872000D01*
X149315463Y-118636592D01*
X149254303Y-118408337D01*
X149154435Y-118194171D01*
X149018895Y-118000599D01*
X148896581Y-117878285D01*
X148863096Y-117816962D01*
X148868080Y-117747270D01*
X148909952Y-117691337D01*
X148940928Y-117674422D01*
X149072489Y-117625352D01*
X149187588Y-117539188D01*
X149273752Y-117424089D01*
X149323999Y-117289371D01*
X149330045Y-117233132D01*
X149330400Y-117226518D01*
X149330400Y-116582000D01*
X148414086Y-116582000D01*
X148439893Y-116541844D01*
X148480400Y-116403889D01*
X148480400Y-116260111D01*
X148439893Y-116122156D01*
X148414086Y-116082000D01*
X149330400Y-116082000D01*
X149330400Y-115437481D01*
X149330045Y-115430867D01*
X149323999Y-115374628D01*
X149273752Y-115239910D01*
X149187588Y-115124811D01*
X149072489Y-115038647D01*
X148937771Y-114988400D01*
X148881532Y-114982354D01*
X148874918Y-114982000D01*
X148230400Y-114982000D01*
X148230400Y-115896498D01*
X148122715Y-115847320D01*
X148016163Y-115832000D01*
X147944637Y-115832000D01*
X147838085Y-115847320D01*
X147730400Y-115896498D01*
X147730400Y-114982000D01*
X147085882Y-114982000D01*
X147079267Y-114982354D01*
X147023028Y-114988400D01*
X146888310Y-115038647D01*
X146773211Y-115124811D01*
X146687047Y-115239911D01*
X146637785Y-115371987D01*
X146595913Y-115427921D01*
X146530448Y-115452337D01*
X146462176Y-115437485D01*
X146433922Y-115416334D01*
X146311481Y-115293893D01*
X146117976Y-115158399D01*
X145903892Y-115058569D01*
X145690400Y-115001364D01*
X145690400Y-115896498D01*
X145582715Y-115847320D01*
X145476163Y-115832000D01*
X145404637Y-115832000D01*
X145298085Y-115847320D01*
X145190400Y-115896498D01*
X145190400Y-115001364D01*
X145190399Y-115001364D01*
X144976907Y-115058569D01*
X144762821Y-115158400D01*
X144569321Y-115293890D01*
X144402290Y-115460921D01*
X144266800Y-115654421D01*
X144166969Y-115868507D01*
X144109764Y-116081999D01*
X144109764Y-116082000D01*
X145006714Y-116082000D01*
X144980907Y-116122156D01*
X144940400Y-116260111D01*
X144940400Y-116403889D01*
X144980907Y-116541844D01*
X145006714Y-116582000D01*
X144109764Y-116582000D01*
X144166969Y-116795492D01*
X144266799Y-117009576D01*
X144402293Y-117203081D01*
X144569318Y-117370106D01*
X144754995Y-117500119D01*
X144798619Y-117554696D01*
X144805812Y-117624195D01*
X144774290Y-117686549D01*
X144754995Y-117703269D01*
X144568995Y-117833508D01*
X144401905Y-118000598D01*
X144266365Y-118194170D01*
X144166497Y-118408336D01*
X144105336Y-118636592D01*
X144084740Y-118872000D01*
X127085659Y-118872000D01*
X127065063Y-118636592D01*
X127003903Y-118408337D01*
X126904035Y-118194171D01*
X126768495Y-118000599D01*
X126646180Y-117878284D01*
X126612696Y-117816962D01*
X126617680Y-117747270D01*
X126659552Y-117691337D01*
X126690528Y-117674422D01*
X126822089Y-117625352D01*
X126937188Y-117539188D01*
X127023352Y-117424089D01*
X127073599Y-117289371D01*
X127079645Y-117233132D01*
X127080000Y-117226518D01*
X127080000Y-116582000D01*
X126163686Y-116582000D01*
X126189493Y-116541844D01*
X126230000Y-116403889D01*
X126230000Y-116260111D01*
X126189493Y-116122156D01*
X126163686Y-116082000D01*
X127080000Y-116082000D01*
X127080000Y-115437481D01*
X127079645Y-115430867D01*
X127073599Y-115374628D01*
X127023352Y-115239910D01*
X126937188Y-115124811D01*
X126822089Y-115038647D01*
X126687371Y-114988400D01*
X126631132Y-114982354D01*
X126624518Y-114982000D01*
X125980000Y-114982000D01*
X125980000Y-115896498D01*
X125872315Y-115847320D01*
X125765763Y-115832000D01*
X125694237Y-115832000D01*
X125587685Y-115847320D01*
X125480000Y-115896498D01*
X125480000Y-114982000D01*
X124835482Y-114982000D01*
X124828867Y-114982354D01*
X124772628Y-114988400D01*
X124637910Y-115038647D01*
X124522811Y-115124811D01*
X124436647Y-115239911D01*
X124387385Y-115371987D01*
X124345513Y-115427921D01*
X124280048Y-115452337D01*
X124211776Y-115437485D01*
X124183522Y-115416334D01*
X124061081Y-115293893D01*
X123867576Y-115158399D01*
X123653492Y-115058569D01*
X123439999Y-115001364D01*
X123439999Y-115896498D01*
X123332315Y-115847320D01*
X123225763Y-115832000D01*
X123154237Y-115832000D01*
X123047685Y-115847320D01*
X122939999Y-115896498D01*
X122939999Y-115001364D01*
X122726507Y-115058569D01*
X122512421Y-115158400D01*
X122318921Y-115293890D01*
X122151893Y-115460918D01*
X122021575Y-115647032D01*
X121966998Y-115690656D01*
X121897499Y-115697849D01*
X121835145Y-115666327D01*
X121818425Y-115647032D01*
X121688106Y-115460918D01*
X121521081Y-115293893D01*
X121327576Y-115158399D01*
X121113492Y-115058569D01*
X120899999Y-115001364D01*
X120899999Y-115896498D01*
X120792315Y-115847320D01*
X120685763Y-115832000D01*
X120614237Y-115832000D01*
X120507685Y-115847320D01*
X120399999Y-115896498D01*
X120400000Y-115001364D01*
X120399999Y-115001364D01*
X120186507Y-115058569D01*
X119972421Y-115158400D01*
X119778921Y-115293890D01*
X119611893Y-115460918D01*
X119481575Y-115647032D01*
X119426998Y-115690656D01*
X119357499Y-115697849D01*
X119295145Y-115666327D01*
X119278425Y-115647032D01*
X119148106Y-115460918D01*
X118981081Y-115293893D01*
X118787576Y-115158399D01*
X118573492Y-115058569D01*
X118359999Y-115001364D01*
X118359999Y-115896498D01*
X118252315Y-115847320D01*
X118145763Y-115832000D01*
X118074237Y-115832000D01*
X117967685Y-115847320D01*
X117859999Y-115896498D01*
X117859999Y-115001364D01*
X117859998Y-115001364D01*
X117646507Y-115058569D01*
X117432421Y-115158400D01*
X117238921Y-115293890D01*
X117071890Y-115460921D01*
X116936400Y-115654421D01*
X116836569Y-115868507D01*
X116779364Y-116081999D01*
X116779364Y-116082000D01*
X117676314Y-116082000D01*
X117650507Y-116122156D01*
X117610000Y-116260111D01*
X117610000Y-116403889D01*
X117650507Y-116541844D01*
X117676314Y-116582000D01*
X116779364Y-116582000D01*
X116836569Y-116795492D01*
X116936399Y-117009576D01*
X117071893Y-117203081D01*
X117238918Y-117370106D01*
X117424595Y-117500119D01*
X117468219Y-117554696D01*
X117475412Y-117624195D01*
X117443890Y-117686549D01*
X117424595Y-117703269D01*
X117238595Y-117833508D01*
X117071505Y-118000598D01*
X116935965Y-118194170D01*
X116836097Y-118408336D01*
X116774936Y-118636592D01*
X116754340Y-118872000D01*
X114915268Y-118872000D01*
X114869003Y-105918000D01*
X116703433Y-105918000D01*
X116723258Y-106144602D01*
X116782133Y-106364326D01*
X116878266Y-106570484D01*
X116929372Y-106643471D01*
X116929374Y-106643472D01*
X117610446Y-105962399D01*
X117623235Y-106043148D01*
X117680759Y-106156045D01*
X117770355Y-106245641D01*
X117883252Y-106303165D01*
X117963999Y-106315953D01*
X117282926Y-106997025D01*
X117282926Y-106997026D01*
X117355915Y-107048133D01*
X117562073Y-107144266D01*
X117781797Y-107203141D01*
X118008399Y-107222966D01*
X118235002Y-107203141D01*
X118454726Y-107144266D01*
X118660880Y-107048134D01*
X118733872Y-106997025D01*
X118052801Y-106315953D01*
X118133548Y-106303165D01*
X118246445Y-106245641D01*
X118336041Y-106156045D01*
X118393565Y-106043148D01*
X118406353Y-105962400D01*
X119087425Y-106643472D01*
X119138534Y-106570480D01*
X119234666Y-106364326D01*
X119293541Y-106144602D01*
X119313366Y-105918000D01*
X124322931Y-105918000D01*
X124342764Y-106144689D01*
X124401661Y-106364497D01*
X124497832Y-106570735D01*
X124628353Y-106757140D01*
X124789259Y-106918046D01*
X124975664Y-107048567D01*
X124975665Y-107048567D01*
X124975666Y-107048568D01*
X125181904Y-107144739D01*
X125401708Y-107203635D01*
X125552835Y-107216857D01*
X125628399Y-107223468D01*
X125628399Y-107223467D01*
X125628400Y-107223468D01*
X125855092Y-107203635D01*
X126074896Y-107144739D01*
X126281134Y-107048568D01*
X126423440Y-106948924D01*
X126489646Y-106926598D01*
X126494563Y-106926500D01*
X128986396Y-106926500D01*
X129053435Y-106946185D01*
X129062555Y-106952644D01*
X129244774Y-107094470D01*
X129448897Y-107204936D01*
X129501417Y-107222966D01*
X129668415Y-107280297D01*
X129668417Y-107280297D01*
X129668419Y-107280298D01*
X129897351Y-107318500D01*
X129897352Y-107318500D01*
X130129448Y-107318500D01*
X130129449Y-107318500D01*
X130358381Y-107280298D01*
X130577903Y-107204936D01*
X130782026Y-107094470D01*
X130965184Y-106951913D01*
X130973532Y-106942844D01*
X131033416Y-106906853D01*
X131103255Y-106908950D01*
X131160872Y-106948473D01*
X131180944Y-106983491D01*
X131209604Y-107060331D01*
X131295854Y-107175546D01*
X131411069Y-107261796D01*
X131545917Y-107312091D01*
X131605527Y-107318500D01*
X133501272Y-107318499D01*
X133560883Y-107312091D01*
X133695731Y-107261796D01*
X133810946Y-107175546D01*
X133897196Y-107060331D01*
X133947491Y-106925483D01*
X133953900Y-106865873D01*
X133953899Y-104970128D01*
X133947491Y-104910517D01*
X133897196Y-104775669D01*
X133810946Y-104660454D01*
X133695731Y-104574204D01*
X133560883Y-104523909D01*
X133501273Y-104517500D01*
X133497950Y-104517500D01*
X131608839Y-104517500D01*
X131608820Y-104517500D01*
X131605528Y-104517501D01*
X131602248Y-104517853D01*
X131602240Y-104517854D01*
X131545915Y-104523909D01*
X131411069Y-104574204D01*
X131295854Y-104660454D01*
X131209604Y-104775669D01*
X131180945Y-104852508D01*
X131139073Y-104908441D01*
X131073609Y-104932858D01*
X131005336Y-104918006D01*
X130973533Y-104893157D01*
X130967934Y-104887075D01*
X130965184Y-104884087D01*
X130782026Y-104741530D01*
X130577903Y-104631064D01*
X130577899Y-104631062D01*
X130577898Y-104631062D01*
X130358384Y-104555702D01*
X130167856Y-104523909D01*
X130129449Y-104517500D01*
X129897351Y-104517500D01*
X129858944Y-104523909D01*
X129668415Y-104555702D01*
X129448901Y-104631062D01*
X129244772Y-104741531D01*
X129062558Y-104883354D01*
X128997564Y-104908996D01*
X128986396Y-104909500D01*
X126494563Y-104909500D01*
X126427524Y-104889815D01*
X126423440Y-104887075D01*
X126354741Y-104838972D01*
X126281134Y-104787432D01*
X126182700Y-104741531D01*
X126074897Y-104691261D01*
X125855089Y-104632364D01*
X125628399Y-104612531D01*
X125401710Y-104632364D01*
X125181902Y-104691261D01*
X124975664Y-104787432D01*
X124789259Y-104917953D01*
X124628353Y-105078859D01*
X124497832Y-105265264D01*
X124401661Y-105471502D01*
X124342764Y-105691310D01*
X124322931Y-105918000D01*
X119313366Y-105918000D01*
X119313366Y-105917999D01*
X119293541Y-105691397D01*
X119234666Y-105471673D01*
X119138533Y-105265515D01*
X119087425Y-105192526D01*
X118406353Y-105873598D01*
X118393565Y-105792852D01*
X118336041Y-105679955D01*
X118246445Y-105590359D01*
X118133548Y-105532835D01*
X118052800Y-105520046D01*
X118733872Y-104838974D01*
X118733871Y-104838972D01*
X118660884Y-104787866D01*
X118454726Y-104691733D01*
X118235002Y-104632858D01*
X118008400Y-104613033D01*
X117781797Y-104632858D01*
X117562072Y-104691733D01*
X117355916Y-104787865D01*
X117282927Y-104838973D01*
X117282926Y-104838973D01*
X117964000Y-105520046D01*
X117883252Y-105532835D01*
X117770355Y-105590359D01*
X117680759Y-105679955D01*
X117623235Y-105792852D01*
X117610446Y-105873599D01*
X116929373Y-105192526D01*
X116929373Y-105192527D01*
X116878265Y-105265516D01*
X116782133Y-105471672D01*
X116723258Y-105691397D01*
X116703433Y-105918000D01*
X114869003Y-105918000D01*
X114852228Y-101221230D01*
X114871673Y-101154124D01*
X114924313Y-101108180D01*
X114993436Y-101097990D01*
X115019562Y-101104609D01*
X115049026Y-101115599D01*
X115105267Y-101121645D01*
X115111882Y-101122000D01*
X115706400Y-101122000D01*
X115706400Y-100137686D01*
X115718355Y-100149641D01*
X115831252Y-100207165D01*
X115924919Y-100222000D01*
X115987881Y-100222000D01*
X116081548Y-100207165D01*
X116194445Y-100149641D01*
X116206400Y-100137685D01*
X116206400Y-101122000D01*
X116800918Y-101122000D01*
X116807532Y-101121645D01*
X116863771Y-101115599D01*
X116998489Y-101065352D01*
X117113588Y-100979188D01*
X117199752Y-100864089D01*
X117249999Y-100729371D01*
X117256045Y-100673132D01*
X117256400Y-100666518D01*
X117256400Y-100072000D01*
X116272086Y-100072000D01*
X116284041Y-100060045D01*
X116341565Y-99947148D01*
X116361386Y-99822000D01*
X118815433Y-99822000D01*
X118835258Y-100048602D01*
X118894133Y-100268326D01*
X118990266Y-100474484D01*
X119041372Y-100547471D01*
X119041374Y-100547472D01*
X119722445Y-99866399D01*
X119735235Y-99947148D01*
X119792759Y-100060045D01*
X119882355Y-100149641D01*
X119995252Y-100207165D01*
X120075999Y-100219953D01*
X119394926Y-100901025D01*
X119394926Y-100901026D01*
X119467915Y-100952133D01*
X119674073Y-101048266D01*
X119893797Y-101107141D01*
X120120399Y-101126966D01*
X120347002Y-101107141D01*
X120566726Y-101048266D01*
X120772880Y-100952134D01*
X120845872Y-100901025D01*
X120164801Y-100219953D01*
X120245548Y-100207165D01*
X120358445Y-100149641D01*
X120448041Y-100060045D01*
X120505565Y-99947148D01*
X120518353Y-99866400D01*
X121199425Y-100547472D01*
X121250534Y-100474480D01*
X121346666Y-100268326D01*
X121405541Y-100048602D01*
X121425366Y-99822000D01*
X123814931Y-99822000D01*
X123834764Y-100048689D01*
X123893661Y-100268497D01*
X123989832Y-100474735D01*
X124120353Y-100661140D01*
X124281259Y-100822046D01*
X124467664Y-100952567D01*
X124467665Y-100952567D01*
X124467666Y-100952568D01*
X124673904Y-101048739D01*
X124893708Y-101107635D01*
X125120400Y-101127468D01*
X125347092Y-101107635D01*
X125566896Y-101048739D01*
X125773134Y-100952568D01*
X125959539Y-100822047D01*
X126120447Y-100661139D01*
X126250968Y-100474734D01*
X126347139Y-100268496D01*
X126406035Y-100048692D01*
X126425868Y-99822000D01*
X126406035Y-99595308D01*
X126347139Y-99375504D01*
X126250968Y-99169266D01*
X126224090Y-99130879D01*
X126120446Y-98982859D01*
X125959540Y-98821953D01*
X125773135Y-98691432D01*
X125566897Y-98595261D01*
X125347089Y-98536364D01*
X125120399Y-98516531D01*
X124893710Y-98536364D01*
X124673902Y-98595261D01*
X124467664Y-98691432D01*
X124281259Y-98821953D01*
X124120353Y-98982859D01*
X123989832Y-99169264D01*
X123893661Y-99375502D01*
X123834764Y-99595310D01*
X123814931Y-99822000D01*
X121425366Y-99822000D01*
X121425366Y-99821999D01*
X121405541Y-99595397D01*
X121346666Y-99375673D01*
X121250533Y-99169515D01*
X121199425Y-99096526D01*
X120518353Y-99777598D01*
X120505565Y-99696852D01*
X120448041Y-99583955D01*
X120358445Y-99494359D01*
X120245548Y-99436835D01*
X120164800Y-99424046D01*
X120845872Y-98742974D01*
X120845871Y-98742972D01*
X120772884Y-98691866D01*
X120566726Y-98595733D01*
X120347002Y-98536858D01*
X120120400Y-98517033D01*
X119893797Y-98536858D01*
X119674072Y-98595733D01*
X119467916Y-98691865D01*
X119394927Y-98742973D01*
X119394926Y-98742973D01*
X120076000Y-99424046D01*
X119995252Y-99436835D01*
X119882355Y-99494359D01*
X119792759Y-99583955D01*
X119735235Y-99696852D01*
X119722446Y-99777600D01*
X119041373Y-99096526D01*
X119041373Y-99096527D01*
X118990265Y-99169516D01*
X118894133Y-99375672D01*
X118835258Y-99595397D01*
X118815433Y-99822000D01*
X116361386Y-99822000D01*
X116341565Y-99696852D01*
X116284041Y-99583955D01*
X116272086Y-99572000D01*
X117256400Y-99572000D01*
X117256400Y-98977481D01*
X117256045Y-98970867D01*
X117249999Y-98914628D01*
X117199752Y-98779910D01*
X117113588Y-98664811D01*
X116998489Y-98578647D01*
X116863771Y-98528400D01*
X116807532Y-98522354D01*
X116800918Y-98522000D01*
X116206400Y-98522000D01*
X116206400Y-99506314D01*
X116194445Y-99494359D01*
X116081548Y-99436835D01*
X115987881Y-99422000D01*
X115924919Y-99422000D01*
X115831252Y-99436835D01*
X115718355Y-99494359D01*
X115706400Y-99506314D01*
X115706400Y-98522000D01*
X115111882Y-98522000D01*
X115105267Y-98522354D01*
X115049028Y-98528400D01*
X115009583Y-98543113D01*
X114939891Y-98548097D01*
X114878568Y-98514612D01*
X114845083Y-98453289D01*
X114842250Y-98427380D01*
X114832871Y-95801318D01*
X114852316Y-95734212D01*
X114904956Y-95688268D01*
X114946624Y-95677303D01*
X115009476Y-95672095D01*
X115242905Y-95612983D01*
X115463422Y-95516255D01*
X115665010Y-95384551D01*
X115842171Y-95221463D01*
X115990072Y-95031439D01*
X116104679Y-94819664D01*
X116182866Y-94591913D01*
X116222500Y-94354399D01*
X116222500Y-94113601D01*
X116182866Y-93876087D01*
X116104679Y-93648336D01*
X115990072Y-93436561D01*
X115842171Y-93246537D01*
X115665010Y-93083449D01*
X115665007Y-93083447D01*
X115665006Y-93083446D01*
X115577236Y-93026102D01*
X115531879Y-92972955D01*
X115528054Y-92949067D01*
X114815330Y-92236343D01*
X114871783Y-92228584D01*
X115010458Y-92168349D01*
X115127739Y-92072934D01*
X115214928Y-91949415D01*
X115265559Y-91806953D01*
X115266737Y-91789725D01*
X115980252Y-92503239D01*
X115980253Y-92503239D01*
X115989653Y-92491163D01*
X116104219Y-92279460D01*
X116182380Y-92051792D01*
X116222000Y-91814357D01*
X116222000Y-91697356D01*
X128231409Y-91697356D01*
X128250124Y-92042539D01*
X128250852Y-92049229D01*
X128306777Y-92390361D01*
X128308221Y-92396918D01*
X128400701Y-92730002D01*
X128402852Y-92736386D01*
X128530803Y-93057520D01*
X128533623Y-93063616D01*
X128584180Y-93158977D01*
X129135864Y-92607293D01*
X129197187Y-92573808D01*
X129266878Y-92578792D01*
X129322812Y-92620663D01*
X129335309Y-92641581D01*
X129336023Y-92643434D01*
X129338016Y-92647072D01*
X129338019Y-92647077D01*
X129383787Y-92730594D01*
X129386249Y-92735325D01*
X129428828Y-92821665D01*
X129431081Y-92825037D01*
X129431084Y-92825042D01*
X129452868Y-92857644D01*
X129458507Y-92866941D01*
X129480825Y-92907665D01*
X129483284Y-92911002D01*
X129483287Y-92911007D01*
X129537826Y-92985028D01*
X129541099Y-92989691D01*
X129559139Y-93016690D01*
X129592727Y-93066957D01*
X129595399Y-93070004D01*
X129595403Y-93070009D01*
X129623445Y-93101985D01*
X129630039Y-93110180D01*
X129659554Y-93150238D01*
X129662439Y-93153221D01*
X129724064Y-93216942D01*
X129728156Y-93221385D01*
X129766245Y-93264816D01*
X129787242Y-93288758D01*
X129790288Y-93291429D01*
X129790291Y-93291432D01*
X129824755Y-93321657D01*
X129832128Y-93328679D01*
X129863192Y-93360798D01*
X129869020Y-93366824D01*
X129878921Y-93374643D01*
X129939241Y-93422276D01*
X129944152Y-93426364D01*
X130009043Y-93483273D01*
X130053308Y-93512850D01*
X130061228Y-93518609D01*
X130105485Y-93553558D01*
X130109052Y-93555671D01*
X130109054Y-93555672D01*
X130179610Y-93597462D01*
X130185309Y-93601050D01*
X130247920Y-93642886D01*
X130254335Y-93647172D01*
X130257975Y-93648967D01*
X130305036Y-93672175D01*
X130313381Y-93676695D01*
X130364730Y-93707109D01*
X130368534Y-93708722D01*
X130368538Y-93708724D01*
X130441009Y-93739454D01*
X130447439Y-93742400D01*
X130518923Y-93777652D01*
X130569198Y-93794718D01*
X130626353Y-93834907D01*
X130652706Y-93899616D01*
X130639892Y-93968300D01*
X130617021Y-93999818D01*
X130020079Y-94596760D01*
X130278236Y-94716197D01*
X130284471Y-94718681D01*
X130612072Y-94829063D01*
X130618536Y-94830858D01*
X130956148Y-94905172D01*
X130962782Y-94906259D01*
X131306451Y-94943636D01*
X131313148Y-94944000D01*
X131658852Y-94944000D01*
X131665548Y-94943636D01*
X132009217Y-94906259D01*
X132015851Y-94905172D01*
X132353463Y-94830858D01*
X132359927Y-94829063D01*
X132687539Y-94718678D01*
X132693756Y-94716201D01*
X132951919Y-94596760D01*
X132951919Y-94596759D01*
X132292755Y-93937596D01*
X132259270Y-93876273D01*
X132264254Y-93806582D01*
X132306125Y-93750648D01*
X132324510Y-93739243D01*
X132387220Y-93707554D01*
X132506023Y-93648968D01*
X132506025Y-93648967D01*
X132509665Y-93647172D01*
X132513039Y-93644916D01*
X132516557Y-93642886D01*
X132516088Y-93643177D01*
X132525540Y-93637658D01*
X132531459Y-93634668D01*
X132644040Y-93557385D01*
X132754957Y-93483273D01*
X132760074Y-93478784D01*
X132771655Y-93469781D01*
X132779869Y-93464144D01*
X132878824Y-93374643D01*
X132976758Y-93288758D01*
X132983434Y-93281143D01*
X132993494Y-93270930D01*
X133003333Y-93262032D01*
X133087443Y-93162545D01*
X133171273Y-93066957D01*
X133178744Y-93055774D01*
X133187144Y-93044618D01*
X133197865Y-93031939D01*
X133265611Y-92925815D01*
X133266972Y-92923732D01*
X133335172Y-92821665D01*
X133342588Y-92806625D01*
X133349274Y-92794759D01*
X133359993Y-92777970D01*
X133411611Y-92666733D01*
X133412806Y-92664236D01*
X133465652Y-92557077D01*
X133472109Y-92538053D01*
X133477048Y-92525722D01*
X133477734Y-92524243D01*
X133486823Y-92504658D01*
X133487110Y-92503731D01*
X133529111Y-92448844D01*
X133594830Y-92425119D01*
X133662942Y-92440692D01*
X133690050Y-92461209D01*
X134387818Y-93158977D01*
X134438382Y-93063604D01*
X134441193Y-93057528D01*
X134569147Y-92736386D01*
X134571298Y-92730002D01*
X134663778Y-92396918D01*
X134665222Y-92390361D01*
X134721147Y-92049229D01*
X134721875Y-92042539D01*
X134740591Y-91697356D01*
X134740591Y-91690643D01*
X134721875Y-91345460D01*
X134721147Y-91338770D01*
X134665222Y-90997638D01*
X134663778Y-90991081D01*
X134571298Y-90657997D01*
X134569147Y-90651613D01*
X134441196Y-90330479D01*
X134438376Y-90324384D01*
X134387818Y-90229021D01*
X133687818Y-90929021D01*
X133626495Y-90962506D01*
X133556803Y-90957522D01*
X133500870Y-90915650D01*
X133482720Y-90881205D01*
X133465652Y-90830923D01*
X133447973Y-90795073D01*
X133443479Y-90784816D01*
X133427977Y-90744566D01*
X133380196Y-90657378D01*
X133377755Y-90652688D01*
X133335172Y-90566336D01*
X133332912Y-90562953D01*
X133332911Y-90562952D01*
X133311133Y-90530360D01*
X133305491Y-90521058D01*
X133288021Y-90489179D01*
X133283175Y-90480335D01*
X133226169Y-90402966D01*
X133222897Y-90398304D01*
X133207040Y-90374572D01*
X133171273Y-90321043D01*
X133140553Y-90286013D01*
X133133954Y-90277810D01*
X133106908Y-90241103D01*
X133106905Y-90241100D01*
X133104446Y-90237762D01*
X133084027Y-90216649D01*
X133039934Y-90171056D01*
X133035842Y-90166613D01*
X132988165Y-90112249D01*
X132976758Y-90099242D01*
X132973717Y-90096575D01*
X132973707Y-90096565D01*
X132939237Y-90066335D01*
X132931864Y-90059313D01*
X132897861Y-90024155D01*
X132894980Y-90021176D01*
X132891730Y-90018609D01*
X132891725Y-90018605D01*
X132824768Y-89965730D01*
X132819858Y-89961643D01*
X132758015Y-89907408D01*
X132758007Y-89907402D01*
X132754957Y-89904727D01*
X132751583Y-89902473D01*
X132751572Y-89902464D01*
X132710701Y-89875154D01*
X132702745Y-89869369D01*
X132661770Y-89837012D01*
X132661766Y-89837009D01*
X132658515Y-89834442D01*
X132654945Y-89832327D01*
X132654940Y-89832324D01*
X132584387Y-89790535D01*
X132578690Y-89786948D01*
X132513042Y-89743084D01*
X132513037Y-89743081D01*
X132509665Y-89740828D01*
X132506030Y-89739035D01*
X132506026Y-89739033D01*
X132458949Y-89715816D01*
X132450615Y-89711302D01*
X132399270Y-89680891D01*
X132331933Y-89652337D01*
X132277898Y-89608043D01*
X132256388Y-89541566D01*
X132274233Y-89474014D01*
X132292661Y-89450496D01*
X132951919Y-88791238D01*
X132951919Y-88791237D01*
X132693771Y-88671805D01*
X132687528Y-88669318D01*
X132359927Y-88558936D01*
X132353463Y-88557141D01*
X132015851Y-88482827D01*
X132009217Y-88481740D01*
X131665548Y-88444363D01*
X131658852Y-88444000D01*
X131313148Y-88444000D01*
X131306451Y-88444363D01*
X130962782Y-88481740D01*
X130956148Y-88482827D01*
X130618536Y-88557141D01*
X130612072Y-88558936D01*
X130284471Y-88669318D01*
X130278244Y-88671799D01*
X130020079Y-88791238D01*
X130617022Y-89388181D01*
X130650507Y-89449504D01*
X130645523Y-89519196D01*
X130603651Y-89575129D01*
X130569199Y-89593281D01*
X130522774Y-89609040D01*
X130522764Y-89609043D01*
X130518923Y-89610348D01*
X130515281Y-89612143D01*
X130511538Y-89613694D01*
X130518357Y-89610612D01*
X130508377Y-89614775D01*
X130509192Y-89614462D01*
X130505363Y-89616085D01*
X130501463Y-89617440D01*
X130497782Y-89619299D01*
X130497775Y-89619303D01*
X130376757Y-89680456D01*
X130257967Y-89739037D01*
X130257962Y-89739039D01*
X130254336Y-89740828D01*
X130250972Y-89743074D01*
X130247446Y-89745111D01*
X130247844Y-89744863D01*
X130238491Y-89750324D01*
X130236242Y-89751460D01*
X130236223Y-89751470D01*
X130232541Y-89753332D01*
X130229133Y-89755671D01*
X130229127Y-89755675D01*
X130119943Y-89830626D01*
X130012426Y-89902465D01*
X130012410Y-89902477D01*
X130009043Y-89904727D01*
X130005996Y-89907398D01*
X130005979Y-89907412D01*
X130003914Y-89909224D01*
X129992353Y-89918211D01*
X129987554Y-89921505D01*
X129987543Y-89921513D01*
X129984131Y-89923856D01*
X129981058Y-89926634D01*
X129981052Y-89926640D01*
X129885175Y-90013356D01*
X129790286Y-90096572D01*
X129790282Y-90096575D01*
X129787242Y-90099242D01*
X129784580Y-90102276D01*
X129784567Y-90102290D01*
X129780557Y-90106863D01*
X129770520Y-90117055D01*
X129763735Y-90123191D01*
X129763720Y-90123206D01*
X129760667Y-90125968D01*
X129757998Y-90129124D01*
X129757993Y-90129130D01*
X129676556Y-90225454D01*
X129595406Y-90317987D01*
X129595398Y-90317996D01*
X129592727Y-90321043D01*
X129590471Y-90324417D01*
X129590467Y-90324424D01*
X129585247Y-90332235D01*
X129576852Y-90343382D01*
X129568813Y-90352891D01*
X129568800Y-90352907D01*
X129566135Y-90356061D01*
X129563913Y-90359541D01*
X129563909Y-90359547D01*
X129498420Y-90462132D01*
X129497005Y-90464297D01*
X129431087Y-90562953D01*
X129431078Y-90562968D01*
X129428828Y-90566336D01*
X129427034Y-90569971D01*
X129427033Y-90569975D01*
X129421412Y-90581372D01*
X129414727Y-90593234D01*
X129406236Y-90606536D01*
X129406227Y-90606550D01*
X129404007Y-90610030D01*
X129402271Y-90613769D01*
X129402267Y-90613778D01*
X129352412Y-90721212D01*
X129351145Y-90723859D01*
X129337803Y-90750914D01*
X129290498Y-90802333D01*
X129222903Y-90820015D01*
X129156478Y-90798345D01*
X129138910Y-90783751D01*
X128584181Y-90229022D01*
X128584180Y-90229022D01*
X128533621Y-90324387D01*
X128530803Y-90330479D01*
X128402852Y-90651613D01*
X128400701Y-90657997D01*
X128308221Y-90991081D01*
X128306777Y-90997638D01*
X128250852Y-91338770D01*
X128250124Y-91345460D01*
X128231409Y-91690643D01*
X128231409Y-91697356D01*
X116222000Y-91697356D01*
X116222000Y-91573642D01*
X116182380Y-91336207D01*
X116104219Y-91108539D01*
X115989652Y-90896836D01*
X115980252Y-90884759D01*
X115264353Y-91600658D01*
X115245116Y-91508085D01*
X115175558Y-91373844D01*
X115072362Y-91263348D01*
X114943181Y-91184791D01*
X114817429Y-91149557D01*
X115518847Y-90448138D01*
X115531334Y-90380384D01*
X115565847Y-90338451D01*
X115566370Y-90338044D01*
X115709463Y-90226671D01*
X115872551Y-90049510D01*
X116004255Y-89847922D01*
X116100983Y-89627405D01*
X116160095Y-89393976D01*
X116179980Y-89154000D01*
X116160095Y-88914024D01*
X116100983Y-88680595D01*
X116004255Y-88460078D01*
X115872551Y-88258490D01*
X115763270Y-88139779D01*
X115732349Y-88077125D01*
X115730501Y-88055807D01*
X115730500Y-87977689D01*
X115730765Y-87969583D01*
X115742397Y-87792057D01*
X115744513Y-87775984D01*
X115778425Y-87605486D01*
X115782616Y-87589844D01*
X115838496Y-87425221D01*
X115844692Y-87410260D01*
X115921585Y-87254333D01*
X115929681Y-87240311D01*
X116026266Y-87095759D01*
X116036126Y-87082909D01*
X116150656Y-86952312D01*
X116162091Y-86940877D01*
X116306692Y-86814066D01*
X116319540Y-86804208D01*
X116479316Y-86697450D01*
X116493345Y-86689351D01*
X116665668Y-86604371D01*
X116680643Y-86598167D01*
X116862600Y-86536403D01*
X116878258Y-86532208D01*
X117066713Y-86494723D01*
X117082775Y-86492609D01*
X117278783Y-86479764D01*
X117286870Y-86479500D01*
X117376070Y-86479502D01*
X117376076Y-86479500D01*
X117387238Y-86479501D01*
X117387261Y-86479500D01*
X121350714Y-86479500D01*
X121350922Y-86479500D01*
X121350991Y-86479492D01*
X121351133Y-86479489D01*
X121457417Y-86479491D01*
X121768020Y-86448902D01*
X122074130Y-86388016D01*
X122372798Y-86297418D01*
X122661148Y-86177982D01*
X122936401Y-86030857D01*
X123195909Y-85857461D01*
X123437171Y-85659463D01*
X123467204Y-85629428D01*
X123467207Y-85629427D01*
X123481435Y-85615199D01*
X123481437Y-85615198D01*
X123547517Y-85549117D01*
X123613598Y-85483037D01*
X123613600Y-85483034D01*
X123622272Y-85474362D01*
X123622286Y-85474344D01*
X123635775Y-85460856D01*
X123791420Y-85265683D01*
X123924235Y-85054311D01*
X124032548Y-84829397D01*
X124114998Y-84593771D01*
X124170548Y-84350394D01*
X124198499Y-84102329D01*
X124198500Y-83977511D01*
X124198501Y-83884060D01*
X124198500Y-83884054D01*
X124198500Y-82158500D01*
X124218185Y-82091461D01*
X124270989Y-82045706D01*
X124322500Y-82034500D01*
X127403837Y-82034500D01*
X127470876Y-82054185D01*
X127474949Y-82056917D01*
X127617266Y-82156568D01*
X127823504Y-82252739D01*
X128043308Y-82311635D01*
X128194435Y-82324856D01*
X128269999Y-82331468D01*
X128269999Y-82331467D01*
X128270000Y-82331468D01*
X128496692Y-82311635D01*
X128716496Y-82252739D01*
X128922734Y-82156568D01*
X129109139Y-82026047D01*
X129270047Y-81865139D01*
X129400568Y-81678734D01*
X129496739Y-81472496D01*
X129555635Y-81252692D01*
X129575468Y-81026000D01*
X129555635Y-80799308D01*
X129496739Y-80579504D01*
X129400568Y-80373266D01*
X129328612Y-80270500D01*
X129270046Y-80186859D01*
X129109140Y-80025953D01*
X128922735Y-79895432D01*
X128716497Y-79799261D01*
X128496689Y-79740364D01*
X128270000Y-79720531D01*
X128043310Y-79740364D01*
X127823502Y-79799261D01*
X127617265Y-79895432D01*
X127474960Y-79995075D01*
X127408754Y-80017402D01*
X127403837Y-80017500D01*
X124056163Y-80017500D01*
X123989124Y-79997815D01*
X123985040Y-79995075D01*
X123842734Y-79895432D01*
X123636497Y-79799261D01*
X123416689Y-79740364D01*
X123190000Y-79720531D01*
X122963310Y-79740364D01*
X122743502Y-79799261D01*
X122537264Y-79895432D01*
X122350859Y-80025953D01*
X122189953Y-80186859D01*
X122059432Y-80373264D01*
X121963261Y-80579502D01*
X121904364Y-80799310D01*
X121884531Y-81025999D01*
X121904364Y-81252689D01*
X121904365Y-81252692D01*
X121963261Y-81472496D01*
X122059432Y-81678734D01*
X122131389Y-81781500D01*
X122159075Y-81821039D01*
X122181402Y-81887245D01*
X122181500Y-81892162D01*
X122181500Y-83969373D01*
X122180439Y-83985562D01*
X122176624Y-84014533D01*
X122168246Y-84045797D01*
X122160202Y-84065217D01*
X122144018Y-84093249D01*
X122129209Y-84112549D01*
X122111363Y-84131355D01*
X121990350Y-84234708D01*
X121974609Y-84246145D01*
X121836108Y-84331018D01*
X121818770Y-84339851D01*
X121668711Y-84402006D01*
X121650205Y-84408019D01*
X121492264Y-84445936D01*
X121473046Y-84448980D01*
X121306108Y-84462117D01*
X121296379Y-84462499D01*
X121217802Y-84462498D01*
X121207935Y-84462498D01*
X121207934Y-84462498D01*
X121196766Y-84462498D01*
X121196744Y-84462500D01*
X117233083Y-84462500D01*
X117233007Y-84462507D01*
X117232828Y-84462511D01*
X117108338Y-84462511D01*
X117108337Y-84462511D01*
X117105287Y-84462511D01*
X117102270Y-84462808D01*
X117102251Y-84462809D01*
X116755318Y-84496976D01*
X116755311Y-84496976D01*
X116752285Y-84497275D01*
X116749317Y-84497865D01*
X116749299Y-84497868D01*
X116407373Y-84565878D01*
X116407359Y-84565881D01*
X116404390Y-84566472D01*
X116401484Y-84567353D01*
X116401478Y-84567355D01*
X116067856Y-84668556D01*
X116067843Y-84668560D01*
X116064954Y-84669437D01*
X116062153Y-84670596D01*
X116062145Y-84670600D01*
X115740061Y-84804008D01*
X115740040Y-84804017D01*
X115737244Y-84805176D01*
X115734567Y-84806606D01*
X115734554Y-84806613D01*
X115427108Y-84970945D01*
X115427098Y-84970950D01*
X115424417Y-84972384D01*
X115421879Y-84974079D01*
X115421877Y-84974081D01*
X115132031Y-85167747D01*
X115132010Y-85167762D01*
X115129486Y-85169449D01*
X115127132Y-85171380D01*
X115127125Y-85171386D01*
X114997608Y-85277678D01*
X114933298Y-85304990D01*
X114864431Y-85293199D01*
X114812871Y-85246046D01*
X114794945Y-85182267D01*
X114794201Y-84974081D01*
X114780101Y-81025999D01*
X116804531Y-81025999D01*
X116824364Y-81252689D01*
X116883261Y-81472497D01*
X116979432Y-81678735D01*
X117109953Y-81865140D01*
X117270859Y-82026046D01*
X117457264Y-82156567D01*
X117457265Y-82156567D01*
X117457266Y-82156568D01*
X117663504Y-82252739D01*
X117883308Y-82311635D01*
X118110000Y-82331468D01*
X118336692Y-82311635D01*
X118556496Y-82252739D01*
X118762734Y-82156568D01*
X118949139Y-82026047D01*
X119110047Y-81865139D01*
X119240568Y-81678734D01*
X119336739Y-81472496D01*
X119395635Y-81252692D01*
X119415468Y-81026000D01*
X119395635Y-80799308D01*
X119336739Y-80579504D01*
X119240568Y-80373266D01*
X119168612Y-80270500D01*
X119110046Y-80186859D01*
X118949140Y-80025953D01*
X118762735Y-79895432D01*
X118556497Y-79799261D01*
X118336689Y-79740364D01*
X118110000Y-79720531D01*
X117883310Y-79740364D01*
X117663502Y-79799261D01*
X117457264Y-79895432D01*
X117270859Y-80025953D01*
X117109953Y-80186859D01*
X116979432Y-80373264D01*
X116883261Y-80579502D01*
X116824364Y-80799310D01*
X116804531Y-81025999D01*
X114780101Y-81025999D01*
X114768550Y-77791546D01*
X114752888Y-73406000D01*
X116804531Y-73406000D01*
X116824364Y-73632689D01*
X116883261Y-73852497D01*
X116979432Y-74058735D01*
X117109953Y-74245140D01*
X117270859Y-74406046D01*
X117457264Y-74536567D01*
X117457265Y-74536567D01*
X117457266Y-74536568D01*
X117663504Y-74632739D01*
X117883308Y-74691635D01*
X118034436Y-74704857D01*
X118109999Y-74711468D01*
X118109999Y-74711467D01*
X118110000Y-74711468D01*
X118336692Y-74691635D01*
X118556496Y-74632739D01*
X118762734Y-74536568D01*
X118905040Y-74436924D01*
X118971246Y-74414598D01*
X118976163Y-74414500D01*
X122323837Y-74414500D01*
X122390876Y-74434185D01*
X122394949Y-74436917D01*
X122537266Y-74536568D01*
X122743504Y-74632739D01*
X122963308Y-74691635D01*
X123190000Y-74711468D01*
X123416692Y-74691635D01*
X123636496Y-74632739D01*
X123842734Y-74536568D01*
X124029139Y-74406047D01*
X124190047Y-74245139D01*
X124320568Y-74058734D01*
X124416739Y-73852496D01*
X124475635Y-73632692D01*
X124495468Y-73406000D01*
X124495468Y-73405999D01*
X126965033Y-73405999D01*
X126984858Y-73632602D01*
X127043733Y-73852326D01*
X127139866Y-74058484D01*
X127190972Y-74131471D01*
X127190974Y-74131472D01*
X127872046Y-73450399D01*
X127884835Y-73531148D01*
X127942359Y-73644045D01*
X128031955Y-73733641D01*
X128144852Y-73791165D01*
X128225599Y-73803953D01*
X127544526Y-74485025D01*
X127544526Y-74485026D01*
X127617515Y-74536133D01*
X127823673Y-74632266D01*
X128043397Y-74691141D01*
X128270000Y-74710966D01*
X128496602Y-74691141D01*
X128716326Y-74632266D01*
X128922480Y-74536134D01*
X128995472Y-74485025D01*
X128678446Y-74167999D01*
X144084740Y-74167999D01*
X144105336Y-74403407D01*
X144117989Y-74450627D01*
X144166497Y-74631663D01*
X144266365Y-74845830D01*
X144401905Y-75039401D01*
X144568999Y-75206495D01*
X144762570Y-75342035D01*
X144976737Y-75441903D01*
X145204992Y-75503063D01*
X145440400Y-75523659D01*
X145675808Y-75503063D01*
X145904063Y-75441903D01*
X146118230Y-75342035D01*
X146311801Y-75206495D01*
X146478895Y-75039401D01*
X146608826Y-74853839D01*
X146663402Y-74810216D01*
X146732900Y-74803022D01*
X146795255Y-74834545D01*
X146811971Y-74853837D01*
X146941905Y-75039401D01*
X147108999Y-75206495D01*
X147302570Y-75342035D01*
X147516737Y-75441903D01*
X147714587Y-75494916D01*
X147744992Y-75503063D01*
X147980399Y-75523659D01*
X147980399Y-75523658D01*
X147980400Y-75523659D01*
X148215808Y-75503063D01*
X148444063Y-75441903D01*
X148658230Y-75342035D01*
X148851801Y-75206495D01*
X149018895Y-75039401D01*
X149154435Y-74845830D01*
X149254303Y-74631663D01*
X149315463Y-74403408D01*
X149336059Y-74168000D01*
X149315463Y-73932592D01*
X149254303Y-73704337D01*
X149154435Y-73490171D01*
X149018895Y-73296599D01*
X148896581Y-73174285D01*
X148863096Y-73112962D01*
X148868080Y-73043270D01*
X148909952Y-72987337D01*
X148940928Y-72970422D01*
X149072489Y-72921352D01*
X149187588Y-72835188D01*
X149273752Y-72720089D01*
X149323999Y-72585371D01*
X149330045Y-72529132D01*
X149330400Y-72522518D01*
X149330400Y-71878000D01*
X148414086Y-71878000D01*
X148439893Y-71837844D01*
X148480400Y-71699889D01*
X148480400Y-71556111D01*
X148439893Y-71418156D01*
X148414086Y-71378000D01*
X149330400Y-71378000D01*
X149330400Y-70733481D01*
X149330045Y-70726867D01*
X149323999Y-70670628D01*
X149273752Y-70535910D01*
X149187588Y-70420811D01*
X149072489Y-70334647D01*
X148937771Y-70284400D01*
X148881532Y-70278354D01*
X148874918Y-70278000D01*
X148230400Y-70278000D01*
X148230400Y-71192498D01*
X148122715Y-71143320D01*
X148016163Y-71128000D01*
X147944637Y-71128000D01*
X147838085Y-71143320D01*
X147730400Y-71192498D01*
X147730400Y-70278000D01*
X147085882Y-70278000D01*
X147079267Y-70278354D01*
X147023028Y-70284400D01*
X146888310Y-70334647D01*
X146773211Y-70420811D01*
X146687047Y-70535911D01*
X146637785Y-70667987D01*
X146595913Y-70723921D01*
X146530448Y-70748337D01*
X146462176Y-70733485D01*
X146433922Y-70712334D01*
X146311481Y-70589893D01*
X146117976Y-70454399D01*
X145903892Y-70354569D01*
X145690400Y-70297364D01*
X145690400Y-71192498D01*
X145582715Y-71143320D01*
X145476163Y-71128000D01*
X145404637Y-71128000D01*
X145298085Y-71143320D01*
X145190400Y-71192498D01*
X145190400Y-70297364D01*
X145190399Y-70297364D01*
X144976907Y-70354569D01*
X144762821Y-70454400D01*
X144569321Y-70589890D01*
X144402290Y-70756921D01*
X144266800Y-70950421D01*
X144166969Y-71164507D01*
X144109764Y-71377999D01*
X144109764Y-71378000D01*
X145006714Y-71378000D01*
X144980907Y-71418156D01*
X144940400Y-71556111D01*
X144940400Y-71699889D01*
X144980907Y-71837844D01*
X145006714Y-71878000D01*
X144109764Y-71878000D01*
X144166969Y-72091492D01*
X144266799Y-72305576D01*
X144402293Y-72499081D01*
X144569318Y-72666106D01*
X144754995Y-72796119D01*
X144798619Y-72850696D01*
X144805812Y-72920195D01*
X144774290Y-72982549D01*
X144754995Y-72999269D01*
X144568995Y-73129508D01*
X144401905Y-73296598D01*
X144266365Y-73490170D01*
X144166497Y-73704336D01*
X144105336Y-73932592D01*
X144084740Y-74167999D01*
X128678446Y-74167999D01*
X128314401Y-73803953D01*
X128395148Y-73791165D01*
X128508045Y-73733641D01*
X128597641Y-73644045D01*
X128655165Y-73531148D01*
X128667953Y-73450400D01*
X129349025Y-74131472D01*
X129400134Y-74058480D01*
X129496266Y-73852326D01*
X129555141Y-73632602D01*
X129574966Y-73406000D01*
X129555141Y-73179397D01*
X129496266Y-72959673D01*
X129400133Y-72753515D01*
X129349025Y-72680526D01*
X128667953Y-73361598D01*
X128655165Y-73280852D01*
X128597641Y-73167955D01*
X128508045Y-73078359D01*
X128395148Y-73020835D01*
X128314399Y-73008045D01*
X128995472Y-72326973D01*
X128995471Y-72326972D01*
X128922484Y-72275866D01*
X128716326Y-72179733D01*
X128496602Y-72120858D01*
X128269999Y-72101033D01*
X128043397Y-72120858D01*
X127823672Y-72179733D01*
X127617516Y-72275865D01*
X127544526Y-72326973D01*
X128225598Y-73008046D01*
X128144852Y-73020835D01*
X128031955Y-73078359D01*
X127942359Y-73167955D01*
X127884835Y-73280852D01*
X127872046Y-73361599D01*
X127190973Y-72680526D01*
X127190973Y-72680527D01*
X127139865Y-72753516D01*
X127043733Y-72959672D01*
X126984858Y-73179397D01*
X126965033Y-73405999D01*
X124495468Y-73405999D01*
X124475635Y-73179308D01*
X124416739Y-72959504D01*
X124320568Y-72753266D01*
X124297337Y-72720089D01*
X124220925Y-72610959D01*
X124198598Y-72544753D01*
X124198500Y-72539836D01*
X124198500Y-68452306D01*
X124218185Y-68385267D01*
X124270989Y-68339512D01*
X124340147Y-68329568D01*
X124403703Y-68358593D01*
X124424625Y-68388727D01*
X124425520Y-68388058D01*
X124436203Y-68402328D01*
X124436204Y-68402331D01*
X124522454Y-68517546D01*
X124637669Y-68603796D01*
X124772517Y-68654091D01*
X124832127Y-68660500D01*
X126627872Y-68660499D01*
X126687483Y-68654091D01*
X126822331Y-68603796D01*
X126937546Y-68517546D01*
X127023796Y-68402331D01*
X127074091Y-68267483D01*
X127080500Y-68207873D01*
X127080499Y-66412128D01*
X127074091Y-66352517D01*
X127023796Y-66217669D01*
X126937546Y-66102454D01*
X126822331Y-66016204D01*
X126687483Y-65965909D01*
X126627873Y-65959500D01*
X126624550Y-65959500D01*
X124835439Y-65959500D01*
X124835420Y-65959500D01*
X124832128Y-65959501D01*
X124828848Y-65959853D01*
X124828840Y-65959854D01*
X124772515Y-65965909D01*
X124637669Y-66016204D01*
X124522454Y-66102454D01*
X124436204Y-66217669D01*
X124387189Y-66349083D01*
X124345317Y-66405016D01*
X124279852Y-66429433D01*
X124211580Y-66414581D01*
X124183326Y-66393430D01*
X124061404Y-66271508D01*
X124061404Y-66271507D01*
X124061401Y-66271505D01*
X123867830Y-66135965D01*
X123653663Y-66036097D01*
X123592501Y-66019709D01*
X123425407Y-65974936D01*
X123189999Y-65954340D01*
X122954592Y-65974936D01*
X122726336Y-66036097D01*
X122512170Y-66135965D01*
X122318598Y-66271505D01*
X122151505Y-66438598D01*
X122021575Y-66624159D01*
X121966998Y-66667784D01*
X121897500Y-66674978D01*
X121835145Y-66643455D01*
X121818425Y-66624159D01*
X121731838Y-66500500D01*
X121688495Y-66438599D01*
X121521401Y-66271505D01*
X121327830Y-66135965D01*
X121113663Y-66036097D01*
X121052501Y-66019709D01*
X120885407Y-65974936D01*
X120649999Y-65954340D01*
X120414592Y-65974936D01*
X120186336Y-66036097D01*
X119972170Y-66135965D01*
X119778598Y-66271505D01*
X119611505Y-66438598D01*
X119475965Y-66632170D01*
X119376097Y-66846336D01*
X119314936Y-67074592D01*
X119294340Y-67309999D01*
X119314936Y-67545407D01*
X119346931Y-67664812D01*
X119376097Y-67773663D01*
X119475965Y-67987830D01*
X119611505Y-68181401D01*
X119778599Y-68348495D01*
X119972170Y-68484035D01*
X120186337Y-68583903D01*
X120414591Y-68645062D01*
X120414592Y-68645063D01*
X120649999Y-68665659D01*
X120649999Y-68665658D01*
X120650000Y-68665659D01*
X120885408Y-68645063D01*
X121113663Y-68583903D01*
X121327830Y-68484035D01*
X121521401Y-68348495D01*
X121688495Y-68181401D01*
X121818426Y-67995839D01*
X121873002Y-67952216D01*
X121942500Y-67945022D01*
X122004855Y-67976545D01*
X122021571Y-67995837D01*
X122133018Y-68154999D01*
X122157728Y-68190288D01*
X122154659Y-68192436D01*
X122178666Y-68236400D01*
X122181500Y-68262758D01*
X122181500Y-72273500D01*
X122161815Y-72340539D01*
X122109011Y-72386294D01*
X122057500Y-72397500D01*
X118976163Y-72397500D01*
X118909124Y-72377815D01*
X118905040Y-72375075D01*
X118836341Y-72326972D01*
X118762734Y-72275432D01*
X118703465Y-72247794D01*
X118556497Y-72179261D01*
X118336689Y-72120364D01*
X118109999Y-72100531D01*
X117883310Y-72120364D01*
X117663502Y-72179261D01*
X117457264Y-72275432D01*
X117270859Y-72405953D01*
X117109953Y-72566859D01*
X116979432Y-72753264D01*
X116883261Y-72959502D01*
X116824364Y-73179310D01*
X116804531Y-73406000D01*
X114752888Y-73406000D01*
X114717511Y-63500000D01*
X130242815Y-63500000D01*
X130263138Y-63848927D01*
X130263764Y-63852481D01*
X130263766Y-63852492D01*
X130323203Y-64189578D01*
X130323205Y-64189588D01*
X130323831Y-64193136D01*
X130424074Y-64527971D01*
X130425499Y-64531274D01*
X130561082Y-64845593D01*
X130561087Y-64845603D01*
X130562511Y-64848904D01*
X130564313Y-64852026D01*
X130564315Y-64852029D01*
X130735461Y-65148464D01*
X130735467Y-65148473D01*
X130737270Y-65151596D01*
X130739429Y-65154496D01*
X130943835Y-65429062D01*
X130943841Y-65429069D01*
X130945988Y-65431953D01*
X131185842Y-65686183D01*
X131188600Y-65688497D01*
X131188604Y-65688501D01*
X131404055Y-65869285D01*
X131453589Y-65910849D01*
X131551028Y-65974936D01*
X131644018Y-66036097D01*
X131745607Y-66102913D01*
X132057949Y-66259777D01*
X132386389Y-66379319D01*
X132494814Y-66405016D01*
X132722979Y-66459092D01*
X132722981Y-66459092D01*
X132726486Y-66459923D01*
X133073641Y-66500500D01*
X133077239Y-66500500D01*
X133419561Y-66500500D01*
X133423159Y-66500500D01*
X133770314Y-66459923D01*
X134110411Y-66379319D01*
X134438851Y-66259777D01*
X134751193Y-66102913D01*
X135043211Y-65910849D01*
X135310958Y-65686183D01*
X135550812Y-65431953D01*
X135759530Y-65151596D01*
X135934289Y-64848904D01*
X136072726Y-64527971D01*
X136172969Y-64193136D01*
X136233662Y-63848927D01*
X136253985Y-63500000D01*
X136233662Y-63151073D01*
X136172969Y-62806864D01*
X136072726Y-62472029D01*
X135934289Y-62151096D01*
X135759530Y-61848404D01*
X135680564Y-61742335D01*
X135552964Y-61570937D01*
X135552959Y-61570931D01*
X135550812Y-61568047D01*
X135310958Y-61313817D01*
X135308200Y-61311503D01*
X135308195Y-61311498D01*
X135045970Y-61091466D01*
X135045969Y-61091465D01*
X135043211Y-61089151D01*
X134966567Y-61038741D01*
X134754212Y-60899072D01*
X134754204Y-60899067D01*
X134751193Y-60897087D01*
X134677365Y-60860009D01*
X134442088Y-60741848D01*
X134442078Y-60741843D01*
X134438851Y-60740223D01*
X134276483Y-60681126D01*
X134113800Y-60621914D01*
X134113792Y-60621911D01*
X134110411Y-60620681D01*
X134106912Y-60619851D01*
X134106903Y-60619849D01*
X133773820Y-60540907D01*
X133773804Y-60540904D01*
X133770314Y-60540077D01*
X133766749Y-60539660D01*
X133766736Y-60539658D01*
X133426729Y-60499917D01*
X133426724Y-60499916D01*
X133423159Y-60499500D01*
X133073641Y-60499500D01*
X133070076Y-60499916D01*
X133070070Y-60499917D01*
X132730063Y-60539658D01*
X132730047Y-60539660D01*
X132726486Y-60540077D01*
X132722998Y-60540903D01*
X132722979Y-60540907D01*
X132389896Y-60619849D01*
X132389882Y-60619852D01*
X132386389Y-60620681D01*
X132383012Y-60621910D01*
X132382999Y-60621914D01*
X132061350Y-60738985D01*
X132057949Y-60740223D01*
X132054727Y-60741840D01*
X132054711Y-60741848D01*
X131748836Y-60895465D01*
X131748831Y-60895467D01*
X131745607Y-60897087D01*
X131742603Y-60899062D01*
X131742587Y-60899072D01*
X131456606Y-61087166D01*
X131456598Y-61087171D01*
X131453589Y-61089151D01*
X131450838Y-61091458D01*
X131450829Y-61091466D01*
X131188604Y-61311498D01*
X131188590Y-61311510D01*
X131185842Y-61313817D01*
X131183367Y-61316439D01*
X131183362Y-61316445D01*
X130948462Y-61565424D01*
X130948456Y-61565430D01*
X130945988Y-61568047D01*
X130943848Y-61570921D01*
X130943835Y-61570937D01*
X130739429Y-61845503D01*
X130739423Y-61845511D01*
X130737270Y-61848404D01*
X130735471Y-61851518D01*
X130735461Y-61851535D01*
X130564315Y-62147970D01*
X130564309Y-62147980D01*
X130562511Y-62151096D01*
X130561090Y-62154389D01*
X130561082Y-62154406D01*
X130425499Y-62468725D01*
X130424074Y-62472029D01*
X130423045Y-62475464D01*
X130423042Y-62475474D01*
X130324865Y-62803408D01*
X130324862Y-62803418D01*
X130323831Y-62806864D01*
X130323206Y-62810407D01*
X130323203Y-62810421D01*
X130263766Y-63147507D01*
X130263764Y-63147520D01*
X130263138Y-63151073D01*
X130262928Y-63154678D01*
X130262927Y-63154687D01*
X130259714Y-63209852D01*
X130242815Y-63500000D01*
X114717511Y-63500000D01*
X114704350Y-59814943D01*
X114723795Y-59747834D01*
X114776435Y-59701890D01*
X114828349Y-59690500D01*
X135783526Y-59690500D01*
X135793253Y-59690881D01*
G37*
%TD.AperFunction*%
%TD*%
%TA.AperFunction,Conductor*%
%TO.N,+7.5V*%
G36*
X114141883Y-59710185D02*
G01*
X114187638Y-59762989D01*
X114198843Y-59814057D01*
X114292421Y-86016478D01*
X114272976Y-86083587D01*
X114271526Y-86085810D01*
X114205288Y-86184945D01*
X114203596Y-86187478D01*
X114202163Y-86190158D01*
X114202157Y-86190169D01*
X114047509Y-86479500D01*
X114042871Y-86488178D01*
X114041712Y-86490973D01*
X114041711Y-86490978D01*
X113913558Y-86800374D01*
X113913552Y-86800390D01*
X113912395Y-86803184D01*
X113911517Y-86806078D01*
X113911510Y-86806098D01*
X113814308Y-87126545D01*
X113814304Y-87126560D01*
X113813424Y-87129462D01*
X113812833Y-87132431D01*
X113812829Y-87132449D01*
X113747505Y-87460881D01*
X113747503Y-87460890D01*
X113746911Y-87463870D01*
X113713497Y-87803187D01*
X113713497Y-87806235D01*
X113713497Y-87806237D01*
X113713500Y-87973628D01*
X113713500Y-88055795D01*
X113693815Y-88122834D01*
X113680730Y-88139777D01*
X113571450Y-88258487D01*
X113439745Y-88460077D01*
X113343017Y-88680593D01*
X113283904Y-88914028D01*
X113264019Y-89153999D01*
X113283904Y-89393971D01*
X113343017Y-89627406D01*
X113398871Y-89754739D01*
X113439745Y-89847922D01*
X113571449Y-90049510D01*
X113716915Y-90207528D01*
X113734537Y-90226671D01*
X113839036Y-90308006D01*
X113879849Y-90364716D01*
X113883523Y-90434489D01*
X113848891Y-90495172D01*
X113830696Y-90509667D01*
X113778991Y-90543448D01*
X113601829Y-90706536D01*
X113453929Y-90896559D01*
X113339319Y-91108340D01*
X113261134Y-91336084D01*
X113221500Y-91573601D01*
X113221500Y-91814398D01*
X113261134Y-92051915D01*
X113339319Y-92279659D01*
X113339321Y-92279664D01*
X113453928Y-92491439D01*
X113601829Y-92681463D01*
X113778990Y-92844551D01*
X113980578Y-92976255D01*
X113999274Y-92984456D01*
X114037147Y-93010331D01*
X114318405Y-93291590D01*
X114320405Y-93851694D01*
X114316261Y-93855066D01*
X114229072Y-93978585D01*
X114178441Y-94121047D01*
X114171513Y-94222327D01*
X113430355Y-93481169D01*
X113339780Y-93648539D01*
X113261619Y-93876207D01*
X113222000Y-94113642D01*
X113222000Y-94354357D01*
X113261619Y-94591792D01*
X113339780Y-94819460D01*
X113430354Y-94986828D01*
X113430355Y-94986829D01*
X114169798Y-94247386D01*
X114168123Y-94271886D01*
X114198884Y-94419915D01*
X114268442Y-94554156D01*
X114323123Y-94612705D01*
X114325113Y-95169699D01*
X113979718Y-95515094D01*
X113979719Y-95515095D01*
X113980817Y-95515813D01*
X114201257Y-95612507D01*
X114233591Y-95620695D01*
X114293747Y-95656234D01*
X114325140Y-95718654D01*
X114327151Y-95740458D01*
X114412948Y-119763404D01*
X114451792Y-130639852D01*
X114451954Y-130685057D01*
X114432509Y-130752166D01*
X114379869Y-130798110D01*
X114327955Y-130809500D01*
X93375277Y-130809500D01*
X93365547Y-130809118D01*
X93313483Y-130805020D01*
X93172827Y-130792714D01*
X93154693Y-130789760D01*
X93075990Y-130770866D01*
X93072842Y-130770067D01*
X92967605Y-130741868D01*
X92952248Y-130736655D01*
X92871931Y-130703388D01*
X92866977Y-130701208D01*
X92773624Y-130657676D01*
X92761252Y-130651028D01*
X92713954Y-130622044D01*
X92685245Y-130604451D01*
X92678913Y-130600299D01*
X92644024Y-130575869D01*
X92596239Y-130542410D01*
X92586842Y-130535135D01*
X92518423Y-130476699D01*
X92511274Y-130470090D01*
X92440308Y-130399124D01*
X92433699Y-130391975D01*
X92412945Y-130367675D01*
X92375260Y-130323551D01*
X92367994Y-130314166D01*
X92310094Y-130231477D01*
X92305947Y-130225153D01*
X92259363Y-130149135D01*
X92252729Y-130136788D01*
X92209170Y-130043376D01*
X92207022Y-130038496D01*
X92185465Y-129986451D01*
X92173743Y-129958150D01*
X92168530Y-129942793D01*
X92140310Y-129837476D01*
X92139553Y-129834494D01*
X92120636Y-129755698D01*
X92117685Y-129737579D01*
X92105386Y-129597001D01*
X92101280Y-129544833D01*
X92100900Y-129535131D01*
X92100900Y-127000000D01*
X92904815Y-127000000D01*
X92925138Y-127348927D01*
X92925764Y-127352481D01*
X92925766Y-127352492D01*
X92985203Y-127689578D01*
X92985205Y-127689588D01*
X92985831Y-127693136D01*
X93086074Y-128027971D01*
X93087499Y-128031274D01*
X93223082Y-128345593D01*
X93223087Y-128345603D01*
X93224511Y-128348904D01*
X93226313Y-128352026D01*
X93226315Y-128352029D01*
X93397461Y-128648464D01*
X93397467Y-128648473D01*
X93399270Y-128651596D01*
X93401429Y-128654496D01*
X93605835Y-128929062D01*
X93605841Y-128929069D01*
X93607988Y-128931953D01*
X93847842Y-129186183D01*
X94115589Y-129410849D01*
X94118606Y-129412833D01*
X94311192Y-129539500D01*
X94407607Y-129602913D01*
X94719949Y-129759777D01*
X95048389Y-129879319D01*
X95218437Y-129919621D01*
X95384979Y-129959092D01*
X95384981Y-129959092D01*
X95388486Y-129959923D01*
X95735641Y-130000500D01*
X95739239Y-130000500D01*
X96081561Y-130000500D01*
X96085159Y-130000500D01*
X96432314Y-129959923D01*
X96772411Y-129879319D01*
X97100851Y-129759777D01*
X97413193Y-129602913D01*
X97705211Y-129410849D01*
X97972958Y-129186183D01*
X98212812Y-128931953D01*
X98421530Y-128651596D01*
X98596289Y-128348904D01*
X98734726Y-128027971D01*
X98834969Y-127693136D01*
X98895662Y-127348927D01*
X98915985Y-127000000D01*
X98895662Y-126651073D01*
X98834969Y-126306864D01*
X98734726Y-125972029D01*
X98596289Y-125651096D01*
X98421530Y-125348404D01*
X98212812Y-125068047D01*
X97972958Y-124813817D01*
X97970200Y-124811503D01*
X97970195Y-124811498D01*
X97707970Y-124591466D01*
X97707969Y-124591465D01*
X97705211Y-124589151D01*
X97702193Y-124587166D01*
X97416212Y-124399072D01*
X97416204Y-124399067D01*
X97413193Y-124397087D01*
X97349950Y-124365325D01*
X97104088Y-124241848D01*
X97104078Y-124241843D01*
X97100851Y-124240223D01*
X96997086Y-124202456D01*
X96775800Y-124121914D01*
X96775792Y-124121911D01*
X96772411Y-124120681D01*
X96768912Y-124119851D01*
X96768903Y-124119849D01*
X96435820Y-124040907D01*
X96435804Y-124040904D01*
X96432314Y-124040077D01*
X96428749Y-124039660D01*
X96428736Y-124039658D01*
X96088729Y-123999917D01*
X96088724Y-123999916D01*
X96085159Y-123999500D01*
X95735641Y-123999500D01*
X95732076Y-123999916D01*
X95732070Y-123999917D01*
X95392063Y-124039658D01*
X95392047Y-124039660D01*
X95388486Y-124040077D01*
X95384998Y-124040903D01*
X95384979Y-124040907D01*
X95051896Y-124119849D01*
X95051882Y-124119852D01*
X95048389Y-124120681D01*
X95045012Y-124121910D01*
X95044999Y-124121914D01*
X94723350Y-124238985D01*
X94719949Y-124240223D01*
X94716727Y-124241840D01*
X94716711Y-124241848D01*
X94410836Y-124395465D01*
X94410831Y-124395467D01*
X94407607Y-124397087D01*
X94404603Y-124399062D01*
X94404587Y-124399072D01*
X94118606Y-124587166D01*
X94118598Y-124587171D01*
X94115589Y-124589151D01*
X94112838Y-124591458D01*
X94112829Y-124591466D01*
X93850604Y-124811498D01*
X93850590Y-124811510D01*
X93847842Y-124813817D01*
X93845367Y-124816439D01*
X93845362Y-124816445D01*
X93610462Y-125065424D01*
X93610456Y-125065430D01*
X93607988Y-125068047D01*
X93605848Y-125070921D01*
X93605835Y-125070937D01*
X93401429Y-125345503D01*
X93401423Y-125345511D01*
X93399270Y-125348404D01*
X93397471Y-125351518D01*
X93397461Y-125351535D01*
X93226315Y-125647970D01*
X93226309Y-125647980D01*
X93224511Y-125651096D01*
X93223090Y-125654389D01*
X93223082Y-125654406D01*
X93087499Y-125968725D01*
X93086074Y-125972029D01*
X93085045Y-125975464D01*
X93085042Y-125975474D01*
X92986865Y-126303408D01*
X92986862Y-126303418D01*
X92985831Y-126306864D01*
X92985206Y-126310407D01*
X92985203Y-126310421D01*
X92925766Y-126647507D01*
X92925764Y-126647520D01*
X92925138Y-126651073D01*
X92924928Y-126654678D01*
X92924927Y-126654687D01*
X92905025Y-126996394D01*
X92904815Y-127000000D01*
X92100900Y-127000000D01*
X92100900Y-118891999D01*
X110327740Y-118891999D01*
X110348336Y-119127407D01*
X110393109Y-119294502D01*
X110409497Y-119355663D01*
X110509365Y-119569830D01*
X110644905Y-119763401D01*
X110811999Y-119930495D01*
X111005570Y-120066035D01*
X111219737Y-120165903D01*
X111447992Y-120227063D01*
X111683399Y-120247659D01*
X111683399Y-120247658D01*
X111683400Y-120247659D01*
X111918808Y-120227063D01*
X112147063Y-120165903D01*
X112361230Y-120066035D01*
X112554801Y-119930495D01*
X112721895Y-119763401D01*
X112857435Y-119569830D01*
X112957303Y-119355663D01*
X113018463Y-119127408D01*
X113039059Y-118892000D01*
X113018463Y-118656592D01*
X112957303Y-118428337D01*
X112857435Y-118214171D01*
X112721895Y-118020599D01*
X112599581Y-117898285D01*
X112566096Y-117836962D01*
X112571080Y-117767270D01*
X112612952Y-117711337D01*
X112643928Y-117694422D01*
X112775489Y-117645352D01*
X112890588Y-117559188D01*
X112976752Y-117444089D01*
X113026999Y-117309371D01*
X113033045Y-117253132D01*
X113033400Y-117246518D01*
X113033400Y-116733000D01*
X112007224Y-116733000D01*
X112065161Y-116682798D01*
X112142893Y-116561844D01*
X112183400Y-116423889D01*
X112183400Y-116280111D01*
X112142893Y-116142156D01*
X112065161Y-116021202D01*
X111956500Y-115927048D01*
X111825715Y-115867320D01*
X111719163Y-115852000D01*
X111647637Y-115852000D01*
X111541085Y-115867320D01*
X111410300Y-115927048D01*
X111301639Y-116021202D01*
X111223907Y-116142156D01*
X111183400Y-116280111D01*
X111183400Y-116423889D01*
X111223907Y-116561844D01*
X111301639Y-116682798D01*
X111359576Y-116733000D01*
X110333400Y-116733000D01*
X110333400Y-117246518D01*
X110333754Y-117253132D01*
X110339800Y-117309371D01*
X110390047Y-117444089D01*
X110476211Y-117559188D01*
X110591311Y-117645352D01*
X110722871Y-117694422D01*
X110778804Y-117736294D01*
X110803221Y-117801758D01*
X110788369Y-117870031D01*
X110767219Y-117898285D01*
X110644903Y-118020601D01*
X110509365Y-118214170D01*
X110409497Y-118428336D01*
X110348336Y-118656592D01*
X110327740Y-118891999D01*
X92100900Y-118891999D01*
X92100900Y-115971000D01*
X110333400Y-115971000D01*
X111302400Y-115971000D01*
X111302400Y-115002000D01*
X112064400Y-115002000D01*
X112064400Y-115971000D01*
X113033400Y-115971000D01*
X113033400Y-115457481D01*
X113033045Y-115450867D01*
X113026999Y-115394628D01*
X112976752Y-115259910D01*
X112890588Y-115144811D01*
X112775489Y-115058647D01*
X112640771Y-115008400D01*
X112584532Y-115002354D01*
X112577918Y-115002000D01*
X112064400Y-115002000D01*
X111302400Y-115002000D01*
X110788882Y-115002000D01*
X110782267Y-115002354D01*
X110726028Y-115008400D01*
X110591310Y-115058647D01*
X110476211Y-115144811D01*
X110390047Y-115259910D01*
X110339800Y-115394628D01*
X110333754Y-115450867D01*
X110333400Y-115457481D01*
X110333400Y-115971000D01*
X92100900Y-115971000D01*
X92100900Y-99822000D01*
X109650931Y-99822000D01*
X109670764Y-100048689D01*
X109729661Y-100268497D01*
X109825832Y-100474735D01*
X109956353Y-100661140D01*
X110117259Y-100822046D01*
X110303664Y-100952567D01*
X110303665Y-100952567D01*
X110303666Y-100952568D01*
X110509904Y-101048739D01*
X110729708Y-101107635D01*
X110880835Y-101120857D01*
X110956399Y-101127468D01*
X110956399Y-101127467D01*
X110956400Y-101127468D01*
X111183092Y-101107635D01*
X111402896Y-101048739D01*
X111609134Y-100952568D01*
X111795539Y-100822047D01*
X111956447Y-100661139D01*
X112086968Y-100474734D01*
X112183139Y-100268496D01*
X112242035Y-100048692D01*
X112261868Y-99822000D01*
X112242035Y-99595308D01*
X112183139Y-99375504D01*
X112086968Y-99169266D01*
X111956447Y-98982861D01*
X111956446Y-98982859D01*
X111795540Y-98821953D01*
X111609135Y-98691432D01*
X111402897Y-98595261D01*
X111183089Y-98536364D01*
X110956400Y-98516531D01*
X110729710Y-98536364D01*
X110509902Y-98595261D01*
X110303664Y-98691432D01*
X110117259Y-98821953D01*
X109956353Y-98982859D01*
X109825832Y-99169264D01*
X109729661Y-99375502D01*
X109670764Y-99595310D01*
X109650931Y-99822000D01*
X92100900Y-99822000D01*
X92100900Y-90463380D01*
X107920000Y-90463380D01*
X107920000Y-90926898D01*
X107920354Y-90933512D01*
X107926400Y-90989751D01*
X107976647Y-91124469D01*
X108062811Y-91239568D01*
X108177910Y-91325732D01*
X108312628Y-91375979D01*
X108368867Y-91382025D01*
X108375482Y-91382380D01*
X108839000Y-91382380D01*
X108839000Y-90463380D01*
X107920000Y-90463380D01*
X92100900Y-90463380D01*
X92100900Y-87582379D01*
X107914531Y-87582379D01*
X107934364Y-87809069D01*
X107993261Y-88028877D01*
X108089432Y-88235115D01*
X108219953Y-88421520D01*
X108377293Y-88578860D01*
X108410778Y-88640183D01*
X108405794Y-88709875D01*
X108363922Y-88765808D01*
X108326213Y-88780645D01*
X108327218Y-88783339D01*
X108177910Y-88839027D01*
X108062811Y-88925191D01*
X107976647Y-89040290D01*
X107926400Y-89175008D01*
X107920354Y-89231247D01*
X107920000Y-89237861D01*
X107920000Y-89701380D01*
X109086678Y-89701380D01*
X108981955Y-89754739D01*
X108892359Y-89844335D01*
X108834835Y-89957232D01*
X108815014Y-90082380D01*
X108834835Y-90207528D01*
X108892359Y-90320425D01*
X108981955Y-90410021D01*
X109094852Y-90467545D01*
X109188519Y-90482380D01*
X109251481Y-90482380D01*
X109345148Y-90467545D01*
X109353322Y-90463380D01*
X109601000Y-90463380D01*
X109601000Y-91382380D01*
X110064518Y-91382380D01*
X110071132Y-91382025D01*
X110127371Y-91375979D01*
X110262089Y-91325732D01*
X110377188Y-91239568D01*
X110463352Y-91124469D01*
X110513599Y-90989751D01*
X110519645Y-90933512D01*
X110520000Y-90926898D01*
X110520000Y-90463380D01*
X109601000Y-90463380D01*
X109353322Y-90463380D01*
X109458045Y-90410021D01*
X109547641Y-90320425D01*
X109605165Y-90207528D01*
X109624986Y-90082380D01*
X109605165Y-89957232D01*
X109547641Y-89844335D01*
X109458045Y-89754739D01*
X109353322Y-89701380D01*
X110520000Y-89701380D01*
X110520000Y-89237861D01*
X110519645Y-89231247D01*
X110513599Y-89175008D01*
X110463352Y-89040290D01*
X110377188Y-88925191D01*
X110262089Y-88839027D01*
X110112782Y-88783339D01*
X110113943Y-88780225D01*
X110072580Y-88763092D01*
X110032732Y-88705699D01*
X110030239Y-88635874D01*
X110062704Y-88578861D01*
X110220047Y-88421519D01*
X110350568Y-88235114D01*
X110446739Y-88028876D01*
X110505635Y-87809072D01*
X110525468Y-87582380D01*
X110505635Y-87355688D01*
X110446739Y-87135884D01*
X110350568Y-86929646D01*
X110265894Y-86808717D01*
X110220046Y-86743239D01*
X110059140Y-86582333D01*
X109872735Y-86451812D01*
X109666497Y-86355641D01*
X109446689Y-86296744D01*
X109219999Y-86276911D01*
X108993310Y-86296744D01*
X108773502Y-86355641D01*
X108567264Y-86451812D01*
X108380859Y-86582333D01*
X108219953Y-86743239D01*
X108089432Y-86929644D01*
X107993261Y-87135882D01*
X107934364Y-87355690D01*
X107914531Y-87582379D01*
X92100900Y-87582379D01*
X92100900Y-82124842D01*
X100623500Y-82124842D01*
X100623618Y-82126751D01*
X100623619Y-82126766D01*
X100629919Y-82228237D01*
X100680950Y-82471616D01*
X100771343Y-82703272D01*
X100898634Y-82916896D01*
X101059349Y-83106650D01*
X101249103Y-83267365D01*
X101462727Y-83394656D01*
X101694386Y-83485050D01*
X101937763Y-83536081D01*
X102041158Y-83542500D01*
X102043092Y-83542500D01*
X104204908Y-83542500D01*
X104206842Y-83542500D01*
X104310237Y-83536081D01*
X104553614Y-83485050D01*
X104785273Y-83394656D01*
X104998894Y-83267366D01*
X104998893Y-83267366D01*
X104998896Y-83267365D01*
X105188650Y-83106650D01*
X105349365Y-82916896D01*
X105380353Y-82864890D01*
X105476656Y-82703273D01*
X105567050Y-82471614D01*
X105618081Y-82228237D01*
X105621664Y-82170518D01*
X109906000Y-82170518D01*
X109906354Y-82177132D01*
X109912400Y-82233371D01*
X109962647Y-82368089D01*
X110048811Y-82483188D01*
X110163910Y-82569352D01*
X110298628Y-82619599D01*
X110354867Y-82625645D01*
X110361482Y-82626000D01*
X111256000Y-82626000D01*
X111256000Y-81517683D01*
X111284819Y-81535209D01*
X111430404Y-81576000D01*
X111543622Y-81576000D01*
X111655783Y-81560584D01*
X111755999Y-81517053D01*
X111756000Y-82626000D01*
X112650518Y-82626000D01*
X112657132Y-82625645D01*
X112713371Y-82619599D01*
X112848089Y-82569352D01*
X112963188Y-82483188D01*
X113049352Y-82368089D01*
X113099599Y-82233371D01*
X113105645Y-82177132D01*
X113106000Y-82170518D01*
X113106000Y-81276000D01*
X112000852Y-81276000D01*
X112049559Y-81138953D01*
X112059877Y-80988114D01*
X112029116Y-80840085D01*
X111995910Y-80776000D01*
X113106000Y-80776000D01*
X113106000Y-79881481D01*
X113105645Y-79874867D01*
X113099599Y-79818628D01*
X113049352Y-79683910D01*
X112963188Y-79568811D01*
X112848089Y-79482647D01*
X112713371Y-79432400D01*
X112657132Y-79426354D01*
X112650518Y-79426000D01*
X111756000Y-79426000D01*
X111756000Y-80534316D01*
X111727181Y-80516791D01*
X111581596Y-80476000D01*
X111468378Y-80476000D01*
X111356217Y-80491416D01*
X111256000Y-80534946D01*
X111256000Y-79426000D01*
X110361482Y-79426000D01*
X110354867Y-79426354D01*
X110298628Y-79432400D01*
X110163910Y-79482647D01*
X110048811Y-79568811D01*
X109962647Y-79683910D01*
X109912400Y-79818628D01*
X109906354Y-79874867D01*
X109906000Y-79881481D01*
X109906000Y-80776000D01*
X111011148Y-80776000D01*
X110962441Y-80913047D01*
X110952123Y-81063886D01*
X110982884Y-81211915D01*
X111016090Y-81276000D01*
X109906000Y-81276000D01*
X109906000Y-82170518D01*
X105621664Y-82170518D01*
X105624500Y-82124842D01*
X105624500Y-81959158D01*
X105618081Y-81855763D01*
X105567050Y-81612386D01*
X105476656Y-81380727D01*
X105417479Y-81281415D01*
X105349365Y-81167103D01*
X105188650Y-80977349D01*
X104998896Y-80816634D01*
X104785272Y-80689343D01*
X104553616Y-80598950D01*
X104310237Y-80547919D01*
X104208766Y-80541619D01*
X104208751Y-80541618D01*
X104206842Y-80541500D01*
X102041158Y-80541500D01*
X102039249Y-80541618D01*
X102039233Y-80541619D01*
X101937762Y-80547919D01*
X101694383Y-80598950D01*
X101462727Y-80689343D01*
X101249103Y-80816634D01*
X101059349Y-80977349D01*
X100898634Y-81167103D01*
X100771343Y-81380727D01*
X100680950Y-81612383D01*
X100629919Y-81855762D01*
X100623619Y-81957233D01*
X100623618Y-81957249D01*
X100623500Y-81959158D01*
X100623500Y-82124842D01*
X92100900Y-82124842D01*
X92100900Y-78674842D01*
X98623500Y-78674842D01*
X98623618Y-78676751D01*
X98623619Y-78676766D01*
X98629919Y-78778237D01*
X98680950Y-79021616D01*
X98771343Y-79253272D01*
X98898634Y-79466896D01*
X99059349Y-79656650D01*
X99249103Y-79817365D01*
X99345605Y-79874867D01*
X99462727Y-79944656D01*
X99694386Y-80035050D01*
X99937763Y-80086081D01*
X100041158Y-80092500D01*
X100043092Y-80092500D01*
X100204908Y-80092500D01*
X100206842Y-80092500D01*
X100310237Y-80086081D01*
X100553614Y-80035050D01*
X100785273Y-79944656D01*
X100998894Y-79817366D01*
X100998893Y-79817366D01*
X100998896Y-79817365D01*
X101188650Y-79656650D01*
X101349365Y-79466896D01*
X101380353Y-79414890D01*
X101476656Y-79253273D01*
X101567050Y-79021614D01*
X101618081Y-78778237D01*
X101624500Y-78674842D01*
X101624500Y-76009158D01*
X101618081Y-75905763D01*
X101567050Y-75662386D01*
X101476656Y-75430727D01*
X101349365Y-75217103D01*
X101188650Y-75027349D01*
X100998896Y-74866634D01*
X100785272Y-74739343D01*
X100553616Y-74648950D01*
X100310237Y-74597919D01*
X100208766Y-74591619D01*
X100208751Y-74591618D01*
X100206842Y-74591500D01*
X100041158Y-74591500D01*
X100039249Y-74591618D01*
X100039233Y-74591619D01*
X99937762Y-74597919D01*
X99694383Y-74648950D01*
X99462727Y-74739343D01*
X99249103Y-74866634D01*
X99059349Y-75027349D01*
X98898634Y-75217103D01*
X98771343Y-75430727D01*
X98680950Y-75662383D01*
X98629919Y-75905762D01*
X98623619Y-76007233D01*
X98623618Y-76007249D01*
X98623500Y-76009158D01*
X98623500Y-78674842D01*
X92100900Y-78674842D01*
X92100900Y-68204578D01*
X104059500Y-68204578D01*
X104059501Y-68207872D01*
X104059853Y-68211152D01*
X104059854Y-68211159D01*
X104065401Y-68262757D01*
X104065909Y-68267483D01*
X104116204Y-68402331D01*
X104202454Y-68517546D01*
X104317669Y-68603796D01*
X104452517Y-68654091D01*
X104512127Y-68660500D01*
X106307872Y-68660499D01*
X106367483Y-68654091D01*
X106502331Y-68603796D01*
X106617546Y-68517546D01*
X106703796Y-68402331D01*
X106703796Y-68402328D01*
X106714480Y-68388058D01*
X106716079Y-68389255D01*
X106743187Y-68353041D01*
X106808651Y-68328622D01*
X106876924Y-68343472D01*
X106926331Y-68392876D01*
X106941500Y-68452306D01*
X106941500Y-69429738D01*
X106941498Y-69429762D01*
X106941499Y-69530317D01*
X106941234Y-69538426D01*
X106928404Y-69734215D01*
X106926287Y-69750297D01*
X106888804Y-69938747D01*
X106884607Y-69954408D01*
X106822847Y-70136349D01*
X106816643Y-70151327D01*
X106731660Y-70323657D01*
X106723550Y-70337704D01*
X106616808Y-70497456D01*
X106606934Y-70510325D01*
X106477788Y-70657587D01*
X106472241Y-70663509D01*
X106333496Y-70802253D01*
X106333473Y-70802277D01*
X106331587Y-70804164D01*
X106329868Y-70806211D01*
X106329863Y-70806218D01*
X106072804Y-71112569D01*
X106072796Y-71112578D01*
X106071077Y-71114628D01*
X106069540Y-71116821D01*
X106069530Y-71116836D01*
X105840164Y-71444407D01*
X105840156Y-71444418D01*
X105838618Y-71446616D01*
X105837284Y-71448925D01*
X105837269Y-71448950D01*
X105637334Y-71795251D01*
X105637327Y-71795264D01*
X105635978Y-71797601D01*
X105634834Y-71800052D01*
X105634832Y-71800058D01*
X105465839Y-72162465D01*
X105465834Y-72162476D01*
X105464699Y-72164911D01*
X105463783Y-72167427D01*
X105463775Y-72167447D01*
X105327013Y-72543203D01*
X105327008Y-72543218D01*
X105326086Y-72545752D01*
X105325387Y-72548359D01*
X105325384Y-72548370D01*
X105221890Y-72934620D01*
X105221886Y-72934635D01*
X105221193Y-72937224D01*
X105220726Y-72939869D01*
X105220724Y-72939881D01*
X105151289Y-73333680D01*
X105151287Y-73333693D01*
X105150819Y-73336349D01*
X105150584Y-73339025D01*
X105150582Y-73339047D01*
X105122754Y-73657148D01*
X105115498Y-73740089D01*
X105115498Y-73742796D01*
X105115498Y-73742797D01*
X105115500Y-73893176D01*
X105115499Y-74475883D01*
X105095814Y-74542923D01*
X105043010Y-74588677D01*
X105030933Y-74591991D01*
X105031110Y-74592466D01*
X104881669Y-74648204D01*
X104766454Y-74734454D01*
X104680204Y-74849668D01*
X104629909Y-74984516D01*
X104629139Y-74991683D01*
X104623500Y-75044127D01*
X104623500Y-75047448D01*
X104623500Y-75047449D01*
X104623500Y-79636560D01*
X104623500Y-79636578D01*
X104623501Y-79639872D01*
X104623853Y-79643152D01*
X104623854Y-79643159D01*
X104628235Y-79683910D01*
X104629909Y-79699483D01*
X104680204Y-79834331D01*
X104766454Y-79949546D01*
X104881669Y-80035796D01*
X105016517Y-80086091D01*
X105076127Y-80092500D01*
X107171872Y-80092499D01*
X107231483Y-80086091D01*
X107366331Y-80035796D01*
X107481546Y-79949546D01*
X107567796Y-79834331D01*
X107618091Y-79699483D01*
X107624500Y-79639873D01*
X107624499Y-75044128D01*
X107618091Y-74984517D01*
X107567796Y-74849669D01*
X107481546Y-74734454D01*
X107366331Y-74648204D01*
X107231483Y-74597909D01*
X107216890Y-74592466D01*
X107218249Y-74588820D01*
X107178678Y-74572422D01*
X107138839Y-74515023D01*
X107132500Y-74475883D01*
X107132500Y-74036173D01*
X107132501Y-74036168D01*
X107132500Y-73946194D01*
X107132695Y-73939243D01*
X107143878Y-73740089D01*
X107148609Y-73655836D01*
X107150163Y-73642042D01*
X107197126Y-73365634D01*
X107200219Y-73352082D01*
X107203975Y-73339047D01*
X107277832Y-73082674D01*
X107282424Y-73069554D01*
X107336136Y-72939881D01*
X107389709Y-72810542D01*
X107395740Y-72798018D01*
X107462546Y-72677141D01*
X107531358Y-72552634D01*
X107538753Y-72540866D01*
X107700999Y-72312201D01*
X107709640Y-72301364D01*
X107898542Y-72089982D01*
X107903279Y-72084972D01*
X108026536Y-71961717D01*
X108251561Y-71687521D01*
X108448627Y-71392590D01*
X108615836Y-71079762D01*
X108751576Y-70752051D01*
X108854540Y-70412613D01*
X108923738Y-70064717D01*
X108958502Y-69711714D01*
X108958500Y-69534358D01*
X108958500Y-69498217D01*
X108958500Y-68262757D01*
X108978185Y-68195718D01*
X108982457Y-68190417D01*
X108982272Y-68190288D01*
X108988495Y-68181401D01*
X109118426Y-67995839D01*
X109173002Y-67952216D01*
X109242500Y-67945022D01*
X109304855Y-67976545D01*
X109321571Y-67995837D01*
X109451505Y-68181401D01*
X109457728Y-68190288D01*
X109454659Y-68192436D01*
X109478666Y-68236400D01*
X109481500Y-68262757D01*
X109481500Y-69286337D01*
X109481501Y-69286356D01*
X109481503Y-69286421D01*
X109481503Y-69355664D01*
X109481503Y-69359720D01*
X109482031Y-69363735D01*
X109482032Y-69363741D01*
X109513064Y-69599467D01*
X109513595Y-69603499D01*
X109577232Y-69841004D01*
X109578781Y-69844746D01*
X109578784Y-69844752D01*
X109635952Y-69982770D01*
X109671326Y-70068171D01*
X109794267Y-70281112D01*
X109796729Y-70284320D01*
X109796732Y-70284325D01*
X109810415Y-70302157D01*
X109821531Y-70323274D01*
X109822920Y-70322567D01*
X109915468Y-70504215D01*
X109916937Y-70507097D01*
X109936137Y-70533526D01*
X109964515Y-70572587D01*
X109973024Y-70586173D01*
X109982557Y-70597789D01*
X109987025Y-70603572D01*
X110032927Y-70666756D01*
X110067663Y-70701494D01*
X110067679Y-70701511D01*
X110067690Y-70701524D01*
X110067724Y-70701558D01*
X110102692Y-70736526D01*
X110177431Y-70811273D01*
X110177474Y-70811308D01*
X110179840Y-70813674D01*
X110186437Y-70820810D01*
X110286274Y-70937704D01*
X110297708Y-70953442D01*
X110375471Y-71080341D01*
X110384304Y-71097676D01*
X110441257Y-71235170D01*
X110447270Y-71253678D01*
X110482011Y-71398389D01*
X110485055Y-71417606D01*
X110497117Y-71570871D01*
X110497499Y-71580600D01*
X110497499Y-72105378D01*
X110477814Y-72172417D01*
X110454031Y-72199668D01*
X110370772Y-72270778D01*
X110207165Y-72462338D01*
X110075535Y-72677139D01*
X109979126Y-72909889D01*
X109920317Y-73154850D01*
X109900551Y-73405999D01*
X109920317Y-73657149D01*
X109979126Y-73902110D01*
X110027330Y-74018484D01*
X110075534Y-74134859D01*
X110207164Y-74349659D01*
X110370776Y-74541224D01*
X110562341Y-74704836D01*
X110777141Y-74836466D01*
X111009889Y-74932873D01*
X111254852Y-74991683D01*
X111506000Y-75011449D01*
X111757148Y-74991683D01*
X112002111Y-74932873D01*
X112234859Y-74836466D01*
X112449659Y-74704836D01*
X112641224Y-74541224D01*
X112804836Y-74349659D01*
X112936466Y-74134859D01*
X113032873Y-73902111D01*
X113091683Y-73657148D01*
X113111449Y-73406000D01*
X113091683Y-73154852D01*
X113032873Y-72909889D01*
X112936466Y-72677141D01*
X112804836Y-72462341D01*
X112641224Y-72270776D01*
X112557968Y-72199668D01*
X112519775Y-72141160D01*
X112514500Y-72105378D01*
X112514500Y-71526199D01*
X112514500Y-71526157D01*
X112514498Y-71526143D01*
X112514498Y-71526114D01*
X112514498Y-71426963D01*
X112514498Y-71423914D01*
X112484742Y-71121791D01*
X112425516Y-70824039D01*
X112337390Y-70533526D01*
X112221214Y-70253050D01*
X112078105Y-69985312D01*
X111909442Y-69732891D01*
X111716850Y-69498217D01*
X111690296Y-69471662D01*
X111662350Y-69428775D01*
X111650640Y-69398548D01*
X111650640Y-69398547D01*
X111642822Y-69385920D01*
X111634817Y-69370733D01*
X111631730Y-69363741D01*
X111628823Y-69357157D01*
X111590787Y-69301633D01*
X111587677Y-69296859D01*
X111581214Y-69286421D01*
X111552249Y-69239639D01*
X111542243Y-69228663D01*
X111531584Y-69215204D01*
X111520201Y-69198587D01*
X111498554Y-69132156D01*
X111498500Y-69128510D01*
X111498500Y-68262758D01*
X111518185Y-68195719D01*
X111522457Y-68190418D01*
X111522272Y-68190289D01*
X111566294Y-68127417D01*
X111664035Y-67987830D01*
X111763903Y-67773663D01*
X111825063Y-67545408D01*
X111845659Y-67310000D01*
X111825063Y-67074592D01*
X111763903Y-66846337D01*
X111664035Y-66632171D01*
X111528495Y-66438599D01*
X111361401Y-66271505D01*
X111167830Y-66135965D01*
X110953663Y-66036097D01*
X110892502Y-66019709D01*
X110725407Y-65974936D01*
X110489999Y-65954340D01*
X110254592Y-65974936D01*
X110026336Y-66036097D01*
X109812170Y-66135965D01*
X109618598Y-66271505D01*
X109451505Y-66438598D01*
X109321575Y-66624159D01*
X109266998Y-66667784D01*
X109197500Y-66674978D01*
X109135145Y-66643455D01*
X109118425Y-66624159D01*
X109031838Y-66500500D01*
X108988495Y-66438599D01*
X108821401Y-66271505D01*
X108627830Y-66135965D01*
X108413663Y-66036097D01*
X108352501Y-66019709D01*
X108185407Y-65974936D01*
X107949999Y-65954340D01*
X107714592Y-65974936D01*
X107486336Y-66036097D01*
X107272170Y-66135965D01*
X107078601Y-66271503D01*
X106956673Y-66393431D01*
X106895350Y-66426915D01*
X106825658Y-66421931D01*
X106769725Y-66380059D01*
X106752810Y-66349082D01*
X106745658Y-66329907D01*
X106703796Y-66217669D01*
X106617546Y-66102454D01*
X106502331Y-66016204D01*
X106367483Y-65965909D01*
X106307873Y-65959500D01*
X106304550Y-65959500D01*
X104515439Y-65959500D01*
X104515420Y-65959500D01*
X104512128Y-65959501D01*
X104508848Y-65959853D01*
X104508840Y-65959854D01*
X104452515Y-65965909D01*
X104317669Y-66016204D01*
X104202454Y-66102454D01*
X104116204Y-66217668D01*
X104100499Y-66259777D01*
X104065909Y-66352517D01*
X104059500Y-66412127D01*
X104059500Y-66415448D01*
X104059500Y-66415449D01*
X104059500Y-68204560D01*
X104059500Y-68204578D01*
X92100900Y-68204578D01*
X92100900Y-63500000D01*
X92904815Y-63500000D01*
X92925138Y-63848927D01*
X92925764Y-63852481D01*
X92925766Y-63852492D01*
X92985203Y-64189578D01*
X92985205Y-64189588D01*
X92985831Y-64193136D01*
X93086074Y-64527971D01*
X93087499Y-64531274D01*
X93223082Y-64845593D01*
X93223087Y-64845603D01*
X93224511Y-64848904D01*
X93226313Y-64852026D01*
X93226315Y-64852029D01*
X93397461Y-65148464D01*
X93397467Y-65148473D01*
X93399270Y-65151596D01*
X93401429Y-65154496D01*
X93605835Y-65429062D01*
X93605841Y-65429069D01*
X93607988Y-65431953D01*
X93847842Y-65686183D01*
X94115589Y-65910849D01*
X94213028Y-65974936D01*
X94306018Y-66036097D01*
X94407607Y-66102913D01*
X94719949Y-66259777D01*
X95048389Y-66379319D01*
X95107933Y-66393431D01*
X95384979Y-66459092D01*
X95384981Y-66459092D01*
X95388486Y-66459923D01*
X95735641Y-66500500D01*
X95739239Y-66500500D01*
X96081561Y-66500500D01*
X96085159Y-66500500D01*
X96432314Y-66459923D01*
X96772411Y-66379319D01*
X97100851Y-66259777D01*
X97413193Y-66102913D01*
X97705211Y-65910849D01*
X97972958Y-65686183D01*
X98212812Y-65431953D01*
X98421530Y-65151596D01*
X98596289Y-64848904D01*
X98734726Y-64527971D01*
X98834969Y-64193136D01*
X98895662Y-63848927D01*
X98915985Y-63500000D01*
X98895662Y-63151073D01*
X98834969Y-62806864D01*
X98734726Y-62472029D01*
X98596289Y-62151096D01*
X98421530Y-61848404D01*
X98212812Y-61568047D01*
X97972958Y-61313817D01*
X97970200Y-61311503D01*
X97970195Y-61311498D01*
X97707970Y-61091466D01*
X97707969Y-61091465D01*
X97705211Y-61089151D01*
X97702193Y-61087166D01*
X97416212Y-60899072D01*
X97416204Y-60899067D01*
X97413193Y-60897087D01*
X97339365Y-60860009D01*
X97104088Y-60741848D01*
X97104078Y-60741843D01*
X97100851Y-60740223D01*
X96895798Y-60665590D01*
X96775800Y-60621914D01*
X96775792Y-60621911D01*
X96772411Y-60620681D01*
X96768912Y-60619851D01*
X96768903Y-60619849D01*
X96435820Y-60540907D01*
X96435804Y-60540904D01*
X96432314Y-60540077D01*
X96428749Y-60539660D01*
X96428736Y-60539658D01*
X96088729Y-60499917D01*
X96088724Y-60499916D01*
X96085159Y-60499500D01*
X95735641Y-60499500D01*
X95732076Y-60499916D01*
X95732070Y-60499917D01*
X95392063Y-60539658D01*
X95392047Y-60539660D01*
X95388486Y-60540077D01*
X95384998Y-60540903D01*
X95384979Y-60540907D01*
X95051896Y-60619849D01*
X95051882Y-60619852D01*
X95048389Y-60620681D01*
X95045012Y-60621910D01*
X95044999Y-60621914D01*
X94723350Y-60738985D01*
X94719949Y-60740223D01*
X94716727Y-60741840D01*
X94716711Y-60741848D01*
X94410836Y-60895465D01*
X94410831Y-60895467D01*
X94407607Y-60897087D01*
X94404603Y-60899062D01*
X94404587Y-60899072D01*
X94118606Y-61087166D01*
X94118598Y-61087171D01*
X94115589Y-61089151D01*
X94112838Y-61091458D01*
X94112829Y-61091466D01*
X93850604Y-61311498D01*
X93850590Y-61311510D01*
X93847842Y-61313817D01*
X93845367Y-61316439D01*
X93845362Y-61316445D01*
X93610462Y-61565424D01*
X93610456Y-61565430D01*
X93607988Y-61568047D01*
X93605848Y-61570921D01*
X93605835Y-61570937D01*
X93401429Y-61845503D01*
X93401423Y-61845511D01*
X93399270Y-61848404D01*
X93397471Y-61851518D01*
X93397461Y-61851535D01*
X93226315Y-62147970D01*
X93226309Y-62147980D01*
X93224511Y-62151096D01*
X93223090Y-62154389D01*
X93223082Y-62154406D01*
X93087499Y-62468725D01*
X93086074Y-62472029D01*
X93085045Y-62475464D01*
X93085042Y-62475474D01*
X92986865Y-62803408D01*
X92986862Y-62803418D01*
X92985831Y-62806864D01*
X92985206Y-62810407D01*
X92985203Y-62810421D01*
X92925766Y-63147507D01*
X92925764Y-63147520D01*
X92925138Y-63151073D01*
X92924928Y-63154678D01*
X92924927Y-63154687D01*
X92905025Y-63496394D01*
X92904815Y-63500000D01*
X92100900Y-63500000D01*
X92100900Y-60964873D01*
X92101282Y-60955145D01*
X92105379Y-60903078D01*
X92117686Y-60762412D01*
X92120638Y-60744293D01*
X92121225Y-60741848D01*
X92139558Y-60665486D01*
X92140301Y-60662558D01*
X92168533Y-60557196D01*
X92173743Y-60541848D01*
X92174477Y-60540077D01*
X92207037Y-60461469D01*
X92209154Y-60456656D01*
X92252736Y-60363196D01*
X92259354Y-60350878D01*
X92305972Y-60274806D01*
X92310073Y-60268552D01*
X92368008Y-60185812D01*
X92375243Y-60176468D01*
X92433723Y-60107996D01*
X92440283Y-60100900D01*
X92511300Y-60029883D01*
X92518396Y-60023323D01*
X92586868Y-59964843D01*
X92596212Y-59957608D01*
X92678952Y-59899673D01*
X92685206Y-59895572D01*
X92761278Y-59848954D01*
X92773596Y-59842336D01*
X92867056Y-59798754D01*
X92871869Y-59796637D01*
X92952253Y-59763341D01*
X92967596Y-59758133D01*
X93072959Y-59729901D01*
X93075869Y-59729162D01*
X93154705Y-59710235D01*
X93172816Y-59707286D01*
X93313478Y-59694979D01*
X93365567Y-59690880D01*
X93375268Y-59690500D01*
X114074844Y-59690500D01*
X114141883Y-59710185D01*
G37*
%TD.AperFunction*%
%TD*%
M02*
