%TF.GenerationSoftware,KiCad,Pcbnew,7.0.2*%
%TF.CreationDate,2023-05-19T13:56:57-04:00*%
%TF.ProjectId,breadboard_psu,62726561-6462-46f6-9172-645f7073752e,A*%
%TF.SameCoordinates,Original*%
%TF.FileFunction,Profile,NP*%
%FSLAX46Y46*%
G04 Gerber Fmt 4.6, Leading zero omitted, Abs format (unit mm)*
G04 Created by KiCad (PCBNEW 7.0.2) date 2023-05-19 13:56:57*
%MOMM*%
%LPD*%
G01*
G04 APERTURE LIST*
%TA.AperFunction,Profile*%
%ADD10C,0.200000*%
%TD*%
G04 APERTURE END LIST*
D10*
X150520400Y-115062000D02*
G75*
G03*
X149250400Y-113792000I-1270000J0D01*
G01*
X93370400Y-59690000D02*
X135788400Y-59690000D01*
X137058400Y-67818000D02*
G75*
G03*
X138328400Y-69088000I1270000J0D01*
G01*
X92100400Y-60960000D02*
X92100400Y-129540000D01*
X150520400Y-120142000D02*
X150520400Y-115062000D01*
X149250400Y-121412000D02*
G75*
G03*
X150520400Y-120142000I0J1270000D01*
G01*
X137058400Y-77978000D02*
X137058400Y-112522000D01*
X93370400Y-59690000D02*
G75*
G03*
X92100400Y-60960000I0J-1270000D01*
G01*
X135788400Y-130810000D02*
G75*
G03*
X137058400Y-129540000I0J1270000D01*
G01*
X137058400Y-122682000D02*
X137058400Y-129540000D01*
X135788400Y-130810000D02*
X93370400Y-130810000D01*
X149250400Y-76708000D02*
G75*
G03*
X150520400Y-75438000I0J1270000D01*
G01*
X137058400Y-112522000D02*
G75*
G03*
X138328400Y-113792000I1270000J0D01*
G01*
X144780000Y-123444000D02*
X144780000Y-123444000D01*
X137058400Y-60960000D02*
X137058400Y-67818000D01*
X138328400Y-121412000D02*
X149250400Y-121412000D01*
X138328400Y-121412000D02*
G75*
G03*
X137058400Y-122682000I0J-1270000D01*
G01*
X138328400Y-69088000D02*
X149250400Y-69088000D01*
X150520400Y-75438000D02*
X150520400Y-70358000D01*
X150520400Y-70358000D02*
G75*
G03*
X149250400Y-69088000I-1270000J0D01*
G01*
X92100400Y-129540000D02*
G75*
G03*
X93370400Y-130810000I1270000J0D01*
G01*
X138328400Y-113792000D02*
X149250400Y-113792000D01*
X137058400Y-60960000D02*
G75*
G03*
X135788400Y-59690000I-1270000J0D01*
G01*
X138328400Y-76708000D02*
X149250400Y-76708000D01*
X138328400Y-76708000D02*
G75*
G03*
X137058400Y-77978000I0J-1270000D01*
G01*
M02*
