%TF.GenerationSoftware,KiCad,Pcbnew,7.0.2*%
%TF.CreationDate,2023-05-16T16:52:15-04:00*%
%TF.ProjectId,breadboard_psu,62726561-6462-46f6-9172-645f7073752e,A*%
%TF.SameCoordinates,Original*%
%TF.FileFunction,Soldermask,Top*%
%TF.FilePolarity,Negative*%
%FSLAX46Y46*%
G04 Gerber Fmt 4.6, Leading zero omitted, Abs format (unit mm)*
G04 Created by KiCad (PCBNEW 7.0.2) date 2023-05-16 16:52:15*
%MOMM*%
%LPD*%
G01*
G04 APERTURE LIST*
G04 Aperture macros list*
%AMRoundRect*
0 Rectangle with rounded corners*
0 $1 Rounding radius*
0 $2 $3 $4 $5 $6 $7 $8 $9 X,Y pos of 4 corners*
0 Add a 4 corners polygon primitive as box body*
4,1,4,$2,$3,$4,$5,$6,$7,$8,$9,$2,$3,0*
0 Add four circle primitives for the rounded corners*
1,1,$1+$1,$2,$3*
1,1,$1+$1,$4,$5*
1,1,$1+$1,$6,$7*
1,1,$1+$1,$8,$9*
0 Add four rect primitives between the rounded corners*
20,1,$1+$1,$2,$3,$4,$5,0*
20,1,$1+$1,$4,$5,$6,$7,0*
20,1,$1+$1,$6,$7,$8,$9,0*
20,1,$1+$1,$8,$9,$2,$3,0*%
G04 Aperture macros list end*
%ADD10C,0.200000*%
%ADD11C,0.050800*%
%ADD12R,1.700000X1.700000*%
%ADD13O,1.700000X1.700000*%
%ADD14C,2.900000*%
%ADD15C,5.000000*%
%ADD16R,2.000000X4.500000*%
%ADD17RoundRect,1.000000X0.000000X-1.250000X0.000000X-1.250000X0.000000X1.250000X0.000000X1.250000X0*%
%ADD18RoundRect,1.000000X-1.000000X0.000000X1.000000X0.000000X1.000000X0.000000X-1.000000X0.000000X0*%
%ADD19C,5.500000*%
%ADD20C,1.600000*%
%ADD21O,1.600000X1.600000*%
G04 APERTURE END LIST*
D10*
X107290000Y-119360000D02*
X107493200Y-119588600D01*
X107772600Y-119842600D01*
X107798000Y-120604600D01*
X112116000Y-120604600D01*
X112116000Y-121366600D01*
X107798000Y-121366600D01*
X107798000Y-123017600D01*
X107036000Y-123017600D01*
X107036000Y-119131400D01*
X107163000Y-119131400D01*
X107290000Y-119360000D01*
X107899600Y-114635600D02*
X109296600Y-114635600D01*
X109296600Y-112146400D01*
X110033200Y-112146400D01*
X110033200Y-114635600D01*
X111531800Y-114635600D01*
X111531800Y-112019400D01*
X112243000Y-112019400D01*
X112243000Y-115448400D01*
X107137600Y-115448400D01*
X107163000Y-112019400D01*
X107899600Y-112019400D01*
X107899600Y-114635600D01*
D11*
X108737800Y-116388200D02*
X108610800Y-116464400D01*
X108331400Y-116591400D01*
X108026600Y-116896200D01*
X107848800Y-117302600D01*
X107798000Y-117734400D01*
X107823400Y-118140800D01*
X108001200Y-118623400D01*
X108356800Y-119029800D01*
X108763200Y-119258400D01*
X109118800Y-119360000D01*
X109499800Y-119410800D01*
X109931600Y-119410800D01*
X110388800Y-119360000D01*
X110769800Y-119233000D01*
X111150800Y-118953600D01*
X111354000Y-118674200D01*
X111531800Y-118344000D01*
X111608000Y-117836000D01*
X111531800Y-117251800D01*
X111303200Y-116870800D01*
X110998400Y-116642200D01*
X110744400Y-116515200D01*
X110414200Y-116489800D01*
X110261800Y-116489800D01*
X110261800Y-117963000D01*
X110160200Y-118039200D01*
X109626800Y-118039200D01*
X109525200Y-117937600D01*
X109525200Y-115778600D01*
X109601400Y-115702400D01*
X112141400Y-115702400D01*
X112243000Y-115778600D01*
X112243000Y-116235800D01*
X112166800Y-116312000D01*
X111735000Y-116388200D01*
X111989000Y-116667600D01*
X112192200Y-117099400D01*
X112319200Y-117582000D01*
X112319200Y-118090000D01*
X112217600Y-118598000D01*
X112039800Y-119080600D01*
X111760400Y-119410800D01*
X111379400Y-119741000D01*
X110973000Y-119969600D01*
X110541200Y-120147400D01*
X109906200Y-120198200D01*
X109398200Y-120198200D01*
X108890200Y-120122000D01*
X108382200Y-119944200D01*
X107899600Y-119664800D01*
X107467800Y-119207600D01*
X107188400Y-118623400D01*
X107086800Y-117988400D01*
X107112200Y-117404200D01*
X107213800Y-116921600D01*
X107391600Y-116515200D01*
X107696400Y-116134200D01*
X108026600Y-115905600D01*
X108382200Y-115753200D01*
X108636200Y-115677000D01*
X108737800Y-115677000D01*
X108737800Y-116388200D01*
G36*
X108737800Y-116388200D02*
G01*
X108610800Y-116464400D01*
X108331400Y-116591400D01*
X108026600Y-116896200D01*
X107848800Y-117302600D01*
X107798000Y-117734400D01*
X107823400Y-118140800D01*
X108001200Y-118623400D01*
X108356800Y-119029800D01*
X108763200Y-119258400D01*
X109118800Y-119360000D01*
X109499800Y-119410800D01*
X109931600Y-119410800D01*
X110388800Y-119360000D01*
X110769800Y-119233000D01*
X111150800Y-118953600D01*
X111354000Y-118674200D01*
X111531800Y-118344000D01*
X111608000Y-117836000D01*
X111531800Y-117251800D01*
X111303200Y-116870800D01*
X110998400Y-116642200D01*
X110744400Y-116515200D01*
X110414200Y-116489800D01*
X110261800Y-116489800D01*
X110261800Y-117963000D01*
X110160200Y-118039200D01*
X109626800Y-118039200D01*
X109525200Y-117937600D01*
X109525200Y-115778600D01*
X109601400Y-115702400D01*
X112141400Y-115702400D01*
X112243000Y-115778600D01*
X112243000Y-116235800D01*
X112166800Y-116312000D01*
X111735000Y-116388200D01*
X111989000Y-116667600D01*
X112192200Y-117099400D01*
X112319200Y-117582000D01*
X112319200Y-118090000D01*
X112217600Y-118598000D01*
X112039800Y-119080600D01*
X111760400Y-119410800D01*
X111379400Y-119741000D01*
X110973000Y-119969600D01*
X110541200Y-120147400D01*
X109906200Y-120198200D01*
X109398200Y-120198200D01*
X108890200Y-120122000D01*
X108382200Y-119944200D01*
X107899600Y-119664800D01*
X107467800Y-119207600D01*
X107188400Y-118623400D01*
X107086800Y-117988400D01*
X107112200Y-117404200D01*
X107213800Y-116921600D01*
X107391600Y-116515200D01*
X107696400Y-116134200D01*
X108026600Y-115905600D01*
X108382200Y-115753200D01*
X108636200Y-115677000D01*
X108737800Y-115677000D01*
X108737800Y-116388200D01*
G37*
D12*
%TO.C,J3*%
X144678400Y-116586000D03*
D13*
X142138400Y-116586000D03*
X144678400Y-119126000D03*
X142138400Y-119126000D03*
%TD*%
D12*
%TO.C,J2*%
X144678400Y-70866000D03*
D13*
X142138400Y-70866000D03*
X144678400Y-73406000D03*
X142138400Y-73406000D03*
%TD*%
D12*
%TO.C,D2*%
X132553400Y-105918000D03*
D13*
X130013400Y-105918000D03*
%TD*%
D14*
%TO.C,H4*%
X132334000Y-126492000D03*
D15*
X132334000Y-126492000D03*
%TD*%
D16*
%TO.C,J1*%
X106124000Y-77342000D03*
D17*
X100124000Y-77342000D03*
D18*
X103124000Y-82042000D03*
%TD*%
D13*
%TO.C,U1*%
X131382000Y-91694000D03*
X114722000Y-89154000D03*
X114722000Y-91694000D03*
X114722000Y-94234000D03*
D19*
X131486000Y-91694000D03*
%TD*%
D13*
%TO.C,H1*%
X95885000Y-63500000D03*
D15*
X95885000Y-63500000D03*
%TD*%
D20*
%TO.C,R1*%
X115824000Y-105918000D03*
D21*
X125984000Y-105918000D03*
%TD*%
D13*
%TO.C,R4*%
X118110000Y-72136000D03*
X118110000Y-82296000D03*
%TD*%
%TO.C,H3*%
X132334000Y-63500000D03*
D15*
X132334000Y-63500000D03*
%TD*%
D12*
%TO.C,SW2*%
X125730000Y-67310000D03*
D13*
X123190000Y-67310000D03*
X120650000Y-67310000D03*
%TD*%
D12*
%TO.C,D1*%
X111506000Y-82804000D03*
D13*
X111506000Y-72644000D03*
%TD*%
D12*
%TO.C,C1*%
X115759113Y-99822000D03*
D13*
X113259113Y-99822000D03*
%TD*%
%TO.C,R3*%
X123190000Y-82296000D03*
X123190000Y-72136000D03*
%TD*%
%TO.C,R2*%
X128270000Y-72136000D03*
X128270000Y-82296000D03*
%TD*%
D14*
%TO.C,H2*%
X95885000Y-126492000D03*
D15*
X95885000Y-126492000D03*
%TD*%
D13*
%TO.C,C2*%
X119054113Y-99822000D03*
X126554113Y-99822000D03*
%TD*%
D12*
%TO.C,J5*%
X104292400Y-116332000D03*
D13*
X104292400Y-118872000D03*
%TD*%
D12*
%TO.C,SW1*%
X105410000Y-67310000D03*
D13*
X107950000Y-67310000D03*
X110490000Y-67310000D03*
%TD*%
%TO.C,J4*%
X118110000Y-118872000D03*
X118110000Y-116332000D03*
X120650000Y-118872000D03*
X120650000Y-116332000D03*
X123190000Y-118872000D03*
X123190000Y-116332000D03*
X125730000Y-118872000D03*
D12*
X125730000Y-116332000D03*
%TD*%
%TO.C,C3*%
X109220000Y-94146380D03*
D13*
X109220000Y-91646380D03*
%TD*%
M02*
