%TF.GenerationSoftware,KiCad,Pcbnew,7.0.2*%
%TF.CreationDate,2023-05-18T12:22:54-04:00*%
%TF.ProjectId,breadboard_psu,62726561-6462-46f6-9172-645f7073752e,A*%
%TF.SameCoordinates,Original*%
%TF.FileFunction,Soldermask,Bot*%
%TF.FilePolarity,Negative*%
%FSLAX46Y46*%
G04 Gerber Fmt 4.6, Leading zero omitted, Abs format (unit mm)*
G04 Created by KiCad (PCBNEW 7.0.2) date 2023-05-18 12:22:54*
%MOMM*%
%LPD*%
G01*
G04 APERTURE LIST*
G04 Aperture macros list*
%AMRoundRect*
0 Rectangle with rounded corners*
0 $1 Rounding radius*
0 $2 $3 $4 $5 $6 $7 $8 $9 X,Y pos of 4 corners*
0 Add a 4 corners polygon primitive as box body*
4,1,4,$2,$3,$4,$5,$6,$7,$8,$9,$2,$3,0*
0 Add four circle primitives for the rounded corners*
1,1,$1+$1,$2,$3*
1,1,$1+$1,$4,$5*
1,1,$1+$1,$6,$7*
1,1,$1+$1,$8,$9*
0 Add four rect primitives between the rounded corners*
20,1,$1+$1,$2,$3,$4,$5,0*
20,1,$1+$1,$4,$5,$6,$7,0*
20,1,$1+$1,$6,$7,$8,$9,0*
20,1,$1+$1,$8,$9,$2,$3,0*%
G04 Aperture macros list end*
%ADD10C,2.900000*%
%ADD11C,5.000000*%
%ADD12R,2.000000X4.500000*%
%ADD13RoundRect,1.000000X0.000000X-1.250000X0.000000X-1.250000X0.000000X1.250000X0.000000X1.250000X0*%
%ADD14RoundRect,1.000000X-1.000000X0.000000X1.000000X0.000000X1.000000X0.000000X-1.000000X0.000000X0*%
%ADD15O,3.500000X3.500000*%
%ADD16C,1.905000*%
%ADD17O,2.000000X1.905000*%
%ADD18C,5.500000*%
%ADD19C,1.600000*%
%ADD20O,1.600000X1.600000*%
%ADD21R,1.700000X1.700000*%
%ADD22O,1.700000X1.700000*%
%ADD23R,2.200000X2.200000*%
%ADD24O,2.200000X2.200000*%
%ADD25R,1.600000X1.600000*%
%ADD26R,1.800000X1.800000*%
%ADD27C,1.800000*%
G04 APERTURE END LIST*
D10*
%TO.C,H4*%
X133248400Y-127000000D03*
D11*
X133248400Y-127000000D03*
%TD*%
D12*
%TO.C,J1*%
X106124000Y-77342000D03*
D13*
X100124000Y-77342000D03*
D14*
X103124000Y-82042000D03*
%TD*%
D15*
%TO.C,U1*%
X131382000Y-91694000D03*
D16*
X114722000Y-89154000D03*
D17*
X114722000Y-91694000D03*
X114722000Y-94234000D03*
D18*
X131486000Y-91694000D03*
%TD*%
D10*
%TO.C,H1*%
X95910400Y-63500000D03*
D11*
X95910400Y-63500000D03*
%TD*%
D19*
%TO.C,R1*%
X118008400Y-105918000D03*
D20*
X125628400Y-105918000D03*
%TD*%
D19*
%TO.C,R4*%
X118110000Y-73406000D03*
D20*
X118110000Y-81026000D03*
%TD*%
D10*
%TO.C,H3*%
X133248400Y-63500000D03*
D11*
X133248400Y-63500000D03*
%TD*%
D21*
%TO.C,SW2*%
X125730000Y-67310000D03*
D22*
X123190000Y-67310000D03*
X120650000Y-67310000D03*
%TD*%
D23*
%TO.C,D1*%
X111506000Y-81026000D03*
D24*
X111506000Y-73406000D03*
%TD*%
D25*
%TO.C,C1*%
X115956400Y-99822000D03*
D19*
X110956400Y-99822000D03*
%TD*%
%TO.C,R3*%
X123190000Y-81026000D03*
D20*
X123190000Y-73406000D03*
%TD*%
D19*
%TO.C,R2*%
X128270000Y-73406000D03*
D20*
X128270000Y-81026000D03*
%TD*%
D10*
%TO.C,H2*%
X95910400Y-127000000D03*
D11*
X95910400Y-127000000D03*
%TD*%
D19*
%TO.C,C2*%
X120120400Y-99822000D03*
X125120400Y-99822000D03*
%TD*%
D21*
%TO.C,J5*%
X111683400Y-116352000D03*
D22*
X111683400Y-118892000D03*
%TD*%
D26*
%TO.C,D2*%
X132553400Y-105918000D03*
D27*
X130013400Y-105918000D03*
%TD*%
D21*
%TO.C,SW1*%
X105410000Y-67310000D03*
D22*
X107950000Y-67310000D03*
X110490000Y-67310000D03*
%TD*%
D21*
%TO.C,J4*%
X125730000Y-116332000D03*
D22*
X125730000Y-118872000D03*
X123190000Y-116332000D03*
X123190000Y-118872000D03*
X120650000Y-116332000D03*
X120650000Y-118872000D03*
X118110000Y-116332000D03*
X118110000Y-118872000D03*
%TD*%
D25*
%TO.C,C3*%
X109220000Y-90082380D03*
D19*
X109220000Y-87582380D03*
%TD*%
D21*
%TO.C,J3*%
X147980400Y-116332000D03*
D22*
X145440400Y-116332000D03*
X147980400Y-118872000D03*
X145440400Y-118872000D03*
%TD*%
D21*
%TO.C,J2*%
X147980400Y-71628000D03*
D22*
X145440400Y-71628000D03*
X147980400Y-74168000D03*
X145440400Y-74168000D03*
%TD*%
M02*
