M48
; DRILL file {KiCad 7.0.2} date Tue May 16 16:52:28 2023
; FORMAT={-:-/ absolute / inch / decimal}
; #@! TF.CreationDate,2023-05-16T16:52:28-04:00
; #@! TF.GenerationSoftware,Kicad,Pcbnew,7.0.2
; #@! TF.FileFunction,Plated,1,2,PTH
FMAT,2
INCH
; #@! TA.AperFunction,Plated,PTH,ComponentDrill
T1C0.0360
%
G90
G05
T1
X3.775Y-2.5
X3.775Y-4.98
X3.9419Y-3.045
X4.06Y-3.23
X4.106Y-4.58
X4.106Y-4.68
X4.15Y-2.65
X4.1781Y-3.045
X4.25Y-2.65
X4.3Y-3.6081
X4.3Y-3.7066
X4.35Y-2.65
X4.39Y-2.86
X4.39Y-3.26
X4.459Y-3.93
X4.5166Y-3.51
X4.5166Y-3.61
X4.5166Y-3.71
X4.5574Y-3.93
X4.56Y-4.17
X4.65Y-2.84
X4.65Y-3.24
X4.65Y-4.58
X4.65Y-4.68
X4.6872Y-3.93
X4.75Y-2.65
X4.75Y-4.58
X4.75Y-4.68
X4.85Y-2.65
X4.85Y-2.84
X4.85Y-3.24
X4.85Y-4.58
X4.85Y-4.68
X4.95Y-2.65
X4.95Y-4.58
X4.95Y-4.68
X4.96Y-4.17
X4.9824Y-3.93
X5.05Y-2.84
X5.05Y-3.24
X5.1186Y-4.17
X5.1725Y-3.61
X5.1766Y-3.61
X5.21Y-2.5
X5.21Y-4.98
X5.2186Y-4.17
X5.596Y-2.79
X5.596Y-2.89
X5.596Y-4.59
X5.596Y-4.69
X5.696Y-2.79
X5.696Y-2.89
X5.696Y-4.59
X5.696Y-4.69
T0
M30
