%TF.GenerationSoftware,KiCad,Pcbnew,7.0.2*%
%TF.CreationDate,2023-05-16T16:52:15-04:00*%
%TF.ProjectId,breadboard_psu,62726561-6462-46f6-9172-645f7073752e,A*%
%TF.SameCoordinates,Original*%
%TF.FileFunction,Legend,Bot*%
%TF.FilePolarity,Positive*%
%FSLAX46Y46*%
G04 Gerber Fmt 4.6, Leading zero omitted, Abs format (unit mm)*
G04 Created by KiCad (PCBNEW 7.0.2) date 2023-05-16 16:52:15*
%MOMM*%
%LPD*%
G01*
G04 APERTURE LIST*
%ADD10C,0.300000*%
%ADD11C,0.200000*%
%ADD12C,0.150000*%
%ADD13C,0.120000*%
G04 APERTURE END LIST*
D10*
X92707185Y-116491430D02*
X92635757Y-116562858D01*
X92635757Y-116562858D02*
X92564328Y-116705716D01*
X92564328Y-116705716D02*
X92564328Y-117062858D01*
X92564328Y-117062858D02*
X92635757Y-117205716D01*
X92635757Y-117205716D02*
X92707185Y-117277144D01*
X92707185Y-117277144D02*
X92850042Y-117348573D01*
X92850042Y-117348573D02*
X92992900Y-117348573D01*
X92992900Y-117348573D02*
X93207185Y-117277144D01*
X93207185Y-117277144D02*
X94064328Y-116420001D01*
X94064328Y-116420001D02*
X94064328Y-117348573D01*
X92564328Y-118277144D02*
X92564328Y-118420001D01*
X92564328Y-118420001D02*
X92635757Y-118562858D01*
X92635757Y-118562858D02*
X92707185Y-118634287D01*
X92707185Y-118634287D02*
X92850042Y-118705715D01*
X92850042Y-118705715D02*
X93135757Y-118777144D01*
X93135757Y-118777144D02*
X93492900Y-118777144D01*
X93492900Y-118777144D02*
X93778614Y-118705715D01*
X93778614Y-118705715D02*
X93921471Y-118634287D01*
X93921471Y-118634287D02*
X93992900Y-118562858D01*
X93992900Y-118562858D02*
X94064328Y-118420001D01*
X94064328Y-118420001D02*
X94064328Y-118277144D01*
X94064328Y-118277144D02*
X93992900Y-118134287D01*
X93992900Y-118134287D02*
X93921471Y-118062858D01*
X93921471Y-118062858D02*
X93778614Y-117991429D01*
X93778614Y-117991429D02*
X93492900Y-117920001D01*
X93492900Y-117920001D02*
X93135757Y-117920001D01*
X93135757Y-117920001D02*
X92850042Y-117991429D01*
X92850042Y-117991429D02*
X92707185Y-118062858D01*
X92707185Y-118062858D02*
X92635757Y-118134287D01*
X92635757Y-118134287D02*
X92564328Y-118277144D01*
X92707185Y-119348572D02*
X92635757Y-119420000D01*
X92635757Y-119420000D02*
X92564328Y-119562858D01*
X92564328Y-119562858D02*
X92564328Y-119920000D01*
X92564328Y-119920000D02*
X92635757Y-120062858D01*
X92635757Y-120062858D02*
X92707185Y-120134286D01*
X92707185Y-120134286D02*
X92850042Y-120205715D01*
X92850042Y-120205715D02*
X92992900Y-120205715D01*
X92992900Y-120205715D02*
X93207185Y-120134286D01*
X93207185Y-120134286D02*
X94064328Y-119277143D01*
X94064328Y-119277143D02*
X94064328Y-120205715D01*
X92564328Y-120705714D02*
X92564328Y-121634286D01*
X92564328Y-121634286D02*
X93135757Y-121134286D01*
X93135757Y-121134286D02*
X93135757Y-121348571D01*
X93135757Y-121348571D02*
X93207185Y-121491429D01*
X93207185Y-121491429D02*
X93278614Y-121562857D01*
X93278614Y-121562857D02*
X93421471Y-121634286D01*
X93421471Y-121634286D02*
X93778614Y-121634286D01*
X93778614Y-121634286D02*
X93921471Y-121562857D01*
X93921471Y-121562857D02*
X93992900Y-121491429D01*
X93992900Y-121491429D02*
X94064328Y-121348571D01*
X94064328Y-121348571D02*
X94064328Y-120920000D01*
X94064328Y-120920000D02*
X93992900Y-120777143D01*
X93992900Y-120777143D02*
X93921471Y-120705714D01*
D11*
G36*
X98235860Y-75375042D02*
G01*
X98358054Y-75497235D01*
X98485382Y-75751890D01*
X98485382Y-76140108D01*
X98358054Y-76394764D01*
X98235861Y-76516957D01*
X97981205Y-76644285D01*
X97157560Y-76644285D01*
X96902903Y-76516957D01*
X96780710Y-76394764D01*
X96653382Y-76140108D01*
X96653382Y-75751892D01*
X96780710Y-75497235D01*
X96902903Y-75375042D01*
X97157561Y-75247714D01*
X97981205Y-75247714D01*
X98235860Y-75375042D01*
G37*
G36*
X99693829Y-83466115D02*
G01*
X94674971Y-83466115D01*
X94674971Y-82107136D01*
X96594568Y-82107136D01*
X96596974Y-82118198D01*
X96595364Y-82129403D01*
X96600066Y-82139700D01*
X96600874Y-82150993D01*
X96605434Y-82157085D01*
X96607052Y-82164519D01*
X96615055Y-82172522D01*
X96619759Y-82182822D01*
X96629282Y-82188942D01*
X96636067Y-82198005D01*
X96643197Y-82200664D01*
X96767896Y-82325363D01*
X96781210Y-82343148D01*
X96802022Y-82350910D01*
X96821514Y-82361554D01*
X96829102Y-82361011D01*
X96836233Y-82363671D01*
X96857936Y-82358949D01*
X96880090Y-82357365D01*
X96886182Y-82352804D01*
X96893616Y-82351187D01*
X96909317Y-82335485D01*
X96927102Y-82322172D01*
X96929761Y-82315041D01*
X97041472Y-82203330D01*
X97045158Y-82202248D01*
X97057345Y-82188182D01*
X97072245Y-82177029D01*
X97076201Y-82166421D01*
X97083615Y-82157866D01*
X97085226Y-82146659D01*
X97090651Y-82136725D01*
X97090108Y-82129136D01*
X97092768Y-82122006D01*
X97090361Y-82110943D01*
X97090908Y-82107136D01*
X98191140Y-82107136D01*
X98193546Y-82118198D01*
X98191936Y-82129403D01*
X98196638Y-82139700D01*
X98197446Y-82150993D01*
X98202006Y-82157085D01*
X98203624Y-82164519D01*
X98211627Y-82172522D01*
X98216331Y-82182822D01*
X98225854Y-82188942D01*
X98232639Y-82198005D01*
X98239769Y-82200664D01*
X98364467Y-82325362D01*
X98377782Y-82343148D01*
X98398594Y-82350910D01*
X98418086Y-82361554D01*
X98425674Y-82361011D01*
X98432805Y-82363671D01*
X98454508Y-82358949D01*
X98476662Y-82357365D01*
X98482754Y-82352804D01*
X98490188Y-82351187D01*
X98505889Y-82335485D01*
X98523674Y-82322172D01*
X98526333Y-82315041D01*
X98638044Y-82203329D01*
X98641729Y-82202248D01*
X98653917Y-82188181D01*
X98668815Y-82177029D01*
X98672770Y-82166423D01*
X98680186Y-82157866D01*
X98681797Y-82146659D01*
X98687222Y-82136725D01*
X98686679Y-82129134D01*
X98689338Y-82122006D01*
X98686931Y-82110945D01*
X98688543Y-82099739D01*
X98683839Y-82089439D01*
X98683032Y-82078149D01*
X98678472Y-82072058D01*
X98676855Y-82064623D01*
X98668851Y-82056619D01*
X98664148Y-82046320D01*
X98654622Y-82040198D01*
X98647839Y-82031137D01*
X98640710Y-82028478D01*
X98516011Y-81903778D01*
X98502698Y-81885994D01*
X98481885Y-81878231D01*
X98462394Y-81867588D01*
X98454805Y-81868130D01*
X98447675Y-81865471D01*
X98425971Y-81870192D01*
X98403818Y-81871777D01*
X98397725Y-81876337D01*
X98390292Y-81877955D01*
X98374588Y-81893658D01*
X98356807Y-81906970D01*
X98354147Y-81914099D01*
X98242435Y-82025811D01*
X98238750Y-82026894D01*
X98226562Y-82040959D01*
X98211663Y-82052113D01*
X98207706Y-82062720D01*
X98200293Y-82071276D01*
X98198681Y-82082482D01*
X98193257Y-82092417D01*
X98193799Y-82100005D01*
X98191140Y-82107136D01*
X97090908Y-82107136D01*
X97091972Y-82099739D01*
X97087269Y-82089441D01*
X97086462Y-82078149D01*
X97081901Y-82072056D01*
X97080284Y-82064623D01*
X97072280Y-82056619D01*
X97067577Y-82046320D01*
X97058053Y-82040199D01*
X97051269Y-82031137D01*
X97044138Y-82028477D01*
X96919439Y-81903778D01*
X96906126Y-81885994D01*
X96885313Y-81878231D01*
X96865822Y-81867588D01*
X96858233Y-81868130D01*
X96851103Y-81865471D01*
X96829399Y-81870192D01*
X96807246Y-81871777D01*
X96801153Y-81876337D01*
X96793720Y-81877955D01*
X96778018Y-81893656D01*
X96760234Y-81906970D01*
X96757574Y-81914100D01*
X96645863Y-82025811D01*
X96642178Y-82026894D01*
X96629990Y-82040959D01*
X96615091Y-82052113D01*
X96611134Y-82062720D01*
X96603721Y-82071276D01*
X96602109Y-82082482D01*
X96596685Y-82092417D01*
X96597227Y-82100005D01*
X96594568Y-82107136D01*
X94674971Y-82107136D01*
X94674971Y-79803473D01*
X96449762Y-79803473D01*
X96453382Y-79812201D01*
X96453382Y-80222328D01*
X96450808Y-80246172D01*
X96459946Y-80264448D01*
X96465705Y-80284061D01*
X96472846Y-80290249D01*
X96597689Y-80539934D01*
X96597552Y-80543819D01*
X96610698Y-80565953D01*
X96615513Y-80575582D01*
X96618015Y-80578271D01*
X96627541Y-80594310D01*
X96637623Y-80599351D01*
X96645304Y-80607608D01*
X96663383Y-80612231D01*
X96939269Y-80750174D01*
X96959448Y-80763142D01*
X96979884Y-80763142D01*
X96999999Y-80766762D01*
X97008727Y-80763142D01*
X98599761Y-80763142D01*
X98641729Y-80750819D01*
X98680186Y-80706437D01*
X98688543Y-80648310D01*
X98664148Y-80594891D01*
X98614745Y-80563142D01*
X97012418Y-80563142D01*
X96773060Y-80443463D01*
X96653382Y-80204107D01*
X96653382Y-79815891D01*
X96773060Y-79576534D01*
X97012417Y-79456857D01*
X98599761Y-79456857D01*
X98641729Y-79444534D01*
X98680186Y-79400152D01*
X98688543Y-79342025D01*
X98664148Y-79288606D01*
X98614745Y-79256857D01*
X97012418Y-79256857D01*
X96773060Y-79137178D01*
X96653382Y-78897822D01*
X96653382Y-78509606D01*
X96780710Y-78254950D01*
X96885089Y-78150571D01*
X98599761Y-78150571D01*
X98641729Y-78138248D01*
X98680186Y-78093866D01*
X98688543Y-78035739D01*
X98664148Y-77982320D01*
X98614745Y-77950571D01*
X96861712Y-77950571D01*
X96851103Y-77946614D01*
X96832915Y-77950571D01*
X96539003Y-77950571D01*
X96497035Y-77962894D01*
X96458578Y-78007276D01*
X96450221Y-78065403D01*
X96474616Y-78118822D01*
X96524019Y-78150571D01*
X96609238Y-78150571D01*
X96596685Y-78173560D01*
X96596824Y-78175508D01*
X96466347Y-78436461D01*
X96453382Y-78456636D01*
X96453382Y-78477071D01*
X96449762Y-78497187D01*
X96453382Y-78505915D01*
X96453382Y-78916042D01*
X96450808Y-78939886D01*
X96459946Y-78958162D01*
X96465705Y-78977775D01*
X96472846Y-78983963D01*
X96597689Y-79233648D01*
X96597552Y-79237534D01*
X96610698Y-79259668D01*
X96615513Y-79269297D01*
X96618015Y-79271986D01*
X96627541Y-79288025D01*
X96637623Y-79293066D01*
X96645304Y-79301323D01*
X96663383Y-79305946D01*
X96765204Y-79356856D01*
X96676592Y-79401162D01*
X96672705Y-79401025D01*
X96650554Y-79414181D01*
X96640943Y-79418987D01*
X96638257Y-79421485D01*
X96622214Y-79431014D01*
X96617171Y-79441098D01*
X96608917Y-79448777D01*
X96604294Y-79466852D01*
X96466349Y-79742743D01*
X96453382Y-79762922D01*
X96453382Y-79783357D01*
X96449762Y-79803473D01*
X94674971Y-79803473D01*
X94674971Y-75739473D01*
X96449762Y-75739473D01*
X96453382Y-75748201D01*
X96453382Y-76158328D01*
X96450808Y-76182172D01*
X96459946Y-76200448D01*
X96465705Y-76220061D01*
X96472846Y-76226249D01*
X96603475Y-76487507D01*
X96607052Y-76503948D01*
X96626523Y-76523419D01*
X96645304Y-76543609D01*
X96647197Y-76544093D01*
X96764091Y-76660987D01*
X96772684Y-76675454D01*
X96797316Y-76687770D01*
X96821514Y-76700983D01*
X96823463Y-76700843D01*
X97084413Y-76831317D01*
X97104591Y-76844285D01*
X97125027Y-76844285D01*
X97145142Y-76847905D01*
X97153870Y-76844285D01*
X97999426Y-76844285D01*
X98023269Y-76846859D01*
X98041545Y-76837720D01*
X98061158Y-76831962D01*
X98067345Y-76824820D01*
X98328602Y-76694193D01*
X98345045Y-76690616D01*
X98364524Y-76671136D01*
X98384705Y-76652365D01*
X98385189Y-76650471D01*
X98502084Y-76533576D01*
X98516551Y-76524984D01*
X98528867Y-76500351D01*
X98542080Y-76476154D01*
X98541940Y-76474204D01*
X98672414Y-76213254D01*
X98685382Y-76193077D01*
X98685382Y-76172641D01*
X98689002Y-76152526D01*
X98685382Y-76143797D01*
X98685382Y-75733670D01*
X98687956Y-75709827D01*
X98678817Y-75691550D01*
X98673059Y-75671938D01*
X98665917Y-75665749D01*
X98535290Y-75404494D01*
X98531713Y-75388052D01*
X98512238Y-75368577D01*
X98493462Y-75348391D01*
X98491567Y-75347906D01*
X98374675Y-75231014D01*
X98366082Y-75216546D01*
X98341436Y-75204223D01*
X98317251Y-75191017D01*
X98315302Y-75191156D01*
X98054352Y-75060681D01*
X98034174Y-75047714D01*
X98013738Y-75047714D01*
X97993623Y-75044094D01*
X97984895Y-75047714D01*
X97139339Y-75047714D01*
X97115496Y-75045140D01*
X97097219Y-75054278D01*
X97077607Y-75060037D01*
X97071418Y-75067178D01*
X96810162Y-75197806D01*
X96793720Y-75201384D01*
X96774245Y-75220858D01*
X96754059Y-75239635D01*
X96753574Y-75241529D01*
X96636682Y-75358421D01*
X96622214Y-75367015D01*
X96609890Y-75391662D01*
X96596685Y-75415846D01*
X96596824Y-75417794D01*
X96466347Y-75678747D01*
X96453382Y-75698922D01*
X96453382Y-75719357D01*
X96449762Y-75739473D01*
X94674971Y-75739473D01*
X94674971Y-73856260D01*
X95434221Y-73856260D01*
X95458616Y-73909679D01*
X95508019Y-73941428D01*
X98573650Y-73941428D01*
X98590805Y-73945509D01*
X98616049Y-73936645D01*
X98641729Y-73929105D01*
X98643567Y-73926983D01*
X98646214Y-73926054D01*
X98662652Y-73904957D01*
X98680186Y-73884723D01*
X98680585Y-73881943D01*
X98682309Y-73879732D01*
X98684733Y-73853091D01*
X98688543Y-73826596D01*
X98687377Y-73824043D01*
X98687632Y-73821248D01*
X98675263Y-73797517D01*
X98664148Y-73773177D01*
X98661786Y-73771659D01*
X98660490Y-73769172D01*
X98637265Y-73755900D01*
X98614745Y-73741428D01*
X98611938Y-73741428D01*
X95913938Y-72199714D01*
X98599761Y-72199714D01*
X98641729Y-72187391D01*
X98680186Y-72143009D01*
X98688543Y-72084882D01*
X98664148Y-72031463D01*
X98614745Y-71999714D01*
X95549113Y-71999714D01*
X95531959Y-71995633D01*
X95506703Y-72004499D01*
X95481035Y-72012037D01*
X95479198Y-72014156D01*
X95476549Y-72015087D01*
X95460097Y-72036200D01*
X95442578Y-72056419D01*
X95442178Y-72059196D01*
X95440454Y-72061410D01*
X95438028Y-72088061D01*
X95434221Y-72114546D01*
X95435386Y-72117098D01*
X95435132Y-72119894D01*
X95447500Y-72143624D01*
X95458616Y-72167965D01*
X95460977Y-72169482D01*
X95462274Y-72171970D01*
X95485498Y-72185241D01*
X95508019Y-72199714D01*
X95510826Y-72199714D01*
X98208826Y-73741428D01*
X95523003Y-73741428D01*
X95481035Y-73753751D01*
X95442578Y-73798133D01*
X95434221Y-73856260D01*
X94674971Y-73856260D01*
X94674971Y-70638571D01*
X99693829Y-70638571D01*
X99693829Y-83466115D01*
G37*
D10*
X93737357Y-70897714D02*
X93737357Y-71612000D01*
X94165928Y-70754857D02*
X92665928Y-71254857D01*
X92665928Y-71254857D02*
X94165928Y-71754857D01*
X94165928Y-72969142D02*
X94165928Y-72254856D01*
X94165928Y-72254856D02*
X92665928Y-72254856D01*
X94165928Y-73469142D02*
X92665928Y-73469142D01*
X94165928Y-74183428D02*
X92665928Y-74183428D01*
X92665928Y-74183428D02*
X93737357Y-74683428D01*
X93737357Y-74683428D02*
X92665928Y-75183428D01*
X92665928Y-75183428D02*
X94165928Y-75183428D01*
X93380214Y-75897714D02*
X93380214Y-76397714D01*
X94165928Y-76612000D02*
X94165928Y-75897714D01*
X94165928Y-75897714D02*
X92665928Y-75897714D01*
X92665928Y-75897714D02*
X92665928Y-76612000D01*
X94165928Y-77254857D02*
X92665928Y-77254857D01*
X92665928Y-77254857D02*
X94165928Y-78112000D01*
X94165928Y-78112000D02*
X92665928Y-78112000D01*
X92665928Y-78612001D02*
X92665928Y-79469144D01*
X94165928Y-79040572D02*
X92665928Y-79040572D01*
X93737357Y-79897715D02*
X93737357Y-80612001D01*
X94165928Y-79754858D02*
X92665928Y-80254858D01*
X92665928Y-80254858D02*
X94165928Y-80754858D01*
X92665928Y-81040572D02*
X92665928Y-81897715D01*
X94165928Y-81469143D02*
X92665928Y-81469143D01*
X94165928Y-82397714D02*
X92665928Y-82397714D01*
X92665928Y-83397715D02*
X92665928Y-83683429D01*
X92665928Y-83683429D02*
X92737357Y-83826286D01*
X92737357Y-83826286D02*
X92880214Y-83969143D01*
X92880214Y-83969143D02*
X93165928Y-84040572D01*
X93165928Y-84040572D02*
X93665928Y-84040572D01*
X93665928Y-84040572D02*
X93951642Y-83969143D01*
X93951642Y-83969143D02*
X94094500Y-83826286D01*
X94094500Y-83826286D02*
X94165928Y-83683429D01*
X94165928Y-83683429D02*
X94165928Y-83397715D01*
X94165928Y-83397715D02*
X94094500Y-83254858D01*
X94094500Y-83254858D02*
X93951642Y-83112000D01*
X93951642Y-83112000D02*
X93665928Y-83040572D01*
X93665928Y-83040572D02*
X93165928Y-83040572D01*
X93165928Y-83040572D02*
X92880214Y-83112000D01*
X92880214Y-83112000D02*
X92737357Y-83254858D01*
X92737357Y-83254858D02*
X92665928Y-83397715D01*
X94165928Y-84683429D02*
X92665928Y-84683429D01*
X92665928Y-84683429D02*
X94165928Y-85540572D01*
X94165928Y-85540572D02*
X92665928Y-85540572D01*
X94165928Y-87397715D02*
X92665928Y-87397715D01*
X92665928Y-87397715D02*
X92665928Y-87969144D01*
X92665928Y-87969144D02*
X92737357Y-88112001D01*
X92737357Y-88112001D02*
X92808785Y-88183430D01*
X92808785Y-88183430D02*
X92951642Y-88254858D01*
X92951642Y-88254858D02*
X93165928Y-88254858D01*
X93165928Y-88254858D02*
X93308785Y-88183430D01*
X93308785Y-88183430D02*
X93380214Y-88112001D01*
X93380214Y-88112001D02*
X93451642Y-87969144D01*
X93451642Y-87969144D02*
X93451642Y-87397715D01*
X94165928Y-89754858D02*
X93451642Y-89254858D01*
X94165928Y-88897715D02*
X92665928Y-88897715D01*
X92665928Y-88897715D02*
X92665928Y-89469144D01*
X92665928Y-89469144D02*
X92737357Y-89612001D01*
X92737357Y-89612001D02*
X92808785Y-89683430D01*
X92808785Y-89683430D02*
X92951642Y-89754858D01*
X92951642Y-89754858D02*
X93165928Y-89754858D01*
X93165928Y-89754858D02*
X93308785Y-89683430D01*
X93308785Y-89683430D02*
X93380214Y-89612001D01*
X93380214Y-89612001D02*
X93451642Y-89469144D01*
X93451642Y-89469144D02*
X93451642Y-88897715D01*
X92665928Y-90683430D02*
X92665928Y-90969144D01*
X92665928Y-90969144D02*
X92737357Y-91112001D01*
X92737357Y-91112001D02*
X92880214Y-91254858D01*
X92880214Y-91254858D02*
X93165928Y-91326287D01*
X93165928Y-91326287D02*
X93665928Y-91326287D01*
X93665928Y-91326287D02*
X93951642Y-91254858D01*
X93951642Y-91254858D02*
X94094500Y-91112001D01*
X94094500Y-91112001D02*
X94165928Y-90969144D01*
X94165928Y-90969144D02*
X94165928Y-90683430D01*
X94165928Y-90683430D02*
X94094500Y-90540573D01*
X94094500Y-90540573D02*
X93951642Y-90397715D01*
X93951642Y-90397715D02*
X93665928Y-90326287D01*
X93665928Y-90326287D02*
X93165928Y-90326287D01*
X93165928Y-90326287D02*
X92880214Y-90397715D01*
X92880214Y-90397715D02*
X92737357Y-90540573D01*
X92737357Y-90540573D02*
X92665928Y-90683430D01*
X92665928Y-91754859D02*
X92665928Y-92612002D01*
X94165928Y-92183430D02*
X92665928Y-92183430D01*
X92665928Y-93397716D02*
X92665928Y-93683430D01*
X92665928Y-93683430D02*
X92737357Y-93826287D01*
X92737357Y-93826287D02*
X92880214Y-93969144D01*
X92880214Y-93969144D02*
X93165928Y-94040573D01*
X93165928Y-94040573D02*
X93665928Y-94040573D01*
X93665928Y-94040573D02*
X93951642Y-93969144D01*
X93951642Y-93969144D02*
X94094500Y-93826287D01*
X94094500Y-93826287D02*
X94165928Y-93683430D01*
X94165928Y-93683430D02*
X94165928Y-93397716D01*
X94165928Y-93397716D02*
X94094500Y-93254859D01*
X94094500Y-93254859D02*
X93951642Y-93112001D01*
X93951642Y-93112001D02*
X93665928Y-93040573D01*
X93665928Y-93040573D02*
X93165928Y-93040573D01*
X93165928Y-93040573D02*
X92880214Y-93112001D01*
X92880214Y-93112001D02*
X92737357Y-93254859D01*
X92737357Y-93254859D02*
X92665928Y-93397716D01*
X92665928Y-94469145D02*
X92665928Y-95326288D01*
X94165928Y-94897716D02*
X92665928Y-94897716D01*
X93451642Y-96112002D02*
X94165928Y-96112002D01*
X92665928Y-95612002D02*
X93451642Y-96112002D01*
X93451642Y-96112002D02*
X92665928Y-96612002D01*
X94165928Y-97112001D02*
X92665928Y-97112001D01*
X92665928Y-97112001D02*
X92665928Y-97683430D01*
X92665928Y-97683430D02*
X92737357Y-97826287D01*
X92737357Y-97826287D02*
X92808785Y-97897716D01*
X92808785Y-97897716D02*
X92951642Y-97969144D01*
X92951642Y-97969144D02*
X93165928Y-97969144D01*
X93165928Y-97969144D02*
X93308785Y-97897716D01*
X93308785Y-97897716D02*
X93380214Y-97826287D01*
X93380214Y-97826287D02*
X93451642Y-97683430D01*
X93451642Y-97683430D02*
X93451642Y-97112001D01*
X93737357Y-98540573D02*
X93737357Y-99254859D01*
X94165928Y-98397716D02*
X92665928Y-98897716D01*
X92665928Y-98897716D02*
X94165928Y-99397716D01*
X92737357Y-100683430D02*
X92665928Y-100540573D01*
X92665928Y-100540573D02*
X92665928Y-100326287D01*
X92665928Y-100326287D02*
X92737357Y-100112001D01*
X92737357Y-100112001D02*
X92880214Y-99969144D01*
X92880214Y-99969144D02*
X93023071Y-99897715D01*
X93023071Y-99897715D02*
X93308785Y-99826287D01*
X93308785Y-99826287D02*
X93523071Y-99826287D01*
X93523071Y-99826287D02*
X93808785Y-99897715D01*
X93808785Y-99897715D02*
X93951642Y-99969144D01*
X93951642Y-99969144D02*
X94094500Y-100112001D01*
X94094500Y-100112001D02*
X94165928Y-100326287D01*
X94165928Y-100326287D02*
X94165928Y-100469144D01*
X94165928Y-100469144D02*
X94094500Y-100683430D01*
X94094500Y-100683430D02*
X94023071Y-100754858D01*
X94023071Y-100754858D02*
X93523071Y-100754858D01*
X93523071Y-100754858D02*
X93523071Y-100469144D01*
X93380214Y-101397715D02*
X93380214Y-101897715D01*
X94165928Y-102112001D02*
X94165928Y-101397715D01*
X94165928Y-101397715D02*
X92665928Y-101397715D01*
X92665928Y-101397715D02*
X92665928Y-102112001D01*
D12*
%TO.C,J3*%
X143741733Y-113718619D02*
X143741733Y-114432904D01*
X143741733Y-114432904D02*
X143789352Y-114575761D01*
X143789352Y-114575761D02*
X143884590Y-114671000D01*
X143884590Y-114671000D02*
X144027447Y-114718619D01*
X144027447Y-114718619D02*
X144122685Y-114718619D01*
X143360780Y-113718619D02*
X142741733Y-113718619D01*
X142741733Y-113718619D02*
X143075066Y-114099571D01*
X143075066Y-114099571D02*
X142932209Y-114099571D01*
X142932209Y-114099571D02*
X142836971Y-114147190D01*
X142836971Y-114147190D02*
X142789352Y-114194809D01*
X142789352Y-114194809D02*
X142741733Y-114290047D01*
X142741733Y-114290047D02*
X142741733Y-114528142D01*
X142741733Y-114528142D02*
X142789352Y-114623380D01*
X142789352Y-114623380D02*
X142836971Y-114671000D01*
X142836971Y-114671000D02*
X142932209Y-114718619D01*
X142932209Y-114718619D02*
X143217923Y-114718619D01*
X143217923Y-114718619D02*
X143313161Y-114671000D01*
X143313161Y-114671000D02*
X143360780Y-114623380D01*
%TO.C,J2*%
X143741733Y-67998619D02*
X143741733Y-68712904D01*
X143741733Y-68712904D02*
X143789352Y-68855761D01*
X143789352Y-68855761D02*
X143884590Y-68951000D01*
X143884590Y-68951000D02*
X144027447Y-68998619D01*
X144027447Y-68998619D02*
X144122685Y-68998619D01*
X143313161Y-68093857D02*
X143265542Y-68046238D01*
X143265542Y-68046238D02*
X143170304Y-67998619D01*
X143170304Y-67998619D02*
X142932209Y-67998619D01*
X142932209Y-67998619D02*
X142836971Y-68046238D01*
X142836971Y-68046238D02*
X142789352Y-68093857D01*
X142789352Y-68093857D02*
X142741733Y-68189095D01*
X142741733Y-68189095D02*
X142741733Y-68284333D01*
X142741733Y-68284333D02*
X142789352Y-68427190D01*
X142789352Y-68427190D02*
X143360780Y-68998619D01*
X143360780Y-68998619D02*
X142741733Y-68998619D01*
D13*
%TO.C,J3*%
X146008400Y-117856000D02*
X146008400Y-120456000D01*
X146008400Y-117856000D02*
X143408400Y-117856000D01*
X143408400Y-115256000D02*
X140808400Y-115256000D01*
X143408400Y-117856000D02*
X143408400Y-115256000D01*
X146008400Y-115256000D02*
X144678400Y-115256000D01*
X146008400Y-120456000D02*
X140808400Y-120456000D01*
X140808400Y-115256000D02*
X140808400Y-120456000D01*
X146008400Y-116586000D02*
X146008400Y-115256000D01*
%TO.C,J2*%
X146008400Y-72136000D02*
X146008400Y-74736000D01*
X146008400Y-72136000D02*
X143408400Y-72136000D01*
X143408400Y-69536000D02*
X140808400Y-69536000D01*
X143408400Y-72136000D02*
X143408400Y-69536000D01*
X146008400Y-69536000D02*
X144678400Y-69536000D01*
X146008400Y-74736000D02*
X140808400Y-74736000D01*
X140808400Y-69536000D02*
X140808400Y-74736000D01*
X146008400Y-70866000D02*
X146008400Y-69536000D01*
%TD*%
G36*
X99663439Y-70631685D02*
G01*
X99709194Y-70684489D01*
X99720400Y-70736000D01*
X99720400Y-122050000D01*
X99700715Y-122117039D01*
X99647911Y-122162794D01*
X99596400Y-122174000D01*
X94866000Y-122174000D01*
X94798961Y-122154315D01*
X94753206Y-122101511D01*
X94742000Y-122050000D01*
X94742000Y-83232506D01*
X94761685Y-83165467D01*
X94814489Y-83119712D01*
X94883647Y-83109768D01*
X94947203Y-83138793D01*
X94953681Y-83144825D01*
X94974971Y-83166115D01*
X99393828Y-83166115D01*
X99393829Y-70938571D01*
X94974971Y-70938571D01*
X94953681Y-70959861D01*
X94892358Y-70993346D01*
X94822666Y-70988362D01*
X94766733Y-70946490D01*
X94742316Y-70881026D01*
X94742000Y-70872180D01*
X94742000Y-70736000D01*
X94761685Y-70668961D01*
X94814489Y-70623206D01*
X94866000Y-70612000D01*
X99596400Y-70612000D01*
X99663439Y-70631685D01*
G37*
M02*
