%TF.GenerationSoftware,KiCad,Pcbnew,7.0.2*%
%TF.CreationDate,2023-05-16T16:52:15-04:00*%
%TF.ProjectId,breadboard_psu,62726561-6462-46f6-9172-645f7073752e,A*%
%TF.SameCoordinates,Original*%
%TF.FileFunction,Soldermask,Bot*%
%TF.FilePolarity,Negative*%
%FSLAX46Y46*%
G04 Gerber Fmt 4.6, Leading zero omitted, Abs format (unit mm)*
G04 Created by KiCad (PCBNEW 7.0.2) date 2023-05-16 16:52:15*
%MOMM*%
%LPD*%
G01*
G04 APERTURE LIST*
G04 Aperture macros list*
%AMRoundRect*
0 Rectangle with rounded corners*
0 $1 Rounding radius*
0 $2 $3 $4 $5 $6 $7 $8 $9 X,Y pos of 4 corners*
0 Add a 4 corners polygon primitive as box body*
4,1,4,$2,$3,$4,$5,$6,$7,$8,$9,$2,$3,0*
0 Add four circle primitives for the rounded corners*
1,1,$1+$1,$2,$3*
1,1,$1+$1,$4,$5*
1,1,$1+$1,$6,$7*
1,1,$1+$1,$8,$9*
0 Add four rect primitives between the rounded corners*
20,1,$1+$1,$2,$3,$4,$5,0*
20,1,$1+$1,$4,$5,$6,$7,0*
20,1,$1+$1,$6,$7,$8,$9,0*
20,1,$1+$1,$8,$9,$2,$3,0*%
G04 Aperture macros list end*
%ADD10R,1.700000X1.700000*%
%ADD11O,1.700000X1.700000*%
%ADD12C,2.900000*%
%ADD13C,5.000000*%
%ADD14R,2.000000X4.500000*%
%ADD15RoundRect,1.000000X0.000000X-1.250000X0.000000X-1.250000X0.000000X1.250000X0.000000X1.250000X0*%
%ADD16RoundRect,1.000000X-1.000000X0.000000X1.000000X0.000000X1.000000X0.000000X-1.000000X0.000000X0*%
%ADD17C,5.500000*%
%ADD18C,1.600000*%
%ADD19O,1.600000X1.600000*%
G04 APERTURE END LIST*
D10*
%TO.C,J3*%
X144678400Y-116586000D03*
D11*
X142138400Y-116586000D03*
X144678400Y-119126000D03*
X142138400Y-119126000D03*
%TD*%
D10*
%TO.C,J2*%
X144678400Y-70866000D03*
D11*
X142138400Y-70866000D03*
X144678400Y-73406000D03*
X142138400Y-73406000D03*
%TD*%
D10*
%TO.C,D2*%
X132553400Y-105918000D03*
D11*
X130013400Y-105918000D03*
%TD*%
D12*
%TO.C,H4*%
X132334000Y-126492000D03*
D13*
X132334000Y-126492000D03*
%TD*%
D14*
%TO.C,J1*%
X106124000Y-77342000D03*
D15*
X100124000Y-77342000D03*
D16*
X103124000Y-82042000D03*
%TD*%
D11*
%TO.C,U1*%
X131382000Y-91694000D03*
X114722000Y-89154000D03*
X114722000Y-91694000D03*
X114722000Y-94234000D03*
D17*
X131486000Y-91694000D03*
%TD*%
D11*
%TO.C,H1*%
X95885000Y-63500000D03*
D13*
X95885000Y-63500000D03*
%TD*%
D18*
%TO.C,R1*%
X115824000Y-105918000D03*
D19*
X125984000Y-105918000D03*
%TD*%
D11*
%TO.C,R4*%
X118110000Y-72136000D03*
X118110000Y-82296000D03*
%TD*%
%TO.C,H3*%
X132334000Y-63500000D03*
D13*
X132334000Y-63500000D03*
%TD*%
D10*
%TO.C,SW2*%
X125730000Y-67310000D03*
D11*
X123190000Y-67310000D03*
X120650000Y-67310000D03*
%TD*%
D10*
%TO.C,D1*%
X111506000Y-82804000D03*
D11*
X111506000Y-72644000D03*
%TD*%
D10*
%TO.C,C1*%
X115759113Y-99822000D03*
D11*
X113259113Y-99822000D03*
%TD*%
%TO.C,R3*%
X123190000Y-82296000D03*
X123190000Y-72136000D03*
%TD*%
%TO.C,R2*%
X128270000Y-72136000D03*
X128270000Y-82296000D03*
%TD*%
D12*
%TO.C,H2*%
X95885000Y-126492000D03*
D13*
X95885000Y-126492000D03*
%TD*%
D11*
%TO.C,C2*%
X119054113Y-99822000D03*
X126554113Y-99822000D03*
%TD*%
D10*
%TO.C,J5*%
X104292400Y-116332000D03*
D11*
X104292400Y-118872000D03*
%TD*%
D10*
%TO.C,SW1*%
X105410000Y-67310000D03*
D11*
X107950000Y-67310000D03*
X110490000Y-67310000D03*
%TD*%
%TO.C,J4*%
X118110000Y-118872000D03*
X118110000Y-116332000D03*
X120650000Y-118872000D03*
X120650000Y-116332000D03*
X123190000Y-118872000D03*
X123190000Y-116332000D03*
X125730000Y-118872000D03*
D10*
X125730000Y-116332000D03*
%TD*%
%TO.C,C3*%
X109220000Y-94146380D03*
D11*
X109220000Y-91646380D03*
%TD*%
M02*
